%TF.GenerationSoftware,KiCad,Pcbnew,(6.0.5)*%
%TF.CreationDate,2022-06-06T22:05:02-07:00*%
%TF.ProjectId,diva-card,64697661-2d63-4617-9264-2e6b69636164,rev?*%
%TF.SameCoordinates,Original*%
%TF.FileFunction,Copper,L2,Bot*%
%TF.FilePolarity,Positive*%
%FSLAX46Y46*%
G04 Gerber Fmt 4.6, Leading zero omitted, Abs format (unit mm)*
G04 Created by KiCad (PCBNEW (6.0.5)) date 2022-06-06 22:05:02*
%MOMM*%
%LPD*%
G01*
G04 APERTURE LIST*
%TA.AperFunction,ConnectorPad*%
%ADD10R,10.000000X5.000000*%
%TD*%
%TA.AperFunction,ConnectorPad*%
%ADD11R,10.000000X1.000000*%
%TD*%
%TA.AperFunction,ConnectorPad*%
%ADD12R,10.000000X3.000000*%
%TD*%
%TA.AperFunction,ComponentPad*%
%ADD13O,0.900000X1.700000*%
%TD*%
%TA.AperFunction,ComponentPad*%
%ADD14O,0.900000X2.000000*%
%TD*%
%TA.AperFunction,ComponentPad*%
%ADD15C,0.600000*%
%TD*%
%TA.AperFunction,ViaPad*%
%ADD16C,0.700000*%
%TD*%
%TA.AperFunction,Conductor*%
%ADD17C,0.500000*%
%TD*%
%TA.AperFunction,Conductor*%
%ADD18C,0.200000*%
%TD*%
%TA.AperFunction,Conductor*%
%ADD19C,0.300000*%
%TD*%
G04 APERTURE END LIST*
D10*
%TO.P,J3,2,Pin_2*%
%TO.N,GND*%
X143280000Y-64370000D03*
D11*
%TO.P,J3,4,Pin_4*%
%TO.N,/connectors/USER_IO_0*%
X143280000Y-67870000D03*
%TO.P,J3,6,Pin_6*%
%TO.N,/connectors/USER_IO_1*%
X143280000Y-69370000D03*
%TO.P,J3,8,Pin_8*%
%TO.N,/connectors/USER_IO_2*%
X143280000Y-70870000D03*
%TO.P,J3,10,Pin_10*%
%TO.N,/connectors/USER_IO_3*%
X143280000Y-72370000D03*
%TO.P,J3,12,Pin_12*%
%TO.N,/connectors/USER_IO_4*%
X143280000Y-73870000D03*
D10*
%TO.P,J3,14,Pin_14*%
%TO.N,+3V3*%
X143280000Y-77370000D03*
D11*
%TO.P,J3,16,Pin_16*%
%TO.N,/connectors/USER_IO_5*%
X143280000Y-80870000D03*
%TO.P,J3,18,Pin_18*%
%TO.N,/connectors/USER_IO_6*%
X143280000Y-82370000D03*
%TO.P,J3,20,Pin_20*%
%TO.N,/connectors/USER_IO_7*%
X143280000Y-83870000D03*
%TO.P,J3,22,Pin_22*%
%TO.N,/connectors/USER_IO_8*%
X143280000Y-85370000D03*
D10*
%TO.P,J3,24,Pin_24*%
%TO.N,GND*%
X143280000Y-88870000D03*
D11*
%TO.P,J3,26,Pin_26*%
%TO.N,/connectors/USER_IO_9*%
X143280000Y-92370000D03*
%TO.P,J3,28,Pin_28*%
%TO.N,/connectors/USER_IO_10*%
X143280000Y-93870000D03*
%TO.P,J3,30,Pin_30*%
%TO.N,/connectors/USER_IO_11*%
X143280000Y-95370000D03*
%TO.P,J3,32,Pin_32*%
%TO.N,/connectors/USER_IO_12*%
X143280000Y-96870000D03*
D10*
%TO.P,J3,34,Pin_34*%
%TO.N,+3V3*%
X143280000Y-100370000D03*
D11*
%TO.P,J3,36,Pin_36*%
%TO.N,/connectors/USB_D+*%
X143280000Y-103870000D03*
%TO.P,J3,38,Pin_38*%
%TO.N,/connectors/USB_D-*%
X143280000Y-105370000D03*
D12*
%TO.P,J3,40,Pin_40*%
%TO.N,+5V*%
X143280000Y-107870000D03*
%TO.P,J3,42,Pin_42*%
%TO.N,GND*%
X143280000Y-111370000D03*
%TD*%
D13*
%TO.P,J2,S1,SHIELD*%
%TO.N,GND*%
X76280000Y-111765000D03*
X84920000Y-111765000D03*
D14*
X84920000Y-107595000D03*
X76280000Y-107595000D03*
%TD*%
D15*
%TO.P,U4,57,GND*%
%TO.N,GND*%
X90817500Y-83890000D03*
X92092500Y-82615000D03*
X93367500Y-82615000D03*
X93367500Y-85165000D03*
X92092500Y-83890000D03*
X93367500Y-83890000D03*
X90817500Y-85165000D03*
X92092500Y-85165000D03*
X90817500Y-82615000D03*
%TD*%
D16*
%TO.N,GND*%
X79350000Y-99270000D03*
X97590000Y-72870000D03*
X71055659Y-67462600D03*
X92475000Y-71200000D03*
X114372859Y-86093545D03*
X117863000Y-81518000D03*
X121412500Y-90768000D03*
X117863000Y-86168000D03*
X85675000Y-83800000D03*
X111463000Y-69868000D03*
X114201000Y-104782000D03*
X74800000Y-95145000D03*
X98630000Y-87120000D03*
X71550000Y-80100000D03*
X124872859Y-72193545D03*
X137300000Y-112050000D03*
X125463000Y-69868000D03*
X111413000Y-97718000D03*
X137300000Y-65018000D03*
X114363000Y-76868000D03*
X106631200Y-98600000D03*
X117872859Y-72193545D03*
X71550000Y-73970000D03*
X124913000Y-100068000D03*
X98600000Y-83880011D03*
X111463000Y-83768000D03*
X102330000Y-79230980D03*
X86000000Y-90250000D03*
X124863000Y-86068000D03*
X124863000Y-90768000D03*
X65908059Y-64900600D03*
X114363000Y-81518000D03*
X128338000Y-104793000D03*
X114413000Y-95468000D03*
X121412500Y-72218000D03*
X111463000Y-74518000D03*
X117863000Y-100068000D03*
X121313000Y-104782000D03*
X117863000Y-95418000D03*
X124869000Y-104782000D03*
X117757000Y-104782000D03*
X114363000Y-90818000D03*
X117863000Y-90768000D03*
X137270000Y-88870000D03*
X117863000Y-76868000D03*
X77419200Y-105511600D03*
X137300000Y-110678400D03*
X101925000Y-94260500D03*
X73275000Y-97350000D03*
X137300000Y-63646400D03*
X118463000Y-69868000D03*
X73125000Y-100100000D03*
X91700000Y-74360000D03*
X86400000Y-85600000D03*
X108760000Y-88050000D03*
X121963000Y-69868000D03*
X121412500Y-76868000D03*
X134250000Y-88850000D03*
X111413000Y-102368000D03*
X121412500Y-81518000D03*
X111463000Y-93068000D03*
X124863000Y-81518000D03*
X114963000Y-69868000D03*
X124863000Y-95418000D03*
X114363000Y-100068000D03*
X96575000Y-92675000D03*
X111463000Y-79168000D03*
X124863000Y-76868000D03*
X83769200Y-104343200D03*
X121412500Y-86118000D03*
X137300000Y-66389600D03*
X137300000Y-62274800D03*
X111463000Y-88418000D03*
X121412500Y-100118000D03*
X78150000Y-101500000D03*
X114363000Y-72218000D03*
X121412500Y-95418000D03*
%TO.N,+3V3*%
X137345000Y-100370000D03*
X89600020Y-66775000D03*
X82150000Y-98575000D03*
X96800000Y-88350000D03*
X94485461Y-91874705D03*
X93200000Y-77150000D03*
X99650000Y-77150000D03*
X91298539Y-66770000D03*
X97550000Y-83925000D03*
X96675000Y-109276940D03*
X106100000Y-86477570D03*
X137300000Y-77350000D03*
X133150000Y-76475000D03*
X106100000Y-84679050D03*
%TO.N,+1V1*%
X91500000Y-81650000D03*
X92294697Y-86200011D03*
%TO.N,/connectors/~{RESET}*%
X72325000Y-67450000D03*
X85850000Y-76275000D03*
%TO.N,/connectors/USB_D+*%
X137300000Y-104150000D03*
X91104300Y-92440107D03*
%TO.N,/connectors/USB_D-*%
X90054300Y-92440107D03*
X137300000Y-105200000D03*
%TO.N,/connectors/USER_IO_0*%
X109800500Y-85500000D03*
X137300000Y-67800000D03*
%TO.N,/connectors/USER_IO_1*%
X137299019Y-69303308D03*
X109800500Y-84500497D03*
%TO.N,/connectors/USER_IO_2*%
X101033114Y-79841886D03*
X137305000Y-70870000D03*
X101050000Y-78250000D03*
%TO.N,/connectors/USER_IO_3*%
X137300000Y-72370000D03*
%TO.N,/connectors/USER_IO_4*%
X110876888Y-64125000D03*
X137300000Y-73875000D03*
X88281509Y-78326230D03*
%TO.N,/connectors/USER_IO_5*%
X137249500Y-80805701D03*
X88257983Y-79225425D03*
X111892925Y-64125000D03*
%TO.N,/connectors/USER_IO_6*%
X88247315Y-80132794D03*
X137270000Y-82370000D03*
X112908962Y-64125000D03*
%TO.N,/connectors/USER_IO_7*%
X113925000Y-64125000D03*
X87085239Y-79889761D03*
X137300000Y-83900000D03*
%TO.N,Net-(L8-Pad1)*%
X113663000Y-68768000D03*
X113663000Y-103468000D03*
%TO.N,Net-(L16-Pad1)*%
X117163000Y-103468000D03*
X117163000Y-68768000D03*
%TO.N,Net-(L24-Pad1)*%
X120713000Y-103468000D03*
X120713000Y-68768000D03*
%TO.N,Net-(L32-Pad1)*%
X124163000Y-103468000D03*
X124163000Y-68768000D03*
%TO.N,/peripherals/~{USB_BOOT}*%
X100600000Y-87350000D03*
X74850000Y-76350000D03*
%TO.N,/connectors/USER_IO_8*%
X90731392Y-109040526D03*
X132800000Y-102249280D03*
X137300000Y-85350000D03*
X86600000Y-81275020D03*
%TO.N,/connectors/USER_IO_9*%
X132800000Y-103148783D03*
X137300000Y-92400000D03*
X90731514Y-109958936D03*
X85893232Y-81981762D03*
%TO.N,/~{USER_SW0}*%
X99860000Y-81290000D03*
X89325000Y-64836289D03*
%TO.N,/connectors/USER_IO_10*%
X137300000Y-93850000D03*
X89943000Y-83900718D03*
X132800000Y-104048286D03*
X90739920Y-111760076D03*
%TO.N,/connectors/USER_IO_11*%
X90756469Y-110858092D03*
X137300000Y-95350000D03*
X132800000Y-105047789D03*
X87400000Y-83675000D03*
%TO.N,/connectors/USER_IO_12*%
X137300000Y-96850000D03*
X89999500Y-85675000D03*
%TO.N,/USER_LED*%
X100950000Y-98600000D03*
X93800000Y-86125000D03*
%TO.N,+5V*%
X112425000Y-107450000D03*
X112450000Y-111774500D03*
X137280000Y-107870000D03*
%TD*%
D17*
%TO.N,GND*%
X143280000Y-88870000D02*
X137270000Y-88870000D01*
%TO.N,+3V3*%
X136425000Y-76475000D02*
X137300000Y-77350000D01*
X90400000Y-112575000D02*
X85819520Y-107994520D01*
D18*
X94485461Y-90664539D02*
X96800000Y-88350000D01*
D17*
X96675000Y-109276940D02*
X95950000Y-110001940D01*
D18*
X94485461Y-91874705D02*
X94485461Y-90664539D01*
D17*
X95950000Y-110001940D02*
X95950000Y-112425000D01*
X99650000Y-77150000D02*
X97450000Y-77150000D01*
X105452377Y-87327081D02*
X106100000Y-86679458D01*
X102577081Y-87327081D02*
X105452377Y-87327081D01*
X95950000Y-112425000D02*
X95800000Y-112575000D01*
X98248120Y-84729522D02*
X97550000Y-84031402D01*
X98248120Y-84729522D02*
X99979522Y-84729522D01*
X137320000Y-77370000D02*
X143280000Y-77370000D01*
X95800000Y-112575000D02*
X90400000Y-112575000D01*
X99979522Y-84729522D02*
X102577081Y-87327081D01*
X85819520Y-107994520D02*
X85819520Y-102244520D01*
X91293539Y-66775000D02*
X91298539Y-66770000D01*
X106100000Y-86477570D02*
X106100000Y-84679050D01*
X97550000Y-83925000D02*
X97550000Y-77250000D01*
X89600020Y-66775000D02*
X91293539Y-66775000D01*
X133150000Y-76475000D02*
X136425000Y-76475000D01*
X97450000Y-77150000D02*
X93200000Y-77150000D01*
X97550000Y-84031402D02*
X97550000Y-83925000D01*
X143280000Y-100370000D02*
X137345000Y-100370000D01*
X106100000Y-86679458D02*
X106100000Y-86477570D01*
X85819520Y-102244520D02*
X82150000Y-98575000D01*
X137300000Y-77350000D02*
X137320000Y-77370000D01*
D18*
%TO.N,+1V1*%
X91492989Y-81657011D02*
X91500000Y-81650000D01*
X91492989Y-85842989D02*
X91492989Y-81657011D01*
X92294697Y-86200011D02*
X91850011Y-86200011D01*
X91850011Y-86200011D02*
X91492989Y-85842989D01*
%TO.N,/connectors/~{RESET}*%
X76025480Y-75600480D02*
X74400480Y-75600480D01*
X85850000Y-76275000D02*
X76700000Y-76275000D01*
X73875000Y-75075000D02*
X73875000Y-69000000D01*
X74400480Y-75600480D02*
X73875000Y-75075000D01*
X76700000Y-76275000D02*
X76025480Y-75600480D01*
X73875000Y-69000000D02*
X72325000Y-67450000D01*
%TO.N,/connectors/USB_D+*%
X137300000Y-104150000D02*
X137580000Y-103870000D01*
X137580000Y-103870000D02*
X143280000Y-103870000D01*
X91104300Y-92440107D02*
X91104300Y-92853710D01*
X91104300Y-92853710D02*
X104397398Y-106146808D01*
X135219272Y-104449999D02*
X137000001Y-104449999D01*
X137000001Y-104449999D02*
X137300000Y-104150000D01*
X133522463Y-106146808D02*
X135219272Y-104449999D01*
X104397398Y-106146808D02*
X133522463Y-106146808D01*
%TO.N,/connectors/USB_D-*%
X104210992Y-106596799D02*
X133708856Y-106596799D01*
X137470000Y-105370000D02*
X143280000Y-105370000D01*
X137000001Y-104900001D02*
X137300000Y-105200000D01*
X135405654Y-104900001D02*
X137000001Y-104900001D01*
X137300000Y-105200000D02*
X137470000Y-105370000D01*
X133708856Y-106596799D02*
X135405654Y-104900001D01*
X90054300Y-92440107D02*
X104210992Y-106596799D01*
%TO.N,/connectors/USER_IO_0*%
X136850000Y-67350000D02*
X137300000Y-67800000D01*
X110050481Y-67934513D02*
X110634994Y-67350000D01*
X109100989Y-84800489D02*
X109100989Y-84210749D01*
X110050481Y-83685510D02*
X110050481Y-67934513D01*
X109935005Y-83800986D02*
X110050481Y-83685510D01*
X109100989Y-84210749D02*
X109510752Y-83800986D01*
X109510752Y-83800986D02*
X109935005Y-83800986D01*
X110634994Y-67350000D02*
X136850000Y-67350000D01*
X137300000Y-67800000D02*
X137370000Y-67870000D01*
X109800500Y-85500000D02*
X109100989Y-84800489D01*
X137370000Y-67870000D02*
X143280000Y-67870000D01*
%TO.N,/connectors/USER_IO_1*%
X109800500Y-84500497D02*
X110449999Y-83850998D01*
X137365711Y-69370000D02*
X137299019Y-69303308D01*
X143280000Y-69370000D02*
X137365711Y-69370000D01*
X135745232Y-67749520D02*
X137299019Y-69303308D01*
X110450000Y-68200000D02*
X110900000Y-67750000D01*
X110900000Y-67750000D02*
X113762452Y-67750000D01*
X110449999Y-83850998D02*
X110450000Y-68200000D01*
X113762932Y-67749520D02*
X135745232Y-67749520D01*
%TO.N,/connectors/USER_IO_2*%
X101033114Y-79841886D02*
X101050000Y-79825000D01*
X143280000Y-70870000D02*
X137305000Y-70870000D01*
X101050000Y-79825000D02*
X101050000Y-78250000D01*
%TO.N,/connectors/USER_IO_3*%
X143280000Y-72370000D02*
X137300000Y-72370000D01*
%TO.N,/connectors/USER_IO_4*%
X88431452Y-63498560D02*
X110250448Y-63498560D01*
X87825000Y-64105012D02*
X88431452Y-63498560D01*
X110250448Y-63498560D02*
X110876888Y-64125000D01*
X137305000Y-73870000D02*
X143280000Y-73870000D01*
X87923794Y-78326230D02*
X87825000Y-78227436D01*
X137300000Y-73875000D02*
X137305000Y-73870000D01*
X87825000Y-78227436D02*
X87825000Y-64105012D01*
X88281509Y-78326230D02*
X87923794Y-78326230D01*
%TO.N,/connectors/USER_IO_5*%
X110866965Y-63099040D02*
X111892925Y-64125000D01*
X87375000Y-78342442D02*
X87375000Y-63990006D01*
X137249500Y-80805701D02*
X137313799Y-80870000D01*
X88257983Y-79225425D02*
X87375000Y-78342442D01*
X137313799Y-80870000D02*
X143280000Y-80870000D01*
X88265966Y-63099040D02*
X110866965Y-63099040D01*
X87375000Y-63990006D02*
X88265966Y-63099040D01*
%TO.N,/connectors/USER_IO_6*%
X88247315Y-80132794D02*
X87989457Y-79874936D01*
X111483482Y-62699520D02*
X112908962Y-64125000D01*
X86975480Y-78861470D02*
X86975480Y-63824520D01*
X86975480Y-63824520D02*
X88100480Y-62699520D01*
X143280000Y-82370000D02*
X137270000Y-82370000D01*
X87989457Y-79874936D02*
X87988946Y-79874936D01*
X87988946Y-79874936D02*
X86975480Y-78861470D01*
X88100480Y-62699520D02*
X111483482Y-62699520D01*
%TO.N,/connectors/USER_IO_7*%
X112100000Y-62300000D02*
X113925000Y-64125000D01*
X87085239Y-79889761D02*
X86575961Y-79380483D01*
X137330000Y-83870000D02*
X143280000Y-83870000D01*
X86575961Y-79380483D02*
X86575961Y-63659033D01*
X87934994Y-62300000D02*
X112100000Y-62300000D01*
X86575961Y-63659033D02*
X87934994Y-62300000D01*
X137300000Y-83900000D02*
X137330000Y-83870000D01*
D19*
%TO.N,Net-(L8-Pad1)*%
X113663000Y-68768000D02*
X113663000Y-103468000D01*
%TO.N,Net-(L16-Pad1)*%
X117163000Y-68768000D02*
X117163000Y-103468000D01*
%TO.N,Net-(L24-Pad1)*%
X120713000Y-68768000D02*
X120713000Y-103468000D01*
%TO.N,Net-(L32-Pad1)*%
X124163000Y-68768000D02*
X124163000Y-103468000D01*
D18*
%TO.N,/peripherals/~{USB_BOOT}*%
X94025000Y-85425000D02*
X94350480Y-85750480D01*
X94350480Y-85750480D02*
X99000480Y-85750480D01*
X87276930Y-81000000D02*
X92600338Y-81000000D01*
X74850000Y-76350000D02*
X75200000Y-76000000D01*
X83799782Y-76674520D02*
X86176441Y-79051179D01*
X99000480Y-85750480D02*
X100600000Y-87350000D01*
X92600338Y-81000000D02*
X94025000Y-82424662D01*
X94025000Y-82424662D02*
X94025000Y-85425000D01*
X76534513Y-76674519D02*
X83799782Y-76674520D01*
X75200000Y-76000000D02*
X75859994Y-76000000D01*
X86176441Y-79899511D02*
X87276930Y-81000000D01*
X86176441Y-79051179D02*
X86176441Y-79899511D01*
X75859994Y-76000000D02*
X76534513Y-76674519D01*
%TO.N,/connectors/USER_IO_8*%
X84809974Y-81275020D02*
X86600000Y-81275020D01*
X137320000Y-85370000D02*
X137300000Y-85350000D01*
X135900000Y-92009994D02*
X135900000Y-86750000D01*
X83925000Y-97294988D02*
X83925000Y-82159994D01*
X133575720Y-102249280D02*
X133901440Y-101923560D01*
X132800000Y-102249280D02*
X133575720Y-102249280D01*
X91000480Y-108771438D02*
X91000480Y-106415486D01*
X83641619Y-97578369D02*
X83925000Y-97294988D01*
X83641620Y-99056626D02*
X83641619Y-97578369D01*
X83925000Y-82159994D02*
X84809974Y-81275020D01*
X91000480Y-106415486D02*
X83641620Y-99056626D01*
X133901440Y-94008554D02*
X135900000Y-92009994D01*
X133901440Y-101923560D02*
X133901440Y-94008554D01*
X143280000Y-85370000D02*
X137320000Y-85370000D01*
X135900000Y-86750000D02*
X137300000Y-85350000D01*
X90731392Y-109040526D02*
X91000480Y-108771438D01*
%TO.N,/connectors/USER_IO_9*%
X134300960Y-102724040D02*
X134300960Y-94174040D01*
X90731514Y-109958936D02*
X91400000Y-109290450D01*
X91400000Y-106250000D02*
X84041139Y-98891139D01*
X136075000Y-92400000D02*
X137300000Y-92400000D01*
X134300960Y-94174040D02*
X136075000Y-92400000D01*
X84041139Y-98891139D02*
X84041139Y-97743855D01*
X84041139Y-97743855D02*
X84450000Y-97334994D01*
X133876217Y-103148783D02*
X134300960Y-102724040D01*
X84668238Y-81981762D02*
X85893232Y-81981762D01*
X137300000Y-92400000D02*
X137330000Y-92370000D01*
X84450000Y-97334994D02*
X84450000Y-82200000D01*
X137330000Y-92370000D02*
X143280000Y-92370000D01*
X132800000Y-103148783D02*
X133876217Y-103148783D01*
X91400000Y-109290450D02*
X91400000Y-106250000D01*
X84450000Y-82200000D02*
X84668238Y-81981762D01*
D19*
%TO.N,/~{USER_SW0}*%
X100350489Y-65825489D02*
X100350489Y-79535252D01*
X99860000Y-80025741D02*
X99860000Y-81290000D01*
X89338711Y-64850000D02*
X99375000Y-64850000D01*
X99375000Y-64850000D02*
X100350489Y-65825489D01*
X100350489Y-79535252D02*
X99860000Y-80025741D01*
X89325000Y-64836289D02*
X89338711Y-64850000D01*
D18*
%TO.N,/connectors/USER_IO_10*%
X133925967Y-104048286D02*
X134700480Y-103273773D01*
X132800000Y-104048286D02*
X133925967Y-104048286D01*
X84840178Y-98074828D02*
X84840178Y-98395160D01*
X85249039Y-97665967D02*
X84840178Y-98074828D01*
X137320000Y-93870000D02*
X137300000Y-93850000D01*
X134700480Y-103273773D02*
X134700480Y-95149520D01*
X89943000Y-83900718D02*
X85249040Y-88594678D01*
X136000000Y-93850000D02*
X137300000Y-93850000D01*
X143280000Y-93870000D02*
X137320000Y-93870000D01*
X84840178Y-98395160D02*
X92199040Y-105754022D01*
X134700480Y-95149520D02*
X136000000Y-93850000D01*
X92199040Y-110334069D02*
X90773033Y-111760076D01*
X90773033Y-111760076D02*
X90739920Y-111760076D01*
X85249040Y-88594678D02*
X85249039Y-97665967D01*
X92199040Y-105754022D02*
X92199040Y-110334069D01*
%TO.N,/connectors/USER_IO_11*%
X84849520Y-97500480D02*
X84849520Y-86225480D01*
X91799520Y-106084514D02*
X84440658Y-98725652D01*
X90756469Y-110858092D02*
X91110011Y-110858092D01*
X137300000Y-95350000D02*
X137320000Y-95370000D01*
X137320000Y-95370000D02*
X143280000Y-95370000D01*
X84440658Y-98725652D02*
X84440658Y-97909342D01*
X136000000Y-95350000D02*
X137300000Y-95350000D01*
X91799520Y-110168583D02*
X91799520Y-106084514D01*
X133491481Y-105047778D02*
X135100000Y-103439259D01*
X132800000Y-105047789D02*
X132800011Y-105047778D01*
X84440658Y-97909342D02*
X84849520Y-97500480D01*
X135100000Y-103439259D02*
X135100000Y-96250000D01*
X91110011Y-110858092D02*
X91799520Y-110168583D01*
X84849520Y-86225480D02*
X87400000Y-83675000D01*
X132800011Y-105047778D02*
X133491481Y-105047778D01*
X135100000Y-96250000D02*
X136000000Y-95350000D01*
%TO.N,/connectors/USER_IO_12*%
X133356977Y-105747288D02*
X135499520Y-103604745D01*
X135499520Y-103604745D02*
X135499520Y-97350480D01*
X113697288Y-105747288D02*
X133356977Y-105747288D01*
X143280000Y-96870000D02*
X137320000Y-96870000D01*
X103031290Y-101670549D02*
X109620549Y-101670549D01*
X109620549Y-101670549D02*
X113697288Y-105747288D01*
X100550480Y-90615486D02*
X100550480Y-98010261D01*
X136000000Y-96850000D02*
X137300000Y-96850000D01*
X100250489Y-98889748D02*
X103031290Y-101670549D01*
X137320000Y-96870000D02*
X137300000Y-96850000D01*
X100250489Y-98310252D02*
X100250489Y-98889748D01*
X89999500Y-85675000D02*
X90524500Y-86200000D01*
X135499520Y-97350480D02*
X136000000Y-96850000D01*
X91749511Y-86849511D02*
X96784505Y-86849511D01*
X90524500Y-86200000D02*
X91100000Y-86200000D01*
X100550480Y-98010261D02*
X100250489Y-98310252D01*
X96784505Y-86849511D02*
X100550480Y-90615486D01*
X91100000Y-86200000D02*
X91749511Y-86849511D01*
%TO.N,/USER_LED*%
X96650000Y-86150000D02*
X100950000Y-90450000D01*
X93800000Y-86125000D02*
X93825000Y-86150000D01*
X100950000Y-90450000D02*
X100950000Y-98600000D01*
X93825000Y-86150000D02*
X96650000Y-86150000D01*
D17*
%TO.N,+5V*%
X112425000Y-111749500D02*
X112425000Y-107450000D01*
X112450000Y-111774500D02*
X112425000Y-111749500D01*
X143280000Y-107870000D02*
X137280000Y-107870000D01*
%TD*%
%TA.AperFunction,Conductor*%
%TO.N,GND*%
G36*
X147775800Y-61868400D02*
G01*
X148334600Y-62071600D01*
X148334600Y-66694400D01*
X147775800Y-66846800D01*
X137180647Y-66846800D01*
X137157990Y-66829415D01*
X137152841Y-66825464D01*
X137118938Y-66811421D01*
X136703000Y-66440400D01*
X136703000Y-62274800D01*
X137158600Y-61817600D01*
X147775800Y-61868400D01*
G37*
%TD.AperFunction*%
%TD*%
%TA.AperFunction,Conductor*%
%TO.N,GND*%
G36*
X148283800Y-110077600D02*
G01*
X148283800Y-112719200D01*
X147471000Y-112871600D01*
X137107800Y-112871600D01*
X136752200Y-112465200D01*
X136752200Y-110331600D01*
X137107800Y-109874400D01*
X147471000Y-109874400D01*
X148283800Y-110077600D01*
G37*
%TD.AperFunction*%
%TD*%
%TA.AperFunction,Conductor*%
%TO.N,GND*%
G36*
X148283150Y-61047005D02*
G01*
X148295371Y-61048941D01*
X148295378Y-61048941D01*
X148305011Y-61050467D01*
X148314644Y-61048942D01*
X148317137Y-61048942D01*
X148336530Y-61050469D01*
X148378168Y-61057065D01*
X148415061Y-61069053D01*
X148463558Y-61093763D01*
X148494945Y-61116567D01*
X148533433Y-61155055D01*
X148556237Y-61186442D01*
X148570693Y-61214814D01*
X148583589Y-61283483D01*
X148557312Y-61348223D01*
X148500205Y-61388480D01*
X148430400Y-61391472D01*
X148416681Y-61387217D01*
X148395753Y-61379371D01*
X148380744Y-61375803D01*
X148330669Y-61370363D01*
X148323972Y-61370000D01*
X143547830Y-61370000D01*
X143532831Y-61374404D01*
X143531644Y-61375774D01*
X143530000Y-61383332D01*
X143530000Y-64496000D01*
X143510315Y-64563039D01*
X143457511Y-64608794D01*
X143406000Y-64620000D01*
X137797830Y-64620000D01*
X137782831Y-64624404D01*
X137781644Y-64625774D01*
X137780000Y-64633332D01*
X137780000Y-66913972D01*
X137780363Y-66920669D01*
X137785803Y-66970744D01*
X137789371Y-66985753D01*
X137832379Y-67100476D01*
X137837480Y-67170159D01*
X137804097Y-67231538D01*
X137742830Y-67265125D01*
X137673130Y-67260257D01*
X137658247Y-67253590D01*
X137541443Y-67191745D01*
X137541437Y-67191743D01*
X137534831Y-67188245D01*
X137382128Y-67149889D01*
X137340809Y-67149673D01*
X137266391Y-67149283D01*
X137199455Y-67129248D01*
X137179359Y-67112966D01*
X137110910Y-67044517D01*
X137110901Y-67044509D01*
X137088342Y-67021950D01*
X137068602Y-67011892D01*
X137052016Y-67001728D01*
X137034090Y-66988704D01*
X137021653Y-66984663D01*
X137013019Y-66981857D01*
X136995048Y-66974413D01*
X136984002Y-66968785D01*
X136983997Y-66968783D01*
X136975304Y-66964354D01*
X136953424Y-66960889D01*
X136934499Y-66956345D01*
X136934107Y-66956218D01*
X136913433Y-66949500D01*
X110603475Y-66949500D01*
X110603471Y-66949501D01*
X110571561Y-66949501D01*
X110550484Y-66956349D01*
X110531588Y-66960886D01*
X110509690Y-66964354D01*
X110500995Y-66968784D01*
X110500993Y-66968785D01*
X110489946Y-66974414D01*
X110471971Y-66981859D01*
X110450904Y-66988704D01*
X110432984Y-67001724D01*
X110432981Y-67001726D01*
X110416391Y-67011892D01*
X110396652Y-67021950D01*
X110374085Y-67044517D01*
X109744997Y-67673604D01*
X109744994Y-67673608D01*
X109722431Y-67696171D01*
X109718001Y-67704866D01*
X109712375Y-67715908D01*
X109702209Y-67732497D01*
X109689185Y-67750423D01*
X109686168Y-67759709D01*
X109682338Y-67771494D01*
X109674894Y-67789465D01*
X109669266Y-67800511D01*
X109669264Y-67800516D01*
X109664835Y-67809209D01*
X109663309Y-67818846D01*
X109661370Y-67831088D01*
X109656826Y-67850014D01*
X109649981Y-67871080D01*
X109649981Y-83276486D01*
X109630296Y-83343525D01*
X109577492Y-83389280D01*
X109525981Y-83400486D01*
X109479233Y-83400486D01*
X109479229Y-83400487D01*
X109447319Y-83400487D01*
X109426242Y-83407335D01*
X109407346Y-83411872D01*
X109385448Y-83415340D01*
X109376753Y-83419770D01*
X109376751Y-83419771D01*
X109365704Y-83425400D01*
X109347729Y-83432845D01*
X109326662Y-83439690D01*
X109318765Y-83445427D01*
X109318766Y-83445427D01*
X109308739Y-83452712D01*
X109292149Y-83462878D01*
X109272410Y-83472936D01*
X109249843Y-83495503D01*
X108795505Y-83949840D01*
X108795502Y-83949844D01*
X108772939Y-83972407D01*
X108764148Y-83989662D01*
X108762883Y-83992144D01*
X108752717Y-84008733D01*
X108739693Y-84026659D01*
X108736676Y-84035945D01*
X108732846Y-84047730D01*
X108725402Y-84065701D01*
X108719774Y-84076747D01*
X108719772Y-84076752D01*
X108715343Y-84085445D01*
X108713817Y-84095082D01*
X108711878Y-84107324D01*
X108707334Y-84126250D01*
X108700489Y-84147316D01*
X108700489Y-84863922D01*
X108703504Y-84873200D01*
X108707334Y-84884988D01*
X108711878Y-84903913D01*
X108715343Y-84925793D01*
X108719772Y-84934486D01*
X108719774Y-84934491D01*
X108725402Y-84945537D01*
X108732846Y-84963508D01*
X108734800Y-84969519D01*
X108739693Y-84984579D01*
X108752717Y-85002505D01*
X108762881Y-85019091D01*
X108772939Y-85038831D01*
X108795502Y-85061394D01*
X108795505Y-85061398D01*
X109111556Y-85377449D01*
X109145041Y-85438772D01*
X109146815Y-85481310D01*
X109145258Y-85493138D01*
X109146078Y-85500566D01*
X109146078Y-85500568D01*
X109155182Y-85583032D01*
X109162535Y-85649633D01*
X109165101Y-85656645D01*
X109165102Y-85656649D01*
X109176038Y-85686533D01*
X109216643Y-85797490D01*
X109304458Y-85928172D01*
X109342930Y-85963179D01*
X109415378Y-86029102D01*
X109415382Y-86029105D01*
X109420910Y-86034135D01*
X109427480Y-86037702D01*
X109427481Y-86037703D01*
X109552708Y-86105696D01*
X109559276Y-86109262D01*
X109660011Y-86135689D01*
X109704341Y-86147319D01*
X109704343Y-86147319D01*
X109711569Y-86149215D01*
X109788627Y-86150425D01*
X109861525Y-86151571D01*
X109861528Y-86151571D01*
X109868995Y-86151688D01*
X109876276Y-86150020D01*
X109876280Y-86150020D01*
X110015181Y-86118207D01*
X110022468Y-86116538D01*
X110163125Y-86045795D01*
X110168806Y-86040943D01*
X110168809Y-86040941D01*
X110277166Y-85948395D01*
X110277167Y-85948394D01*
X110282848Y-85943542D01*
X110293893Y-85928172D01*
X110320648Y-85890938D01*
X110374724Y-85815683D01*
X110433450Y-85669598D01*
X110434503Y-85662201D01*
X110455062Y-85517744D01*
X110455062Y-85517740D01*
X110455634Y-85513723D01*
X110455778Y-85500000D01*
X110449122Y-85444996D01*
X110437762Y-85351119D01*
X110437761Y-85351115D01*
X110436863Y-85343694D01*
X110418623Y-85295423D01*
X110383854Y-85203408D01*
X110383852Y-85203405D01*
X110381210Y-85196412D01*
X110375504Y-85188109D01*
X110293829Y-85069273D01*
X110272079Y-85002874D01*
X110289680Y-84935258D01*
X110295322Y-84926679D01*
X110302884Y-84916156D01*
X110374724Y-84816180D01*
X110433450Y-84670095D01*
X110440589Y-84619935D01*
X110455062Y-84518241D01*
X110455062Y-84518237D01*
X110455634Y-84514220D01*
X110455688Y-84509123D01*
X110455706Y-84507318D01*
X110455778Y-84500497D01*
X110453432Y-84481114D01*
X110464919Y-84412197D01*
X110488851Y-84378539D01*
X110755482Y-84111907D01*
X110778049Y-84089340D01*
X110788107Y-84069601D01*
X110798273Y-84053011D01*
X110805558Y-84042984D01*
X110811295Y-84035088D01*
X110818140Y-84014021D01*
X110825585Y-83996046D01*
X110831214Y-83984999D01*
X110831215Y-83984997D01*
X110835645Y-83976302D01*
X110839113Y-83954404D01*
X110843650Y-83935508D01*
X110850498Y-83914431D01*
X110850498Y-83882523D01*
X110850499Y-83882517D01*
X110850500Y-68417255D01*
X110870185Y-68350216D01*
X110886815Y-68329578D01*
X111029575Y-68186818D01*
X111090895Y-68153334D01*
X111117254Y-68150500D01*
X113063151Y-68150500D01*
X113130190Y-68170185D01*
X113175945Y-68222989D01*
X113185889Y-68292147D01*
X113164601Y-68345800D01*
X113085501Y-68458348D01*
X113082785Y-68465313D01*
X113082785Y-68465314D01*
X113056905Y-68531693D01*
X113028309Y-68605039D01*
X113007758Y-68761138D01*
X113008578Y-68768566D01*
X113008578Y-68768568D01*
X113019772Y-68869965D01*
X113025035Y-68917633D01*
X113027601Y-68924645D01*
X113027602Y-68924649D01*
X113057206Y-69005544D01*
X113079143Y-69065490D01*
X113083314Y-69071697D01*
X113156600Y-69180757D01*
X113166958Y-69196172D01*
X113172488Y-69201204D01*
X113177372Y-69206862D01*
X113176272Y-69207811D01*
X113208290Y-69260395D01*
X113212500Y-69292432D01*
X113212500Y-102942777D01*
X113192815Y-103009816D01*
X113181204Y-103025023D01*
X113176034Y-103029533D01*
X113085501Y-103158348D01*
X113082785Y-103165313D01*
X113082785Y-103165314D01*
X113070491Y-103196847D01*
X113028309Y-103305039D01*
X113007758Y-103461138D01*
X113008578Y-103468566D01*
X113008578Y-103468568D01*
X113015810Y-103534076D01*
X113025035Y-103617633D01*
X113027601Y-103624645D01*
X113027602Y-103624649D01*
X113031853Y-103636264D01*
X113079143Y-103765490D01*
X113166958Y-103896172D01*
X113189183Y-103916395D01*
X113277878Y-103997102D01*
X113277882Y-103997105D01*
X113283410Y-104002135D01*
X113289980Y-104005702D01*
X113289981Y-104005703D01*
X113355771Y-104041424D01*
X113421776Y-104077262D01*
X113524031Y-104104088D01*
X113566841Y-104115319D01*
X113566843Y-104115319D01*
X113574069Y-104117215D01*
X113651127Y-104118425D01*
X113724025Y-104119571D01*
X113724028Y-104119571D01*
X113731495Y-104119688D01*
X113738776Y-104118020D01*
X113738780Y-104118020D01*
X113877681Y-104086207D01*
X113884968Y-104084538D01*
X114025625Y-104013795D01*
X114031306Y-104008943D01*
X114031309Y-104008941D01*
X114139666Y-103916395D01*
X114139667Y-103916394D01*
X114145348Y-103911542D01*
X114156393Y-103896172D01*
X114208721Y-103823349D01*
X114237224Y-103783683D01*
X114295950Y-103637598D01*
X114297793Y-103624649D01*
X114317562Y-103485744D01*
X114317562Y-103485740D01*
X114318134Y-103481723D01*
X114318191Y-103476345D01*
X114318206Y-103474821D01*
X114318278Y-103468000D01*
X114317448Y-103461138D01*
X114300262Y-103319119D01*
X114300261Y-103319115D01*
X114299363Y-103311694D01*
X114260089Y-103207758D01*
X114246354Y-103171408D01*
X114246352Y-103171405D01*
X114243710Y-103164412D01*
X114164905Y-103049751D01*
X114158768Y-103040821D01*
X114158765Y-103040818D01*
X114154531Y-103034657D01*
X114148945Y-103029680D01*
X114144488Y-103024625D01*
X114114918Y-102961321D01*
X114113500Y-102942620D01*
X114113500Y-69293195D01*
X114133185Y-69226156D01*
X114142756Y-69213756D01*
X114145348Y-69211542D01*
X114237224Y-69083683D01*
X114295950Y-68937598D01*
X114297793Y-68924649D01*
X114317562Y-68785744D01*
X114317562Y-68785740D01*
X114318134Y-68781723D01*
X114318278Y-68768000D01*
X114317448Y-68761138D01*
X114300262Y-68619119D01*
X114300261Y-68619115D01*
X114299363Y-68611694D01*
X114273464Y-68543153D01*
X114246354Y-68471408D01*
X114246352Y-68471405D01*
X114243710Y-68464412D01*
X114233265Y-68449215D01*
X114161128Y-68344255D01*
X114139378Y-68277856D01*
X114156979Y-68210240D01*
X114208343Y-68162873D01*
X114263319Y-68150020D01*
X116563488Y-68150020D01*
X116630527Y-68169705D01*
X116676282Y-68222509D01*
X116686226Y-68291667D01*
X116664938Y-68345321D01*
X116585501Y-68458348D01*
X116582785Y-68465313D01*
X116582785Y-68465314D01*
X116556905Y-68531693D01*
X116528309Y-68605039D01*
X116507758Y-68761138D01*
X116508578Y-68768566D01*
X116508578Y-68768568D01*
X116519772Y-68869965D01*
X116525035Y-68917633D01*
X116527601Y-68924645D01*
X116527602Y-68924649D01*
X116557206Y-69005544D01*
X116579143Y-69065490D01*
X116583314Y-69071697D01*
X116656600Y-69180757D01*
X116666958Y-69196172D01*
X116672488Y-69201204D01*
X116677372Y-69206862D01*
X116676272Y-69207811D01*
X116708290Y-69260395D01*
X116712500Y-69292432D01*
X116712500Y-102942777D01*
X116692815Y-103009816D01*
X116681204Y-103025023D01*
X116676034Y-103029533D01*
X116585501Y-103158348D01*
X116582785Y-103165313D01*
X116582785Y-103165314D01*
X116570491Y-103196847D01*
X116528309Y-103305039D01*
X116507758Y-103461138D01*
X116508578Y-103468566D01*
X116508578Y-103468568D01*
X116515810Y-103534076D01*
X116525035Y-103617633D01*
X116527601Y-103624645D01*
X116527602Y-103624649D01*
X116531853Y-103636264D01*
X116579143Y-103765490D01*
X116666958Y-103896172D01*
X116689183Y-103916395D01*
X116777878Y-103997102D01*
X116777882Y-103997105D01*
X116783410Y-104002135D01*
X116789980Y-104005702D01*
X116789981Y-104005703D01*
X116855771Y-104041424D01*
X116921776Y-104077262D01*
X117024031Y-104104088D01*
X117066841Y-104115319D01*
X117066843Y-104115319D01*
X117074069Y-104117215D01*
X117151127Y-104118425D01*
X117224025Y-104119571D01*
X117224028Y-104119571D01*
X117231495Y-104119688D01*
X117238776Y-104118020D01*
X117238780Y-104118020D01*
X117377681Y-104086207D01*
X117384968Y-104084538D01*
X117525625Y-104013795D01*
X117531306Y-104008943D01*
X117531309Y-104008941D01*
X117639666Y-103916395D01*
X117639667Y-103916394D01*
X117645348Y-103911542D01*
X117656393Y-103896172D01*
X117708721Y-103823349D01*
X117737224Y-103783683D01*
X117795950Y-103637598D01*
X117797793Y-103624649D01*
X117817562Y-103485744D01*
X117817562Y-103485740D01*
X117818134Y-103481723D01*
X117818191Y-103476345D01*
X117818206Y-103474821D01*
X117818278Y-103468000D01*
X117817448Y-103461138D01*
X117800262Y-103319119D01*
X117800261Y-103319115D01*
X117799363Y-103311694D01*
X117760089Y-103207758D01*
X117746354Y-103171408D01*
X117746352Y-103171405D01*
X117743710Y-103164412D01*
X117664905Y-103049751D01*
X117658768Y-103040821D01*
X117658765Y-103040818D01*
X117654531Y-103034657D01*
X117648945Y-103029680D01*
X117644488Y-103024625D01*
X117614918Y-102961321D01*
X117613500Y-102942620D01*
X117613500Y-69293195D01*
X117633185Y-69226156D01*
X117642756Y-69213756D01*
X117645348Y-69211542D01*
X117737224Y-69083683D01*
X117795950Y-68937598D01*
X117797793Y-68924649D01*
X117817562Y-68785744D01*
X117817562Y-68785740D01*
X117818134Y-68781723D01*
X117818278Y-68768000D01*
X117817448Y-68761138D01*
X117800262Y-68619119D01*
X117800261Y-68619115D01*
X117799363Y-68611694D01*
X117773464Y-68543153D01*
X117746354Y-68471408D01*
X117746352Y-68471405D01*
X117743710Y-68464412D01*
X117733265Y-68449215D01*
X117661128Y-68344255D01*
X117639378Y-68277856D01*
X117656979Y-68210240D01*
X117708343Y-68162873D01*
X117763319Y-68150020D01*
X120113488Y-68150020D01*
X120180527Y-68169705D01*
X120226282Y-68222509D01*
X120236226Y-68291667D01*
X120214938Y-68345321D01*
X120135501Y-68458348D01*
X120132785Y-68465313D01*
X120132785Y-68465314D01*
X120106905Y-68531693D01*
X120078309Y-68605039D01*
X120057758Y-68761138D01*
X120058578Y-68768566D01*
X120058578Y-68768568D01*
X120069772Y-68869965D01*
X120075035Y-68917633D01*
X120077601Y-68924645D01*
X120077602Y-68924649D01*
X120107206Y-69005544D01*
X120129143Y-69065490D01*
X120133314Y-69071697D01*
X120206600Y-69180757D01*
X120216958Y-69196172D01*
X120222488Y-69201204D01*
X120227372Y-69206862D01*
X120226272Y-69207811D01*
X120258290Y-69260395D01*
X120262500Y-69292432D01*
X120262500Y-102942777D01*
X120242815Y-103009816D01*
X120231204Y-103025023D01*
X120226034Y-103029533D01*
X120135501Y-103158348D01*
X120132785Y-103165313D01*
X120132785Y-103165314D01*
X120120491Y-103196847D01*
X120078309Y-103305039D01*
X120057758Y-103461138D01*
X120058578Y-103468566D01*
X120058578Y-103468568D01*
X120065810Y-103534076D01*
X120075035Y-103617633D01*
X120077601Y-103624645D01*
X120077602Y-103624649D01*
X120081853Y-103636264D01*
X120129143Y-103765490D01*
X120216958Y-103896172D01*
X120239183Y-103916395D01*
X120327878Y-103997102D01*
X120327882Y-103997105D01*
X120333410Y-104002135D01*
X120339980Y-104005702D01*
X120339981Y-104005703D01*
X120405771Y-104041424D01*
X120471776Y-104077262D01*
X120574031Y-104104088D01*
X120616841Y-104115319D01*
X120616843Y-104115319D01*
X120624069Y-104117215D01*
X120701127Y-104118425D01*
X120774025Y-104119571D01*
X120774028Y-104119571D01*
X120781495Y-104119688D01*
X120788776Y-104118020D01*
X120788780Y-104118020D01*
X120927681Y-104086207D01*
X120934968Y-104084538D01*
X121075625Y-104013795D01*
X121081306Y-104008943D01*
X121081309Y-104008941D01*
X121189666Y-103916395D01*
X121189667Y-103916394D01*
X121195348Y-103911542D01*
X121206393Y-103896172D01*
X121258721Y-103823349D01*
X121287224Y-103783683D01*
X121345950Y-103637598D01*
X121347793Y-103624649D01*
X121367562Y-103485744D01*
X121367562Y-103485740D01*
X121368134Y-103481723D01*
X121368191Y-103476345D01*
X121368206Y-103474821D01*
X121368278Y-103468000D01*
X121367448Y-103461138D01*
X121350262Y-103319119D01*
X121350261Y-103319115D01*
X121349363Y-103311694D01*
X121310089Y-103207758D01*
X121296354Y-103171408D01*
X121296352Y-103171405D01*
X121293710Y-103164412D01*
X121214905Y-103049751D01*
X121208768Y-103040821D01*
X121208765Y-103040818D01*
X121204531Y-103034657D01*
X121198945Y-103029680D01*
X121194488Y-103024625D01*
X121164918Y-102961321D01*
X121163500Y-102942620D01*
X121163500Y-69293195D01*
X121183185Y-69226156D01*
X121192756Y-69213756D01*
X121195348Y-69211542D01*
X121287224Y-69083683D01*
X121345950Y-68937598D01*
X121347793Y-68924649D01*
X121367562Y-68785744D01*
X121367562Y-68785740D01*
X121368134Y-68781723D01*
X121368278Y-68768000D01*
X121367448Y-68761138D01*
X121350262Y-68619119D01*
X121350261Y-68619115D01*
X121349363Y-68611694D01*
X121323464Y-68543153D01*
X121296354Y-68471408D01*
X121296352Y-68471405D01*
X121293710Y-68464412D01*
X121283265Y-68449215D01*
X121211128Y-68344255D01*
X121189378Y-68277856D01*
X121206979Y-68210240D01*
X121258343Y-68162873D01*
X121313319Y-68150020D01*
X123563488Y-68150020D01*
X123630527Y-68169705D01*
X123676282Y-68222509D01*
X123686226Y-68291667D01*
X123664938Y-68345321D01*
X123585501Y-68458348D01*
X123582785Y-68465313D01*
X123582785Y-68465314D01*
X123556905Y-68531693D01*
X123528309Y-68605039D01*
X123507758Y-68761138D01*
X123508578Y-68768566D01*
X123508578Y-68768568D01*
X123519772Y-68869965D01*
X123525035Y-68917633D01*
X123527601Y-68924645D01*
X123527602Y-68924649D01*
X123557206Y-69005544D01*
X123579143Y-69065490D01*
X123583314Y-69071697D01*
X123656600Y-69180757D01*
X123666958Y-69196172D01*
X123672488Y-69201204D01*
X123677372Y-69206862D01*
X123676272Y-69207811D01*
X123708290Y-69260395D01*
X123712500Y-69292432D01*
X123712500Y-102942777D01*
X123692815Y-103009816D01*
X123681204Y-103025023D01*
X123676034Y-103029533D01*
X123585501Y-103158348D01*
X123582785Y-103165313D01*
X123582785Y-103165314D01*
X123570491Y-103196847D01*
X123528309Y-103305039D01*
X123507758Y-103461138D01*
X123508578Y-103468566D01*
X123508578Y-103468568D01*
X123515810Y-103534076D01*
X123525035Y-103617633D01*
X123527601Y-103624645D01*
X123527602Y-103624649D01*
X123531853Y-103636264D01*
X123579143Y-103765490D01*
X123666958Y-103896172D01*
X123689183Y-103916395D01*
X123777878Y-103997102D01*
X123777882Y-103997105D01*
X123783410Y-104002135D01*
X123789980Y-104005702D01*
X123789981Y-104005703D01*
X123855771Y-104041424D01*
X123921776Y-104077262D01*
X124024031Y-104104088D01*
X124066841Y-104115319D01*
X124066843Y-104115319D01*
X124074069Y-104117215D01*
X124151127Y-104118425D01*
X124224025Y-104119571D01*
X124224028Y-104119571D01*
X124231495Y-104119688D01*
X124238776Y-104118020D01*
X124238780Y-104118020D01*
X124377681Y-104086207D01*
X124384968Y-104084538D01*
X124525625Y-104013795D01*
X124531306Y-104008943D01*
X124531309Y-104008941D01*
X124639666Y-103916395D01*
X124639667Y-103916394D01*
X124645348Y-103911542D01*
X124656393Y-103896172D01*
X124708721Y-103823349D01*
X124737224Y-103783683D01*
X124795950Y-103637598D01*
X124797793Y-103624649D01*
X124817562Y-103485744D01*
X124817562Y-103485740D01*
X124818134Y-103481723D01*
X124818191Y-103476345D01*
X124818206Y-103474821D01*
X124818278Y-103468000D01*
X124817448Y-103461138D01*
X124800262Y-103319119D01*
X124800261Y-103319115D01*
X124799363Y-103311694D01*
X124760089Y-103207758D01*
X124746354Y-103171408D01*
X124746352Y-103171405D01*
X124743710Y-103164412D01*
X124664905Y-103049751D01*
X124658768Y-103040821D01*
X124658765Y-103040818D01*
X124654531Y-103034657D01*
X124648945Y-103029680D01*
X124644488Y-103024625D01*
X124614918Y-102961321D01*
X124613500Y-102942620D01*
X124613500Y-69293195D01*
X124633185Y-69226156D01*
X124642756Y-69213756D01*
X124645348Y-69211542D01*
X124737224Y-69083683D01*
X124795950Y-68937598D01*
X124797793Y-68924649D01*
X124817562Y-68785744D01*
X124817562Y-68785740D01*
X124818134Y-68781723D01*
X124818278Y-68768000D01*
X124817448Y-68761138D01*
X124800262Y-68619119D01*
X124800261Y-68619115D01*
X124799363Y-68611694D01*
X124773464Y-68543153D01*
X124746354Y-68471408D01*
X124746352Y-68471405D01*
X124743710Y-68464412D01*
X124733265Y-68449215D01*
X124661128Y-68344255D01*
X124639378Y-68277856D01*
X124656979Y-68210240D01*
X124708343Y-68162873D01*
X124763319Y-68150020D01*
X135527977Y-68150020D01*
X135595016Y-68169705D01*
X135615658Y-68186339D01*
X136610076Y-69180757D01*
X136643561Y-69242080D01*
X136645334Y-69284621D01*
X136643777Y-69296446D01*
X136661054Y-69452941D01*
X136715162Y-69600798D01*
X136802977Y-69731480D01*
X136847111Y-69771639D01*
X136913897Y-69832410D01*
X136913901Y-69832413D01*
X136919429Y-69837443D01*
X137057795Y-69912570D01*
X137130372Y-69931610D01*
X137202860Y-69950627D01*
X137202862Y-69950627D01*
X137210088Y-69952523D01*
X137287146Y-69953733D01*
X137360044Y-69954879D01*
X137360047Y-69954879D01*
X137367514Y-69954996D01*
X137374795Y-69953328D01*
X137374799Y-69953328D01*
X137513700Y-69921515D01*
X137520987Y-69919846D01*
X137661644Y-69849103D01*
X137667325Y-69844251D01*
X137667328Y-69844249D01*
X137718890Y-69800210D01*
X137782651Y-69771639D01*
X137799422Y-69770500D01*
X137855500Y-69770500D01*
X137922539Y-69790185D01*
X137968294Y-69842989D01*
X137979500Y-69894500D01*
X137979500Y-69914646D01*
X137982618Y-69940846D01*
X138028061Y-70043153D01*
X138035367Y-70050446D01*
X138056888Y-70116150D01*
X138039286Y-70183766D01*
X138035744Y-70189288D01*
X138027759Y-70197287D01*
X138023130Y-70207758D01*
X138002653Y-70254076D01*
X137982494Y-70299673D01*
X137979500Y-70325354D01*
X137979500Y-70328943D01*
X137979414Y-70330423D01*
X137955873Y-70396207D01*
X137900503Y-70438821D01*
X137830884Y-70444735D01*
X137773134Y-70415811D01*
X137684559Y-70336893D01*
X137684558Y-70336892D01*
X137678976Y-70331919D01*
X137539831Y-70258245D01*
X137387128Y-70219889D01*
X137305329Y-70219461D01*
X137237158Y-70219104D01*
X137237157Y-70219104D01*
X137229684Y-70219065D01*
X137222421Y-70220809D01*
X137222418Y-70220809D01*
X137153136Y-70237442D01*
X137076588Y-70255820D01*
X136936679Y-70328032D01*
X136818034Y-70431533D01*
X136727501Y-70560348D01*
X136670309Y-70707039D01*
X136649758Y-70863138D01*
X136667035Y-71019633D01*
X136721143Y-71167490D01*
X136808958Y-71298172D01*
X136837270Y-71323934D01*
X136919878Y-71399102D01*
X136919882Y-71399105D01*
X136925410Y-71404135D01*
X136931980Y-71407702D01*
X136931981Y-71407703D01*
X136953071Y-71419154D01*
X137063776Y-71479262D01*
X137140451Y-71499377D01*
X137200301Y-71535428D01*
X137231159Y-71598115D01*
X137223227Y-71667533D01*
X137179025Y-71721643D01*
X137137933Y-71739892D01*
X137071588Y-71755820D01*
X136931679Y-71828032D01*
X136813034Y-71931533D01*
X136722501Y-72060348D01*
X136665309Y-72207039D01*
X136644758Y-72363138D01*
X136662035Y-72519633D01*
X136716143Y-72667490D01*
X136803958Y-72798172D01*
X136858545Y-72847842D01*
X136914878Y-72899102D01*
X136914882Y-72899105D01*
X136920410Y-72904135D01*
X136926980Y-72907702D01*
X136926981Y-72907703D01*
X136941885Y-72915795D01*
X137058776Y-72979262D01*
X137117765Y-72994737D01*
X137147792Y-73002615D01*
X137207642Y-73038667D01*
X137238500Y-73101353D01*
X137230568Y-73170771D01*
X137186366Y-73224881D01*
X137145274Y-73243130D01*
X137071588Y-73260820D01*
X136931679Y-73333032D01*
X136813034Y-73436533D01*
X136722501Y-73565348D01*
X136665309Y-73712039D01*
X136644758Y-73868138D01*
X136662035Y-74024633D01*
X136716143Y-74172490D01*
X136803958Y-74303172D01*
X136827539Y-74324629D01*
X136914878Y-74404102D01*
X136914882Y-74404105D01*
X136920410Y-74409135D01*
X136926980Y-74412702D01*
X136926981Y-74412703D01*
X136977858Y-74440327D01*
X137058776Y-74484262D01*
X137161031Y-74511088D01*
X137203841Y-74522319D01*
X137203843Y-74522319D01*
X137211069Y-74524215D01*
X137288127Y-74525425D01*
X137361025Y-74526571D01*
X137361028Y-74526571D01*
X137368495Y-74526688D01*
X137375776Y-74525020D01*
X137375780Y-74525020D01*
X137514681Y-74493207D01*
X137521968Y-74491538D01*
X137662625Y-74420795D01*
X137668306Y-74415943D01*
X137668309Y-74415941D01*
X137775221Y-74324629D01*
X137838983Y-74296058D01*
X137908069Y-74306495D01*
X137960544Y-74352626D01*
X137979500Y-74411465D01*
X137979500Y-74414646D01*
X137979933Y-74418281D01*
X137979933Y-74418288D01*
X137981097Y-74428063D01*
X137982618Y-74440846D01*
X138028061Y-74543153D01*
X138035367Y-74550446D01*
X138056888Y-74616150D01*
X138039286Y-74683766D01*
X138035744Y-74689288D01*
X138027759Y-74697287D01*
X137982494Y-74799673D01*
X137979500Y-74825354D01*
X137979500Y-76695500D01*
X137959815Y-76762539D01*
X137907011Y-76808294D01*
X137855500Y-76819500D01*
X137719097Y-76819500D01*
X137661073Y-76805087D01*
X137599508Y-76772490D01*
X137534831Y-76738245D01*
X137477179Y-76723764D01*
X137419706Y-76691181D01*
X136824857Y-76096333D01*
X136821262Y-76092585D01*
X136784922Y-76053065D01*
X136784920Y-76053063D01*
X136779201Y-76046844D01*
X136742138Y-76023864D01*
X136732510Y-76017247D01*
X136704516Y-75995998D01*
X136704513Y-75995996D01*
X136697783Y-75990888D01*
X136689925Y-75987777D01*
X136689920Y-75987774D01*
X136683645Y-75985290D01*
X136663944Y-75975382D01*
X136658199Y-75971820D01*
X136651014Y-75967365D01*
X136625046Y-75959821D01*
X136609142Y-75955200D01*
X136598091Y-75951416D01*
X136565408Y-75938476D01*
X136565405Y-75938475D01*
X136557547Y-75935364D01*
X136542418Y-75933774D01*
X136520784Y-75929529D01*
X136512419Y-75927099D01*
X136506175Y-75925285D01*
X136498676Y-75924734D01*
X136497760Y-75924667D01*
X136497758Y-75924667D01*
X136495485Y-75924500D01*
X136460678Y-75924500D01*
X136447717Y-75923821D01*
X136415952Y-75920482D01*
X136415949Y-75920482D01*
X136407546Y-75919599D01*
X136399216Y-75921008D01*
X136399213Y-75921008D01*
X136388833Y-75922764D01*
X136368154Y-75924500D01*
X133531324Y-75924500D01*
X133473301Y-75910087D01*
X133391443Y-75866745D01*
X133391437Y-75866743D01*
X133384831Y-75863245D01*
X133232128Y-75824889D01*
X133150329Y-75824461D01*
X133082158Y-75824104D01*
X133082157Y-75824104D01*
X133074684Y-75824065D01*
X133067421Y-75825809D01*
X133067418Y-75825809D01*
X133015886Y-75838181D01*
X132921588Y-75860820D01*
X132781679Y-75933032D01*
X132776048Y-75937945D01*
X132776047Y-75937945D01*
X132742322Y-75967365D01*
X132663034Y-76036533D01*
X132572501Y-76165348D01*
X132515309Y-76312039D01*
X132494758Y-76468138D01*
X132495578Y-76475566D01*
X132495578Y-76475568D01*
X132502230Y-76535820D01*
X132512035Y-76624633D01*
X132514601Y-76631645D01*
X132514602Y-76631649D01*
X132530765Y-76675816D01*
X132566143Y-76772490D01*
X132653958Y-76903172D01*
X132679802Y-76926688D01*
X132764878Y-77004102D01*
X132764882Y-77004105D01*
X132770410Y-77009135D01*
X132776980Y-77012702D01*
X132776981Y-77012703D01*
X132891754Y-77075020D01*
X132908776Y-77084262D01*
X133011031Y-77111088D01*
X133053841Y-77122319D01*
X133053843Y-77122319D01*
X133061069Y-77124215D01*
X133138127Y-77125425D01*
X133211025Y-77126571D01*
X133211028Y-77126571D01*
X133218495Y-77126688D01*
X133225776Y-77125020D01*
X133225780Y-77125020D01*
X133364677Y-77093208D01*
X133364678Y-77093208D01*
X133371968Y-77091538D01*
X133476981Y-77038722D01*
X133532697Y-77025500D01*
X136145613Y-77025500D01*
X136212652Y-77045185D01*
X136233294Y-77061819D01*
X136637439Y-77465963D01*
X136666205Y-77511029D01*
X136716143Y-77647490D01*
X136803958Y-77778172D01*
X136829802Y-77801688D01*
X136914878Y-77879102D01*
X136914882Y-77879105D01*
X136920410Y-77884135D01*
X136926980Y-77887702D01*
X136926981Y-77887703D01*
X137023755Y-77940247D01*
X137058776Y-77959262D01*
X137161031Y-77986088D01*
X137203841Y-77997319D01*
X137203843Y-77997319D01*
X137211069Y-77999215D01*
X137288127Y-78000425D01*
X137361025Y-78001571D01*
X137361028Y-78001571D01*
X137368495Y-78001688D01*
X137375776Y-78000020D01*
X137375780Y-78000020D01*
X137514681Y-77968207D01*
X137521968Y-77966538D01*
X137587216Y-77933722D01*
X137642931Y-77920500D01*
X137855500Y-77920500D01*
X137922539Y-77940185D01*
X137968294Y-77992989D01*
X137979500Y-78044500D01*
X137979500Y-79914646D01*
X137982618Y-79940846D01*
X138028061Y-80043153D01*
X138035367Y-80050446D01*
X138056888Y-80116150D01*
X138039286Y-80183766D01*
X138035744Y-80189288D01*
X138027759Y-80197287D01*
X138008150Y-80241642D01*
X137988792Y-80285428D01*
X137982494Y-80299673D01*
X137979500Y-80325354D01*
X137979500Y-80327819D01*
X137956036Y-80393385D01*
X137900666Y-80435999D01*
X137831047Y-80441912D01*
X137769283Y-80409248D01*
X137753595Y-80390639D01*
X137748226Y-80382827D01*
X137741031Y-80372358D01*
X137688275Y-80325354D01*
X137629059Y-80272594D01*
X137629058Y-80272593D01*
X137623476Y-80267620D01*
X137484331Y-80193946D01*
X137331628Y-80155590D01*
X137249829Y-80155162D01*
X137181658Y-80154805D01*
X137181657Y-80154805D01*
X137174184Y-80154766D01*
X137166921Y-80156510D01*
X137166918Y-80156510D01*
X137097636Y-80173143D01*
X137021088Y-80191521D01*
X136881179Y-80263733D01*
X136875548Y-80268646D01*
X136875547Y-80268646D01*
X136829367Y-80308932D01*
X136762534Y-80367234D01*
X136672001Y-80496049D01*
X136669285Y-80503014D01*
X136669285Y-80503015D01*
X136654098Y-80541967D01*
X136614809Y-80642740D01*
X136594258Y-80798839D01*
X136595078Y-80806267D01*
X136595078Y-80806269D01*
X136604085Y-80887849D01*
X136611535Y-80955334D01*
X136614101Y-80962346D01*
X136614102Y-80962350D01*
X136622908Y-80986412D01*
X136665643Y-81103191D01*
X136753458Y-81233873D01*
X136799455Y-81275727D01*
X136864378Y-81334803D01*
X136864382Y-81334806D01*
X136869910Y-81339836D01*
X136876480Y-81343403D01*
X136876481Y-81343404D01*
X137001708Y-81411397D01*
X137008276Y-81414963D01*
X137091587Y-81436819D01*
X137153341Y-81453020D01*
X137153343Y-81453020D01*
X137160569Y-81454916D01*
X137237627Y-81456126D01*
X137310525Y-81457272D01*
X137310528Y-81457272D01*
X137317995Y-81457389D01*
X137325276Y-81455721D01*
X137325280Y-81455721D01*
X137464181Y-81423908D01*
X137471468Y-81422239D01*
X137612125Y-81351496D01*
X137617806Y-81346644D01*
X137617809Y-81346642D01*
X137672173Y-81300210D01*
X137735935Y-81271639D01*
X137752705Y-81270500D01*
X137855500Y-81270500D01*
X137922539Y-81290185D01*
X137968294Y-81342989D01*
X137979500Y-81394500D01*
X137979500Y-81414646D01*
X137982618Y-81440846D01*
X138028061Y-81543153D01*
X138035367Y-81550446D01*
X138056888Y-81616150D01*
X138039286Y-81683766D01*
X138035744Y-81689288D01*
X138027759Y-81697287D01*
X138023130Y-81707758D01*
X138002653Y-81754076D01*
X137982494Y-81799673D01*
X137979500Y-81825354D01*
X137979500Y-81845500D01*
X137959815Y-81912539D01*
X137907011Y-81958294D01*
X137855500Y-81969500D01*
X137845277Y-81969500D01*
X137778238Y-81949815D01*
X137762134Y-81935981D01*
X137761531Y-81936657D01*
X137649559Y-81836893D01*
X137649558Y-81836892D01*
X137643976Y-81831919D01*
X137504831Y-81758245D01*
X137406483Y-81733542D01*
X137359378Y-81721710D01*
X137352128Y-81719889D01*
X137270329Y-81719461D01*
X137202158Y-81719104D01*
X137202157Y-81719104D01*
X137194684Y-81719065D01*
X137187421Y-81720809D01*
X137187418Y-81720809D01*
X137118136Y-81737443D01*
X137041588Y-81755820D01*
X136901679Y-81828032D01*
X136783034Y-81931533D01*
X136692501Y-82060348D01*
X136689785Y-82067313D01*
X136689785Y-82067314D01*
X136679559Y-82093542D01*
X136635309Y-82207039D01*
X136614758Y-82363138D01*
X136615578Y-82370566D01*
X136615578Y-82370568D01*
X136620945Y-82419184D01*
X136632035Y-82519633D01*
X136634601Y-82526645D01*
X136634602Y-82526649D01*
X136647334Y-82561440D01*
X136686143Y-82667490D01*
X136773958Y-82798172D01*
X136796183Y-82818395D01*
X136884878Y-82899102D01*
X136884882Y-82899105D01*
X136890410Y-82904135D01*
X136896980Y-82907702D01*
X136896981Y-82907703D01*
X136911885Y-82915795D01*
X137028776Y-82979262D01*
X137181069Y-83019215D01*
X137180290Y-83022185D01*
X137231254Y-83045040D01*
X137269428Y-83103559D01*
X137269905Y-83173427D01*
X137232532Y-83232462D01*
X137179639Y-83259879D01*
X137135396Y-83270501D01*
X137071588Y-83285820D01*
X136931679Y-83358032D01*
X136926048Y-83362945D01*
X136926047Y-83362945D01*
X136921521Y-83366893D01*
X136813034Y-83461533D01*
X136722501Y-83590348D01*
X136665309Y-83737039D01*
X136644758Y-83893138D01*
X136645578Y-83900566D01*
X136645578Y-83900568D01*
X136654899Y-83984999D01*
X136662035Y-84049633D01*
X136664601Y-84056645D01*
X136664602Y-84056649D01*
X136678667Y-84095082D01*
X136716143Y-84197490D01*
X136748344Y-84245410D01*
X136797951Y-84319232D01*
X136803958Y-84328172D01*
X136831433Y-84353172D01*
X136914878Y-84429102D01*
X136914882Y-84429105D01*
X136920410Y-84434135D01*
X136926980Y-84437702D01*
X136926981Y-84437703D01*
X137050118Y-84504561D01*
X137058776Y-84509262D01*
X137063187Y-84510419D01*
X137117291Y-84552635D01*
X137140394Y-84618574D01*
X137124180Y-84686537D01*
X137073797Y-84734944D01*
X137072104Y-84735696D01*
X137071588Y-84735820D01*
X136931679Y-84808032D01*
X136926048Y-84812945D01*
X136926047Y-84812945D01*
X136911822Y-84825354D01*
X136813034Y-84911533D01*
X136722501Y-85040348D01*
X136719785Y-85047313D01*
X136719785Y-85047314D01*
X136714294Y-85061398D01*
X136665309Y-85187039D01*
X136644758Y-85343138D01*
X136645578Y-85350566D01*
X136645578Y-85350568D01*
X136647740Y-85370149D01*
X136635531Y-85438944D01*
X136612170Y-85471437D01*
X135594516Y-86489091D01*
X135594513Y-86489095D01*
X135571950Y-86511658D01*
X135567520Y-86520353D01*
X135561894Y-86531395D01*
X135551728Y-86547984D01*
X135538704Y-86565910D01*
X135535687Y-86575196D01*
X135531857Y-86586981D01*
X135524413Y-86604952D01*
X135518785Y-86615998D01*
X135518783Y-86616003D01*
X135514354Y-86624696D01*
X135510889Y-86646575D01*
X135506345Y-86665501D01*
X135499500Y-86686567D01*
X135499500Y-91792739D01*
X135479815Y-91859778D01*
X135463181Y-91880420D01*
X133595956Y-93747645D01*
X133595953Y-93747649D01*
X133573390Y-93770212D01*
X133568960Y-93778907D01*
X133563334Y-93789949D01*
X133553168Y-93806538D01*
X133540144Y-93824464D01*
X133537127Y-93833750D01*
X133533297Y-93845535D01*
X133525853Y-93863506D01*
X133520225Y-93874552D01*
X133520223Y-93874557D01*
X133515794Y-93883250D01*
X133514268Y-93892887D01*
X133512329Y-93905129D01*
X133507785Y-93924055D01*
X133500940Y-93945121D01*
X133500940Y-101706305D01*
X133481255Y-101773344D01*
X133464621Y-101793986D01*
X133454229Y-101804378D01*
X133392906Y-101837863D01*
X133323214Y-101832879D01*
X133284059Y-101809280D01*
X133280266Y-101805900D01*
X133173976Y-101711199D01*
X133034831Y-101637525D01*
X132882128Y-101599169D01*
X132800329Y-101598741D01*
X132732158Y-101598384D01*
X132732157Y-101598384D01*
X132724684Y-101598345D01*
X132717421Y-101600089D01*
X132717418Y-101600089D01*
X132648136Y-101616722D01*
X132571588Y-101635100D01*
X132431679Y-101707312D01*
X132313034Y-101810813D01*
X132222501Y-101939628D01*
X132165309Y-102086319D01*
X132144758Y-102242418D01*
X132162035Y-102398913D01*
X132216143Y-102546770D01*
X132246414Y-102591817D01*
X132272151Y-102630118D01*
X132293204Y-102696741D01*
X132274896Y-102764169D01*
X132270686Y-102770571D01*
X132222501Y-102839131D01*
X132165309Y-102985822D01*
X132144758Y-103141921D01*
X132145578Y-103149349D01*
X132145578Y-103149351D01*
X132150070Y-103190041D01*
X132162035Y-103298416D01*
X132216143Y-103446273D01*
X132256067Y-103505685D01*
X132272151Y-103529621D01*
X132293204Y-103596244D01*
X132274896Y-103663672D01*
X132270686Y-103670074D01*
X132222501Y-103738634D01*
X132165309Y-103885325D01*
X132144758Y-104041424D01*
X132145578Y-104048852D01*
X132145578Y-104048854D01*
X132148924Y-104079158D01*
X132162035Y-104197919D01*
X132216143Y-104345776D01*
X132220314Y-104351983D01*
X132303958Y-104476458D01*
X132302193Y-104477644D01*
X132326678Y-104531532D01*
X132316603Y-104600671D01*
X132305362Y-104620238D01*
X132222501Y-104738137D01*
X132165309Y-104884828D01*
X132144758Y-105040927D01*
X132145578Y-105048355D01*
X132145578Y-105048357D01*
X132161214Y-105189990D01*
X132161215Y-105189994D01*
X132162035Y-105197422D01*
X132162094Y-105197583D01*
X132158410Y-105264236D01*
X132117449Y-105320840D01*
X132052388Y-105346313D01*
X132041542Y-105346788D01*
X113914543Y-105346788D01*
X113847504Y-105327103D01*
X113826862Y-105310469D01*
X109881458Y-101365065D01*
X109881454Y-101365062D01*
X109858891Y-101342499D01*
X109839151Y-101332441D01*
X109822565Y-101322277D01*
X109804639Y-101309253D01*
X109792202Y-101305212D01*
X109783568Y-101302406D01*
X109765597Y-101294962D01*
X109754551Y-101289334D01*
X109754546Y-101289332D01*
X109745853Y-101284903D01*
X109723973Y-101281438D01*
X109705048Y-101276894D01*
X109704656Y-101276767D01*
X109683982Y-101270049D01*
X103248544Y-101270049D01*
X103181505Y-101250364D01*
X103160863Y-101233730D01*
X101274490Y-99347356D01*
X101241005Y-99286033D01*
X101245989Y-99216341D01*
X101287861Y-99160408D01*
X101304645Y-99150019D01*
X101305949Y-99149153D01*
X101312625Y-99145795D01*
X101318306Y-99140943D01*
X101318309Y-99140941D01*
X101426666Y-99048395D01*
X101426667Y-99048394D01*
X101432348Y-99043542D01*
X101457740Y-99008206D01*
X101468542Y-98993173D01*
X101524224Y-98915683D01*
X101582950Y-98769598D01*
X101588351Y-98731649D01*
X101604562Y-98617744D01*
X101604562Y-98617740D01*
X101605134Y-98613723D01*
X101605278Y-98600000D01*
X101603854Y-98588234D01*
X101587262Y-98451119D01*
X101587261Y-98451115D01*
X101586363Y-98443694D01*
X101530710Y-98296412D01*
X101503331Y-98256575D01*
X101445768Y-98172821D01*
X101445765Y-98172818D01*
X101441531Y-98166657D01*
X101406503Y-98135448D01*
X101392011Y-98122536D01*
X101355052Y-98063242D01*
X101350500Y-98029953D01*
X101350500Y-90418481D01*
X101350499Y-90418475D01*
X101350499Y-90386567D01*
X101343651Y-90365490D01*
X101339114Y-90346594D01*
X101335646Y-90324696D01*
X101325586Y-90304952D01*
X101318140Y-90286975D01*
X101314312Y-90275193D01*
X101311296Y-90265910D01*
X101298274Y-90247986D01*
X101288107Y-90231396D01*
X101282480Y-90220353D01*
X101278050Y-90211658D01*
X99331592Y-88265200D01*
X97429054Y-86362661D01*
X97395569Y-86301338D01*
X97400553Y-86231646D01*
X97442425Y-86175713D01*
X97507889Y-86151296D01*
X97516735Y-86150980D01*
X98783225Y-86150980D01*
X98850264Y-86170665D01*
X98870906Y-86187299D01*
X99911056Y-87227449D01*
X99944541Y-87288772D01*
X99946315Y-87331310D01*
X99944758Y-87343138D01*
X99945578Y-87350566D01*
X99945578Y-87350568D01*
X99947474Y-87367744D01*
X99962035Y-87499633D01*
X100016143Y-87647490D01*
X100103958Y-87778172D01*
X100134630Y-87806081D01*
X100214878Y-87879102D01*
X100214882Y-87879105D01*
X100220410Y-87884135D01*
X100226980Y-87887702D01*
X100226981Y-87887703D01*
X100317253Y-87936717D01*
X100358776Y-87959262D01*
X100461031Y-87986088D01*
X100503841Y-87997319D01*
X100503843Y-87997319D01*
X100511069Y-87999215D01*
X100588127Y-88000425D01*
X100661025Y-88001571D01*
X100661028Y-88001571D01*
X100668495Y-88001688D01*
X100675776Y-88000020D01*
X100675780Y-88000020D01*
X100814681Y-87968207D01*
X100821968Y-87966538D01*
X100962625Y-87895795D01*
X100968306Y-87890943D01*
X100968309Y-87890941D01*
X101076666Y-87798395D01*
X101076667Y-87798394D01*
X101082348Y-87793542D01*
X101088606Y-87784834D01*
X101142742Y-87709495D01*
X101174224Y-87665683D01*
X101232950Y-87519598D01*
X101234793Y-87506649D01*
X101254562Y-87367744D01*
X101254562Y-87367740D01*
X101255134Y-87363723D01*
X101255278Y-87350000D01*
X101247573Y-87286330D01*
X101237262Y-87201119D01*
X101237261Y-87201115D01*
X101236363Y-87193694D01*
X101180710Y-87046412D01*
X101182618Y-87045691D01*
X101171020Y-86987342D01*
X101196611Y-86922327D01*
X101253289Y-86881469D01*
X101323059Y-86877740D01*
X101382206Y-86910731D01*
X102177223Y-87705747D01*
X102180818Y-87709495D01*
X102222880Y-87755237D01*
X102256881Y-87776318D01*
X102259942Y-87778216D01*
X102269568Y-87784832D01*
X102304297Y-87811193D01*
X102312154Y-87814304D01*
X102312156Y-87814305D01*
X102318445Y-87816795D01*
X102338131Y-87826696D01*
X102342251Y-87829250D01*
X102351067Y-87834716D01*
X102383452Y-87844125D01*
X102392945Y-87846883D01*
X102403997Y-87850667D01*
X102436671Y-87863604D01*
X102436678Y-87863606D01*
X102444534Y-87866716D01*
X102452937Y-87867599D01*
X102452941Y-87867600D01*
X102459654Y-87868305D01*
X102481295Y-87872551D01*
X102489666Y-87874983D01*
X102495906Y-87876796D01*
X102502381Y-87877271D01*
X102502384Y-87877272D01*
X102504321Y-87877414D01*
X102504323Y-87877414D01*
X102506596Y-87877581D01*
X102541404Y-87877581D01*
X102554366Y-87878260D01*
X102594535Y-87882482D01*
X102602865Y-87881073D01*
X102602868Y-87881073D01*
X102613248Y-87879317D01*
X102633927Y-87877581D01*
X105437420Y-87877581D01*
X105442613Y-87877690D01*
X105496223Y-87879937D01*
X105496224Y-87879937D01*
X105504671Y-87880291D01*
X105512902Y-87878360D01*
X105512906Y-87878360D01*
X105547124Y-87870334D01*
X105558609Y-87868205D01*
X105579120Y-87865395D01*
X105593437Y-87863434D01*
X105593438Y-87863434D01*
X105601809Y-87862287D01*
X105615767Y-87856247D01*
X105636702Y-87849323D01*
X105643280Y-87847780D01*
X105651513Y-87845849D01*
X105689725Y-87824842D01*
X105700212Y-87819705D01*
X105732474Y-87805744D01*
X105732479Y-87805741D01*
X105740232Y-87802386D01*
X105746798Y-87797069D01*
X105746800Y-87797068D01*
X105752053Y-87792814D01*
X105770342Y-87780524D01*
X105783685Y-87773188D01*
X105791799Y-87766184D01*
X105816411Y-87741572D01*
X105826056Y-87732887D01*
X105832161Y-87727943D01*
X105857447Y-87707467D01*
X105868441Y-87691997D01*
X105881836Y-87676147D01*
X106478667Y-87079315D01*
X106482415Y-87075720D01*
X106521935Y-87039380D01*
X106521937Y-87039378D01*
X106528156Y-87033659D01*
X106551136Y-86996595D01*
X106557753Y-86986968D01*
X106572716Y-86967255D01*
X106584112Y-86952242D01*
X106589714Y-86938094D01*
X106599615Y-86918408D01*
X106603181Y-86912656D01*
X106603181Y-86912655D01*
X106607635Y-86905472D01*
X106611226Y-86893112D01*
X106629602Y-86855351D01*
X106674224Y-86793253D01*
X106732950Y-86647168D01*
X106740566Y-86593655D01*
X106754562Y-86495314D01*
X106754562Y-86495310D01*
X106755134Y-86491293D01*
X106755278Y-86477570D01*
X106742950Y-86375696D01*
X106737262Y-86328689D01*
X106737261Y-86328685D01*
X106736363Y-86321264D01*
X106716711Y-86269256D01*
X106683354Y-86180978D01*
X106683352Y-86180975D01*
X106680710Y-86173982D01*
X106676476Y-86167821D01*
X106676473Y-86167816D01*
X106672310Y-86161760D01*
X106650500Y-86091524D01*
X106650500Y-85067680D01*
X106669382Y-85009070D01*
X106666261Y-85007354D01*
X106669864Y-85000800D01*
X106674224Y-84994733D01*
X106686777Y-84963508D01*
X106714609Y-84894273D01*
X106732950Y-84848648D01*
X106734793Y-84835699D01*
X106754562Y-84696794D01*
X106754562Y-84696790D01*
X106755134Y-84692773D01*
X106755200Y-84686537D01*
X106755206Y-84685871D01*
X106755278Y-84679050D01*
X106748140Y-84620065D01*
X106737262Y-84530169D01*
X106737261Y-84530165D01*
X106736363Y-84522744D01*
X106712327Y-84459135D01*
X106683354Y-84382458D01*
X106683352Y-84382455D01*
X106680710Y-84375462D01*
X106672337Y-84363279D01*
X106595768Y-84251871D01*
X106595765Y-84251868D01*
X106591531Y-84245707D01*
X106517567Y-84179807D01*
X106479559Y-84145943D01*
X106479558Y-84145942D01*
X106473976Y-84140969D01*
X106334831Y-84067295D01*
X106210020Y-84035945D01*
X106189378Y-84030760D01*
X106182128Y-84028939D01*
X106100329Y-84028511D01*
X106032158Y-84028154D01*
X106032157Y-84028154D01*
X106024684Y-84028115D01*
X106017421Y-84029859D01*
X106017418Y-84029859D01*
X105962750Y-84042984D01*
X105871588Y-84064870D01*
X105731679Y-84137082D01*
X105726048Y-84141995D01*
X105726047Y-84141995D01*
X105708764Y-84157072D01*
X105613034Y-84240583D01*
X105522501Y-84369398D01*
X105465309Y-84516089D01*
X105444758Y-84672188D01*
X105445578Y-84679616D01*
X105445578Y-84679618D01*
X105447725Y-84699065D01*
X105462035Y-84828683D01*
X105464601Y-84835695D01*
X105464602Y-84835699D01*
X105489566Y-84903914D01*
X105516143Y-84976540D01*
X105520315Y-84982748D01*
X105528420Y-84994810D01*
X105549500Y-85063972D01*
X105549500Y-86090286D01*
X105529164Y-86154589D01*
X105530331Y-86155215D01*
X105527004Y-86161420D01*
X105526952Y-86161584D01*
X105526800Y-86161800D01*
X105526798Y-86161805D01*
X105522501Y-86167918D01*
X105465309Y-86314609D01*
X105444758Y-86470708D01*
X105446722Y-86488495D01*
X105434514Y-86557287D01*
X105411154Y-86589779D01*
X105337968Y-86662966D01*
X105260672Y-86740262D01*
X105199349Y-86773747D01*
X105172991Y-86776581D01*
X102856468Y-86776581D01*
X102789429Y-86756896D01*
X102768787Y-86740262D01*
X100379380Y-84350856D01*
X100375785Y-84347108D01*
X100339444Y-84307587D01*
X100339442Y-84307585D01*
X100333723Y-84301366D01*
X100296660Y-84278386D01*
X100287032Y-84271769D01*
X100259038Y-84250520D01*
X100259035Y-84250518D01*
X100252305Y-84245410D01*
X100244447Y-84242299D01*
X100244442Y-84242296D01*
X100238167Y-84239812D01*
X100218466Y-84229904D01*
X100212721Y-84226342D01*
X100205536Y-84221887D01*
X100179568Y-84214343D01*
X100163664Y-84209722D01*
X100152613Y-84205938D01*
X100119930Y-84192998D01*
X100119927Y-84192997D01*
X100112069Y-84189886D01*
X100096940Y-84188296D01*
X100075306Y-84184051D01*
X100066941Y-84181621D01*
X100060697Y-84179807D01*
X100053198Y-84179256D01*
X100052282Y-84179189D01*
X100052280Y-84179189D01*
X100050007Y-84179022D01*
X100015200Y-84179022D01*
X100002239Y-84178343D01*
X99970474Y-84175004D01*
X99970471Y-84175004D01*
X99962068Y-84174121D01*
X99953738Y-84175530D01*
X99953735Y-84175530D01*
X99943355Y-84177286D01*
X99922676Y-84179022D01*
X98527507Y-84179022D01*
X98460468Y-84159337D01*
X98439826Y-84142703D01*
X98233236Y-83936114D01*
X98199751Y-83874791D01*
X98197815Y-83863330D01*
X98187262Y-83776119D01*
X98187261Y-83776115D01*
X98186363Y-83768694D01*
X98156145Y-83688723D01*
X98133354Y-83628408D01*
X98133352Y-83628405D01*
X98130710Y-83621412D01*
X98126476Y-83615251D01*
X98126473Y-83615246D01*
X98122310Y-83609190D01*
X98100500Y-83538954D01*
X98100500Y-77824500D01*
X98120185Y-77757461D01*
X98172989Y-77711706D01*
X98224500Y-77700500D01*
X99269058Y-77700500D01*
X99328226Y-77715527D01*
X99402208Y-77755696D01*
X99408776Y-77759262D01*
X99500046Y-77783206D01*
X99553841Y-77797319D01*
X99553843Y-77797319D01*
X99561069Y-77799215D01*
X99638127Y-77800425D01*
X99711025Y-77801571D01*
X99711028Y-77801571D01*
X99718495Y-77801688D01*
X99748307Y-77794860D01*
X99818047Y-77799080D01*
X99874436Y-77840336D01*
X99899569Y-77905529D01*
X99899989Y-77915730D01*
X99899989Y-79297287D01*
X99880304Y-79364326D01*
X99863670Y-79384968D01*
X99565564Y-79683074D01*
X99554651Y-79692772D01*
X99546895Y-79698886D01*
X99527890Y-79713869D01*
X99522620Y-79721494D01*
X99494510Y-79762167D01*
X99492281Y-79765287D01*
X99457366Y-79812557D01*
X99454973Y-79819373D01*
X99450869Y-79825310D01*
X99440015Y-79859630D01*
X99433175Y-79881257D01*
X99431943Y-79884950D01*
X99415552Y-79931625D01*
X99415551Y-79931629D01*
X99412481Y-79940372D01*
X99412202Y-79947476D01*
X99412153Y-79947727D01*
X99410020Y-79954471D01*
X99409500Y-79961078D01*
X99409500Y-80013809D01*
X99409404Y-80018678D01*
X99408046Y-80053249D01*
X99407162Y-80075735D01*
X99409040Y-80082819D01*
X99409500Y-80091179D01*
X99409500Y-80764777D01*
X99389815Y-80831816D01*
X99378204Y-80847023D01*
X99373034Y-80851533D01*
X99282501Y-80980348D01*
X99225309Y-81127039D01*
X99204758Y-81283138D01*
X99205578Y-81290566D01*
X99205578Y-81290568D01*
X99217052Y-81394500D01*
X99222035Y-81439633D01*
X99224601Y-81446645D01*
X99224602Y-81446649D01*
X99254206Y-81527544D01*
X99276143Y-81587490D01*
X99363958Y-81718172D01*
X99407998Y-81758245D01*
X99474878Y-81819102D01*
X99474882Y-81819105D01*
X99480410Y-81824135D01*
X99486980Y-81827702D01*
X99486981Y-81827703D01*
X99601257Y-81889750D01*
X99618776Y-81899262D01*
X99715798Y-81924715D01*
X99763841Y-81937319D01*
X99763843Y-81937319D01*
X99771069Y-81939215D01*
X99848127Y-81940425D01*
X99921025Y-81941571D01*
X99921028Y-81941571D01*
X99928495Y-81941688D01*
X99935776Y-81940020D01*
X99935780Y-81940020D01*
X100074681Y-81908207D01*
X100081968Y-81906538D01*
X100222625Y-81835795D01*
X100228306Y-81830943D01*
X100228309Y-81830941D01*
X100336666Y-81738395D01*
X100336667Y-81738394D01*
X100342348Y-81733542D01*
X100353393Y-81718172D01*
X100379458Y-81681898D01*
X100434224Y-81605683D01*
X100492950Y-81459598D01*
X100495693Y-81440327D01*
X100514562Y-81307744D01*
X100514562Y-81307740D01*
X100515134Y-81303723D01*
X100515278Y-81290000D01*
X100496363Y-81133694D01*
X100440710Y-80986412D01*
X100429112Y-80969537D01*
X100355768Y-80862821D01*
X100355765Y-80862818D01*
X100351531Y-80856657D01*
X100345945Y-80851680D01*
X100341488Y-80846625D01*
X100311918Y-80783321D01*
X100310500Y-80764620D01*
X100310500Y-80339623D01*
X100330185Y-80272584D01*
X100382989Y-80226829D01*
X100452147Y-80216885D01*
X100515703Y-80245910D01*
X100528366Y-80258598D01*
X100532903Y-80263855D01*
X100537072Y-80270058D01*
X100542601Y-80275089D01*
X100647992Y-80370988D01*
X100647996Y-80370991D01*
X100653524Y-80376021D01*
X100660094Y-80379588D01*
X100660095Y-80379589D01*
X100681185Y-80391040D01*
X100791890Y-80451148D01*
X100894145Y-80477974D01*
X100936955Y-80489205D01*
X100936957Y-80489205D01*
X100944183Y-80491101D01*
X101021241Y-80492311D01*
X101094139Y-80493457D01*
X101094142Y-80493457D01*
X101101609Y-80493574D01*
X101108890Y-80491906D01*
X101108894Y-80491906D01*
X101247795Y-80460093D01*
X101255082Y-80458424D01*
X101395739Y-80387681D01*
X101401420Y-80382829D01*
X101401423Y-80382827D01*
X101509780Y-80290281D01*
X101509781Y-80290280D01*
X101515462Y-80285428D01*
X101522131Y-80276148D01*
X101567978Y-80212344D01*
X101607338Y-80157569D01*
X101666064Y-80011484D01*
X101671652Y-79972222D01*
X101687676Y-79859630D01*
X101687676Y-79859626D01*
X101688248Y-79855609D01*
X101688392Y-79841886D01*
X101684627Y-79810775D01*
X101670376Y-79693005D01*
X101670375Y-79693001D01*
X101669477Y-79685580D01*
X101645730Y-79622734D01*
X101616468Y-79545294D01*
X101616466Y-79545291D01*
X101613824Y-79538298D01*
X101609587Y-79532133D01*
X101528882Y-79414707D01*
X101528879Y-79414704D01*
X101524645Y-79408543D01*
X101492011Y-79379467D01*
X101455052Y-79320173D01*
X101450500Y-79286884D01*
X101450500Y-78820612D01*
X101470185Y-78753573D01*
X101493968Y-78726322D01*
X101526666Y-78698395D01*
X101532348Y-78693542D01*
X101624224Y-78565683D01*
X101682950Y-78419598D01*
X101694285Y-78339953D01*
X101704562Y-78267744D01*
X101704562Y-78267740D01*
X101705134Y-78263723D01*
X101705278Y-78250000D01*
X101697345Y-78184445D01*
X101687262Y-78101119D01*
X101687261Y-78101115D01*
X101686363Y-78093694D01*
X101667774Y-78044500D01*
X101633354Y-77953408D01*
X101633352Y-77953405D01*
X101630710Y-77946412D01*
X101602612Y-77905529D01*
X101545768Y-77822821D01*
X101545765Y-77822818D01*
X101541531Y-77816657D01*
X101481508Y-77763178D01*
X101429559Y-77716893D01*
X101429558Y-77716892D01*
X101423976Y-77711919D01*
X101284831Y-77638245D01*
X101132128Y-77599889D01*
X101050329Y-77599461D01*
X100982158Y-77599104D01*
X100982157Y-77599104D01*
X100974684Y-77599065D01*
X100967415Y-77600810D01*
X100967416Y-77600810D01*
X100953935Y-77604046D01*
X100884153Y-77600555D01*
X100827336Y-77559891D01*
X100801523Y-77494964D01*
X100800989Y-77483472D01*
X100800989Y-65859592D01*
X100801848Y-65845018D01*
X100804764Y-65820382D01*
X100804764Y-65820381D01*
X100805853Y-65811179D01*
X100804188Y-65802063D01*
X100804188Y-65802056D01*
X100795307Y-65753427D01*
X100794667Y-65749586D01*
X100787316Y-65700691D01*
X100787316Y-65700690D01*
X100785938Y-65691527D01*
X100782812Y-65685017D01*
X100781515Y-65677916D01*
X100775193Y-65665745D01*
X100754450Y-65625811D01*
X100752710Y-65622329D01*
X100731311Y-65577766D01*
X100731310Y-65577764D01*
X100727298Y-65569410D01*
X100722472Y-65564190D01*
X100722329Y-65563977D01*
X100719069Y-65557701D01*
X100714764Y-65552661D01*
X100677495Y-65515392D01*
X100674120Y-65511882D01*
X100641636Y-65476740D01*
X100641633Y-65476738D01*
X100635343Y-65469933D01*
X100629005Y-65466252D01*
X100622764Y-65460661D01*
X99717667Y-64555564D01*
X99707969Y-64544651D01*
X99692611Y-64525170D01*
X99686872Y-64517890D01*
X99638554Y-64484495D01*
X99635454Y-64482281D01*
X99588184Y-64447366D01*
X99581368Y-64444973D01*
X99575431Y-64440869D01*
X99519481Y-64423174D01*
X99515791Y-64421943D01*
X99469116Y-64405552D01*
X99469112Y-64405551D01*
X99460369Y-64402481D01*
X99453265Y-64402202D01*
X99453014Y-64402153D01*
X99446270Y-64400020D01*
X99439663Y-64399500D01*
X99386932Y-64399500D01*
X99382063Y-64399404D01*
X99334273Y-64397526D01*
X99334272Y-64397526D01*
X99325006Y-64397162D01*
X99317922Y-64399040D01*
X99309562Y-64399500D01*
X89859891Y-64399500D01*
X89792852Y-64379815D01*
X89777402Y-64368083D01*
X89704559Y-64303182D01*
X89704557Y-64303181D01*
X89698976Y-64298208D01*
X89559831Y-64224534D01*
X89407128Y-64186178D01*
X89325329Y-64185750D01*
X89257158Y-64185393D01*
X89257157Y-64185393D01*
X89249684Y-64185354D01*
X89242421Y-64187098D01*
X89242418Y-64187098D01*
X89173136Y-64203732D01*
X89096588Y-64222109D01*
X88956679Y-64294321D01*
X88838034Y-64397822D01*
X88747501Y-64526637D01*
X88744785Y-64533602D01*
X88744785Y-64533603D01*
X88736223Y-64555564D01*
X88690309Y-64673328D01*
X88669758Y-64829427D01*
X88687035Y-64985922D01*
X88741143Y-65133779D01*
X88828958Y-65264461D01*
X88869816Y-65301639D01*
X88939878Y-65365391D01*
X88939882Y-65365394D01*
X88945410Y-65370424D01*
X88951980Y-65373991D01*
X88951981Y-65373992D01*
X88966885Y-65382084D01*
X89083776Y-65445551D01*
X89186031Y-65472377D01*
X89228841Y-65483608D01*
X89228843Y-65483608D01*
X89236069Y-65485504D01*
X89313127Y-65486714D01*
X89386025Y-65487860D01*
X89386028Y-65487860D01*
X89393495Y-65487977D01*
X89400776Y-65486309D01*
X89400780Y-65486309D01*
X89539681Y-65454496D01*
X89546968Y-65452827D01*
X89617886Y-65417159D01*
X89680945Y-65385444D01*
X89680947Y-65385443D01*
X89687625Y-65382084D01*
X89693306Y-65377232D01*
X89693315Y-65377226D01*
X89748363Y-65330210D01*
X89812124Y-65301639D01*
X89828894Y-65300500D01*
X99137035Y-65300500D01*
X99204074Y-65320185D01*
X99224716Y-65336819D01*
X99863670Y-65975773D01*
X99897155Y-66037096D01*
X99899989Y-66063454D01*
X99899989Y-76383054D01*
X99880304Y-76450093D01*
X99827500Y-76495848D01*
X99758342Y-76505792D01*
X99745784Y-76503319D01*
X99739378Y-76501710D01*
X99732128Y-76499889D01*
X99650329Y-76499461D01*
X99582158Y-76499104D01*
X99582157Y-76499104D01*
X99574684Y-76499065D01*
X99567421Y-76500809D01*
X99567418Y-76500809D01*
X99498136Y-76517443D01*
X99421588Y-76535820D01*
X99401340Y-76546271D01*
X99324968Y-76585689D01*
X99268096Y-76599500D01*
X93581324Y-76599500D01*
X93523301Y-76585087D01*
X93441443Y-76541745D01*
X93441437Y-76541743D01*
X93434831Y-76538245D01*
X93282128Y-76499889D01*
X93200329Y-76499461D01*
X93132158Y-76499104D01*
X93132157Y-76499104D01*
X93124684Y-76499065D01*
X93117421Y-76500809D01*
X93117418Y-76500809D01*
X93048136Y-76517443D01*
X92971588Y-76535820D01*
X92831679Y-76608032D01*
X92713034Y-76711533D01*
X92622501Y-76840348D01*
X92565309Y-76987039D01*
X92544758Y-77143138D01*
X92562035Y-77299633D01*
X92616143Y-77447490D01*
X92703958Y-77578172D01*
X92758693Y-77627977D01*
X92814878Y-77679102D01*
X92814882Y-77679105D01*
X92820410Y-77684135D01*
X92826980Y-77687702D01*
X92826981Y-77687703D01*
X92952208Y-77755696D01*
X92958776Y-77759262D01*
X93050046Y-77783206D01*
X93103841Y-77797319D01*
X93103843Y-77797319D01*
X93111069Y-77799215D01*
X93188127Y-77800425D01*
X93261025Y-77801571D01*
X93261028Y-77801571D01*
X93268495Y-77801688D01*
X93275776Y-77800020D01*
X93275780Y-77800020D01*
X93414677Y-77768208D01*
X93414678Y-77768208D01*
X93421968Y-77766538D01*
X93526981Y-77713722D01*
X93582697Y-77700500D01*
X96875500Y-77700500D01*
X96942539Y-77720185D01*
X96988294Y-77772989D01*
X96999500Y-77824500D01*
X96999500Y-83537716D01*
X96979164Y-83602019D01*
X96980331Y-83602645D01*
X96977004Y-83608850D01*
X96976952Y-83609014D01*
X96976800Y-83609230D01*
X96976798Y-83609235D01*
X96972501Y-83615348D01*
X96915309Y-83762039D01*
X96894758Y-83918138D01*
X96895578Y-83925566D01*
X96895578Y-83925568D01*
X96902139Y-83984999D01*
X96912035Y-84074633D01*
X96914601Y-84081645D01*
X96914602Y-84081649D01*
X96936686Y-84141995D01*
X96966143Y-84222490D01*
X97053958Y-84353172D01*
X97078826Y-84375800D01*
X97164878Y-84454102D01*
X97164882Y-84454105D01*
X97170410Y-84459135D01*
X97217626Y-84484771D01*
X97246130Y-84506057D01*
X97544678Y-84804604D01*
X97848263Y-85108189D01*
X97851857Y-85111937D01*
X97879545Y-85142047D01*
X97910434Y-85204718D01*
X97902536Y-85274140D01*
X97858359Y-85328271D01*
X97788270Y-85349980D01*
X94567735Y-85349980D01*
X94500696Y-85330295D01*
X94480051Y-85313659D01*
X94461816Y-85295423D01*
X94428333Y-85234099D01*
X94425500Y-85207744D01*
X94425500Y-82393143D01*
X94425499Y-82393137D01*
X94425499Y-82361229D01*
X94418651Y-82340152D01*
X94414114Y-82321256D01*
X94410646Y-82299358D01*
X94400586Y-82279614D01*
X94393140Y-82261637D01*
X94389312Y-82249855D01*
X94386296Y-82240572D01*
X94373274Y-82222648D01*
X94363107Y-82206058D01*
X94353050Y-82186320D01*
X94263342Y-82096612D01*
X92861247Y-80694516D01*
X92861243Y-80694513D01*
X92838680Y-80671950D01*
X92818940Y-80661892D01*
X92802354Y-80651728D01*
X92784428Y-80638704D01*
X92771991Y-80634663D01*
X92763357Y-80631857D01*
X92745386Y-80624413D01*
X92734340Y-80618785D01*
X92734335Y-80618783D01*
X92725642Y-80614354D01*
X92703762Y-80610889D01*
X92684837Y-80606345D01*
X92684445Y-80606218D01*
X92663771Y-80599500D01*
X88944321Y-80599500D01*
X88877282Y-80579815D01*
X88831527Y-80527011D01*
X88821583Y-80457853D01*
X88829269Y-80429250D01*
X88877478Y-80309327D01*
X88877480Y-80309321D01*
X88880265Y-80302392D01*
X88881318Y-80294995D01*
X88901877Y-80150538D01*
X88901877Y-80150534D01*
X88902449Y-80146517D01*
X88902593Y-80132794D01*
X88900579Y-80116150D01*
X88884577Y-79983913D01*
X88884576Y-79983909D01*
X88883678Y-79976488D01*
X88872757Y-79947586D01*
X88830669Y-79836202D01*
X88830667Y-79836199D01*
X88828025Y-79829206D01*
X88778225Y-79756747D01*
X88756475Y-79690350D01*
X88774076Y-79622734D01*
X88779718Y-79614154D01*
X88832207Y-79541108D01*
X88890933Y-79395023D01*
X88904843Y-79297287D01*
X88912545Y-79243169D01*
X88912545Y-79243165D01*
X88913117Y-79239148D01*
X88913261Y-79225425D01*
X88894346Y-79069119D01*
X88838693Y-78921837D01*
X88798051Y-78862703D01*
X88776301Y-78796304D01*
X88793902Y-78728688D01*
X88799543Y-78720109D01*
X88855733Y-78641913D01*
X88914459Y-78495828D01*
X88916170Y-78483807D01*
X88936071Y-78343974D01*
X88936071Y-78343970D01*
X88936643Y-78339953D01*
X88936787Y-78326230D01*
X88930240Y-78272126D01*
X88918771Y-78177349D01*
X88918770Y-78177345D01*
X88917872Y-78169924D01*
X88886423Y-78086697D01*
X88864863Y-78029638D01*
X88864861Y-78029635D01*
X88862219Y-78022642D01*
X88846671Y-78000020D01*
X88777277Y-77899051D01*
X88777274Y-77899048D01*
X88773040Y-77892887D01*
X88670681Y-77801688D01*
X88661068Y-77793123D01*
X88661067Y-77793122D01*
X88655485Y-77788149D01*
X88516340Y-77714475D01*
X88363637Y-77676119D01*
X88348853Y-77676042D01*
X88281918Y-77656009D01*
X88236439Y-77602967D01*
X88225500Y-77552044D01*
X88225500Y-66768138D01*
X88944778Y-66768138D01*
X88945598Y-66775566D01*
X88945598Y-66775568D01*
X88952250Y-66835820D01*
X88962055Y-66924633D01*
X88964621Y-66931645D01*
X88964622Y-66931649D01*
X88984398Y-66985688D01*
X89016163Y-67072490D01*
X89103978Y-67203172D01*
X89120708Y-67218395D01*
X89214898Y-67304102D01*
X89214902Y-67304105D01*
X89220430Y-67309135D01*
X89227000Y-67312702D01*
X89227001Y-67312703D01*
X89343019Y-67375696D01*
X89358796Y-67384262D01*
X89461051Y-67411088D01*
X89503861Y-67422319D01*
X89503863Y-67422319D01*
X89511089Y-67424215D01*
X89588147Y-67425425D01*
X89661045Y-67426571D01*
X89661048Y-67426571D01*
X89668515Y-67426688D01*
X89675796Y-67425020D01*
X89675800Y-67425020D01*
X89814697Y-67393208D01*
X89814698Y-67393208D01*
X89821988Y-67391538D01*
X89927001Y-67338722D01*
X89982717Y-67325500D01*
X90926806Y-67325500D01*
X90985974Y-67340527D01*
X91034100Y-67366657D01*
X91057315Y-67379262D01*
X91159570Y-67406088D01*
X91202380Y-67417319D01*
X91202382Y-67417319D01*
X91209608Y-67419215D01*
X91286666Y-67420425D01*
X91359564Y-67421571D01*
X91359567Y-67421571D01*
X91367034Y-67421688D01*
X91374315Y-67420020D01*
X91374319Y-67420020D01*
X91513220Y-67388207D01*
X91520507Y-67386538D01*
X91661164Y-67315795D01*
X91666845Y-67310943D01*
X91666848Y-67310941D01*
X91775205Y-67218395D01*
X91775206Y-67218394D01*
X91780887Y-67213542D01*
X91792568Y-67197287D01*
X91827218Y-67149065D01*
X91872763Y-67085683D01*
X91931489Y-66939598D01*
X91932542Y-66932201D01*
X91953101Y-66787744D01*
X91953101Y-66787740D01*
X91953673Y-66783723D01*
X91953817Y-66770000D01*
X91934902Y-66613694D01*
X91879249Y-66466412D01*
X91874312Y-66459229D01*
X91794307Y-66342821D01*
X91794304Y-66342818D01*
X91790070Y-66336657D01*
X91743790Y-66295423D01*
X91678098Y-66236893D01*
X91678097Y-66236892D01*
X91672515Y-66231919D01*
X91533370Y-66158245D01*
X91380667Y-66119889D01*
X91298868Y-66119461D01*
X91230697Y-66119104D01*
X91230696Y-66119104D01*
X91223223Y-66119065D01*
X91215960Y-66120809D01*
X91215957Y-66120809D01*
X91146675Y-66137443D01*
X91070127Y-66155820D01*
X90964986Y-66210087D01*
X90963820Y-66210689D01*
X90906948Y-66224500D01*
X89981344Y-66224500D01*
X89923321Y-66210087D01*
X89841463Y-66166745D01*
X89841457Y-66166743D01*
X89834851Y-66163245D01*
X89682148Y-66124889D01*
X89600349Y-66124461D01*
X89532178Y-66124104D01*
X89532177Y-66124104D01*
X89524704Y-66124065D01*
X89517441Y-66125809D01*
X89517438Y-66125809D01*
X89448156Y-66142442D01*
X89371608Y-66160820D01*
X89231699Y-66233032D01*
X89113054Y-66336533D01*
X89022521Y-66465348D01*
X89019805Y-66472313D01*
X89019805Y-66472314D01*
X88993925Y-66538694D01*
X88965329Y-66612039D01*
X88944778Y-66768138D01*
X88225500Y-66768138D01*
X88225500Y-64322267D01*
X88245185Y-64255228D01*
X88261819Y-64234586D01*
X88561026Y-63935379D01*
X88622349Y-63901894D01*
X88648707Y-63899060D01*
X110033193Y-63899060D01*
X110100232Y-63918745D01*
X110120874Y-63935379D01*
X110187944Y-64002449D01*
X110221429Y-64063772D01*
X110223203Y-64106310D01*
X110221646Y-64118138D01*
X110222466Y-64125566D01*
X110222466Y-64125568D01*
X110229259Y-64187098D01*
X110238923Y-64274633D01*
X110241489Y-64281645D01*
X110241490Y-64281649D01*
X110271094Y-64362544D01*
X110293031Y-64422490D01*
X110380846Y-64553172D01*
X110403071Y-64573395D01*
X110491766Y-64654102D01*
X110491770Y-64654105D01*
X110497298Y-64659135D01*
X110503868Y-64662702D01*
X110503869Y-64662703D01*
X110629096Y-64730696D01*
X110635664Y-64734262D01*
X110737919Y-64761088D01*
X110780729Y-64772319D01*
X110780731Y-64772319D01*
X110787957Y-64774215D01*
X110865015Y-64775425D01*
X110937913Y-64776571D01*
X110937916Y-64776571D01*
X110945383Y-64776688D01*
X110952664Y-64775020D01*
X110952668Y-64775020D01*
X111091569Y-64743207D01*
X111098856Y-64741538D01*
X111239513Y-64670795D01*
X111245196Y-64665941D01*
X111245201Y-64665938D01*
X111304241Y-64615513D01*
X111368002Y-64586942D01*
X111437088Y-64597379D01*
X111468224Y-64618088D01*
X111513335Y-64659135D01*
X111519905Y-64662702D01*
X111519906Y-64662703D01*
X111645133Y-64730696D01*
X111651701Y-64734262D01*
X111753956Y-64761088D01*
X111796766Y-64772319D01*
X111796768Y-64772319D01*
X111803994Y-64774215D01*
X111881052Y-64775425D01*
X111953950Y-64776571D01*
X111953953Y-64776571D01*
X111961420Y-64776688D01*
X111968701Y-64775020D01*
X111968705Y-64775020D01*
X112107606Y-64743207D01*
X112114893Y-64741538D01*
X112255550Y-64670795D01*
X112261233Y-64665941D01*
X112261238Y-64665938D01*
X112320278Y-64615513D01*
X112384039Y-64586942D01*
X112453125Y-64597379D01*
X112484261Y-64618088D01*
X112529372Y-64659135D01*
X112535942Y-64662702D01*
X112535943Y-64662703D01*
X112661170Y-64730696D01*
X112667738Y-64734262D01*
X112769993Y-64761088D01*
X112812803Y-64772319D01*
X112812805Y-64772319D01*
X112820031Y-64774215D01*
X112897089Y-64775425D01*
X112969987Y-64776571D01*
X112969990Y-64776571D01*
X112977457Y-64776688D01*
X112984738Y-64775020D01*
X112984742Y-64775020D01*
X113123643Y-64743207D01*
X113130930Y-64741538D01*
X113271587Y-64670795D01*
X113277268Y-64665943D01*
X113277271Y-64665941D01*
X113336315Y-64615512D01*
X113400077Y-64586941D01*
X113469162Y-64597378D01*
X113500297Y-64618085D01*
X113545410Y-64659135D01*
X113551980Y-64662702D01*
X113551981Y-64662703D01*
X113677208Y-64730696D01*
X113683776Y-64734262D01*
X113786031Y-64761088D01*
X113828841Y-64772319D01*
X113828843Y-64772319D01*
X113836069Y-64774215D01*
X113913127Y-64775425D01*
X113986025Y-64776571D01*
X113986028Y-64776571D01*
X113993495Y-64776688D01*
X114000776Y-64775020D01*
X114000780Y-64775020D01*
X114139681Y-64743207D01*
X114146968Y-64741538D01*
X114287625Y-64670795D01*
X114293306Y-64665943D01*
X114293309Y-64665941D01*
X114401666Y-64573395D01*
X114401667Y-64573394D01*
X114407348Y-64568542D01*
X114418393Y-64553172D01*
X114492622Y-64449870D01*
X114499224Y-64440683D01*
X114557950Y-64294598D01*
X114559793Y-64281649D01*
X114579562Y-64142744D01*
X114579562Y-64142740D01*
X114580134Y-64138723D01*
X114580278Y-64125000D01*
X114577515Y-64102170D01*
X137780000Y-64102170D01*
X137784404Y-64117169D01*
X137785774Y-64118356D01*
X137793332Y-64120000D01*
X143012170Y-64120000D01*
X143027169Y-64115596D01*
X143028356Y-64114226D01*
X143030000Y-64106668D01*
X143030000Y-61387830D01*
X143025596Y-61372831D01*
X143024226Y-61371644D01*
X143016668Y-61370000D01*
X138236028Y-61370000D01*
X138229331Y-61370363D01*
X138179256Y-61375803D01*
X138164247Y-61379371D01*
X138045689Y-61423817D01*
X138030354Y-61432212D01*
X137929876Y-61507516D01*
X137917516Y-61519876D01*
X137842212Y-61620354D01*
X137833817Y-61635689D01*
X137789371Y-61754247D01*
X137785803Y-61769256D01*
X137780363Y-61819331D01*
X137780000Y-61826028D01*
X137780000Y-64102170D01*
X114577515Y-64102170D01*
X114572869Y-64063772D01*
X114562262Y-63976119D01*
X114562261Y-63976115D01*
X114561363Y-63968694D01*
X114542489Y-63918745D01*
X114508354Y-63828408D01*
X114508352Y-63828405D01*
X114505710Y-63821412D01*
X114501473Y-63815247D01*
X114420768Y-63697821D01*
X114420765Y-63697818D01*
X114416531Y-63691657D01*
X114319669Y-63605356D01*
X114304559Y-63591893D01*
X114304558Y-63591892D01*
X114298976Y-63586919D01*
X114159831Y-63513245D01*
X114080769Y-63493386D01*
X114014378Y-63476710D01*
X114007128Y-63474889D01*
X113965809Y-63474673D01*
X113891391Y-63474283D01*
X113824455Y-63454248D01*
X113804359Y-63437966D01*
X112360909Y-61994516D01*
X112360905Y-61994513D01*
X112338342Y-61971950D01*
X112318602Y-61961892D01*
X112302016Y-61951728D01*
X112284090Y-61938704D01*
X112271653Y-61934663D01*
X112263019Y-61931857D01*
X112245048Y-61924413D01*
X112234002Y-61918785D01*
X112233997Y-61918783D01*
X112225304Y-61914354D01*
X112203424Y-61910889D01*
X112184499Y-61906345D01*
X112184107Y-61906218D01*
X112163433Y-61899500D01*
X87871561Y-61899500D01*
X87850887Y-61906218D01*
X87850495Y-61906345D01*
X87831570Y-61910889D01*
X87809690Y-61914354D01*
X87800997Y-61918783D01*
X87800992Y-61918785D01*
X87789946Y-61924413D01*
X87771975Y-61931857D01*
X87763341Y-61934663D01*
X87750904Y-61938704D01*
X87732978Y-61951728D01*
X87716392Y-61961892D01*
X87696652Y-61971950D01*
X87674089Y-61994513D01*
X87674085Y-61994516D01*
X86270477Y-63398124D01*
X86270474Y-63398128D01*
X86247911Y-63420691D01*
X86243481Y-63429386D01*
X86237855Y-63440428D01*
X86227689Y-63457017D01*
X86214665Y-63474943D01*
X86211648Y-63484229D01*
X86207818Y-63496014D01*
X86200374Y-63513985D01*
X86194746Y-63525031D01*
X86194744Y-63525036D01*
X86190315Y-63533729D01*
X86188789Y-63543366D01*
X86186850Y-63555608D01*
X86182306Y-63574534D01*
X86175461Y-63595600D01*
X86175461Y-75527011D01*
X86155776Y-75594050D01*
X86102972Y-75639805D01*
X86033814Y-75649749D01*
X86021254Y-75647275D01*
X85939380Y-75626710D01*
X85939376Y-75626709D01*
X85932128Y-75624889D01*
X85850329Y-75624461D01*
X85782158Y-75624104D01*
X85782157Y-75624104D01*
X85774684Y-75624065D01*
X85767421Y-75625809D01*
X85767418Y-75625809D01*
X85709122Y-75639805D01*
X85621588Y-75660820D01*
X85481679Y-75733032D01*
X85476048Y-75737945D01*
X85476047Y-75737945D01*
X85376382Y-75824889D01*
X85365449Y-75834426D01*
X85365446Y-75834428D01*
X85363034Y-75836533D01*
X85362683Y-75836131D01*
X85307512Y-75870120D01*
X85274848Y-75874500D01*
X76917254Y-75874500D01*
X76850215Y-75854815D01*
X76829573Y-75838181D01*
X76286397Y-75295004D01*
X76286389Y-75294996D01*
X76286385Y-75294993D01*
X76263822Y-75272430D01*
X76244082Y-75262372D01*
X76227496Y-75252208D01*
X76209570Y-75239184D01*
X76197133Y-75235143D01*
X76188499Y-75232337D01*
X76170528Y-75224893D01*
X76159482Y-75219265D01*
X76159477Y-75219263D01*
X76150784Y-75214834D01*
X76128904Y-75211369D01*
X76109979Y-75206825D01*
X76109587Y-75206698D01*
X76088913Y-75199980D01*
X74617735Y-75199980D01*
X74550696Y-75180295D01*
X74530054Y-75163661D01*
X74311819Y-74945426D01*
X74278334Y-74884103D01*
X74275500Y-74857745D01*
X74275500Y-68936567D01*
X74268655Y-68915501D01*
X74264111Y-68896575D01*
X74262172Y-68884333D01*
X74260646Y-68874696D01*
X74256217Y-68866003D01*
X74256215Y-68865998D01*
X74250587Y-68854952D01*
X74243143Y-68836981D01*
X74240337Y-68828347D01*
X74236296Y-68815910D01*
X74223272Y-68797984D01*
X74213106Y-68781395D01*
X74207480Y-68770353D01*
X74203050Y-68761658D01*
X74180487Y-68739095D01*
X74180484Y-68739091D01*
X73014600Y-67573207D01*
X72981115Y-67511884D01*
X72979653Y-67471819D01*
X72979254Y-67471789D01*
X72979523Y-67468255D01*
X72979516Y-67468069D01*
X72979561Y-67467752D01*
X72979561Y-67467746D01*
X72980134Y-67463723D01*
X72980278Y-67450000D01*
X72976323Y-67417319D01*
X72962262Y-67301119D01*
X72962261Y-67301115D01*
X72961363Y-67293694D01*
X72924934Y-67197287D01*
X72908354Y-67153408D01*
X72908352Y-67153405D01*
X72905710Y-67146412D01*
X72897337Y-67134229D01*
X72820768Y-67022821D01*
X72820765Y-67022818D01*
X72816531Y-67016657D01*
X72748840Y-66956346D01*
X72704559Y-66916893D01*
X72704558Y-66916892D01*
X72698976Y-66911919D01*
X72559831Y-66838245D01*
X72407128Y-66799889D01*
X72325329Y-66799461D01*
X72257158Y-66799104D01*
X72257157Y-66799104D01*
X72249684Y-66799065D01*
X72242421Y-66800809D01*
X72242418Y-66800809D01*
X72173136Y-66817443D01*
X72096588Y-66835820D01*
X71956679Y-66908032D01*
X71951048Y-66912945D01*
X71951047Y-66912945D01*
X71909142Y-66949501D01*
X71838034Y-67011533D01*
X71747501Y-67140348D01*
X71690309Y-67287039D01*
X71669758Y-67443138D01*
X71670578Y-67450566D01*
X71670578Y-67450568D01*
X71679281Y-67529395D01*
X71687035Y-67599633D01*
X71689601Y-67606645D01*
X71689602Y-67606649D01*
X71714106Y-67673608D01*
X71741143Y-67747490D01*
X71828958Y-67878172D01*
X71883693Y-67927977D01*
X71939878Y-67979102D01*
X71939882Y-67979105D01*
X71945410Y-67984135D01*
X72083776Y-68059262D01*
X72186031Y-68086088D01*
X72228841Y-68097319D01*
X72228843Y-68097319D01*
X72236069Y-68099215D01*
X72360345Y-68101167D01*
X72427066Y-68121902D01*
X72446078Y-68137471D01*
X73438181Y-69129574D01*
X73471666Y-69190897D01*
X73474500Y-69217255D01*
X73474500Y-75138433D01*
X73477515Y-75147711D01*
X73481345Y-75159499D01*
X73485889Y-75178424D01*
X73489354Y-75200304D01*
X73493783Y-75208997D01*
X73493785Y-75209002D01*
X73499413Y-75220048D01*
X73506857Y-75238019D01*
X73509663Y-75246653D01*
X73513704Y-75259090D01*
X73526728Y-75277016D01*
X73536892Y-75293602D01*
X73546950Y-75313342D01*
X73569513Y-75335905D01*
X73569516Y-75335909D01*
X74139571Y-75905964D01*
X74139575Y-75905967D01*
X74162138Y-75928530D01*
X74181878Y-75938588D01*
X74198462Y-75948750D01*
X74206598Y-75954662D01*
X74249260Y-76009992D01*
X74255236Y-76079606D01*
X74249238Y-76100016D01*
X74215309Y-76187039D01*
X74194758Y-76343138D01*
X74212035Y-76499633D01*
X74214601Y-76506645D01*
X74214602Y-76506649D01*
X74227446Y-76541745D01*
X74266143Y-76647490D01*
X74270314Y-76653697D01*
X74339171Y-76756166D01*
X74353958Y-76778172D01*
X74387062Y-76808294D01*
X74464878Y-76879102D01*
X74464882Y-76879105D01*
X74470410Y-76884135D01*
X74476980Y-76887702D01*
X74476981Y-76887703D01*
X74544443Y-76924332D01*
X74608776Y-76959262D01*
X74711031Y-76986088D01*
X74753841Y-76997319D01*
X74753843Y-76997319D01*
X74761069Y-76999215D01*
X74838127Y-77000425D01*
X74911025Y-77001571D01*
X74911028Y-77001571D01*
X74918495Y-77001688D01*
X74925776Y-77000020D01*
X74925780Y-77000020D01*
X75064681Y-76968207D01*
X75071968Y-76966538D01*
X75212625Y-76895795D01*
X75218306Y-76890943D01*
X75218309Y-76890941D01*
X75326666Y-76798395D01*
X75326667Y-76798394D01*
X75332348Y-76793542D01*
X75343393Y-76778172D01*
X75373392Y-76736423D01*
X75424224Y-76665683D01*
X75482950Y-76519598D01*
X75484739Y-76507028D01*
X75513673Y-76443431D01*
X75572398Y-76405573D01*
X75607502Y-76400500D01*
X75642739Y-76400500D01*
X75709778Y-76420185D01*
X75730420Y-76436819D01*
X76273604Y-76980003D01*
X76273608Y-76980006D01*
X76296171Y-77002569D01*
X76315911Y-77012627D01*
X76332497Y-77022791D01*
X76350423Y-77035815D01*
X76362860Y-77039856D01*
X76371494Y-77042662D01*
X76389465Y-77050106D01*
X76400511Y-77055734D01*
X76400516Y-77055736D01*
X76409209Y-77060165D01*
X76431089Y-77063630D01*
X76450014Y-77068174D01*
X76471080Y-77075019D01*
X76502994Y-77075019D01*
X83582527Y-77075020D01*
X83649566Y-77094705D01*
X83670208Y-77111339D01*
X85739622Y-79180752D01*
X85773107Y-79242075D01*
X85775941Y-79268433D01*
X85775941Y-79962944D01*
X85778956Y-79972222D01*
X85782786Y-79984010D01*
X85787330Y-80002935D01*
X85790795Y-80024815D01*
X85795224Y-80033508D01*
X85795226Y-80033513D01*
X85800854Y-80044559D01*
X85808298Y-80062530D01*
X85809578Y-80066468D01*
X85815145Y-80083601D01*
X85828169Y-80101527D01*
X85838333Y-80118113D01*
X85848391Y-80137853D01*
X85870954Y-80160416D01*
X85870957Y-80160420D01*
X86252504Y-80541967D01*
X86285989Y-80603290D01*
X86281005Y-80672982D01*
X86235340Y-80731163D01*
X86231679Y-80733052D01*
X86226048Y-80737965D01*
X86226047Y-80737965D01*
X86132328Y-80819722D01*
X86115449Y-80834446D01*
X86115446Y-80834448D01*
X86113034Y-80836553D01*
X86112683Y-80836151D01*
X86057512Y-80870140D01*
X86024848Y-80874520D01*
X84778455Y-80874520D01*
X84778451Y-80874521D01*
X84746541Y-80874521D01*
X84725464Y-80881369D01*
X84706568Y-80885906D01*
X84684670Y-80889374D01*
X84675975Y-80893804D01*
X84675973Y-80893805D01*
X84664926Y-80899434D01*
X84646951Y-80906879D01*
X84625884Y-80913724D01*
X84617987Y-80919461D01*
X84617988Y-80919461D01*
X84607961Y-80926746D01*
X84591371Y-80936912D01*
X84571632Y-80946970D01*
X84549065Y-80969537D01*
X83619516Y-81899085D01*
X83619513Y-81899089D01*
X83596950Y-81921652D01*
X83587592Y-81940020D01*
X83586894Y-81941389D01*
X83576728Y-81957978D01*
X83563704Y-81975904D01*
X83560687Y-81985190D01*
X83556857Y-81996975D01*
X83549413Y-82014946D01*
X83543785Y-82025992D01*
X83543783Y-82025997D01*
X83539354Y-82034690D01*
X83535889Y-82056569D01*
X83531345Y-82075495D01*
X83524500Y-82096561D01*
X83524500Y-97077734D01*
X83504815Y-97144773D01*
X83488186Y-97165410D01*
X83336135Y-97317460D01*
X83336132Y-97317464D01*
X83313569Y-97340027D01*
X83309139Y-97348722D01*
X83303513Y-97359764D01*
X83293347Y-97376353D01*
X83280323Y-97394279D01*
X83277306Y-97403565D01*
X83273476Y-97415350D01*
X83266032Y-97433321D01*
X83260404Y-97444367D01*
X83260402Y-97444372D01*
X83255973Y-97453065D01*
X83254447Y-97462702D01*
X83252508Y-97474944D01*
X83247964Y-97493870D01*
X83241119Y-97514936D01*
X83241119Y-97546850D01*
X83241120Y-98216468D01*
X83241120Y-98588234D01*
X83221435Y-98655273D01*
X83168631Y-98701028D01*
X83099473Y-98710972D01*
X83035917Y-98681947D01*
X83029439Y-98675915D01*
X82813832Y-98460308D01*
X82785518Y-98416458D01*
X82733354Y-98278408D01*
X82733352Y-98278405D01*
X82730710Y-98271412D01*
X82707431Y-98237541D01*
X82645768Y-98147821D01*
X82645765Y-98147818D01*
X82641531Y-98141657D01*
X82563249Y-98071910D01*
X82529559Y-98041893D01*
X82529558Y-98041892D01*
X82523976Y-98036919D01*
X82384831Y-97963245D01*
X82232128Y-97924889D01*
X82150329Y-97924461D01*
X82082158Y-97924104D01*
X82082157Y-97924104D01*
X82074684Y-97924065D01*
X82067421Y-97925809D01*
X82067418Y-97925809D01*
X81998136Y-97942443D01*
X81921588Y-97960820D01*
X81781679Y-98033032D01*
X81663034Y-98136533D01*
X81572501Y-98265348D01*
X81515309Y-98412039D01*
X81494758Y-98568138D01*
X81495578Y-98575566D01*
X81495578Y-98575568D01*
X81500234Y-98617744D01*
X81512035Y-98724633D01*
X81514601Y-98731645D01*
X81514602Y-98731649D01*
X81544206Y-98812544D01*
X81566143Y-98872490D01*
X81653958Y-99003172D01*
X81698263Y-99043486D01*
X81764878Y-99104102D01*
X81764882Y-99104105D01*
X81770410Y-99109135D01*
X81776980Y-99112702D01*
X81776981Y-99112703D01*
X81828989Y-99140941D01*
X81908776Y-99184262D01*
X81973856Y-99201335D01*
X82030070Y-99233594D01*
X85232701Y-102436225D01*
X85266186Y-102497548D01*
X85269020Y-102523906D01*
X85269020Y-106010144D01*
X85249335Y-106077183D01*
X85196531Y-106122938D01*
X85181834Y-106126373D01*
X85174059Y-106131715D01*
X85170000Y-106141379D01*
X85170000Y-109047460D01*
X85173910Y-109060777D01*
X85179918Y-109061641D01*
X85332704Y-109005427D01*
X85343939Y-108999948D01*
X85497287Y-108904868D01*
X85507192Y-108897240D01*
X85642854Y-108768951D01*
X85644597Y-108770794D01*
X85693904Y-108738995D01*
X85763774Y-108738883D01*
X85816710Y-108770235D01*
X90000142Y-112953666D01*
X90003737Y-112957414D01*
X90015995Y-112970744D01*
X90045799Y-113003156D01*
X90052983Y-113007610D01*
X90082862Y-113026136D01*
X90092490Y-113032753D01*
X90120484Y-113054002D01*
X90120487Y-113054004D01*
X90127217Y-113059112D01*
X90135075Y-113062223D01*
X90135080Y-113062226D01*
X90141355Y-113064710D01*
X90161056Y-113074618D01*
X90173986Y-113082635D01*
X90198287Y-113089695D01*
X90215858Y-113094800D01*
X90226909Y-113098584D01*
X90259592Y-113111524D01*
X90259595Y-113111525D01*
X90267453Y-113114636D01*
X90282582Y-113116226D01*
X90304217Y-113120471D01*
X90318825Y-113124715D01*
X90326324Y-113125266D01*
X90327240Y-113125333D01*
X90327242Y-113125333D01*
X90329515Y-113125500D01*
X90364322Y-113125500D01*
X90377283Y-113126179D01*
X90409048Y-113129518D01*
X90409051Y-113129518D01*
X90417454Y-113130401D01*
X90425784Y-113128992D01*
X90425787Y-113128992D01*
X90436167Y-113127236D01*
X90456846Y-113125500D01*
X95785043Y-113125500D01*
X95790236Y-113125609D01*
X95843846Y-113127856D01*
X95843847Y-113127856D01*
X95852294Y-113128210D01*
X95860525Y-113126279D01*
X95860529Y-113126279D01*
X95894747Y-113118253D01*
X95906232Y-113116124D01*
X95924088Y-113113678D01*
X95941060Y-113111353D01*
X95941061Y-113111353D01*
X95949432Y-113110206D01*
X95963390Y-113104166D01*
X95984325Y-113097242D01*
X95990903Y-113095699D01*
X95999136Y-113093768D01*
X96037348Y-113072761D01*
X96047835Y-113067624D01*
X96080097Y-113053663D01*
X96080102Y-113053660D01*
X96087855Y-113050305D01*
X96094421Y-113044988D01*
X96094423Y-113044987D01*
X96099676Y-113040733D01*
X96117965Y-113028443D01*
X96131308Y-113021107D01*
X96139422Y-113014103D01*
X96164034Y-112989491D01*
X96173679Y-112980806D01*
X96185854Y-112970947D01*
X96205070Y-112955386D01*
X96216062Y-112939919D01*
X96229455Y-112924070D01*
X96239553Y-112913972D01*
X137780000Y-112913972D01*
X137780363Y-112920669D01*
X137785803Y-112970744D01*
X137789371Y-112985753D01*
X137833817Y-113104311D01*
X137842212Y-113119646D01*
X137917516Y-113220124D01*
X137929876Y-113232484D01*
X138030354Y-113307788D01*
X138045689Y-113316183D01*
X138164247Y-113360629D01*
X138179256Y-113364197D01*
X138229331Y-113369637D01*
X138236028Y-113370000D01*
X143012170Y-113370000D01*
X143027169Y-113365596D01*
X143028356Y-113364226D01*
X143030000Y-113356668D01*
X143030000Y-111637830D01*
X143025596Y-111622831D01*
X143024226Y-111621644D01*
X143016668Y-111620000D01*
X137797830Y-111620000D01*
X137782831Y-111624404D01*
X137781644Y-111625774D01*
X137780000Y-111633332D01*
X137780000Y-112913972D01*
X96239553Y-112913972D01*
X96328679Y-112824845D01*
X96332428Y-112821250D01*
X96371935Y-112784922D01*
X96371937Y-112784920D01*
X96378156Y-112779201D01*
X96401136Y-112742138D01*
X96407753Y-112732510D01*
X96429002Y-112704516D01*
X96429004Y-112704513D01*
X96434112Y-112697783D01*
X96437223Y-112689925D01*
X96437226Y-112689920D01*
X96439710Y-112683645D01*
X96449618Y-112663944D01*
X96453180Y-112658199D01*
X96457635Y-112651014D01*
X96469800Y-112609142D01*
X96473584Y-112598091D01*
X96486524Y-112565408D01*
X96486525Y-112565405D01*
X96489636Y-112557547D01*
X96491226Y-112542418D01*
X96495471Y-112520784D01*
X96497901Y-112512419D01*
X96499715Y-112506175D01*
X96500500Y-112495485D01*
X96500500Y-112460678D01*
X96501179Y-112447717D01*
X96504518Y-112415952D01*
X96504518Y-112415949D01*
X96505401Y-112407546D01*
X96502236Y-112388833D01*
X96500500Y-112368154D01*
X96500500Y-110281327D01*
X96520185Y-110214288D01*
X96536819Y-110193646D01*
X96793943Y-109936522D01*
X96853940Y-109903333D01*
X96859495Y-109902061D01*
X96896968Y-109893478D01*
X96903643Y-109890121D01*
X96903648Y-109890119D01*
X97004201Y-109839545D01*
X97037625Y-109822735D01*
X97043306Y-109817883D01*
X97043309Y-109817881D01*
X97151666Y-109725335D01*
X97151667Y-109725334D01*
X97157348Y-109720482D01*
X97249224Y-109592623D01*
X97307950Y-109446538D01*
X97309003Y-109439141D01*
X97329562Y-109294684D01*
X97329562Y-109294680D01*
X97330134Y-109290663D01*
X97330278Y-109276940D01*
X97329790Y-109272907D01*
X97312262Y-109128059D01*
X97312261Y-109128055D01*
X97311363Y-109120634D01*
X97302276Y-109096586D01*
X97258354Y-108980348D01*
X97258352Y-108980345D01*
X97255710Y-108973352D01*
X97244867Y-108957575D01*
X97170768Y-108849761D01*
X97170765Y-108849758D01*
X97166531Y-108843597D01*
X97084192Y-108770235D01*
X97054559Y-108743833D01*
X97054558Y-108743832D01*
X97048976Y-108738859D01*
X96909831Y-108665185D01*
X96757128Y-108626829D01*
X96675329Y-108626401D01*
X96607158Y-108626044D01*
X96607157Y-108626044D01*
X96599684Y-108626005D01*
X96592421Y-108627749D01*
X96592418Y-108627749D01*
X96523136Y-108644382D01*
X96446588Y-108662760D01*
X96306679Y-108734972D01*
X96188034Y-108838473D01*
X96097501Y-108967288D01*
X96094785Y-108974253D01*
X96094785Y-108974254D01*
X96066243Y-109047460D01*
X96040309Y-109113979D01*
X96038922Y-109113438D01*
X96010961Y-109162454D01*
X95571333Y-109602083D01*
X95567585Y-109605678D01*
X95528065Y-109642018D01*
X95528063Y-109642020D01*
X95521844Y-109647739D01*
X95517390Y-109654923D01*
X95498864Y-109684802D01*
X95492247Y-109694430D01*
X95470998Y-109722424D01*
X95470996Y-109722427D01*
X95465888Y-109729157D01*
X95462777Y-109737015D01*
X95462774Y-109737020D01*
X95460290Y-109743295D01*
X95450382Y-109762996D01*
X95442365Y-109775926D01*
X95440007Y-109784043D01*
X95430200Y-109817798D01*
X95426416Y-109828849D01*
X95413476Y-109861532D01*
X95410364Y-109869393D01*
X95408774Y-109884521D01*
X95404529Y-109906156D01*
X95400285Y-109920765D01*
X95399500Y-109931455D01*
X95399500Y-109966262D01*
X95398821Y-109979223D01*
X95396355Y-110002690D01*
X95394599Y-110019394D01*
X95396008Y-110027724D01*
X95396008Y-110027727D01*
X95397764Y-110038107D01*
X95399500Y-110058786D01*
X95399500Y-111900500D01*
X95379815Y-111967539D01*
X95327011Y-112013294D01*
X95275500Y-112024500D01*
X91502272Y-112024500D01*
X91435233Y-112004815D01*
X91389478Y-111952011D01*
X91379509Y-111883029D01*
X91394482Y-111777822D01*
X91394483Y-111777814D01*
X91395054Y-111773799D01*
X91395198Y-111760076D01*
X91395712Y-111760081D01*
X91411059Y-111694751D01*
X91431213Y-111668288D01*
X92527090Y-110572411D01*
X92537148Y-110552672D01*
X92547314Y-110536082D01*
X92554599Y-110526055D01*
X92560336Y-110518159D01*
X92567181Y-110497092D01*
X92574626Y-110479117D01*
X92580255Y-110468070D01*
X92580256Y-110468068D01*
X92584686Y-110459373D01*
X92588154Y-110437475D01*
X92592691Y-110418579D01*
X92599539Y-110397502D01*
X92599539Y-110365594D01*
X92599540Y-110365588D01*
X92599540Y-105722503D01*
X92599539Y-105722497D01*
X92599539Y-105690589D01*
X92592691Y-105669512D01*
X92588154Y-105650616D01*
X92584686Y-105628718D01*
X92574626Y-105608974D01*
X92567180Y-105590997D01*
X92563352Y-105579215D01*
X92560336Y-105569932D01*
X92547314Y-105552008D01*
X92537147Y-105535418D01*
X92531520Y-105524375D01*
X92527090Y-105515680D01*
X88920301Y-101908891D01*
X85334086Y-98322675D01*
X85300601Y-98261352D01*
X85305585Y-98191660D01*
X85334086Y-98147313D01*
X85554523Y-97926876D01*
X85554526Y-97926872D01*
X85577089Y-97904309D01*
X85587148Y-97884566D01*
X85597313Y-97867979D01*
X85604600Y-97857950D01*
X85604601Y-97857948D01*
X85610335Y-97850056D01*
X85617180Y-97828988D01*
X85624626Y-97811013D01*
X85630255Y-97799965D01*
X85634685Y-97791271D01*
X85638150Y-97769391D01*
X85642694Y-97750466D01*
X85646524Y-97738678D01*
X85649539Y-97729400D01*
X85649539Y-93207758D01*
X85649540Y-88811933D01*
X85669225Y-88744894D01*
X85685859Y-88724252D01*
X89301748Y-85108363D01*
X89363071Y-85074878D01*
X89399503Y-85077483D01*
X89396043Y-85065844D01*
X89415504Y-84998740D01*
X89432361Y-84977750D01*
X89822955Y-84587156D01*
X89884278Y-84553671D01*
X89912584Y-84550852D01*
X90004018Y-84552289D01*
X90004022Y-84552289D01*
X90011495Y-84552406D01*
X90018785Y-84550736D01*
X90021822Y-84550417D01*
X90090552Y-84562986D01*
X90141576Y-84610717D01*
X90158695Y-84678457D01*
X90139015Y-84740910D01*
X90100151Y-84801214D01*
X90094025Y-84813555D01*
X90047091Y-84942507D01*
X90005665Y-84998771D01*
X89940396Y-85023707D01*
X89932592Y-85023996D01*
X89931657Y-85024104D01*
X89924184Y-85024065D01*
X89916921Y-85025809D01*
X89916918Y-85025809D01*
X89862679Y-85038831D01*
X89771088Y-85060820D01*
X89631179Y-85133032D01*
X89625548Y-85137945D01*
X89625547Y-85137945D01*
X89601557Y-85158873D01*
X89538098Y-85188109D01*
X89512091Y-85184458D01*
X89513113Y-85187198D01*
X89498261Y-85255471D01*
X89490880Y-85267344D01*
X89422001Y-85365348D01*
X89364809Y-85512039D01*
X89344258Y-85668138D01*
X89345078Y-85675566D01*
X89345078Y-85675568D01*
X89353781Y-85754395D01*
X89361535Y-85824633D01*
X89415643Y-85972490D01*
X89503458Y-86103172D01*
X89539194Y-86135689D01*
X89614378Y-86204102D01*
X89614382Y-86204105D01*
X89619910Y-86209135D01*
X89626480Y-86212702D01*
X89626481Y-86212703D01*
X89751708Y-86280696D01*
X89758276Y-86284262D01*
X89847400Y-86307643D01*
X89903341Y-86322319D01*
X89903343Y-86322319D01*
X89910569Y-86324215D01*
X90034846Y-86326167D01*
X90101567Y-86346902D01*
X90120579Y-86362471D01*
X90286158Y-86528050D01*
X90305896Y-86538107D01*
X90322486Y-86548274D01*
X90340410Y-86561296D01*
X90349692Y-86564312D01*
X90361481Y-86568143D01*
X90379452Y-86575587D01*
X90390498Y-86581215D01*
X90390503Y-86581217D01*
X90399196Y-86585646D01*
X90421076Y-86589111D01*
X90440001Y-86593655D01*
X90461067Y-86600500D01*
X90882745Y-86600500D01*
X90949784Y-86620185D01*
X90970426Y-86636819D01*
X91206260Y-86872652D01*
X91511169Y-87177561D01*
X91530907Y-87187618D01*
X91547497Y-87197785D01*
X91565421Y-87210807D01*
X91586488Y-87217652D01*
X91604463Y-87225097D01*
X91615510Y-87230726D01*
X91615512Y-87230727D01*
X91624207Y-87235157D01*
X91646105Y-87238625D01*
X91665001Y-87243162D01*
X91686078Y-87250010D01*
X91717988Y-87250010D01*
X91717992Y-87250011D01*
X96567250Y-87250011D01*
X96634289Y-87269696D01*
X96654931Y-87286330D01*
X96856213Y-87487612D01*
X96889698Y-87548935D01*
X96884714Y-87618627D01*
X96842842Y-87674560D01*
X96777378Y-87698977D01*
X96767883Y-87699291D01*
X96732158Y-87699104D01*
X96732157Y-87699104D01*
X96724684Y-87699065D01*
X96717421Y-87700809D01*
X96717418Y-87700809D01*
X96648136Y-87717442D01*
X96571588Y-87735820D01*
X96431679Y-87808032D01*
X96313034Y-87911533D01*
X96222501Y-88040348D01*
X96165309Y-88187039D01*
X96144758Y-88343138D01*
X96145578Y-88350566D01*
X96145578Y-88350569D01*
X96147740Y-88370151D01*
X96135531Y-88438945D01*
X96112170Y-88471438D01*
X94179977Y-90403630D01*
X94179974Y-90403634D01*
X94157411Y-90426197D01*
X94152981Y-90434892D01*
X94147355Y-90445934D01*
X94137189Y-90462523D01*
X94124165Y-90480449D01*
X94121148Y-90489735D01*
X94117318Y-90501520D01*
X94109874Y-90519491D01*
X94104246Y-90530537D01*
X94104244Y-90530542D01*
X94099815Y-90539235D01*
X94098289Y-90548872D01*
X94096350Y-90561114D01*
X94091806Y-90580040D01*
X94084961Y-90601106D01*
X94084961Y-91304430D01*
X94065276Y-91371469D01*
X94042475Y-91397872D01*
X94004133Y-91431319D01*
X94004130Y-91431322D01*
X93998495Y-91436238D01*
X93907962Y-91565053D01*
X93905246Y-91572018D01*
X93905246Y-91572019D01*
X93902870Y-91578113D01*
X93850770Y-91711744D01*
X93830219Y-91867843D01*
X93831039Y-91875271D01*
X93831039Y-91875273D01*
X93833993Y-91902026D01*
X93847496Y-92024338D01*
X93901604Y-92172195D01*
X93989419Y-92302877D01*
X94011644Y-92323100D01*
X94100339Y-92403807D01*
X94100343Y-92403810D01*
X94105871Y-92408840D01*
X94112441Y-92412407D01*
X94112442Y-92412408D01*
X94237669Y-92480401D01*
X94244237Y-92483967D01*
X94346492Y-92510793D01*
X94389302Y-92522024D01*
X94389304Y-92522024D01*
X94396530Y-92523920D01*
X94473588Y-92525130D01*
X94546486Y-92526276D01*
X94546489Y-92526276D01*
X94553956Y-92526393D01*
X94561237Y-92524725D01*
X94561241Y-92524725D01*
X94700142Y-92492912D01*
X94707429Y-92491243D01*
X94848086Y-92420500D01*
X94853767Y-92415648D01*
X94853770Y-92415646D01*
X94962127Y-92323100D01*
X94962128Y-92323099D01*
X94967809Y-92318247D01*
X94978854Y-92302877D01*
X95002349Y-92270180D01*
X95059685Y-92190388D01*
X95118411Y-92044303D01*
X95120254Y-92031354D01*
X95140023Y-91892449D01*
X95140023Y-91892445D01*
X95140595Y-91888428D01*
X95140739Y-91874705D01*
X95138933Y-91859778D01*
X95122723Y-91725824D01*
X95122722Y-91725820D01*
X95121824Y-91718399D01*
X95083910Y-91618061D01*
X95068815Y-91578113D01*
X95068813Y-91578110D01*
X95066171Y-91571117D01*
X95057798Y-91558934D01*
X94981229Y-91447526D01*
X94981226Y-91447523D01*
X94976992Y-91441362D01*
X94927472Y-91397241D01*
X94890513Y-91337947D01*
X94885961Y-91304658D01*
X94885961Y-90881794D01*
X94905646Y-90814755D01*
X94922280Y-90794113D01*
X96679954Y-89036438D01*
X96741277Y-89002953D01*
X96769583Y-89000134D01*
X96861025Y-89001571D01*
X96861028Y-89001571D01*
X96868495Y-89001688D01*
X96875776Y-89000020D01*
X96875780Y-89000020D01*
X97014681Y-88968207D01*
X97021968Y-88966538D01*
X97162625Y-88895795D01*
X97168306Y-88890943D01*
X97168309Y-88890941D01*
X97276666Y-88798395D01*
X97276667Y-88798394D01*
X97282348Y-88793542D01*
X97374224Y-88665683D01*
X97432950Y-88519598D01*
X97439804Y-88471438D01*
X97454703Y-88366755D01*
X97483637Y-88303158D01*
X97542361Y-88265300D01*
X97612231Y-88265200D01*
X97665147Y-88296546D01*
X100113661Y-90745060D01*
X100147146Y-90806383D01*
X100149980Y-90832741D01*
X100149980Y-97793007D01*
X100130295Y-97860046D01*
X100113666Y-97880683D01*
X99945005Y-98049343D01*
X99945002Y-98049347D01*
X99922439Y-98071910D01*
X99918009Y-98080605D01*
X99912383Y-98091647D01*
X99902217Y-98108236D01*
X99889193Y-98126162D01*
X99886176Y-98135448D01*
X99882346Y-98147233D01*
X99874902Y-98165204D01*
X99869274Y-98176250D01*
X99869272Y-98176255D01*
X99864843Y-98184948D01*
X99863317Y-98194585D01*
X99861378Y-98206827D01*
X99856834Y-98225753D01*
X99849989Y-98246819D01*
X99849989Y-98953181D01*
X99853004Y-98962459D01*
X99856834Y-98974247D01*
X99861378Y-98993172D01*
X99864843Y-99015052D01*
X99869272Y-99023745D01*
X99869274Y-99023750D01*
X99874902Y-99034796D01*
X99882346Y-99052767D01*
X99885152Y-99061401D01*
X99889193Y-99073838D01*
X99902217Y-99091764D01*
X99912381Y-99108350D01*
X99922439Y-99128090D01*
X99945002Y-99150653D01*
X99945005Y-99150657D01*
X102703240Y-101908891D01*
X102792948Y-101998599D01*
X102812686Y-102008656D01*
X102829276Y-102018823D01*
X102847200Y-102031845D01*
X102868267Y-102038690D01*
X102886242Y-102046135D01*
X102897289Y-102051764D01*
X102897291Y-102051765D01*
X102905986Y-102056195D01*
X102927884Y-102059663D01*
X102946780Y-102064200D01*
X102967857Y-102071048D01*
X102999767Y-102071048D01*
X102999771Y-102071049D01*
X109403294Y-102071049D01*
X109470333Y-102090734D01*
X109490975Y-102107368D01*
X112918234Y-105534627D01*
X112951719Y-105595950D01*
X112946735Y-105665642D01*
X112904863Y-105721575D01*
X112839399Y-105745992D01*
X112830553Y-105746308D01*
X104614652Y-105746308D01*
X104547613Y-105726623D01*
X104526971Y-105709989D01*
X91706127Y-92889144D01*
X91672642Y-92827821D01*
X91678756Y-92755212D01*
X91685838Y-92737597D01*
X91698330Y-92706521D01*
X91734464Y-92616637D01*
X91734465Y-92616632D01*
X91737250Y-92609705D01*
X91739093Y-92596756D01*
X91758862Y-92457851D01*
X91758862Y-92457847D01*
X91759434Y-92453830D01*
X91759578Y-92440107D01*
X91745419Y-92323100D01*
X91741562Y-92291226D01*
X91741561Y-92291222D01*
X91740663Y-92283801D01*
X91731576Y-92259753D01*
X91687654Y-92143515D01*
X91687652Y-92143512D01*
X91685010Y-92136519D01*
X91629403Y-92055611D01*
X91600068Y-92012928D01*
X91600065Y-92012925D01*
X91595831Y-92006764D01*
X91531913Y-91949815D01*
X91483859Y-91907000D01*
X91483858Y-91906999D01*
X91478276Y-91902026D01*
X91339131Y-91828352D01*
X91222888Y-91799154D01*
X91193678Y-91791817D01*
X91186428Y-91789996D01*
X91104629Y-91789568D01*
X91036458Y-91789211D01*
X91036457Y-91789211D01*
X91028984Y-91789172D01*
X91021721Y-91790916D01*
X91021718Y-91790916D01*
X90952436Y-91807550D01*
X90875888Y-91825927D01*
X90735979Y-91898139D01*
X90661665Y-91962968D01*
X90660680Y-91963827D01*
X90597221Y-91993063D01*
X90528030Y-91983351D01*
X90496677Y-91962968D01*
X90433864Y-91907003D01*
X90433855Y-91906997D01*
X90428276Y-91902026D01*
X90289131Y-91828352D01*
X90172888Y-91799154D01*
X90143678Y-91791817D01*
X90136428Y-91789996D01*
X90054629Y-91789568D01*
X89986458Y-91789211D01*
X89986457Y-91789211D01*
X89978984Y-91789172D01*
X89971721Y-91790916D01*
X89971718Y-91790916D01*
X89902436Y-91807550D01*
X89825888Y-91825927D01*
X89685979Y-91898139D01*
X89680348Y-91903052D01*
X89680347Y-91903052D01*
X89640190Y-91938083D01*
X89567334Y-92001640D01*
X89476801Y-92130455D01*
X89419609Y-92277146D01*
X89399058Y-92433245D01*
X89399878Y-92440673D01*
X89399878Y-92440675D01*
X89413114Y-92560566D01*
X89416335Y-92589740D01*
X89470443Y-92737597D01*
X89558258Y-92868279D01*
X89609215Y-92914646D01*
X89669178Y-92969209D01*
X89669182Y-92969212D01*
X89674710Y-92974242D01*
X89681280Y-92977809D01*
X89681281Y-92977810D01*
X89806508Y-93045803D01*
X89813076Y-93049369D01*
X89870040Y-93064313D01*
X89958141Y-93087426D01*
X89958143Y-93087426D01*
X89965369Y-93089322D01*
X90089645Y-93091274D01*
X90156366Y-93112009D01*
X90175378Y-93127578D01*
X103950083Y-106902283D01*
X103950087Y-106902286D01*
X103972650Y-106924849D01*
X103992393Y-106934908D01*
X104008980Y-106945073D01*
X104019009Y-106952360D01*
X104019011Y-106952361D01*
X104026903Y-106958095D01*
X104036182Y-106961110D01*
X104047970Y-106964940D01*
X104065946Y-106972386D01*
X104085688Y-106982445D01*
X104107568Y-106985910D01*
X104126493Y-106990454D01*
X104147559Y-106997299D01*
X111721836Y-106997299D01*
X111788875Y-107016984D01*
X111834630Y-107069788D01*
X111844574Y-107138946D01*
X111837366Y-107166341D01*
X111799861Y-107262539D01*
X111790309Y-107287039D01*
X111769758Y-107443138D01*
X111770578Y-107450566D01*
X111770578Y-107450568D01*
X111774927Y-107489956D01*
X111787035Y-107599633D01*
X111789601Y-107606645D01*
X111789602Y-107606649D01*
X111806625Y-107653165D01*
X111841143Y-107747490D01*
X111845315Y-107753698D01*
X111853420Y-107765760D01*
X111874500Y-107834922D01*
X111874500Y-111436402D01*
X111866030Y-111481445D01*
X111855199Y-111509226D01*
X111815309Y-111611539D01*
X111794758Y-111767638D01*
X111795578Y-111775066D01*
X111795578Y-111775068D01*
X111797474Y-111792244D01*
X111812035Y-111924133D01*
X111866143Y-112071990D01*
X111953958Y-112202672D01*
X111976183Y-112222895D01*
X112064878Y-112303602D01*
X112064882Y-112303605D01*
X112070410Y-112308635D01*
X112076980Y-112312202D01*
X112076981Y-112312203D01*
X112202208Y-112380196D01*
X112208776Y-112383762D01*
X112299436Y-112407546D01*
X112353841Y-112421819D01*
X112353843Y-112421819D01*
X112361069Y-112423715D01*
X112438127Y-112424925D01*
X112511025Y-112426071D01*
X112511028Y-112426071D01*
X112518495Y-112426188D01*
X112525776Y-112424520D01*
X112525780Y-112424520D01*
X112664681Y-112392707D01*
X112671968Y-112391038D01*
X112812625Y-112320295D01*
X112818306Y-112315443D01*
X112818309Y-112315441D01*
X112926666Y-112222895D01*
X112926667Y-112222894D01*
X112932348Y-112218042D01*
X112938062Y-112210091D01*
X112963798Y-112174275D01*
X113024224Y-112090183D01*
X113082950Y-111944098D01*
X113085003Y-111929674D01*
X113104562Y-111792244D01*
X113104562Y-111792240D01*
X113105134Y-111788223D01*
X113105278Y-111774500D01*
X113104790Y-111770467D01*
X113087262Y-111625619D01*
X113087261Y-111625615D01*
X113086363Y-111618194D01*
X113052459Y-111528468D01*
X113033354Y-111477908D01*
X113033352Y-111477905D01*
X113030710Y-111470912D01*
X112997309Y-111422314D01*
X112975500Y-111352079D01*
X112975500Y-107838630D01*
X112994382Y-107780020D01*
X112991261Y-107778304D01*
X112994864Y-107771750D01*
X112999224Y-107765683D01*
X113057950Y-107619598D01*
X113059793Y-107606649D01*
X113079562Y-107467744D01*
X113079562Y-107467740D01*
X113080134Y-107463723D01*
X113080278Y-107450000D01*
X113078971Y-107439197D01*
X113062262Y-107301119D01*
X113062261Y-107301115D01*
X113061363Y-107293694D01*
X113012783Y-107165130D01*
X113007500Y-107095460D01*
X113040722Y-107033994D01*
X113101901Y-107000247D01*
X113128778Y-106997299D01*
X133772289Y-106997299D01*
X133793355Y-106990454D01*
X133812280Y-106985910D01*
X133834160Y-106982445D01*
X133842853Y-106978016D01*
X133842858Y-106978014D01*
X133853904Y-106972386D01*
X133871875Y-106964942D01*
X133880509Y-106962136D01*
X133892946Y-106958095D01*
X133910872Y-106945071D01*
X133927458Y-106934907D01*
X133947198Y-106924849D01*
X133969761Y-106902286D01*
X133969765Y-106902283D01*
X135535228Y-105336820D01*
X135596551Y-105303335D01*
X135622909Y-105300501D01*
X136557390Y-105300501D01*
X136624429Y-105320186D01*
X136670184Y-105372990D01*
X136673838Y-105381887D01*
X136716143Y-105497490D01*
X136803958Y-105628172D01*
X136858693Y-105677977D01*
X136914878Y-105729102D01*
X136914882Y-105729105D01*
X136920410Y-105734135D01*
X136926980Y-105737702D01*
X136926981Y-105737703D01*
X137052208Y-105805696D01*
X137058776Y-105809262D01*
X137161031Y-105836088D01*
X137203841Y-105847319D01*
X137203843Y-105847319D01*
X137211069Y-105849215D01*
X137288127Y-105850425D01*
X137361025Y-105851571D01*
X137361028Y-105851571D01*
X137368495Y-105851688D01*
X137375776Y-105850020D01*
X137375780Y-105850020D01*
X137514681Y-105818207D01*
X137521968Y-105816538D01*
X137587216Y-105783722D01*
X137642931Y-105770500D01*
X137855500Y-105770500D01*
X137922539Y-105790185D01*
X137968294Y-105842989D01*
X137979500Y-105894500D01*
X137979500Y-105914646D01*
X137982618Y-105940846D01*
X138028061Y-106043153D01*
X138035367Y-106050446D01*
X138056888Y-106116150D01*
X138039286Y-106183766D01*
X138035744Y-106189288D01*
X138027759Y-106197287D01*
X138009294Y-106239053D01*
X137988923Y-106285132D01*
X137982494Y-106299673D01*
X137979500Y-106325354D01*
X137979500Y-107195500D01*
X137959815Y-107262539D01*
X137907011Y-107308294D01*
X137855500Y-107319500D01*
X137661324Y-107319500D01*
X137603301Y-107305087D01*
X137521443Y-107261745D01*
X137521437Y-107261743D01*
X137514831Y-107258245D01*
X137362128Y-107219889D01*
X137280329Y-107219461D01*
X137212158Y-107219104D01*
X137212157Y-107219104D01*
X137204684Y-107219065D01*
X137197421Y-107220809D01*
X137197418Y-107220809D01*
X137128136Y-107237443D01*
X137051588Y-107255820D01*
X136911679Y-107328032D01*
X136906048Y-107332945D01*
X136906047Y-107332945D01*
X136894113Y-107343356D01*
X136793034Y-107431533D01*
X136702501Y-107560348D01*
X136699785Y-107567313D01*
X136699785Y-107567314D01*
X136679401Y-107619598D01*
X136645309Y-107707039D01*
X136624758Y-107863138D01*
X136642035Y-108019633D01*
X136644601Y-108026645D01*
X136644602Y-108026649D01*
X136669601Y-108094961D01*
X136696143Y-108167490D01*
X136783958Y-108298172D01*
X136823269Y-108333942D01*
X136894878Y-108399102D01*
X136894882Y-108399105D01*
X136900410Y-108404135D01*
X136906980Y-108407702D01*
X136906981Y-108407703D01*
X136954902Y-108433722D01*
X137038776Y-108479262D01*
X137112329Y-108498558D01*
X137183841Y-108517319D01*
X137183843Y-108517319D01*
X137191069Y-108519215D01*
X137268127Y-108520425D01*
X137341025Y-108521571D01*
X137341028Y-108521571D01*
X137348495Y-108521688D01*
X137355776Y-108520020D01*
X137355780Y-108520020D01*
X137494677Y-108488208D01*
X137494678Y-108488208D01*
X137501968Y-108486538D01*
X137606981Y-108433722D01*
X137662697Y-108420500D01*
X137855500Y-108420500D01*
X137922539Y-108440185D01*
X137968294Y-108492989D01*
X137979500Y-108544500D01*
X137979500Y-109408298D01*
X137959815Y-109475337D01*
X137935899Y-109501039D01*
X137936126Y-109501266D01*
X137917516Y-109519876D01*
X137842212Y-109620354D01*
X137833817Y-109635689D01*
X137789371Y-109754247D01*
X137785803Y-109769256D01*
X137780363Y-109819331D01*
X137780000Y-109826028D01*
X137780000Y-111102170D01*
X137784404Y-111117169D01*
X137785774Y-111118356D01*
X137793332Y-111120000D01*
X143406000Y-111120000D01*
X143473039Y-111139685D01*
X143518794Y-111192489D01*
X143530000Y-111244000D01*
X143530000Y-113352170D01*
X143534404Y-113367169D01*
X143535774Y-113368356D01*
X143543332Y-113370000D01*
X148323972Y-113370000D01*
X148330669Y-113369637D01*
X148380744Y-113364197D01*
X148395750Y-113360629D01*
X148436997Y-113345166D01*
X148506680Y-113340065D01*
X148568059Y-113373447D01*
X148601647Y-113434714D01*
X148604525Y-113461275D01*
X148604525Y-113613736D01*
X148602998Y-113633137D01*
X148599533Y-113655011D01*
X148601058Y-113664644D01*
X148601058Y-113667137D01*
X148599531Y-113686530D01*
X148592935Y-113728168D01*
X148580947Y-113765061D01*
X148556237Y-113813558D01*
X148533433Y-113844945D01*
X148494945Y-113883433D01*
X148463558Y-113906237D01*
X148415061Y-113930947D01*
X148378168Y-113942935D01*
X148336530Y-113949531D01*
X148317137Y-113951058D01*
X148314644Y-113951058D01*
X148305011Y-113949533D01*
X148295378Y-113951059D01*
X148295371Y-113951059D01*
X148283150Y-113952995D01*
X148263745Y-113954522D01*
X106335680Y-113952014D01*
X64341279Y-113949503D01*
X64321901Y-113947977D01*
X64300000Y-113944508D01*
X64290359Y-113946035D01*
X64287880Y-113946035D01*
X64268485Y-113944508D01*
X64236506Y-113939443D01*
X64226845Y-113937913D01*
X64189952Y-113925926D01*
X64151309Y-113906237D01*
X64141456Y-113901216D01*
X64110070Y-113878413D01*
X64071587Y-113839930D01*
X64048782Y-113808542D01*
X64024074Y-113760048D01*
X64012087Y-113723155D01*
X64005492Y-113681520D01*
X64003965Y-113662120D01*
X64003965Y-113659641D01*
X64005492Y-113650000D01*
X64002027Y-113628122D01*
X64000500Y-113608725D01*
X64000500Y-112210091D01*
X75330000Y-112210091D01*
X75330317Y-112216353D01*
X75343970Y-112350755D01*
X75346484Y-112363005D01*
X75400442Y-112535184D01*
X75405363Y-112546667D01*
X75492841Y-112704482D01*
X75499973Y-112714744D01*
X75617393Y-112851739D01*
X75626449Y-112860363D01*
X75769013Y-112970947D01*
X75779620Y-112977575D01*
X75941510Y-113057235D01*
X75953230Y-113061594D01*
X76012749Y-113077097D01*
X76026619Y-113076670D01*
X76030000Y-113068621D01*
X76030000Y-113067460D01*
X76530000Y-113067460D01*
X76533910Y-113080777D01*
X76539918Y-113081641D01*
X76692704Y-113025427D01*
X76703939Y-113019948D01*
X76857287Y-112924868D01*
X76867192Y-112917240D01*
X76998287Y-112793270D01*
X77006460Y-112783801D01*
X77109947Y-112636006D01*
X77116049Y-112625088D01*
X77187704Y-112459503D01*
X77191486Y-112447582D01*
X77228693Y-112269479D01*
X77229917Y-112260060D01*
X77230000Y-112256874D01*
X77230000Y-112210091D01*
X83970000Y-112210091D01*
X83970317Y-112216353D01*
X83983970Y-112350755D01*
X83986484Y-112363005D01*
X84040442Y-112535184D01*
X84045363Y-112546667D01*
X84132841Y-112704482D01*
X84139973Y-112714744D01*
X84257393Y-112851739D01*
X84266449Y-112860363D01*
X84409013Y-112970947D01*
X84419620Y-112977575D01*
X84581510Y-113057235D01*
X84593230Y-113061594D01*
X84652749Y-113077097D01*
X84666619Y-113076670D01*
X84670000Y-113068621D01*
X84670000Y-113067460D01*
X85170000Y-113067460D01*
X85173910Y-113080777D01*
X85179918Y-113081641D01*
X85332704Y-113025427D01*
X85343939Y-113019948D01*
X85497287Y-112924868D01*
X85507192Y-112917240D01*
X85638287Y-112793270D01*
X85646460Y-112783801D01*
X85749947Y-112636006D01*
X85756049Y-112625088D01*
X85827704Y-112459503D01*
X85831486Y-112447582D01*
X85868693Y-112269479D01*
X85869917Y-112260060D01*
X85870000Y-112256874D01*
X85870000Y-112032830D01*
X85865596Y-112017831D01*
X85864226Y-112016644D01*
X85856668Y-112015000D01*
X85187830Y-112015000D01*
X85172831Y-112019404D01*
X85171644Y-112020774D01*
X85170000Y-112028332D01*
X85170000Y-113067460D01*
X84670000Y-113067460D01*
X84670000Y-112032830D01*
X84665596Y-112017831D01*
X84664226Y-112016644D01*
X84656668Y-112015000D01*
X83987830Y-112015000D01*
X83972831Y-112019404D01*
X83971644Y-112020774D01*
X83970000Y-112028332D01*
X83970000Y-112210091D01*
X77230000Y-112210091D01*
X77230000Y-112032830D01*
X77225596Y-112017831D01*
X77224226Y-112016644D01*
X77216668Y-112015000D01*
X76547830Y-112015000D01*
X76532831Y-112019404D01*
X76531644Y-112020774D01*
X76530000Y-112028332D01*
X76530000Y-113067460D01*
X76030000Y-113067460D01*
X76030000Y-112032830D01*
X76025596Y-112017831D01*
X76024226Y-112016644D01*
X76016668Y-112015000D01*
X75347830Y-112015000D01*
X75332831Y-112019404D01*
X75331644Y-112020774D01*
X75330000Y-112028332D01*
X75330000Y-112210091D01*
X64000500Y-112210091D01*
X64000500Y-111497170D01*
X75330000Y-111497170D01*
X75334404Y-111512169D01*
X75335774Y-111513356D01*
X75343332Y-111515000D01*
X76012170Y-111515000D01*
X76027169Y-111510596D01*
X76028356Y-111509226D01*
X76030000Y-111501668D01*
X76030000Y-111497170D01*
X76530000Y-111497170D01*
X76534404Y-111512169D01*
X76535774Y-111513356D01*
X76543332Y-111515000D01*
X77212170Y-111515000D01*
X77227169Y-111510596D01*
X77228356Y-111509226D01*
X77230000Y-111501668D01*
X77230000Y-111497170D01*
X83970000Y-111497170D01*
X83974404Y-111512169D01*
X83975774Y-111513356D01*
X83983332Y-111515000D01*
X84652170Y-111515000D01*
X84667169Y-111510596D01*
X84668356Y-111509226D01*
X84670000Y-111501668D01*
X84670000Y-111497170D01*
X85170000Y-111497170D01*
X85174404Y-111512169D01*
X85175774Y-111513356D01*
X85183332Y-111515000D01*
X85852170Y-111515000D01*
X85867169Y-111510596D01*
X85868356Y-111509226D01*
X85870000Y-111501668D01*
X85870000Y-111319909D01*
X85869683Y-111313647D01*
X85856030Y-111179245D01*
X85853516Y-111166995D01*
X85799558Y-110994816D01*
X85794637Y-110983333D01*
X85707159Y-110825518D01*
X85700027Y-110815256D01*
X85582607Y-110678261D01*
X85573551Y-110669637D01*
X85430987Y-110559053D01*
X85420380Y-110552425D01*
X85258490Y-110472765D01*
X85246770Y-110468406D01*
X85187251Y-110452903D01*
X85173381Y-110453330D01*
X85170000Y-110461379D01*
X85170000Y-111497170D01*
X84670000Y-111497170D01*
X84670000Y-110462540D01*
X84666090Y-110449223D01*
X84660082Y-110448359D01*
X84507296Y-110504573D01*
X84496061Y-110510052D01*
X84342713Y-110605132D01*
X84332808Y-110612760D01*
X84201713Y-110736730D01*
X84193540Y-110746199D01*
X84090053Y-110893994D01*
X84083951Y-110904912D01*
X84012296Y-111070497D01*
X84008514Y-111082418D01*
X83971307Y-111260521D01*
X83970083Y-111269940D01*
X83970000Y-111273126D01*
X83970000Y-111497170D01*
X77230000Y-111497170D01*
X77230000Y-111319909D01*
X77229683Y-111313647D01*
X77216030Y-111179245D01*
X77213516Y-111166995D01*
X77159558Y-110994816D01*
X77154637Y-110983333D01*
X77067159Y-110825518D01*
X77060027Y-110815256D01*
X76942607Y-110678261D01*
X76933551Y-110669637D01*
X76790987Y-110559053D01*
X76780380Y-110552425D01*
X76618490Y-110472765D01*
X76606770Y-110468406D01*
X76547251Y-110452903D01*
X76533381Y-110453330D01*
X76530000Y-110461379D01*
X76530000Y-111497170D01*
X76030000Y-111497170D01*
X76030000Y-110462540D01*
X76026090Y-110449223D01*
X76020082Y-110448359D01*
X75867296Y-110504573D01*
X75856061Y-110510052D01*
X75702713Y-110605132D01*
X75692808Y-110612760D01*
X75561713Y-110736730D01*
X75553540Y-110746199D01*
X75450053Y-110893994D01*
X75443951Y-110904912D01*
X75372296Y-111070497D01*
X75368514Y-111082418D01*
X75331307Y-111260521D01*
X75330083Y-111269940D01*
X75330000Y-111273126D01*
X75330000Y-111497170D01*
X64000500Y-111497170D01*
X64000500Y-108190091D01*
X75330000Y-108190091D01*
X75330317Y-108196353D01*
X75343970Y-108330755D01*
X75346484Y-108343005D01*
X75400442Y-108515184D01*
X75405363Y-108526667D01*
X75492841Y-108684482D01*
X75499973Y-108694744D01*
X75617393Y-108831739D01*
X75626449Y-108840363D01*
X75769013Y-108950947D01*
X75779620Y-108957575D01*
X75941510Y-109037235D01*
X75953230Y-109041594D01*
X76012749Y-109057097D01*
X76026619Y-109056670D01*
X76030000Y-109048621D01*
X76030000Y-109047460D01*
X76530000Y-109047460D01*
X76533910Y-109060777D01*
X76539918Y-109061641D01*
X76692704Y-109005427D01*
X76703939Y-108999948D01*
X76857287Y-108904868D01*
X76867192Y-108897240D01*
X76998287Y-108773270D01*
X77006460Y-108763801D01*
X77109947Y-108616006D01*
X77116046Y-108605093D01*
X77127273Y-108579148D01*
X77171963Y-108525440D01*
X77238596Y-108504419D01*
X77306015Y-108522759D01*
X77316561Y-108530018D01*
X77407159Y-108599536D01*
X77414667Y-108602646D01*
X77545729Y-108656934D01*
X77545731Y-108656935D01*
X77553238Y-108660044D01*
X77561297Y-108661105D01*
X77666619Y-108674971D01*
X77666623Y-108674971D01*
X77670639Y-108675500D01*
X77749361Y-108675500D01*
X77753377Y-108674971D01*
X77753381Y-108674971D01*
X77858703Y-108661105D01*
X77866762Y-108660044D01*
X77874269Y-108656935D01*
X77874271Y-108656934D01*
X78005333Y-108602646D01*
X78012841Y-108599536D01*
X78103439Y-108530018D01*
X78131835Y-108508229D01*
X78138282Y-108503282D01*
X78234536Y-108377841D01*
X78270107Y-108291965D01*
X78291934Y-108239271D01*
X78291935Y-108239269D01*
X78295044Y-108231762D01*
X78315682Y-108075000D01*
X82884318Y-108075000D01*
X82904956Y-108231762D01*
X82908065Y-108239269D01*
X82908066Y-108239271D01*
X82929893Y-108291965D01*
X82965464Y-108377841D01*
X83061718Y-108503282D01*
X83068165Y-108508229D01*
X83096561Y-108530018D01*
X83187159Y-108599536D01*
X83194667Y-108602646D01*
X83325729Y-108656934D01*
X83325731Y-108656935D01*
X83333238Y-108660044D01*
X83341297Y-108661105D01*
X83446619Y-108674971D01*
X83446623Y-108674971D01*
X83450639Y-108675500D01*
X83529361Y-108675500D01*
X83533377Y-108674971D01*
X83533381Y-108674971D01*
X83638703Y-108661105D01*
X83646762Y-108660044D01*
X83654269Y-108656935D01*
X83654271Y-108656934D01*
X83785333Y-108602646D01*
X83792841Y-108599536D01*
X83884178Y-108529451D01*
X83949345Y-108504258D01*
X84017789Y-108518296D01*
X84068115Y-108567712D01*
X84132841Y-108684482D01*
X84139973Y-108694744D01*
X84257393Y-108831739D01*
X84266449Y-108840363D01*
X84409013Y-108950947D01*
X84419620Y-108957575D01*
X84581510Y-109037235D01*
X84593230Y-109041594D01*
X84652749Y-109057097D01*
X84666619Y-109056670D01*
X84670000Y-109048621D01*
X84670000Y-106142540D01*
X84666090Y-106129223D01*
X84660082Y-106128359D01*
X84507296Y-106184573D01*
X84496061Y-106190052D01*
X84342713Y-106285132D01*
X84332808Y-106292760D01*
X84201713Y-106416730D01*
X84193540Y-106426199D01*
X84090053Y-106573994D01*
X84083951Y-106584912D01*
X84012296Y-106750497D01*
X84008514Y-106762418D01*
X83971307Y-106940521D01*
X83970083Y-106949940D01*
X83970000Y-106953126D01*
X83970000Y-107439197D01*
X83950315Y-107506236D01*
X83897511Y-107551991D01*
X83828353Y-107561935D01*
X83793138Y-107549748D01*
X83792841Y-107550464D01*
X83654271Y-107493066D01*
X83654269Y-107493065D01*
X83646762Y-107489956D01*
X83611229Y-107485278D01*
X83533381Y-107475029D01*
X83533377Y-107475029D01*
X83529361Y-107474500D01*
X83450639Y-107474500D01*
X83446623Y-107475029D01*
X83446619Y-107475029D01*
X83368771Y-107485278D01*
X83333238Y-107489956D01*
X83325731Y-107493065D01*
X83325729Y-107493066D01*
X83211936Y-107540201D01*
X83187159Y-107550464D01*
X83061718Y-107646718D01*
X82965464Y-107772159D01*
X82962354Y-107779667D01*
X82924702Y-107870568D01*
X82904956Y-107918238D01*
X82884318Y-108075000D01*
X78315682Y-108075000D01*
X78295044Y-107918238D01*
X78275299Y-107870568D01*
X78237646Y-107779667D01*
X78234536Y-107772159D01*
X78138282Y-107646718D01*
X78012841Y-107550464D01*
X77988064Y-107540201D01*
X77874271Y-107493066D01*
X77874269Y-107493065D01*
X77866762Y-107489956D01*
X77831229Y-107485278D01*
X77753381Y-107475029D01*
X77753377Y-107475029D01*
X77749361Y-107474500D01*
X77670639Y-107474500D01*
X77666623Y-107475029D01*
X77666619Y-107475029D01*
X77588771Y-107485278D01*
X77553238Y-107489956D01*
X77545731Y-107493065D01*
X77545729Y-107493066D01*
X77407159Y-107550464D01*
X77406506Y-107548888D01*
X77348094Y-107563056D01*
X77282068Y-107540201D01*
X77238880Y-107485278D01*
X77230000Y-107439197D01*
X77230000Y-106999909D01*
X77229683Y-106993647D01*
X77216030Y-106859245D01*
X77213516Y-106846995D01*
X77159558Y-106674816D01*
X77154637Y-106663333D01*
X77067159Y-106505518D01*
X77060027Y-106495256D01*
X76942607Y-106358261D01*
X76933551Y-106349637D01*
X76790987Y-106239053D01*
X76780380Y-106232425D01*
X76618490Y-106152765D01*
X76606770Y-106148406D01*
X76547251Y-106132903D01*
X76533381Y-106133330D01*
X76530000Y-106141379D01*
X76530000Y-109047460D01*
X76030000Y-109047460D01*
X76030000Y-107862830D01*
X76025596Y-107847831D01*
X76024226Y-107846644D01*
X76016668Y-107845000D01*
X75347830Y-107845000D01*
X75332831Y-107849404D01*
X75331644Y-107850774D01*
X75330000Y-107858332D01*
X75330000Y-108190091D01*
X64000500Y-108190091D01*
X64000500Y-107327170D01*
X75330000Y-107327170D01*
X75334404Y-107342169D01*
X75335774Y-107343356D01*
X75343332Y-107345000D01*
X76012170Y-107345000D01*
X76027169Y-107340596D01*
X76028356Y-107339226D01*
X76030000Y-107331668D01*
X76030000Y-106142540D01*
X76026090Y-106129223D01*
X76020082Y-106128359D01*
X75867296Y-106184573D01*
X75856061Y-106190052D01*
X75702713Y-106285132D01*
X75692808Y-106292760D01*
X75561713Y-106416730D01*
X75553540Y-106426199D01*
X75450053Y-106573994D01*
X75443951Y-106584912D01*
X75372296Y-106750497D01*
X75368514Y-106762418D01*
X75331307Y-106940521D01*
X75330083Y-106949940D01*
X75330000Y-106953126D01*
X75330000Y-107327170D01*
X64000500Y-107327170D01*
X64000500Y-61391275D01*
X64002027Y-61371878D01*
X64003965Y-61359641D01*
X64005492Y-61350000D01*
X64003965Y-61340359D01*
X64003965Y-61337880D01*
X64005492Y-61318480D01*
X64012087Y-61276845D01*
X64024074Y-61239952D01*
X64048782Y-61191458D01*
X64071587Y-61160070D01*
X64110070Y-61121587D01*
X64141456Y-61098784D01*
X64189952Y-61074074D01*
X64226845Y-61062087D01*
X64239156Y-61060137D01*
X64268485Y-61055492D01*
X64287880Y-61053965D01*
X64290359Y-61053965D01*
X64300000Y-61055492D01*
X64321901Y-61052023D01*
X64341279Y-61050497D01*
X106335680Y-61047986D01*
X148263745Y-61045478D01*
X148283150Y-61047005D01*
G37*
%TD.AperFunction*%
%TA.AperFunction,Conductor*%
G36*
X137922539Y-85790185D02*
G01*
X137968294Y-85842989D01*
X137979500Y-85894500D01*
X137979500Y-85908298D01*
X137959815Y-85975337D01*
X137935899Y-86001039D01*
X137936126Y-86001266D01*
X137917516Y-86019876D01*
X137842212Y-86120354D01*
X137833817Y-86135689D01*
X137789371Y-86254247D01*
X137785803Y-86269256D01*
X137780363Y-86319331D01*
X137780000Y-86326028D01*
X137780000Y-88602170D01*
X137784404Y-88617169D01*
X137785774Y-88618356D01*
X137793332Y-88620000D01*
X143406000Y-88620000D01*
X143473039Y-88639685D01*
X143518794Y-88692489D01*
X143530000Y-88744000D01*
X143530000Y-88996000D01*
X143510315Y-89063039D01*
X143457511Y-89108794D01*
X143406000Y-89120000D01*
X137797830Y-89120000D01*
X137782831Y-89124404D01*
X137781644Y-89125774D01*
X137780000Y-89133332D01*
X137780000Y-91413972D01*
X137780363Y-91420669D01*
X137785803Y-91470744D01*
X137789371Y-91485753D01*
X137833817Y-91604311D01*
X137842212Y-91619646D01*
X137917516Y-91720124D01*
X137936126Y-91738734D01*
X137935221Y-91739639D01*
X137971704Y-91788429D01*
X137979500Y-91831702D01*
X137979500Y-91845500D01*
X137959815Y-91912539D01*
X137907011Y-91958294D01*
X137855500Y-91969500D01*
X137841949Y-91969500D01*
X137774910Y-91949815D01*
X137759460Y-91938083D01*
X137679559Y-91866893D01*
X137679558Y-91866892D01*
X137673976Y-91861919D01*
X137534831Y-91788245D01*
X137382128Y-91749889D01*
X137300329Y-91749461D01*
X137232158Y-91749104D01*
X137232157Y-91749104D01*
X137224684Y-91749065D01*
X137217421Y-91750809D01*
X137217418Y-91750809D01*
X137148136Y-91767442D01*
X137071588Y-91785820D01*
X136931679Y-91858032D01*
X136926048Y-91862945D01*
X136926047Y-91862945D01*
X136826467Y-91949815D01*
X136815449Y-91959426D01*
X136815446Y-91959428D01*
X136813034Y-91961533D01*
X136812683Y-91961131D01*
X136757512Y-91995120D01*
X136724848Y-91999500D01*
X136424500Y-91999500D01*
X136357461Y-91979815D01*
X136311706Y-91927011D01*
X136300500Y-91875500D01*
X136300500Y-86967255D01*
X136320185Y-86900216D01*
X136336819Y-86879574D01*
X137179955Y-86036438D01*
X137241278Y-86002953D01*
X137269584Y-86000134D01*
X137361025Y-86001571D01*
X137361028Y-86001571D01*
X137368495Y-86001688D01*
X137375776Y-86000020D01*
X137375780Y-86000020D01*
X137514681Y-85968207D01*
X137521968Y-85966538D01*
X137662625Y-85895795D01*
X137668308Y-85890942D01*
X137668313Y-85890938D01*
X137774542Y-85800210D01*
X137838303Y-85771639D01*
X137855073Y-85770500D01*
X137855500Y-85770500D01*
X137922539Y-85790185D01*
G37*
%TD.AperFunction*%
%TA.AperFunction,Conductor*%
G36*
X90802346Y-81420185D02*
G01*
X90848101Y-81472989D01*
X90858246Y-81540685D01*
X90853009Y-81580469D01*
X90844758Y-81643138D01*
X90845578Y-81650566D01*
X90845578Y-81650568D01*
X90849037Y-81681898D01*
X90836828Y-81750693D01*
X90789363Y-81801966D01*
X90738747Y-81818826D01*
X90651520Y-81827993D01*
X90638063Y-81830952D01*
X90481281Y-81884325D01*
X90469752Y-81889750D01*
X90460733Y-81899754D01*
X90464496Y-81908443D01*
X91056170Y-82500117D01*
X91089655Y-82561440D01*
X91092489Y-82587798D01*
X91092489Y-82642202D01*
X91072804Y-82709241D01*
X91056170Y-82729883D01*
X90905181Y-82880872D01*
X90843858Y-82914357D01*
X90774166Y-82909373D01*
X90729819Y-82880872D01*
X90112762Y-82263815D01*
X90100581Y-82257164D01*
X90095197Y-82261194D01*
X90094025Y-82263555D01*
X90037381Y-82419184D01*
X90034142Y-82432572D01*
X90013385Y-82596879D01*
X90013193Y-82610662D01*
X90029354Y-82775478D01*
X90032220Y-82788963D01*
X90084494Y-82946103D01*
X90090277Y-82958620D01*
X90154875Y-83065284D01*
X90172766Y-83132824D01*
X90151301Y-83199315D01*
X90097297Y-83243646D01*
X90033267Y-83252541D01*
X90032383Y-83252429D01*
X90025128Y-83250607D01*
X89939181Y-83250157D01*
X89875158Y-83249822D01*
X89875157Y-83249822D01*
X89867684Y-83249783D01*
X89860421Y-83251527D01*
X89860418Y-83251527D01*
X89791136Y-83268160D01*
X89714588Y-83286538D01*
X89574679Y-83358750D01*
X89569048Y-83363663D01*
X89569047Y-83363663D01*
X89560164Y-83371412D01*
X89456034Y-83462251D01*
X89365501Y-83591066D01*
X89362785Y-83598031D01*
X89362785Y-83598032D01*
X89358567Y-83608850D01*
X89308309Y-83737757D01*
X89287758Y-83893856D01*
X89288578Y-83901284D01*
X89288578Y-83901286D01*
X89290740Y-83920867D01*
X89278531Y-83989662D01*
X89255170Y-84022155D01*
X85461701Y-87815624D01*
X85400378Y-87849109D01*
X85330686Y-87844125D01*
X85274753Y-87802253D01*
X85250336Y-87736789D01*
X85250020Y-87727943D01*
X85250020Y-86442735D01*
X85269705Y-86375696D01*
X85286339Y-86355054D01*
X87279954Y-84361438D01*
X87341277Y-84327953D01*
X87369583Y-84325134D01*
X87461025Y-84326571D01*
X87461028Y-84326571D01*
X87468495Y-84326688D01*
X87475776Y-84325020D01*
X87475780Y-84325020D01*
X87614681Y-84293207D01*
X87621968Y-84291538D01*
X87762625Y-84220795D01*
X87768306Y-84215943D01*
X87768309Y-84215941D01*
X87876666Y-84123395D01*
X87876667Y-84123394D01*
X87882348Y-84118542D01*
X87974224Y-83990683D01*
X88032950Y-83844598D01*
X88042696Y-83776119D01*
X88054562Y-83692744D01*
X88054562Y-83692740D01*
X88055134Y-83688723D01*
X88055278Y-83675000D01*
X88048793Y-83621412D01*
X88037262Y-83526119D01*
X88037261Y-83526115D01*
X88036363Y-83518694D01*
X88017399Y-83468506D01*
X87983354Y-83378408D01*
X87983352Y-83378405D01*
X87980710Y-83371412D01*
X87972008Y-83358750D01*
X87895768Y-83247821D01*
X87895765Y-83247818D01*
X87891531Y-83241657D01*
X87773976Y-83136919D01*
X87634831Y-83063245D01*
X87553089Y-83042713D01*
X87489378Y-83026710D01*
X87482128Y-83024889D01*
X87400329Y-83024461D01*
X87332158Y-83024104D01*
X87332157Y-83024104D01*
X87324684Y-83024065D01*
X87317421Y-83025809D01*
X87317418Y-83025809D01*
X87248136Y-83042442D01*
X87171588Y-83060820D01*
X87031679Y-83133032D01*
X87026048Y-83137945D01*
X87026047Y-83137945D01*
X86973522Y-83183766D01*
X86913034Y-83236533D01*
X86822501Y-83365348D01*
X86819785Y-83372313D01*
X86819785Y-83372314D01*
X86799088Y-83425400D01*
X86765309Y-83512039D01*
X86744758Y-83668138D01*
X86745578Y-83675566D01*
X86745578Y-83675569D01*
X86747740Y-83695151D01*
X86735531Y-83763945D01*
X86712170Y-83796438D01*
X85062181Y-85446426D01*
X85000858Y-85479911D01*
X84931166Y-85474927D01*
X84875233Y-85433055D01*
X84850816Y-85367591D01*
X84850500Y-85358745D01*
X84850500Y-82506262D01*
X84870185Y-82439223D01*
X84922989Y-82393468D01*
X84974500Y-82382262D01*
X85318808Y-82382262D01*
X85385847Y-82401947D01*
X85402254Y-82414542D01*
X85513642Y-82515897D01*
X85520212Y-82519464D01*
X85520213Y-82519465D01*
X85535117Y-82527557D01*
X85652008Y-82591024D01*
X85745527Y-82615558D01*
X85797073Y-82629081D01*
X85797075Y-82629081D01*
X85804301Y-82630977D01*
X85881359Y-82632187D01*
X85954257Y-82633333D01*
X85954260Y-82633333D01*
X85961727Y-82633450D01*
X85969008Y-82631782D01*
X85969012Y-82631782D01*
X86107913Y-82599969D01*
X86115200Y-82598300D01*
X86255857Y-82527557D01*
X86261538Y-82522705D01*
X86261541Y-82522703D01*
X86369898Y-82430157D01*
X86369899Y-82430156D01*
X86375580Y-82425304D01*
X86386625Y-82409934D01*
X86420251Y-82363138D01*
X86467456Y-82297445D01*
X86526182Y-82151360D01*
X86532593Y-82106317D01*
X86542997Y-82033210D01*
X86571931Y-81969612D01*
X86630655Y-81931754D01*
X86653712Y-81928601D01*
X86653583Y-81927373D01*
X86661024Y-81926591D01*
X86668495Y-81926708D01*
X86821968Y-81891558D01*
X86962625Y-81820815D01*
X86968306Y-81815963D01*
X86968309Y-81815961D01*
X87076666Y-81723415D01*
X87076667Y-81723414D01*
X87082348Y-81718562D01*
X87087089Y-81711965D01*
X87124673Y-81659660D01*
X87174224Y-81590703D01*
X87177010Y-81583772D01*
X87177013Y-81583767D01*
X87219430Y-81478250D01*
X87262699Y-81423390D01*
X87334482Y-81400500D01*
X90735307Y-81400500D01*
X90802346Y-81420185D01*
G37*
%TD.AperFunction*%
%TA.AperFunction,Conductor*%
G36*
X92450122Y-81420185D02*
G01*
X92470764Y-81436819D01*
X93588181Y-82554235D01*
X93621666Y-82615558D01*
X93624500Y-82641916D01*
X93624500Y-82660191D01*
X93604815Y-82727230D01*
X93588181Y-82747872D01*
X93455181Y-82880872D01*
X93393858Y-82914357D01*
X93324166Y-82909373D01*
X93279819Y-82880872D01*
X92742607Y-82343660D01*
X92728887Y-82336168D01*
X92727081Y-82336297D01*
X92720574Y-82340479D01*
X92180181Y-82880872D01*
X92118858Y-82914357D01*
X92049166Y-82909373D01*
X92004819Y-82880872D01*
X91929808Y-82805861D01*
X91896323Y-82744538D01*
X91893489Y-82718180D01*
X91893489Y-82511820D01*
X91913174Y-82444781D01*
X91929808Y-82424139D01*
X92443280Y-81910667D01*
X92449931Y-81898486D01*
X92445205Y-81892172D01*
X92438884Y-81889089D01*
X92282865Y-81833533D01*
X92269457Y-81830389D01*
X92259673Y-81829222D01*
X92195435Y-81801739D01*
X92156254Y-81743890D01*
X92151590Y-81688623D01*
X92155134Y-81663723D01*
X92155278Y-81650000D01*
X92153551Y-81635727D01*
X92141894Y-81539396D01*
X92153382Y-81470478D01*
X92200307Y-81418711D01*
X92264996Y-81400500D01*
X92383083Y-81400500D01*
X92450122Y-81420185D01*
G37*
%TD.AperFunction*%
%TD*%
M02*
