%TF.GenerationSoftware,KiCad,Pcbnew,(6.0.5)*%
%TF.CreationDate,2022-06-12T15:59:56-07:00*%
%TF.ProjectId,diva-card,64697661-2d63-4617-9264-2e6b69636164,rev?*%
%TF.SameCoordinates,Original*%
%TF.FileFunction,Copper,L2,Bot*%
%TF.FilePolarity,Positive*%
%FSLAX46Y46*%
G04 Gerber Fmt 4.6, Leading zero omitted, Abs format (unit mm)*
G04 Created by KiCad (PCBNEW (6.0.5)) date 2022-06-12 15:59:56*
%MOMM*%
%LPD*%
G01*
G04 APERTURE LIST*
%TA.AperFunction,ComponentPad*%
%ADD10O,0.900000X1.700000*%
%TD*%
%TA.AperFunction,ComponentPad*%
%ADD11O,0.900000X2.000000*%
%TD*%
%TA.AperFunction,ConnectorPad*%
%ADD12R,10.000000X5.000000*%
%TD*%
%TA.AperFunction,ConnectorPad*%
%ADD13R,10.000000X1.000000*%
%TD*%
%TA.AperFunction,ConnectorPad*%
%ADD14R,10.000000X3.000000*%
%TD*%
%TA.AperFunction,ComponentPad*%
%ADD15C,0.600000*%
%TD*%
%TA.AperFunction,ViaPad*%
%ADD16C,0.700000*%
%TD*%
%TA.AperFunction,Conductor*%
%ADD17C,0.700000*%
%TD*%
%TA.AperFunction,Conductor*%
%ADD18C,0.500000*%
%TD*%
%TA.AperFunction,Conductor*%
%ADD19C,0.200000*%
%TD*%
%TA.AperFunction,Conductor*%
%ADD20C,0.300000*%
%TD*%
G04 APERTURE END LIST*
D10*
%TO.P,J2,S1,SHIELD*%
%TO.N,GND*%
X76280000Y-111765000D03*
X84920000Y-111765000D03*
D11*
X84920000Y-107595000D03*
X76280000Y-107595000D03*
%TD*%
D12*
%TO.P,J3,2,Pin_2*%
%TO.N,GND*%
X143280000Y-64370000D03*
D13*
%TO.P,J3,4,Pin_4*%
%TO.N,/connectors/USER_IO_0*%
X143280000Y-67870000D03*
%TO.P,J3,6,Pin_6*%
%TO.N,/connectors/USER_IO_1*%
X143280000Y-69370000D03*
%TO.P,J3,8,Pin_8*%
%TO.N,/connectors/USER_IO_2*%
X143280000Y-70870000D03*
%TO.P,J3,10,Pin_10*%
%TO.N,/connectors/USER_IO_3*%
X143280000Y-72370000D03*
%TO.P,J3,12,Pin_12*%
%TO.N,/connectors/USER_IO_4*%
X143280000Y-73870000D03*
D12*
%TO.P,J3,14,Pin_14*%
%TO.N,+3V3*%
X143280000Y-77370000D03*
D13*
%TO.P,J3,16,Pin_16*%
%TO.N,/connectors/USER_IO_5*%
X143280000Y-80870000D03*
%TO.P,J3,18,Pin_18*%
%TO.N,/connectors/USER_IO_6*%
X143280000Y-82370000D03*
%TO.P,J3,20,Pin_20*%
%TO.N,/connectors/USER_IO_7*%
X143280000Y-83870000D03*
%TO.P,J3,22,Pin_22*%
%TO.N,/connectors/USER_IO_8*%
X143280000Y-85370000D03*
D12*
%TO.P,J3,24,Pin_24*%
%TO.N,GND*%
X143280000Y-88870000D03*
D13*
%TO.P,J3,26,Pin_26*%
%TO.N,/connectors/USER_IO_9*%
X143280000Y-92370000D03*
%TO.P,J3,28,Pin_28*%
%TO.N,/connectors/USER_IO_10*%
X143280000Y-93870000D03*
%TO.P,J3,30,Pin_30*%
%TO.N,/connectors/USER_IO_11*%
X143280000Y-95370000D03*
%TO.P,J3,32,Pin_32*%
%TO.N,/connectors/USER_IO_12*%
X143280000Y-96870000D03*
D12*
%TO.P,J3,34,Pin_34*%
%TO.N,+3V3*%
X143280000Y-100370000D03*
D13*
%TO.P,J3,36,Pin_36*%
%TO.N,unconnected-(J3-Pad36)*%
X143280000Y-103870000D03*
%TO.P,J3,38,Pin_38*%
%TO.N,unconnected-(J3-Pad38)*%
X143280000Y-105370000D03*
D14*
%TO.P,J3,40,Pin_40*%
%TO.N,+5V*%
X143280000Y-107870000D03*
%TO.P,J3,42,Pin_42*%
%TO.N,GND*%
X143280000Y-111370000D03*
%TD*%
D15*
%TO.P,U4,57,GND*%
%TO.N,GND*%
X90817500Y-83890000D03*
X92092500Y-82615000D03*
X93367500Y-82615000D03*
X93367500Y-85165000D03*
X92092500Y-83890000D03*
X93367500Y-83890000D03*
X90817500Y-85165000D03*
X92092500Y-85165000D03*
X90817500Y-82615000D03*
%TD*%
D16*
%TO.N,+3V3*%
X91310000Y-67800000D03*
X89321461Y-67800000D03*
X93200000Y-77150000D03*
%TO.N,/connectors/USER_IO_8*%
X133908234Y-93648234D03*
X87270497Y-104630989D03*
X82730000Y-101380011D03*
%TO.N,/connectors/USER_IO_9*%
X88170000Y-104630989D03*
X88175000Y-105929989D03*
%TO.N,/connectors/USER_IO_10*%
X89130000Y-104630989D03*
X82739266Y-100459266D03*
%TO.N,/connectors/USER_IO_12*%
X89074503Y-105929989D03*
X84045799Y-101832260D03*
%TO.N,/connectors/USER_IO_11*%
X87370000Y-83690000D03*
%TO.N,+3V3*%
X108748300Y-66228400D03*
X108750000Y-65175000D03*
X111400000Y-65175000D03*
X111398300Y-66225000D03*
X133875000Y-79400000D03*
X133875000Y-75285200D03*
X133875000Y-78028400D03*
X133875000Y-76656800D03*
X137300000Y-79400000D03*
X137300000Y-78028400D03*
X137300000Y-75285200D03*
X137300000Y-76656800D03*
%TO.N,+5V*%
X137300000Y-108825000D03*
X137300000Y-106975000D03*
%TO.N,+3V3*%
X137300000Y-102400000D03*
X137300000Y-99656800D03*
X137300000Y-98285200D03*
X137300000Y-101028400D03*
%TO.N,GND*%
X137300000Y-86835200D03*
X137300000Y-90950000D03*
X137300000Y-89578400D03*
X137300000Y-88206800D03*
X102275000Y-81475000D03*
X103200000Y-89000000D03*
%TO.N,/connectors/~{RESET}*%
X80800000Y-70200000D03*
%TO.N,GND*%
X81000000Y-73950000D03*
X85760000Y-82040000D03*
X79350000Y-99270000D03*
X97590000Y-72870000D03*
X71055659Y-67462600D03*
X92475000Y-71200000D03*
X114372859Y-86093545D03*
X117863000Y-81518000D03*
X121412500Y-90768000D03*
X117863000Y-86168000D03*
X111463000Y-69868000D03*
X114201000Y-104782000D03*
X74800000Y-95145000D03*
X98630000Y-87120000D03*
X71550000Y-80100000D03*
X124872859Y-72193545D03*
X137300000Y-112050000D03*
X100950000Y-94425000D03*
X125463000Y-69868000D03*
X111413000Y-97718000D03*
X137300000Y-65018000D03*
X114363000Y-76868000D03*
X106631200Y-98600000D03*
X104600000Y-79625000D03*
X117872859Y-72193545D03*
X71550000Y-73970000D03*
X124913000Y-100068000D03*
X99275000Y-83750000D03*
X111463000Y-83768000D03*
X86000000Y-90250000D03*
X124863000Y-86068000D03*
X124863000Y-90768000D03*
X65908059Y-64900600D03*
X114363000Y-81518000D03*
X128338000Y-104793000D03*
X114413000Y-95468000D03*
X121412500Y-72218000D03*
X111463000Y-74518000D03*
X117863000Y-100068000D03*
X121313000Y-104782000D03*
X117863000Y-95418000D03*
X124869000Y-104782000D03*
X117757000Y-104782000D03*
X114363000Y-90818000D03*
X117863000Y-90768000D03*
X117863000Y-76868000D03*
X77400000Y-105500000D03*
X137300000Y-110678400D03*
X73275000Y-97350000D03*
X137300000Y-63646400D03*
X118463000Y-69868000D03*
X73125000Y-100100000D03*
X91700000Y-74360000D03*
X86400000Y-85600000D03*
X108760000Y-88050000D03*
X121963000Y-69868000D03*
X121412500Y-76868000D03*
X111413000Y-102368000D03*
X121412500Y-81518000D03*
X111463000Y-93068000D03*
X124863000Y-81518000D03*
X114963000Y-69868000D03*
X124863000Y-95418000D03*
X114363000Y-100068000D03*
X96575000Y-92675000D03*
X111463000Y-79168000D03*
X124863000Y-76868000D03*
X83769200Y-104343200D03*
X121412500Y-86118000D03*
X137300000Y-66389600D03*
X137300000Y-62274800D03*
X111463000Y-88418000D03*
X121412500Y-100118000D03*
X78150000Y-101500000D03*
X114363000Y-72218000D03*
X121412500Y-95418000D03*
%TO.N,+3V3*%
X89310000Y-66770000D03*
X96800000Y-88350000D03*
X94485461Y-91874705D03*
X99650989Y-76200000D03*
X91298539Y-66770000D03*
X97550000Y-83925000D03*
X106100000Y-86477570D03*
X106100000Y-84679050D03*
%TO.N,+1V1*%
X91500000Y-81650000D03*
X92294697Y-86200011D03*
%TO.N,/connectors/~{RESET}*%
X72325000Y-67450000D03*
X85850000Y-76275000D03*
%TO.N,/connectors/USER_IO_0*%
X109100000Y-85800000D03*
X137300000Y-67800000D03*
%TO.N,/connectors/USER_IO_1*%
X137299019Y-69303308D03*
X109099500Y-84800000D03*
%TO.N,/connectors/USER_IO_2*%
X102475500Y-80091343D03*
X137305000Y-70870000D03*
X104725000Y-77876469D03*
%TO.N,/connectors/USER_IO_3*%
X137300000Y-72370000D03*
%TO.N,/connectors/USER_IO_4*%
X110876888Y-64125000D03*
X137300000Y-73875000D03*
X88281509Y-78326230D03*
%TO.N,/connectors/USER_IO_5*%
X137249500Y-80805701D03*
X88257983Y-79225425D03*
X111892925Y-64125000D03*
%TO.N,/connectors/USER_IO_6*%
X88247315Y-80132794D03*
X137270000Y-82370000D03*
X112908962Y-64125000D03*
%TO.N,/connectors/USER_IO_7*%
X113925000Y-64125000D03*
X87085239Y-79889761D03*
X137300000Y-83900000D03*
%TO.N,Net-(L8-Pad1)*%
X113663000Y-68768000D03*
X113663000Y-103468000D03*
%TO.N,Net-(L16-Pad1)*%
X117163000Y-103468000D03*
X117163000Y-68768000D03*
%TO.N,Net-(L24-Pad1)*%
X120713000Y-103468000D03*
X120713000Y-68768000D03*
%TO.N,Net-(L32-Pad1)*%
X124163000Y-103468000D03*
X124163000Y-68768000D03*
%TO.N,/peripherals/~{USB_BOOT}*%
X100600000Y-87350000D03*
X71750000Y-76350000D03*
%TO.N,/connectors/USER_IO_8*%
X137300000Y-85350000D03*
X84161532Y-80103000D03*
%TO.N,/connectors/USER_IO_9*%
X137300000Y-92400000D03*
X83250000Y-80110000D03*
%TO.N,/~{USER_SW0}*%
X100350000Y-82350000D03*
X89325000Y-64836289D03*
%TO.N,/connectors/USER_IO_10*%
X137300000Y-93850000D03*
X89897664Y-83882336D03*
%TO.N,/connectors/USER_IO_11*%
X137300000Y-95350000D03*
%TO.N,/connectors/USER_IO_12*%
X137300000Y-96850000D03*
X89999500Y-85675000D03*
%TO.N,/I2C0_SCL*%
X101975000Y-83925000D03*
X105100000Y-84679050D03*
%TO.N,/USER_LED*%
X100950000Y-98600000D03*
X94543000Y-81649500D03*
%TO.N,+5V*%
X137280000Y-107870000D03*
%TD*%
D17*
%TO.N,+3V3*%
X89311461Y-67805000D02*
X91305000Y-67805000D01*
D18*
X98700989Y-77150000D02*
X93200000Y-77150000D01*
D19*
%TO.N,/connectors/USER_IO_8*%
X133901440Y-105848536D02*
X133901441Y-94008553D01*
X133908234Y-94001760D02*
X133908234Y-93648234D01*
X133901441Y-94008553D02*
X133908234Y-94001760D01*
X133879496Y-105870480D02*
X133901440Y-105848536D01*
X99055486Y-105870480D02*
X133879496Y-105870480D01*
X97516927Y-104331921D02*
X99055486Y-105870480D01*
X90314485Y-104331920D02*
X97516927Y-104331921D01*
X89564524Y-103581959D02*
X90314485Y-104331920D01*
X88300482Y-103581959D02*
X89564524Y-103581959D01*
X87270497Y-104611944D02*
X88300482Y-103581959D01*
X87270497Y-104630989D02*
X87270497Y-104611944D01*
D17*
%TO.N,+3V3*%
X108750000Y-65175000D02*
X111400000Y-65175000D01*
X108751700Y-66225000D02*
X111398300Y-66225000D01*
D19*
%TO.N,/connectors/USER_IO_8*%
X81639520Y-82908103D02*
X81639520Y-100489520D01*
X83899511Y-80365021D02*
X83899511Y-80648112D01*
X84161532Y-80103000D02*
X83899511Y-80365021D01*
X83899511Y-80648112D02*
X81639520Y-82908103D01*
%TO.N,/connectors/USER_IO_9*%
X82460963Y-102029522D02*
X82749048Y-102029522D01*
X81240000Y-100808559D02*
X82460963Y-102029522D01*
X83250000Y-80732617D02*
X81240000Y-82742617D01*
X81240000Y-82742617D02*
X81240000Y-100808559D01*
X83250000Y-80110000D02*
X83250000Y-80732617D01*
X82749048Y-102029522D02*
X86649515Y-105929989D01*
X86649515Y-105929989D02*
X88175000Y-105929989D01*
%TO.N,/connectors/USER_IO_10*%
X82039040Y-99759040D02*
X82739266Y-100459266D01*
X86850972Y-83290480D02*
X84014513Y-83290481D01*
X82039041Y-85265953D02*
X82039040Y-99759040D01*
X87100963Y-83040489D02*
X86850972Y-83290480D01*
X84014513Y-83290481D02*
X82039041Y-85265953D01*
X87639037Y-83040489D02*
X87100963Y-83040489D01*
X88019511Y-83420963D02*
X87639037Y-83040489D01*
X89897664Y-83882336D02*
X88019511Y-83882336D01*
X88019511Y-83882336D02*
X88019511Y-83420963D01*
%TO.N,/connectors/USER_IO_12*%
X89424989Y-86249511D02*
X89999500Y-85675000D01*
X84200489Y-86249511D02*
X89424989Y-86249511D01*
X84045799Y-101832260D02*
X83788297Y-101574758D01*
X83788297Y-101574758D02*
X83788297Y-100024743D01*
X82838080Y-99074526D02*
X82838080Y-87611920D01*
X83788297Y-100024743D02*
X82838080Y-99074526D01*
X82838080Y-87611920D02*
X84200489Y-86249511D01*
%TO.N,/connectors/USER_IO_11*%
X136000000Y-95350000D02*
X137300000Y-95350000D01*
X135100000Y-96250000D02*
X136000000Y-95350000D01*
X135100000Y-106344994D02*
X135100000Y-96250000D01*
X134375955Y-107069039D02*
X135100000Y-106344994D01*
X98559027Y-107069039D02*
X134375955Y-107069039D01*
X89729028Y-105530480D02*
X97020468Y-105530480D01*
X83388777Y-100190229D02*
X83388777Y-102104245D01*
X83388777Y-102104245D02*
X86565021Y-105280489D01*
X89479037Y-105280489D02*
X89729028Y-105530480D01*
X97020468Y-105530480D02*
X98559027Y-107069039D01*
X82438560Y-99240012D02*
X83388777Y-100190229D01*
X82438560Y-85431440D02*
X82438560Y-99240012D01*
X84180000Y-83690000D02*
X82438560Y-85431440D01*
X87370000Y-83690000D02*
X84180000Y-83690000D01*
X86565021Y-105280489D02*
X89479037Y-105280489D01*
%TO.N,/connectors/USER_IO_9*%
X136075000Y-92400000D02*
X137300000Y-92400000D01*
X134300960Y-94174040D02*
X136075000Y-92400000D01*
X90148999Y-104731440D02*
X97351440Y-104731440D01*
X89399037Y-103981478D02*
X90148999Y-104731440D01*
X98889999Y-106269999D02*
X134044983Y-106269999D01*
X88819511Y-103981478D02*
X89399037Y-103981478D01*
X134044983Y-106269999D02*
X134300960Y-106014022D01*
X88170000Y-104630989D02*
X88819511Y-103981478D01*
X97351440Y-104731440D02*
X98889999Y-106269999D01*
X134300960Y-106014022D02*
X134300960Y-94174040D01*
%TO.N,/connectors/USER_IO_10*%
X136000000Y-93850000D02*
X137300000Y-93850000D01*
X134700480Y-95149520D02*
X136000000Y-93850000D01*
X134210469Y-106669519D02*
X134700480Y-106179508D01*
X98724513Y-106669519D02*
X134210469Y-106669519D01*
X97185954Y-105130960D02*
X98724513Y-106669519D01*
X134700480Y-106179508D02*
X134700480Y-95149520D01*
X89894514Y-105130960D02*
X97185954Y-105130960D01*
X89379980Y-104880969D02*
X89644523Y-104880969D01*
X89130000Y-104630989D02*
X89379980Y-104880969D01*
X89644523Y-104880969D02*
X89894514Y-105130960D01*
%TO.N,/connectors/USER_IO_12*%
X136000000Y-96850000D02*
X137300000Y-96850000D01*
X134541442Y-107468558D02*
X135499520Y-106510480D01*
X135499520Y-106510480D02*
X135499520Y-97350480D01*
X135499520Y-97350480D02*
X136000000Y-96850000D01*
X98393541Y-107468559D02*
X98810000Y-107468558D01*
X96854982Y-105930000D02*
X98393541Y-107468559D01*
X98810000Y-107468558D02*
X134541442Y-107468558D01*
X89074514Y-105930000D02*
X96854982Y-105930000D01*
X89074503Y-105929989D02*
X89074514Y-105930000D01*
%TO.N,/connectors/USER_IO_8*%
X82530011Y-101380011D02*
X81639520Y-100489520D01*
X82730000Y-101380011D02*
X82530011Y-101380011D01*
%TO.N,/connectors/USER_IO_0*%
X136450000Y-66950000D02*
X137300000Y-67800000D01*
X110475000Y-66950000D02*
X136450000Y-66950000D01*
X108699980Y-68725020D02*
X110475000Y-66950000D01*
X108699980Y-84280972D02*
X108699980Y-68725020D01*
X109100000Y-85800000D02*
X108449989Y-85149989D01*
X108449989Y-85149989D02*
X108449989Y-84530963D01*
X108449989Y-84530963D02*
X108699980Y-84280972D01*
%TO.N,/connectors/USER_IO_1*%
X136828308Y-69303308D02*
X137299019Y-69303308D01*
X136550000Y-67650000D02*
X136550000Y-69025000D01*
X136249520Y-67349520D02*
X136550000Y-67650000D01*
X110640486Y-67349520D02*
X136249520Y-67349520D01*
X109099500Y-68890506D02*
X110640486Y-67349520D01*
X109099500Y-84800000D02*
X109099500Y-68890506D01*
X136550000Y-69025000D02*
X136828308Y-69303308D01*
D18*
%TO.N,+3V3*%
X91293539Y-66775000D02*
X91298539Y-66770000D01*
D17*
X89300000Y-66775000D02*
X91293539Y-66775000D01*
D19*
%TO.N,/connectors/~{RESET}*%
X80350489Y-74219037D02*
X80350489Y-70649511D01*
X82406452Y-76275000D02*
X80350489Y-74219037D01*
X80350489Y-70649511D02*
X80800000Y-70200000D01*
X85850000Y-76275000D02*
X82406452Y-76275000D01*
%TO.N,/peripherals/~{USB_BOOT}*%
X100600000Y-86127138D02*
X100600000Y-87350000D01*
X99872862Y-85400000D02*
X100600000Y-86127138D01*
X98106452Y-85400000D02*
X99872862Y-85400000D01*
X96900489Y-81484013D02*
X96900489Y-84194037D01*
X96416465Y-80999989D02*
X96900489Y-81484013D01*
X87276919Y-80999989D02*
X96416465Y-80999989D01*
X86176441Y-77226441D02*
X86176441Y-79899511D01*
X85874511Y-76924511D02*
X86176441Y-77226441D01*
X85580963Y-76924511D02*
X85874511Y-76924511D01*
X72100000Y-76000000D02*
X75859994Y-76000000D01*
X71750000Y-76350000D02*
X72100000Y-76000000D01*
X76534513Y-76674519D02*
X85330971Y-76674519D01*
X96900489Y-84194037D02*
X98106452Y-85400000D01*
X75859994Y-76000000D02*
X76534513Y-76674519D01*
X86176441Y-79899511D02*
X87276919Y-80999989D01*
X85330971Y-76674519D02*
X85580963Y-76924511D01*
%TO.N,/USER_LED*%
X100950000Y-98444757D02*
X100950000Y-98600000D01*
X99625000Y-97119757D02*
X100950000Y-98444757D01*
X100200480Y-86292624D02*
X100200480Y-86830972D01*
X100200480Y-86830972D02*
X99625000Y-87406452D01*
X99625000Y-87406452D02*
X99625000Y-97119757D01*
X99707376Y-85799520D02*
X100200480Y-86292624D01*
X97940966Y-85799520D02*
X99707376Y-85799520D01*
X96500970Y-81649500D02*
X96500970Y-84359524D01*
X96500970Y-84359524D02*
X97940966Y-85799520D01*
X94543000Y-81649500D02*
X96500970Y-81649500D01*
%TO.N,+3V3*%
X94485461Y-90664539D02*
X96800000Y-88350000D01*
D18*
X97550000Y-83925000D02*
X97550000Y-77250000D01*
D19*
X94485461Y-91874705D02*
X94485461Y-90664539D01*
D18*
X105452377Y-87327081D02*
X106100000Y-86679458D01*
X102577081Y-87327081D02*
X105452377Y-87327081D01*
X98248120Y-84729522D02*
X97550000Y-84031402D01*
X98248120Y-84729522D02*
X99979522Y-84729522D01*
X99979522Y-84729522D02*
X102577081Y-87327081D01*
X106100000Y-86477570D02*
X106100000Y-84679050D01*
X99650989Y-76200000D02*
X98700989Y-77150000D01*
X97550000Y-84031402D02*
X97550000Y-83925000D01*
X106100000Y-86679458D02*
X106100000Y-86477570D01*
D19*
%TO.N,+1V1*%
X91492989Y-81657011D02*
X91500000Y-81650000D01*
X91492989Y-85842989D02*
X91492989Y-81657011D01*
X92294697Y-86200011D02*
X91850011Y-86200011D01*
X91850011Y-86200011D02*
X91492989Y-85842989D01*
%TO.N,/connectors/~{RESET}*%
X76025480Y-75600480D02*
X74400480Y-75600480D01*
X85850000Y-76275000D02*
X76700000Y-76275000D01*
X73875000Y-75075000D02*
X73875000Y-69000000D01*
X74400480Y-75600480D02*
X73875000Y-75075000D01*
X76700000Y-76275000D02*
X76025480Y-75600480D01*
X73875000Y-69000000D02*
X72325000Y-67450000D01*
%TO.N,/connectors/USER_IO_0*%
X137300000Y-67800000D02*
X137370000Y-67870000D01*
X137370000Y-67870000D02*
X143280000Y-67870000D01*
%TO.N,/connectors/USER_IO_1*%
X137365711Y-69370000D02*
X137299019Y-69303308D01*
X143280000Y-69370000D02*
X137365711Y-69370000D01*
%TO.N,/connectors/USER_IO_2*%
X104725000Y-77876469D02*
X104690374Y-77876469D01*
X143280000Y-70870000D02*
X137305000Y-70870000D01*
X104690374Y-77876469D02*
X102475500Y-80091343D01*
%TO.N,/connectors/USER_IO_3*%
X143280000Y-72370000D02*
X137300000Y-72370000D01*
%TO.N,/connectors/USER_IO_4*%
X88431452Y-63498560D02*
X110250448Y-63498560D01*
X87825000Y-64105012D02*
X88431452Y-63498560D01*
X110250448Y-63498560D02*
X110876888Y-64125000D01*
X137305000Y-73870000D02*
X143280000Y-73870000D01*
X87923794Y-78326230D02*
X87825000Y-78227436D01*
X137300000Y-73875000D02*
X137305000Y-73870000D01*
X87825000Y-78227436D02*
X87825000Y-64105012D01*
X88281509Y-78326230D02*
X87923794Y-78326230D01*
%TO.N,/connectors/USER_IO_5*%
X110866965Y-63099040D02*
X111892925Y-64125000D01*
X87375000Y-78342442D02*
X87375000Y-63990006D01*
X137249500Y-80805701D02*
X137313799Y-80870000D01*
X88257983Y-79225425D02*
X87375000Y-78342442D01*
X137313799Y-80870000D02*
X143280000Y-80870000D01*
X88265966Y-63099040D02*
X110866965Y-63099040D01*
X87375000Y-63990006D02*
X88265966Y-63099040D01*
%TO.N,/connectors/USER_IO_6*%
X88247315Y-80132794D02*
X87989457Y-79874936D01*
X111483482Y-62699520D02*
X112908962Y-64125000D01*
X86975480Y-78861470D02*
X86975480Y-63824520D01*
X86975480Y-63824520D02*
X88100480Y-62699520D01*
X143280000Y-82370000D02*
X137270000Y-82370000D01*
X87989457Y-79874936D02*
X87988946Y-79874936D01*
X87988946Y-79874936D02*
X86975480Y-78861470D01*
X88100480Y-62699520D02*
X111483482Y-62699520D01*
%TO.N,/connectors/USER_IO_7*%
X112100000Y-62300000D02*
X113925000Y-64125000D01*
X87085239Y-79889761D02*
X86575961Y-79380483D01*
X137330000Y-83870000D02*
X143280000Y-83870000D01*
X86575961Y-79380483D02*
X86575961Y-63659033D01*
X87934994Y-62300000D02*
X112100000Y-62300000D01*
X86575961Y-63659033D02*
X87934994Y-62300000D01*
X137300000Y-83900000D02*
X137330000Y-83870000D01*
D20*
%TO.N,Net-(L8-Pad1)*%
X113663000Y-68768000D02*
X113663000Y-103468000D01*
%TO.N,Net-(L16-Pad1)*%
X117163000Y-68768000D02*
X117163000Y-103468000D01*
%TO.N,Net-(L24-Pad1)*%
X120713000Y-68768000D02*
X120713000Y-103468000D01*
%TO.N,Net-(L32-Pad1)*%
X124163000Y-68768000D02*
X124163000Y-103468000D01*
D19*
%TO.N,/connectors/USER_IO_8*%
X137320000Y-85370000D02*
X137300000Y-85350000D01*
X143280000Y-85370000D02*
X137320000Y-85370000D01*
%TO.N,/connectors/USER_IO_9*%
X137300000Y-92400000D02*
X137330000Y-92370000D01*
X137330000Y-92370000D02*
X143280000Y-92370000D01*
D20*
%TO.N,/~{USER_SW0}*%
X99375000Y-64850000D02*
X89338711Y-64850000D01*
X100350489Y-79535252D02*
X100350489Y-65825489D01*
X100350489Y-65825489D02*
X99375000Y-64850000D01*
X100350000Y-82350000D02*
X100350000Y-79535741D01*
X89338711Y-64850000D02*
X89325000Y-64836289D01*
X100350000Y-79535741D02*
X100350489Y-79535252D01*
D19*
%TO.N,/connectors/USER_IO_10*%
X137320000Y-93870000D02*
X137300000Y-93850000D01*
X143280000Y-93870000D02*
X137320000Y-93870000D01*
%TO.N,/connectors/USER_IO_11*%
X137300000Y-95350000D02*
X137320000Y-95370000D01*
X137320000Y-95370000D02*
X143280000Y-95370000D01*
%TO.N,/connectors/USER_IO_12*%
X143280000Y-96870000D02*
X137320000Y-96870000D01*
X137320000Y-96870000D02*
X137300000Y-96850000D01*
%TO.N,/I2C0_SCL*%
X101975000Y-83925000D02*
X102725000Y-84675000D01*
X105095950Y-84675000D02*
X105100000Y-84679050D01*
X102725000Y-84675000D02*
X105095950Y-84675000D01*
%TD*%
%TA.AperFunction,Conductor*%
%TO.N,GND*%
G36*
X148283800Y-110077600D02*
G01*
X148283800Y-112719200D01*
X147471000Y-112871600D01*
X137107800Y-112871600D01*
X136752200Y-112465200D01*
X136752200Y-110331600D01*
X137107800Y-109874400D01*
X147471000Y-109874400D01*
X148283800Y-110077600D01*
G37*
%TD.AperFunction*%
%TD*%
%TA.AperFunction,Conductor*%
%TO.N,+5V*%
G36*
X138151273Y-106356298D02*
G01*
X138171420Y-106363851D01*
X138232623Y-106370500D01*
X138267957Y-106370500D01*
X147565810Y-106370499D01*
X147589820Y-106373455D01*
X148233811Y-106534453D01*
X148285679Y-106566909D01*
X148308563Y-106623654D01*
X148308800Y-106630497D01*
X148308800Y-109112638D01*
X148289893Y-109170829D01*
X148240393Y-109206793D01*
X148228048Y-109209941D01*
X147866544Y-109277723D01*
X147505044Y-109345504D01*
X147486800Y-109347200D01*
X137177723Y-109347200D01*
X137119532Y-109328293D01*
X137103218Y-109313392D01*
X136801695Y-108968794D01*
X136777605Y-108912550D01*
X136777200Y-108903602D01*
X136777200Y-106841168D01*
X136798054Y-106780388D01*
X136964093Y-106566909D01*
X137103074Y-106388220D01*
X137153723Y-106353895D01*
X137181219Y-106350000D01*
X138116526Y-106350000D01*
X138151273Y-106356298D01*
G37*
%TD.AperFunction*%
%TD*%
%TA.AperFunction,Conductor*%
%TO.N,+3V3*%
G36*
X146020999Y-97893806D02*
G01*
X147755437Y-97896509D01*
X147789116Y-97902469D01*
X148027774Y-97989254D01*
X148266433Y-98076039D01*
X148314658Y-98113695D01*
X148331600Y-98169079D01*
X148331600Y-102646920D01*
X148312693Y-102705111D01*
X148258650Y-102742432D01*
X147918803Y-102835117D01*
X147805521Y-102866012D01*
X147779472Y-102869500D01*
X138281706Y-102869501D01*
X138232624Y-102869501D01*
X138187917Y-102874357D01*
X138177228Y-102874936D01*
X137193339Y-102874936D01*
X137135148Y-102856029D01*
X137127438Y-102849815D01*
X136733099Y-102498061D01*
X136702260Y-102445216D01*
X136700000Y-102424182D01*
X136700000Y-98346398D01*
X136718907Y-98288207D01*
X136731994Y-98273520D01*
X136808810Y-98202893D01*
X137131524Y-97906182D01*
X137187157Y-97880715D01*
X137198678Y-97880060D01*
X146020999Y-97893806D01*
G37*
%TD.AperFunction*%
%TD*%
%TA.AperFunction,Conductor*%
%TO.N,+3V3*%
G36*
X138117904Y-74850340D02*
G01*
X138152178Y-74856638D01*
X138165610Y-74861673D01*
X138171420Y-74863851D01*
X138232623Y-74870500D01*
X142330981Y-74870500D01*
X142331455Y-74870501D01*
X147755602Y-74896454D01*
X147788961Y-74902413D01*
X148266433Y-75076039D01*
X148314658Y-75113695D01*
X148331600Y-75169079D01*
X148331600Y-79646920D01*
X148312693Y-79705111D01*
X148258650Y-79742432D01*
X147918803Y-79835117D01*
X147805521Y-79866012D01*
X147779472Y-79869500D01*
X138281706Y-79869501D01*
X138232624Y-79869501D01*
X138187917Y-79874357D01*
X138177228Y-79874936D01*
X137155600Y-79874936D01*
X136700000Y-79468536D01*
X136700000Y-75302936D01*
X137155600Y-74845736D01*
X138117904Y-74850340D01*
G37*
%TD.AperFunction*%
%TD*%
%TA.AperFunction,Conductor*%
%TO.N,+3V3*%
G36*
X138057311Y-74844380D02*
G01*
X138093820Y-74893480D01*
X138099004Y-74926086D01*
X138051971Y-79700000D01*
X138050966Y-79801975D01*
X138031487Y-79859977D01*
X137981635Y-79895451D01*
X137951971Y-79900000D01*
X133594993Y-79900000D01*
X133556575Y-79892242D01*
X133160582Y-79725508D01*
X133114289Y-79685501D01*
X133100000Y-79634266D01*
X133100000Y-75076318D01*
X133118907Y-75018127D01*
X133173805Y-74980578D01*
X133563149Y-74878119D01*
X133587250Y-74874865D01*
X137998915Y-74826117D01*
X138057311Y-74844380D01*
G37*
%TD.AperFunction*%
%TD*%
%TA.AperFunction,Conductor*%
%TO.N,GND*%
G36*
X147775800Y-61868400D02*
G01*
X148334600Y-62071600D01*
X148334600Y-66694400D01*
X147775800Y-66846800D01*
X137196035Y-66846800D01*
X136907036Y-66557801D01*
X136898498Y-66548064D01*
X136882236Y-66526871D01*
X136878282Y-66521718D01*
X136752841Y-66425464D01*
X136703000Y-66404819D01*
X136703000Y-62274800D01*
X137158600Y-61817600D01*
X147775800Y-61868400D01*
G37*
%TD.AperFunction*%
%TD*%
%TA.AperFunction,Conductor*%
%TO.N,GND*%
G36*
X148283150Y-61047005D02*
G01*
X148295371Y-61048941D01*
X148295378Y-61048941D01*
X148305011Y-61050467D01*
X148314644Y-61048942D01*
X148317137Y-61048942D01*
X148336530Y-61050469D01*
X148378168Y-61057065D01*
X148415061Y-61069053D01*
X148463558Y-61093763D01*
X148494945Y-61116567D01*
X148533433Y-61155055D01*
X148556237Y-61186442D01*
X148570693Y-61214814D01*
X148583589Y-61283483D01*
X148557312Y-61348223D01*
X148500205Y-61388480D01*
X148430400Y-61391472D01*
X148416681Y-61387217D01*
X148395753Y-61379371D01*
X148380744Y-61375803D01*
X148330669Y-61370363D01*
X148323972Y-61370000D01*
X143547830Y-61370000D01*
X143532831Y-61374404D01*
X143531644Y-61375774D01*
X143530000Y-61383332D01*
X143530000Y-64496000D01*
X143510315Y-64563039D01*
X143457511Y-64608794D01*
X143406000Y-64620000D01*
X137797830Y-64620000D01*
X137782831Y-64624404D01*
X137781644Y-64625774D01*
X137780000Y-64633332D01*
X137780000Y-66913972D01*
X137780363Y-66920669D01*
X137785803Y-66970744D01*
X137789371Y-66985753D01*
X137832379Y-67100476D01*
X137837480Y-67170159D01*
X137804097Y-67231538D01*
X137742830Y-67265125D01*
X137673130Y-67260257D01*
X137658247Y-67253590D01*
X137541443Y-67191745D01*
X137541437Y-67191743D01*
X137534831Y-67188245D01*
X137382128Y-67149889D01*
X137340809Y-67149673D01*
X137266391Y-67149283D01*
X137199455Y-67129248D01*
X137179359Y-67112966D01*
X136710909Y-66644516D01*
X136710905Y-66644513D01*
X136688342Y-66621950D01*
X136668602Y-66611892D01*
X136652016Y-66601728D01*
X136634090Y-66588704D01*
X136621653Y-66584663D01*
X136613019Y-66581857D01*
X136595048Y-66574413D01*
X136584002Y-66568785D01*
X136583997Y-66568783D01*
X136575304Y-66564354D01*
X136553424Y-66560889D01*
X136534499Y-66556345D01*
X136534107Y-66556218D01*
X136513433Y-66549500D01*
X112150414Y-66549500D01*
X112083375Y-66529815D01*
X112037620Y-66477011D01*
X112027676Y-66407853D01*
X112029504Y-66398941D01*
X112031250Y-66394598D01*
X112039869Y-66334034D01*
X112040823Y-66328304D01*
X112052676Y-66266170D01*
X112052186Y-66258384D01*
X112052566Y-66252348D01*
X112052607Y-66246100D01*
X112052863Y-66242735D01*
X112053434Y-66238723D01*
X112053578Y-66225000D01*
X112046731Y-66168420D01*
X112046079Y-66161318D01*
X112044734Y-66139929D01*
X112042356Y-66102140D01*
X112039944Y-66094718D01*
X112039284Y-66091255D01*
X112037533Y-66083327D01*
X112037344Y-66083373D01*
X112035561Y-66076114D01*
X112034663Y-66068694D01*
X112032022Y-66061704D01*
X112032020Y-66061697D01*
X112013043Y-66011475D01*
X112011107Y-66005963D01*
X111993979Y-65953249D01*
X111991568Y-65945829D01*
X111987387Y-65939242D01*
X111986438Y-65937224D01*
X111984580Y-65934006D01*
X111981653Y-65928407D01*
X111979010Y-65921412D01*
X111974774Y-65915248D01*
X111941947Y-65867484D01*
X111939443Y-65863693D01*
X111907683Y-65813648D01*
X111903502Y-65807060D01*
X111897815Y-65801720D01*
X111896525Y-65800160D01*
X111893602Y-65797144D01*
X111889831Y-65791657D01*
X111884250Y-65786684D01*
X111880875Y-65782856D01*
X111851309Y-65719550D01*
X111860662Y-65650310D01*
X111880534Y-65620092D01*
X111882348Y-65618542D01*
X111886711Y-65612471D01*
X111913178Y-65575640D01*
X111918330Y-65568961D01*
X111948627Y-65532338D01*
X111948629Y-65532335D01*
X111953600Y-65526326D01*
X111958213Y-65516523D01*
X111969713Y-65496961D01*
X111969863Y-65496752D01*
X111969864Y-65496751D01*
X111974224Y-65490683D01*
X111995479Y-65437810D01*
X111998330Y-65431269D01*
X112020255Y-65384676D01*
X112023579Y-65377613D01*
X112025042Y-65369945D01*
X112026131Y-65366593D01*
X112028416Y-65358805D01*
X112028227Y-65358754D01*
X112030161Y-65351535D01*
X112032950Y-65344598D01*
X112034058Y-65336819D01*
X112041567Y-65284046D01*
X112042523Y-65278304D01*
X112054376Y-65216170D01*
X112053886Y-65208384D01*
X112054266Y-65202348D01*
X112054307Y-65196100D01*
X112054563Y-65192735D01*
X112055134Y-65188723D01*
X112055278Y-65175000D01*
X112048431Y-65118420D01*
X112047779Y-65111318D01*
X112045310Y-65072065D01*
X112044056Y-65052140D01*
X112041644Y-65044718D01*
X112040984Y-65041255D01*
X112039233Y-65033327D01*
X112039044Y-65033373D01*
X112037261Y-65026114D01*
X112036363Y-65018694D01*
X112033722Y-65011704D01*
X112033720Y-65011697D01*
X112014743Y-64961475D01*
X112012807Y-64955962D01*
X111996923Y-64907074D01*
X111994928Y-64837232D01*
X112031009Y-64777400D01*
X112087169Y-64747888D01*
X112114893Y-64741538D01*
X112255550Y-64670795D01*
X112261233Y-64665941D01*
X112261238Y-64665938D01*
X112320278Y-64615513D01*
X112384039Y-64586942D01*
X112453125Y-64597379D01*
X112484261Y-64618088D01*
X112529372Y-64659135D01*
X112535942Y-64662702D01*
X112535943Y-64662703D01*
X112661170Y-64730696D01*
X112667738Y-64734262D01*
X112769993Y-64761088D01*
X112812803Y-64772319D01*
X112812805Y-64772319D01*
X112820031Y-64774215D01*
X112897089Y-64775425D01*
X112969987Y-64776571D01*
X112969990Y-64776571D01*
X112977457Y-64776688D01*
X112984738Y-64775020D01*
X112984742Y-64775020D01*
X113123643Y-64743207D01*
X113130930Y-64741538D01*
X113271587Y-64670795D01*
X113277268Y-64665943D01*
X113277271Y-64665941D01*
X113336315Y-64615512D01*
X113400077Y-64586941D01*
X113469162Y-64597378D01*
X113500297Y-64618085D01*
X113545410Y-64659135D01*
X113551980Y-64662702D01*
X113551981Y-64662703D01*
X113677208Y-64730696D01*
X113683776Y-64734262D01*
X113786031Y-64761088D01*
X113828841Y-64772319D01*
X113828843Y-64772319D01*
X113836069Y-64774215D01*
X113913127Y-64775425D01*
X113986025Y-64776571D01*
X113986028Y-64776571D01*
X113993495Y-64776688D01*
X114000776Y-64775020D01*
X114000780Y-64775020D01*
X114139681Y-64743207D01*
X114146968Y-64741538D01*
X114287625Y-64670795D01*
X114293306Y-64665943D01*
X114293309Y-64665941D01*
X114401666Y-64573395D01*
X114401667Y-64573394D01*
X114407348Y-64568542D01*
X114418393Y-64553172D01*
X114492622Y-64449870D01*
X114499224Y-64440683D01*
X114557950Y-64294598D01*
X114559003Y-64287201D01*
X114579562Y-64142744D01*
X114579562Y-64142740D01*
X114580134Y-64138723D01*
X114580278Y-64125000D01*
X114577515Y-64102170D01*
X137780000Y-64102170D01*
X137784404Y-64117169D01*
X137785774Y-64118356D01*
X137793332Y-64120000D01*
X143012170Y-64120000D01*
X143027169Y-64115596D01*
X143028356Y-64114226D01*
X143030000Y-64106668D01*
X143030000Y-61387830D01*
X143025596Y-61372831D01*
X143024226Y-61371644D01*
X143016668Y-61370000D01*
X138236028Y-61370000D01*
X138229331Y-61370363D01*
X138179256Y-61375803D01*
X138164247Y-61379371D01*
X138045689Y-61423817D01*
X138030354Y-61432212D01*
X137929876Y-61507516D01*
X137917516Y-61519876D01*
X137842212Y-61620354D01*
X137833817Y-61635689D01*
X137789371Y-61754247D01*
X137785803Y-61769256D01*
X137780363Y-61819331D01*
X137780000Y-61826028D01*
X137780000Y-64102170D01*
X114577515Y-64102170D01*
X114572869Y-64063772D01*
X114562262Y-63976119D01*
X114562261Y-63976115D01*
X114561363Y-63968694D01*
X114542489Y-63918745D01*
X114508354Y-63828408D01*
X114508352Y-63828405D01*
X114505710Y-63821412D01*
X114501473Y-63815247D01*
X114420768Y-63697821D01*
X114420765Y-63697818D01*
X114416531Y-63691657D01*
X114319669Y-63605356D01*
X114304559Y-63591893D01*
X114304558Y-63591892D01*
X114298976Y-63586919D01*
X114159831Y-63513245D01*
X114080769Y-63493386D01*
X114014378Y-63476710D01*
X114007128Y-63474889D01*
X113965809Y-63474673D01*
X113891391Y-63474283D01*
X113824455Y-63454248D01*
X113804359Y-63437966D01*
X112360909Y-61994516D01*
X112360905Y-61994513D01*
X112338342Y-61971950D01*
X112318602Y-61961892D01*
X112302016Y-61951728D01*
X112284090Y-61938704D01*
X112271653Y-61934663D01*
X112263019Y-61931857D01*
X112245048Y-61924413D01*
X112234002Y-61918785D01*
X112233997Y-61918783D01*
X112225304Y-61914354D01*
X112203424Y-61910889D01*
X112184499Y-61906345D01*
X112184107Y-61906218D01*
X112163433Y-61899500D01*
X87871561Y-61899500D01*
X87850887Y-61906218D01*
X87850495Y-61906345D01*
X87831570Y-61910889D01*
X87809690Y-61914354D01*
X87800997Y-61918783D01*
X87800992Y-61918785D01*
X87789946Y-61924413D01*
X87771975Y-61931857D01*
X87763341Y-61934663D01*
X87750904Y-61938704D01*
X87732978Y-61951728D01*
X87716392Y-61961892D01*
X87696652Y-61971950D01*
X87674089Y-61994513D01*
X87674085Y-61994516D01*
X86270477Y-63398124D01*
X86270474Y-63398128D01*
X86247911Y-63420691D01*
X86243481Y-63429386D01*
X86237855Y-63440428D01*
X86227689Y-63457017D01*
X86214665Y-63474943D01*
X86211648Y-63484229D01*
X86207818Y-63496014D01*
X86200374Y-63513985D01*
X86194746Y-63525031D01*
X86194744Y-63525036D01*
X86190315Y-63533729D01*
X86188789Y-63543366D01*
X86186850Y-63555608D01*
X86182306Y-63574534D01*
X86175461Y-63595600D01*
X86175461Y-75527011D01*
X86155776Y-75594050D01*
X86102972Y-75639805D01*
X86033814Y-75649749D01*
X86021254Y-75647275D01*
X85939380Y-75626710D01*
X85939376Y-75626709D01*
X85932128Y-75624889D01*
X85850329Y-75624461D01*
X85782158Y-75624104D01*
X85782157Y-75624104D01*
X85774684Y-75624065D01*
X85767421Y-75625809D01*
X85767418Y-75625809D01*
X85726266Y-75635689D01*
X85621588Y-75660820D01*
X85481679Y-75733032D01*
X85476048Y-75737945D01*
X85476047Y-75737945D01*
X85411981Y-75793834D01*
X85365449Y-75834426D01*
X85365446Y-75834428D01*
X85363034Y-75836533D01*
X85362683Y-75836131D01*
X85307512Y-75870120D01*
X85274848Y-75874500D01*
X82623707Y-75874500D01*
X82556668Y-75854815D01*
X82536026Y-75838181D01*
X80787308Y-74089463D01*
X80753823Y-74028140D01*
X80750989Y-74001782D01*
X80750989Y-70974786D01*
X80770674Y-70907747D01*
X80823478Y-70861992D01*
X80861605Y-70851580D01*
X80868495Y-70851688D01*
X81021968Y-70816538D01*
X81162625Y-70745795D01*
X81168306Y-70740943D01*
X81168309Y-70740941D01*
X81276666Y-70648395D01*
X81276667Y-70648394D01*
X81282348Y-70643542D01*
X81374224Y-70515683D01*
X81432950Y-70369598D01*
X81437605Y-70336893D01*
X81454562Y-70217744D01*
X81454562Y-70217740D01*
X81455134Y-70213723D01*
X81455278Y-70200000D01*
X81453551Y-70185727D01*
X81437262Y-70051119D01*
X81437261Y-70051115D01*
X81436363Y-70043694D01*
X81401957Y-69952640D01*
X81383354Y-69903408D01*
X81383352Y-69903405D01*
X81380710Y-69896412D01*
X81342634Y-69841011D01*
X81295768Y-69772821D01*
X81295765Y-69772818D01*
X81291531Y-69766657D01*
X81216791Y-69700066D01*
X81179559Y-69666893D01*
X81179558Y-69666892D01*
X81173976Y-69661919D01*
X81034831Y-69588245D01*
X80882128Y-69549889D01*
X80800329Y-69549461D01*
X80732158Y-69549104D01*
X80732157Y-69549104D01*
X80724684Y-69549065D01*
X80717421Y-69550809D01*
X80717418Y-69550809D01*
X80648136Y-69567442D01*
X80571588Y-69585820D01*
X80431679Y-69658032D01*
X80426048Y-69662945D01*
X80426047Y-69662945D01*
X80412840Y-69674466D01*
X80313034Y-69761533D01*
X80222501Y-69890348D01*
X80165309Y-70037039D01*
X80144758Y-70193138D01*
X80145578Y-70200566D01*
X80145578Y-70200568D01*
X80147740Y-70220149D01*
X80135531Y-70288944D01*
X80112170Y-70321437D01*
X80045005Y-70388602D01*
X80045002Y-70388606D01*
X80022439Y-70411169D01*
X80018009Y-70419864D01*
X80012383Y-70430906D01*
X80002217Y-70447495D01*
X79989193Y-70465421D01*
X79986176Y-70474707D01*
X79982346Y-70486492D01*
X79974902Y-70504463D01*
X79969274Y-70515509D01*
X79969272Y-70515514D01*
X79964843Y-70524207D01*
X79963317Y-70533844D01*
X79961378Y-70546086D01*
X79956834Y-70565012D01*
X79949989Y-70586078D01*
X79949989Y-74282470D01*
X79953004Y-74291748D01*
X79956834Y-74303536D01*
X79961378Y-74322461D01*
X79964843Y-74344341D01*
X79969272Y-74353034D01*
X79969274Y-74353039D01*
X79974902Y-74364085D01*
X79982346Y-74382056D01*
X79984566Y-74388887D01*
X79989193Y-74403127D01*
X80002217Y-74421053D01*
X80012381Y-74437639D01*
X80022439Y-74457379D01*
X80045002Y-74479942D01*
X80045005Y-74479946D01*
X81227878Y-75662819D01*
X81261363Y-75724142D01*
X81256379Y-75793834D01*
X81214507Y-75849767D01*
X81149043Y-75874184D01*
X81140197Y-75874500D01*
X76917254Y-75874500D01*
X76850215Y-75854815D01*
X76829573Y-75838181D01*
X76575469Y-75584076D01*
X76286389Y-75294996D01*
X76286385Y-75294993D01*
X76263822Y-75272430D01*
X76244082Y-75262372D01*
X76227496Y-75252208D01*
X76209570Y-75239184D01*
X76197133Y-75235143D01*
X76188499Y-75232337D01*
X76170528Y-75224893D01*
X76159482Y-75219265D01*
X76159477Y-75219263D01*
X76150784Y-75214834D01*
X76128904Y-75211369D01*
X76109979Y-75206825D01*
X76109587Y-75206698D01*
X76088913Y-75199980D01*
X74617735Y-75199980D01*
X74550696Y-75180295D01*
X74530054Y-75163661D01*
X74311819Y-74945426D01*
X74278334Y-74884103D01*
X74275500Y-74857745D01*
X74275500Y-68936567D01*
X74268655Y-68915501D01*
X74264111Y-68896575D01*
X74262172Y-68884333D01*
X74260646Y-68874696D01*
X74256217Y-68866003D01*
X74256215Y-68865998D01*
X74250587Y-68854952D01*
X74243143Y-68836981D01*
X74240337Y-68828347D01*
X74236296Y-68815910D01*
X74223272Y-68797984D01*
X74213106Y-68781395D01*
X74207480Y-68770353D01*
X74203050Y-68761658D01*
X74180487Y-68739095D01*
X74180484Y-68739091D01*
X73014600Y-67573207D01*
X72981115Y-67511884D01*
X72979653Y-67471819D01*
X72979254Y-67471789D01*
X72979523Y-67468255D01*
X72979516Y-67468069D01*
X72979561Y-67467752D01*
X72979561Y-67467746D01*
X72980134Y-67463723D01*
X72980278Y-67450000D01*
X72978551Y-67435727D01*
X72962262Y-67301119D01*
X72962261Y-67301115D01*
X72961363Y-67293694D01*
X72928870Y-67207703D01*
X72908354Y-67153408D01*
X72908352Y-67153405D01*
X72905710Y-67146412D01*
X72896033Y-67132332D01*
X72820768Y-67022821D01*
X72820765Y-67022818D01*
X72816531Y-67016657D01*
X72698976Y-66911919D01*
X72559831Y-66838245D01*
X72407128Y-66799889D01*
X72325329Y-66799461D01*
X72257158Y-66799104D01*
X72257157Y-66799104D01*
X72249684Y-66799065D01*
X72242421Y-66800809D01*
X72242418Y-66800809D01*
X72173136Y-66817443D01*
X72096588Y-66835820D01*
X71956679Y-66908032D01*
X71838034Y-67011533D01*
X71747501Y-67140348D01*
X71690309Y-67287039D01*
X71669758Y-67443138D01*
X71670578Y-67450566D01*
X71670578Y-67450568D01*
X71679281Y-67529395D01*
X71687035Y-67599633D01*
X71689601Y-67606645D01*
X71689602Y-67606649D01*
X71703159Y-67643694D01*
X71741143Y-67747490D01*
X71828958Y-67878172D01*
X71883564Y-67927860D01*
X71939878Y-67979102D01*
X71939882Y-67979105D01*
X71945410Y-67984135D01*
X71951980Y-67987702D01*
X71951981Y-67987703D01*
X72019200Y-68024200D01*
X72083776Y-68059262D01*
X72178724Y-68084171D01*
X72228841Y-68097319D01*
X72228843Y-68097319D01*
X72236069Y-68099215D01*
X72360345Y-68101167D01*
X72427066Y-68121902D01*
X72446078Y-68137471D01*
X73438181Y-69129574D01*
X73471666Y-69190897D01*
X73474500Y-69217255D01*
X73474500Y-75138433D01*
X73477515Y-75147711D01*
X73481345Y-75159499D01*
X73485889Y-75178424D01*
X73489354Y-75200304D01*
X73493783Y-75208997D01*
X73493785Y-75209002D01*
X73499413Y-75220048D01*
X73506857Y-75238019D01*
X73509663Y-75246653D01*
X73513704Y-75259090D01*
X73526728Y-75277016D01*
X73536892Y-75293602D01*
X73546950Y-75313342D01*
X73569513Y-75335905D01*
X73569516Y-75335909D01*
X73621426Y-75387819D01*
X73654911Y-75449142D01*
X73649927Y-75518834D01*
X73608055Y-75574767D01*
X73542591Y-75599184D01*
X73533745Y-75599500D01*
X72036567Y-75599500D01*
X72015893Y-75606218D01*
X72015501Y-75606345D01*
X71996576Y-75610889D01*
X71974696Y-75614354D01*
X71966001Y-75618784D01*
X71966002Y-75618784D01*
X71954954Y-75624413D01*
X71936979Y-75631859D01*
X71915911Y-75638704D01*
X71908019Y-75644438D01*
X71908017Y-75644439D01*
X71897988Y-75651726D01*
X71881401Y-75661891D01*
X71861658Y-75671950D01*
X71857041Y-75676567D01*
X71792922Y-75699443D01*
X71785197Y-75699643D01*
X71682158Y-75699104D01*
X71682157Y-75699104D01*
X71674684Y-75699065D01*
X71667421Y-75700809D01*
X71667418Y-75700809D01*
X71598136Y-75717442D01*
X71521588Y-75735820D01*
X71381679Y-75808032D01*
X71263034Y-75911533D01*
X71172501Y-76040348D01*
X71115309Y-76187039D01*
X71094758Y-76343138D01*
X71112035Y-76499633D01*
X71114601Y-76506645D01*
X71114602Y-76506649D01*
X71127446Y-76541745D01*
X71166143Y-76647490D01*
X71253958Y-76778172D01*
X71276183Y-76798395D01*
X71364878Y-76879102D01*
X71364882Y-76879105D01*
X71370410Y-76884135D01*
X71376980Y-76887702D01*
X71376981Y-76887703D01*
X71423029Y-76912705D01*
X71508776Y-76959262D01*
X71611031Y-76986088D01*
X71653841Y-76997319D01*
X71653843Y-76997319D01*
X71661069Y-76999215D01*
X71738127Y-77000425D01*
X71811025Y-77001571D01*
X71811028Y-77001571D01*
X71818495Y-77001688D01*
X71825776Y-77000020D01*
X71825780Y-77000020D01*
X71964681Y-76968207D01*
X71971968Y-76966538D01*
X72112625Y-76895795D01*
X72118306Y-76890943D01*
X72118309Y-76890941D01*
X72226666Y-76798395D01*
X72226667Y-76798394D01*
X72232348Y-76793542D01*
X72243393Y-76778172D01*
X72291277Y-76711533D01*
X72324224Y-76665683D01*
X72382950Y-76519598D01*
X72384739Y-76507028D01*
X72413673Y-76443431D01*
X72472398Y-76405573D01*
X72507502Y-76400500D01*
X75642739Y-76400500D01*
X75709778Y-76420185D01*
X75730420Y-76436819D01*
X76273604Y-76980003D01*
X76273608Y-76980006D01*
X76296171Y-77002569D01*
X76315911Y-77012627D01*
X76332497Y-77022791D01*
X76350423Y-77035815D01*
X76362860Y-77039856D01*
X76371494Y-77042662D01*
X76389465Y-77050106D01*
X76400511Y-77055734D01*
X76400516Y-77055736D01*
X76409209Y-77060165D01*
X76431089Y-77063630D01*
X76450014Y-77068174D01*
X76471080Y-77075019D01*
X85113716Y-77075019D01*
X85180755Y-77094704D01*
X85201397Y-77111338D01*
X85320054Y-77229995D01*
X85320058Y-77229998D01*
X85342621Y-77252561D01*
X85362361Y-77262619D01*
X85378947Y-77272783D01*
X85396873Y-77285807D01*
X85409310Y-77289848D01*
X85417944Y-77292654D01*
X85435915Y-77300098D01*
X85446961Y-77305726D01*
X85446966Y-77305728D01*
X85455659Y-77310157D01*
X85477539Y-77313622D01*
X85496464Y-77318166D01*
X85517530Y-77325011D01*
X85651941Y-77325011D01*
X85718980Y-77344696D01*
X85764735Y-77397500D01*
X85775941Y-77449011D01*
X85775941Y-79962944D01*
X85778956Y-79972222D01*
X85782786Y-79984010D01*
X85787330Y-80002935D01*
X85790795Y-80024815D01*
X85795224Y-80033508D01*
X85795226Y-80033513D01*
X85800854Y-80044559D01*
X85808298Y-80062530D01*
X85810065Y-80067966D01*
X85815145Y-80083601D01*
X85828169Y-80101527D01*
X85838333Y-80118113D01*
X85848391Y-80137853D01*
X85870954Y-80160416D01*
X85870957Y-80160420D01*
X87016010Y-81305473D01*
X87016014Y-81305476D01*
X87038577Y-81328039D01*
X87058317Y-81338097D01*
X87074903Y-81348261D01*
X87092829Y-81361285D01*
X87105266Y-81365326D01*
X87113900Y-81368132D01*
X87131871Y-81375576D01*
X87142917Y-81381204D01*
X87142922Y-81381206D01*
X87151615Y-81385635D01*
X87173495Y-81389100D01*
X87192420Y-81393644D01*
X87213486Y-81400489D01*
X90735309Y-81400489D01*
X90802348Y-81420174D01*
X90848103Y-81472978D01*
X90858248Y-81540674D01*
X90844758Y-81643138D01*
X90845578Y-81650566D01*
X90845578Y-81650568D01*
X90849037Y-81681898D01*
X90836828Y-81750693D01*
X90789363Y-81801966D01*
X90738747Y-81818826D01*
X90651520Y-81827993D01*
X90638063Y-81830952D01*
X90481281Y-81884325D01*
X90469752Y-81889750D01*
X90460733Y-81899754D01*
X90464496Y-81908443D01*
X91056170Y-82500117D01*
X91089655Y-82561440D01*
X91092489Y-82587798D01*
X91092489Y-82642202D01*
X91072804Y-82709241D01*
X91056170Y-82729883D01*
X90905181Y-82880872D01*
X90843858Y-82914357D01*
X90774166Y-82909373D01*
X90729819Y-82880872D01*
X90112762Y-82263815D01*
X90100581Y-82257164D01*
X90095197Y-82261194D01*
X90094025Y-82263555D01*
X90037381Y-82419184D01*
X90034142Y-82432572D01*
X90013385Y-82596879D01*
X90013193Y-82610662D01*
X90029354Y-82775478D01*
X90032220Y-82788963D01*
X90084494Y-82946103D01*
X90090277Y-82958620D01*
X90149297Y-83056073D01*
X90167188Y-83123613D01*
X90145724Y-83190104D01*
X90091719Y-83234435D01*
X90022320Y-83242532D01*
X90013025Y-83240572D01*
X89987044Y-83234046D01*
X89987040Y-83234045D01*
X89979792Y-83232225D01*
X89897993Y-83231797D01*
X89829822Y-83231440D01*
X89829821Y-83231440D01*
X89822348Y-83231401D01*
X89815085Y-83233145D01*
X89815082Y-83233145D01*
X89748772Y-83249065D01*
X89669252Y-83268156D01*
X89529343Y-83340368D01*
X89523712Y-83345281D01*
X89523711Y-83345281D01*
X89417331Y-83438083D01*
X89413113Y-83441762D01*
X89413110Y-83441764D01*
X89410698Y-83443869D01*
X89410347Y-83443467D01*
X89355176Y-83477456D01*
X89322512Y-83481836D01*
X88544010Y-83481836D01*
X88476971Y-83462151D01*
X88431216Y-83409347D01*
X88424076Y-83376526D01*
X88421537Y-83376928D01*
X88420010Y-83367288D01*
X88420010Y-83357530D01*
X88413162Y-83336453D01*
X88408625Y-83317557D01*
X88405157Y-83295659D01*
X88395097Y-83275915D01*
X88387651Y-83257938D01*
X88383823Y-83246156D01*
X88380807Y-83236873D01*
X88367785Y-83218949D01*
X88357618Y-83202359D01*
X88355034Y-83197287D01*
X88347561Y-83182621D01*
X88257853Y-83092913D01*
X87899946Y-82735005D01*
X87899942Y-82735002D01*
X87877379Y-82712439D01*
X87857639Y-82702381D01*
X87841053Y-82692217D01*
X87823127Y-82679193D01*
X87810690Y-82675152D01*
X87802056Y-82672346D01*
X87784085Y-82664902D01*
X87773039Y-82659274D01*
X87773034Y-82659272D01*
X87764341Y-82654843D01*
X87742461Y-82651378D01*
X87723536Y-82646834D01*
X87723144Y-82646707D01*
X87702470Y-82639989D01*
X87037530Y-82639989D01*
X87016856Y-82646707D01*
X87016464Y-82646834D01*
X86997539Y-82651378D01*
X86975659Y-82654843D01*
X86961441Y-82662087D01*
X86955917Y-82664902D01*
X86937942Y-82672348D01*
X86916874Y-82679193D01*
X86908982Y-82684927D01*
X86908980Y-82684928D01*
X86898951Y-82692215D01*
X86882364Y-82702380D01*
X86862621Y-82712439D01*
X86840058Y-82735002D01*
X86840054Y-82735005D01*
X86721398Y-82853661D01*
X86660075Y-82887146D01*
X86633717Y-82889980D01*
X83983625Y-82889981D01*
X83982994Y-82889981D01*
X83982990Y-82889982D01*
X83951080Y-82889982D01*
X83930003Y-82896830D01*
X83911107Y-82901367D01*
X83889209Y-82904835D01*
X83880514Y-82909265D01*
X83880512Y-82909266D01*
X83869465Y-82914895D01*
X83851490Y-82922340D01*
X83830423Y-82929185D01*
X83814373Y-82940846D01*
X83812500Y-82942207D01*
X83795910Y-82952373D01*
X83776171Y-82962431D01*
X83753604Y-82984998D01*
X82251701Y-84486900D01*
X82190378Y-84520385D01*
X82120686Y-84515401D01*
X82064753Y-84473529D01*
X82040336Y-84408065D01*
X82040020Y-84399219D01*
X82040020Y-83125358D01*
X82059705Y-83058319D01*
X82076339Y-83037677D01*
X84204995Y-80909021D01*
X84204998Y-80909017D01*
X84227561Y-80886454D01*
X84237619Y-80866714D01*
X84247783Y-80850128D01*
X84260807Y-80832202D01*
X84264848Y-80819765D01*
X84267654Y-80811131D01*
X84275089Y-80793177D01*
X84276923Y-80789576D01*
X84324889Y-80738771D01*
X84359731Y-80724982D01*
X84383500Y-80719538D01*
X84390175Y-80716181D01*
X84390180Y-80716179D01*
X84517478Y-80652154D01*
X84524157Y-80648795D01*
X84529838Y-80643943D01*
X84529841Y-80643941D01*
X84638198Y-80551395D01*
X84638199Y-80551394D01*
X84643880Y-80546542D01*
X84649895Y-80538172D01*
X84707617Y-80457842D01*
X84735756Y-80418683D01*
X84794482Y-80272598D01*
X84797194Y-80253544D01*
X84816094Y-80120744D01*
X84816094Y-80120740D01*
X84816666Y-80116723D01*
X84816810Y-80103000D01*
X84814569Y-80084481D01*
X84798794Y-79954119D01*
X84798793Y-79954115D01*
X84797895Y-79946694D01*
X84756144Y-79836202D01*
X84744886Y-79806408D01*
X84744884Y-79806405D01*
X84742242Y-79799412D01*
X84722071Y-79770063D01*
X84657300Y-79675821D01*
X84657297Y-79675818D01*
X84653063Y-79669657D01*
X84573569Y-79598830D01*
X84541091Y-79569893D01*
X84541090Y-79569892D01*
X84535508Y-79564919D01*
X84396363Y-79491245D01*
X84271931Y-79459990D01*
X84250910Y-79454710D01*
X84243660Y-79452889D01*
X84161861Y-79452461D01*
X84093690Y-79452104D01*
X84093689Y-79452104D01*
X84086216Y-79452065D01*
X84078953Y-79453809D01*
X84078950Y-79453809D01*
X84027289Y-79466212D01*
X83933120Y-79488820D01*
X83793211Y-79561032D01*
X83787582Y-79565943D01*
X83787574Y-79565948D01*
X83783395Y-79569594D01*
X83719936Y-79598830D01*
X83650745Y-79589115D01*
X83631111Y-79577972D01*
X83629559Y-79576893D01*
X83623976Y-79571919D01*
X83617372Y-79568422D01*
X83617370Y-79568421D01*
X83546954Y-79531138D01*
X83484831Y-79498245D01*
X83357301Y-79466212D01*
X83339378Y-79461710D01*
X83332128Y-79459889D01*
X83250329Y-79459461D01*
X83182158Y-79459104D01*
X83182157Y-79459104D01*
X83174684Y-79459065D01*
X83167421Y-79460809D01*
X83167418Y-79460809D01*
X83102324Y-79476437D01*
X83021588Y-79495820D01*
X82881679Y-79568032D01*
X82876048Y-79572945D01*
X82876047Y-79572945D01*
X82847934Y-79597470D01*
X82763034Y-79671533D01*
X82672501Y-79800348D01*
X82615309Y-79947039D01*
X82594758Y-80103138D01*
X82595578Y-80110566D01*
X82595578Y-80110568D01*
X82604691Y-80193113D01*
X82612035Y-80259633D01*
X82614601Y-80266645D01*
X82614602Y-80266649D01*
X82630219Y-80309324D01*
X82666143Y-80407490D01*
X82725653Y-80496049D01*
X82746922Y-80527701D01*
X82767975Y-80594324D01*
X82749667Y-80661752D01*
X82731682Y-80684543D01*
X80934516Y-82481708D01*
X80934513Y-82481712D01*
X80911950Y-82504275D01*
X80907520Y-82512970D01*
X80901894Y-82524012D01*
X80891728Y-82540601D01*
X80878704Y-82558527D01*
X80875687Y-82567813D01*
X80871857Y-82579598D01*
X80864413Y-82597569D01*
X80858785Y-82608615D01*
X80858783Y-82608620D01*
X80854354Y-82617313D01*
X80850889Y-82639192D01*
X80846345Y-82658118D01*
X80839500Y-82679184D01*
X80839500Y-100871992D01*
X80842515Y-100881270D01*
X80846345Y-100893058D01*
X80850889Y-100911983D01*
X80854354Y-100933863D01*
X80858783Y-100942556D01*
X80858785Y-100942561D01*
X80864413Y-100953607D01*
X80871857Y-100971578D01*
X80874663Y-100980212D01*
X80878704Y-100992649D01*
X80891728Y-101010575D01*
X80901892Y-101027161D01*
X80911950Y-101046901D01*
X80934513Y-101069464D01*
X80934516Y-101069468D01*
X82132913Y-102267864D01*
X82222621Y-102357572D01*
X82242359Y-102367629D01*
X82258949Y-102377796D01*
X82276873Y-102390818D01*
X82297940Y-102397663D01*
X82315915Y-102405108D01*
X82326962Y-102410737D01*
X82326964Y-102410738D01*
X82335659Y-102415168D01*
X82357557Y-102418636D01*
X82376453Y-102423173D01*
X82397530Y-102430021D01*
X82429440Y-102430021D01*
X82429444Y-102430022D01*
X82531793Y-102430022D01*
X82598832Y-102449707D01*
X82619474Y-102466341D01*
X84474471Y-104321337D01*
X86411173Y-106258039D01*
X86430911Y-106268096D01*
X86447501Y-106278263D01*
X86465425Y-106291285D01*
X86486492Y-106298130D01*
X86504467Y-106305575D01*
X86515514Y-106311204D01*
X86515516Y-106311205D01*
X86524211Y-106315635D01*
X86546109Y-106319103D01*
X86565005Y-106323640D01*
X86586082Y-106330488D01*
X86617992Y-106330488D01*
X86617996Y-106330489D01*
X87600576Y-106330489D01*
X87667615Y-106350174D01*
X87684022Y-106362769D01*
X87795410Y-106464124D01*
X87801978Y-106467690D01*
X87801981Y-106467692D01*
X87871648Y-106505518D01*
X87933776Y-106539251D01*
X88028713Y-106564157D01*
X88078841Y-106577308D01*
X88078843Y-106577308D01*
X88086069Y-106579204D01*
X88163127Y-106580414D01*
X88236025Y-106581560D01*
X88236028Y-106581560D01*
X88243495Y-106581677D01*
X88250776Y-106580009D01*
X88250780Y-106580009D01*
X88389681Y-106548196D01*
X88396968Y-106546527D01*
X88467886Y-106510859D01*
X88530945Y-106479144D01*
X88530947Y-106479143D01*
X88537625Y-106475784D01*
X88543683Y-106470610D01*
X88544011Y-106470463D01*
X88549538Y-106466791D01*
X88550150Y-106467712D01*
X88607445Y-106442041D01*
X88676530Y-106452479D01*
X88692004Y-106461477D01*
X88694913Y-106464124D01*
X88833279Y-106539251D01*
X88928216Y-106564157D01*
X88978344Y-106577308D01*
X88978346Y-106577308D01*
X88985572Y-106579204D01*
X89062630Y-106580414D01*
X89135528Y-106581560D01*
X89135531Y-106581560D01*
X89142998Y-106581677D01*
X89150279Y-106580009D01*
X89150283Y-106580009D01*
X89289184Y-106548196D01*
X89296471Y-106546527D01*
X89437128Y-106475784D01*
X89442809Y-106470932D01*
X89442812Y-106470930D01*
X89514799Y-106409447D01*
X89556851Y-106373531D01*
X89559456Y-106369905D01*
X89618222Y-106334544D01*
X89649632Y-106330500D01*
X96637727Y-106330500D01*
X96704766Y-106350185D01*
X96725408Y-106366819D01*
X98132632Y-107774043D01*
X98132636Y-107774046D01*
X98155200Y-107796610D01*
X98163893Y-107801039D01*
X98174935Y-107806665D01*
X98191524Y-107816831D01*
X98201552Y-107824117D01*
X98201557Y-107824119D01*
X98209451Y-107829855D01*
X98230521Y-107836701D01*
X98248496Y-107844146D01*
X98259541Y-107849774D01*
X98259543Y-107849775D01*
X98268238Y-107854205D01*
X98290109Y-107857669D01*
X98290115Y-107857670D01*
X98309035Y-107862212D01*
X98320828Y-107866044D01*
X98320830Y-107866044D01*
X98330108Y-107869059D01*
X98456975Y-107869059D01*
X98841520Y-107869058D01*
X134604875Y-107869058D01*
X134625941Y-107862213D01*
X134644866Y-107857669D01*
X134666746Y-107854204D01*
X134675439Y-107849775D01*
X134675444Y-107849773D01*
X134686490Y-107844145D01*
X134704461Y-107836701D01*
X134713095Y-107833895D01*
X134725532Y-107829854D01*
X134743458Y-107816830D01*
X134760044Y-107806666D01*
X134779784Y-107796608D01*
X134802347Y-107774045D01*
X134802351Y-107774042D01*
X135805004Y-106771389D01*
X135805007Y-106771385D01*
X135827570Y-106748822D01*
X135837628Y-106729082D01*
X135847792Y-106712496D01*
X135860816Y-106694570D01*
X135866257Y-106677824D01*
X135867663Y-106673499D01*
X135875107Y-106655528D01*
X135880735Y-106644482D01*
X135880737Y-106644477D01*
X135885166Y-106635784D01*
X135888631Y-106613904D01*
X135893175Y-106594979D01*
X135897005Y-106583191D01*
X135900020Y-106573913D01*
X135900020Y-97567735D01*
X135919705Y-97500696D01*
X135936339Y-97480054D01*
X136129574Y-97286819D01*
X136190897Y-97253334D01*
X136217255Y-97250500D01*
X136725576Y-97250500D01*
X136792615Y-97270185D01*
X136809020Y-97282778D01*
X136842754Y-97313473D01*
X136879088Y-97373146D01*
X136877392Y-97442995D01*
X136838203Y-97500840D01*
X136827912Y-97508470D01*
X136816016Y-97516373D01*
X136789388Y-97534062D01*
X136785806Y-97537356D01*
X136785804Y-97537357D01*
X136610339Y-97698684D01*
X136466674Y-97830773D01*
X136466673Y-97830774D01*
X136389857Y-97901401D01*
X136354586Y-97937227D01*
X136341499Y-97951914D01*
X136301629Y-98002884D01*
X136298800Y-98008637D01*
X136298798Y-98008641D01*
X136272604Y-98061919D01*
X136238147Y-98132002D01*
X136219240Y-98190193D01*
X136218477Y-98195009D01*
X136218477Y-98195010D01*
X136195263Y-98341577D01*
X136195262Y-98341584D01*
X136194500Y-98346398D01*
X136194500Y-102424182D01*
X136197393Y-102478185D01*
X136199653Y-102499219D01*
X136211569Y-102566678D01*
X136214027Y-102572735D01*
X136263999Y-102695894D01*
X136264002Y-102695900D01*
X136265666Y-102700001D01*
X136296505Y-102752846D01*
X136299590Y-102756619D01*
X136299593Y-102756624D01*
X136376324Y-102850482D01*
X136396606Y-102875291D01*
X136400245Y-102878537D01*
X136790220Y-103226398D01*
X136790945Y-103227045D01*
X136810225Y-103243396D01*
X136810835Y-103243888D01*
X136810856Y-103243905D01*
X136816972Y-103248834D01*
X136817935Y-103249610D01*
X136849825Y-103273307D01*
X136854887Y-103275796D01*
X136854889Y-103275797D01*
X136929447Y-103312454D01*
X136978943Y-103336789D01*
X137037134Y-103355696D01*
X137041950Y-103356459D01*
X137041951Y-103356459D01*
X137188518Y-103379673D01*
X137188525Y-103379674D01*
X137193339Y-103380436D01*
X137855500Y-103380436D01*
X137922539Y-103400121D01*
X137968294Y-103452925D01*
X137979500Y-103504436D01*
X137979500Y-104414646D01*
X137982618Y-104440846D01*
X138028061Y-104543153D01*
X138035367Y-104550446D01*
X138056888Y-104616150D01*
X138039286Y-104683766D01*
X138035744Y-104689288D01*
X138027759Y-104697287D01*
X137982494Y-104799673D01*
X137979500Y-104825354D01*
X137979500Y-105720500D01*
X137959815Y-105787539D01*
X137907011Y-105833294D01*
X137855500Y-105844500D01*
X137181219Y-105844500D01*
X137179051Y-105844653D01*
X137179045Y-105844653D01*
X137138062Y-105847542D01*
X137110319Y-105849497D01*
X137098149Y-105851221D01*
X137085425Y-105853023D01*
X137085416Y-105853025D01*
X137082823Y-105853392D01*
X137044278Y-105862228D01*
X137006394Y-105870913D01*
X137006390Y-105870914D01*
X136999513Y-105872491D01*
X136993168Y-105875578D01*
X136993165Y-105875579D01*
X136912867Y-105914646D01*
X136870133Y-105935437D01*
X136819484Y-105969762D01*
X136704057Y-106077873D01*
X136701068Y-106081715D01*
X136701067Y-106081717D01*
X136400866Y-106467690D01*
X136399037Y-106470041D01*
X136385502Y-106488273D01*
X136383168Y-106492830D01*
X136383165Y-106492835D01*
X136355667Y-106546527D01*
X136319915Y-106616335D01*
X136318478Y-106620524D01*
X136318476Y-106620528D01*
X136299850Y-106674816D01*
X136299061Y-106677115D01*
X136298845Y-106677793D01*
X136298835Y-106677824D01*
X136295207Y-106689227D01*
X136292176Y-106698752D01*
X136271700Y-106841168D01*
X136271700Y-108903602D01*
X136271716Y-108904290D01*
X136271716Y-108904329D01*
X136272200Y-108925720D01*
X136272217Y-108926458D01*
X136272622Y-108935406D01*
X136275684Y-108972600D01*
X136312934Y-109111574D01*
X136337024Y-109167818D01*
X136421267Y-109301668D01*
X136722790Y-109646266D01*
X136723998Y-109647500D01*
X136724010Y-109647513D01*
X136757139Y-109681356D01*
X136762305Y-109686633D01*
X136778619Y-109701534D01*
X136780305Y-109702869D01*
X136780316Y-109702879D01*
X136821789Y-109735732D01*
X136834209Y-109745571D01*
X136963327Y-109809053D01*
X137021518Y-109827960D01*
X137026334Y-109828723D01*
X137026335Y-109828723D01*
X137172902Y-109851937D01*
X137172909Y-109851938D01*
X137177723Y-109852700D01*
X137656000Y-109852700D01*
X137723039Y-109872385D01*
X137724785Y-109874400D01*
X137107800Y-109874400D01*
X136752200Y-110331600D01*
X136752200Y-112465200D01*
X137107800Y-112871600D01*
X137780000Y-112871600D01*
X137780000Y-112913972D01*
X137780363Y-112920669D01*
X137785803Y-112970744D01*
X137789371Y-112985753D01*
X137833817Y-113104311D01*
X137842212Y-113119646D01*
X137917516Y-113220124D01*
X137929876Y-113232484D01*
X138030354Y-113307788D01*
X138045689Y-113316183D01*
X138164247Y-113360629D01*
X138179256Y-113364197D01*
X138229331Y-113369637D01*
X138236028Y-113370000D01*
X143012170Y-113370000D01*
X143027169Y-113365596D01*
X143028356Y-113364226D01*
X143030000Y-113356668D01*
X143030000Y-112871600D01*
X143530000Y-112871600D01*
X143530000Y-113352170D01*
X143534404Y-113367169D01*
X143535774Y-113368356D01*
X143543332Y-113370000D01*
X148323972Y-113370000D01*
X148330669Y-113369637D01*
X148380744Y-113364197D01*
X148395750Y-113360629D01*
X148436997Y-113345166D01*
X148506680Y-113340065D01*
X148568059Y-113373447D01*
X148601647Y-113434714D01*
X148604525Y-113461275D01*
X148604525Y-113613736D01*
X148602998Y-113633137D01*
X148599533Y-113655011D01*
X148601058Y-113664644D01*
X148601058Y-113667137D01*
X148599531Y-113686530D01*
X148592935Y-113728168D01*
X148580947Y-113765061D01*
X148556237Y-113813558D01*
X148533433Y-113844945D01*
X148494945Y-113883433D01*
X148463558Y-113906237D01*
X148415061Y-113930947D01*
X148378168Y-113942935D01*
X148336530Y-113949531D01*
X148317137Y-113951058D01*
X148314644Y-113951058D01*
X148305011Y-113949533D01*
X148295378Y-113951059D01*
X148295371Y-113951059D01*
X148283150Y-113952995D01*
X148263745Y-113954522D01*
X106335680Y-113952014D01*
X64341279Y-113949503D01*
X64321901Y-113947977D01*
X64300000Y-113944508D01*
X64290359Y-113946035D01*
X64287880Y-113946035D01*
X64268485Y-113944508D01*
X64236506Y-113939443D01*
X64226845Y-113937913D01*
X64189952Y-113925926D01*
X64151309Y-113906237D01*
X64141456Y-113901216D01*
X64110070Y-113878413D01*
X64071587Y-113839930D01*
X64048782Y-113808542D01*
X64024074Y-113760048D01*
X64012087Y-113723155D01*
X64005492Y-113681520D01*
X64003965Y-113662120D01*
X64003965Y-113659641D01*
X64005492Y-113650000D01*
X64002027Y-113628122D01*
X64000500Y-113608725D01*
X64000500Y-112210091D01*
X75330000Y-112210091D01*
X75330317Y-112216353D01*
X75343970Y-112350755D01*
X75346484Y-112363005D01*
X75400442Y-112535184D01*
X75405363Y-112546667D01*
X75492841Y-112704482D01*
X75499973Y-112714744D01*
X75617393Y-112851739D01*
X75626449Y-112860363D01*
X75769013Y-112970947D01*
X75779620Y-112977575D01*
X75941510Y-113057235D01*
X75953230Y-113061594D01*
X76012749Y-113077097D01*
X76026619Y-113076670D01*
X76030000Y-113068621D01*
X76030000Y-113067460D01*
X76530000Y-113067460D01*
X76533910Y-113080777D01*
X76539918Y-113081641D01*
X76692704Y-113025427D01*
X76703939Y-113019948D01*
X76857287Y-112924868D01*
X76867192Y-112917240D01*
X76998287Y-112793270D01*
X77006460Y-112783801D01*
X77109947Y-112636006D01*
X77116049Y-112625088D01*
X77187704Y-112459503D01*
X77191486Y-112447582D01*
X77228693Y-112269479D01*
X77229917Y-112260060D01*
X77230000Y-112256874D01*
X77230000Y-112210091D01*
X83970000Y-112210091D01*
X83970317Y-112216353D01*
X83983970Y-112350755D01*
X83986484Y-112363005D01*
X84040442Y-112535184D01*
X84045363Y-112546667D01*
X84132841Y-112704482D01*
X84139973Y-112714744D01*
X84257393Y-112851739D01*
X84266449Y-112860363D01*
X84409013Y-112970947D01*
X84419620Y-112977575D01*
X84581510Y-113057235D01*
X84593230Y-113061594D01*
X84652749Y-113077097D01*
X84666619Y-113076670D01*
X84670000Y-113068621D01*
X84670000Y-113067460D01*
X85170000Y-113067460D01*
X85173910Y-113080777D01*
X85179918Y-113081641D01*
X85332704Y-113025427D01*
X85343939Y-113019948D01*
X85497287Y-112924868D01*
X85507192Y-112917240D01*
X85638287Y-112793270D01*
X85646460Y-112783801D01*
X85749947Y-112636006D01*
X85756049Y-112625088D01*
X85827704Y-112459503D01*
X85831486Y-112447582D01*
X85868693Y-112269479D01*
X85869917Y-112260060D01*
X85870000Y-112256874D01*
X85870000Y-112032830D01*
X85865596Y-112017831D01*
X85864226Y-112016644D01*
X85856668Y-112015000D01*
X85187830Y-112015000D01*
X85172831Y-112019404D01*
X85171644Y-112020774D01*
X85170000Y-112028332D01*
X85170000Y-113067460D01*
X84670000Y-113067460D01*
X84670000Y-112032830D01*
X84665596Y-112017831D01*
X84664226Y-112016644D01*
X84656668Y-112015000D01*
X83987830Y-112015000D01*
X83972831Y-112019404D01*
X83971644Y-112020774D01*
X83970000Y-112028332D01*
X83970000Y-112210091D01*
X77230000Y-112210091D01*
X77230000Y-112032830D01*
X77225596Y-112017831D01*
X77224226Y-112016644D01*
X77216668Y-112015000D01*
X76547830Y-112015000D01*
X76532831Y-112019404D01*
X76531644Y-112020774D01*
X76530000Y-112028332D01*
X76530000Y-113067460D01*
X76030000Y-113067460D01*
X76030000Y-112032830D01*
X76025596Y-112017831D01*
X76024226Y-112016644D01*
X76016668Y-112015000D01*
X75347830Y-112015000D01*
X75332831Y-112019404D01*
X75331644Y-112020774D01*
X75330000Y-112028332D01*
X75330000Y-112210091D01*
X64000500Y-112210091D01*
X64000500Y-111497170D01*
X75330000Y-111497170D01*
X75334404Y-111512169D01*
X75335774Y-111513356D01*
X75343332Y-111515000D01*
X76012170Y-111515000D01*
X76027169Y-111510596D01*
X76028356Y-111509226D01*
X76030000Y-111501668D01*
X76030000Y-111497170D01*
X76530000Y-111497170D01*
X76534404Y-111512169D01*
X76535774Y-111513356D01*
X76543332Y-111515000D01*
X77212170Y-111515000D01*
X77227169Y-111510596D01*
X77228356Y-111509226D01*
X77230000Y-111501668D01*
X77230000Y-111497170D01*
X83970000Y-111497170D01*
X83974404Y-111512169D01*
X83975774Y-111513356D01*
X83983332Y-111515000D01*
X84652170Y-111515000D01*
X84667169Y-111510596D01*
X84668356Y-111509226D01*
X84670000Y-111501668D01*
X84670000Y-111497170D01*
X85170000Y-111497170D01*
X85174404Y-111512169D01*
X85175774Y-111513356D01*
X85183332Y-111515000D01*
X85852170Y-111515000D01*
X85867169Y-111510596D01*
X85868356Y-111509226D01*
X85870000Y-111501668D01*
X85870000Y-111319909D01*
X85869683Y-111313647D01*
X85856030Y-111179245D01*
X85853516Y-111166995D01*
X85799558Y-110994816D01*
X85794637Y-110983333D01*
X85707159Y-110825518D01*
X85700027Y-110815256D01*
X85582607Y-110678261D01*
X85573551Y-110669637D01*
X85430987Y-110559053D01*
X85420380Y-110552425D01*
X85258490Y-110472765D01*
X85246770Y-110468406D01*
X85187251Y-110452903D01*
X85173381Y-110453330D01*
X85170000Y-110461379D01*
X85170000Y-111497170D01*
X84670000Y-111497170D01*
X84670000Y-110462540D01*
X84666090Y-110449223D01*
X84660082Y-110448359D01*
X84507296Y-110504573D01*
X84496061Y-110510052D01*
X84342713Y-110605132D01*
X84332808Y-110612760D01*
X84201713Y-110736730D01*
X84193540Y-110746199D01*
X84090053Y-110893994D01*
X84083951Y-110904912D01*
X84012296Y-111070497D01*
X84008514Y-111082418D01*
X83971307Y-111260521D01*
X83970083Y-111269940D01*
X83970000Y-111273126D01*
X83970000Y-111497170D01*
X77230000Y-111497170D01*
X77230000Y-111319909D01*
X77229683Y-111313647D01*
X77216030Y-111179245D01*
X77213516Y-111166995D01*
X77159558Y-110994816D01*
X77154637Y-110983333D01*
X77067159Y-110825518D01*
X77060027Y-110815256D01*
X76942607Y-110678261D01*
X76933551Y-110669637D01*
X76790987Y-110559053D01*
X76780380Y-110552425D01*
X76618490Y-110472765D01*
X76606770Y-110468406D01*
X76547251Y-110452903D01*
X76533381Y-110453330D01*
X76530000Y-110461379D01*
X76530000Y-111497170D01*
X76030000Y-111497170D01*
X76030000Y-110462540D01*
X76026090Y-110449223D01*
X76020082Y-110448359D01*
X75867296Y-110504573D01*
X75856061Y-110510052D01*
X75702713Y-110605132D01*
X75692808Y-110612760D01*
X75561713Y-110736730D01*
X75553540Y-110746199D01*
X75450053Y-110893994D01*
X75443951Y-110904912D01*
X75372296Y-111070497D01*
X75368514Y-111082418D01*
X75331307Y-111260521D01*
X75330083Y-111269940D01*
X75330000Y-111273126D01*
X75330000Y-111497170D01*
X64000500Y-111497170D01*
X64000500Y-108190091D01*
X75330000Y-108190091D01*
X75330317Y-108196353D01*
X75343970Y-108330755D01*
X75346484Y-108343005D01*
X75400442Y-108515184D01*
X75405363Y-108526667D01*
X75492841Y-108684482D01*
X75499973Y-108694744D01*
X75617393Y-108831739D01*
X75626449Y-108840363D01*
X75769013Y-108950947D01*
X75779620Y-108957575D01*
X75941510Y-109037235D01*
X75953230Y-109041594D01*
X76012749Y-109057097D01*
X76026619Y-109056670D01*
X76030000Y-109048621D01*
X76030000Y-109047460D01*
X76530000Y-109047460D01*
X76533910Y-109060777D01*
X76539918Y-109061641D01*
X76692704Y-109005427D01*
X76703939Y-108999948D01*
X76857287Y-108904868D01*
X76867192Y-108897240D01*
X76998287Y-108773270D01*
X77006460Y-108763801D01*
X77109947Y-108616006D01*
X77116046Y-108605093D01*
X77127273Y-108579148D01*
X77171963Y-108525440D01*
X77238596Y-108504419D01*
X77306015Y-108522759D01*
X77316561Y-108530018D01*
X77407159Y-108599536D01*
X77414667Y-108602646D01*
X77545729Y-108656934D01*
X77545731Y-108656935D01*
X77553238Y-108660044D01*
X77561297Y-108661105D01*
X77666619Y-108674971D01*
X77666623Y-108674971D01*
X77670639Y-108675500D01*
X77749361Y-108675500D01*
X77753377Y-108674971D01*
X77753381Y-108674971D01*
X77858703Y-108661105D01*
X77866762Y-108660044D01*
X77874269Y-108656935D01*
X77874271Y-108656934D01*
X78005333Y-108602646D01*
X78012841Y-108599536D01*
X78103439Y-108530018D01*
X78131835Y-108508229D01*
X78138282Y-108503282D01*
X78234536Y-108377841D01*
X78254040Y-108330755D01*
X78291934Y-108239271D01*
X78291935Y-108239269D01*
X78295044Y-108231762D01*
X78315682Y-108075000D01*
X82884318Y-108075000D01*
X82904956Y-108231762D01*
X82908065Y-108239269D01*
X82908066Y-108239271D01*
X82945960Y-108330755D01*
X82965464Y-108377841D01*
X83061718Y-108503282D01*
X83068165Y-108508229D01*
X83096561Y-108530018D01*
X83187159Y-108599536D01*
X83194667Y-108602646D01*
X83325729Y-108656934D01*
X83325731Y-108656935D01*
X83333238Y-108660044D01*
X83341297Y-108661105D01*
X83446619Y-108674971D01*
X83446623Y-108674971D01*
X83450639Y-108675500D01*
X83529361Y-108675500D01*
X83533377Y-108674971D01*
X83533381Y-108674971D01*
X83638703Y-108661105D01*
X83646762Y-108660044D01*
X83654269Y-108656935D01*
X83654271Y-108656934D01*
X83785333Y-108602646D01*
X83792841Y-108599536D01*
X83884178Y-108529451D01*
X83949345Y-108504258D01*
X84017789Y-108518296D01*
X84068115Y-108567712D01*
X84132841Y-108684482D01*
X84139973Y-108694744D01*
X84257393Y-108831739D01*
X84266449Y-108840363D01*
X84409013Y-108950947D01*
X84419620Y-108957575D01*
X84581510Y-109037235D01*
X84593230Y-109041594D01*
X84652749Y-109057097D01*
X84666619Y-109056670D01*
X84670000Y-109048621D01*
X84670000Y-109047460D01*
X85170000Y-109047460D01*
X85173910Y-109060777D01*
X85179918Y-109061641D01*
X85332704Y-109005427D01*
X85343939Y-108999948D01*
X85497287Y-108904868D01*
X85507192Y-108897240D01*
X85638287Y-108773270D01*
X85646460Y-108763801D01*
X85749947Y-108616006D01*
X85756049Y-108605088D01*
X85827704Y-108439503D01*
X85831486Y-108427582D01*
X85868693Y-108249479D01*
X85869917Y-108240060D01*
X85870000Y-108236874D01*
X85870000Y-107862830D01*
X85865596Y-107847831D01*
X85864226Y-107846644D01*
X85856668Y-107845000D01*
X85187830Y-107845000D01*
X85172831Y-107849404D01*
X85171644Y-107850774D01*
X85170000Y-107858332D01*
X85170000Y-109047460D01*
X84670000Y-109047460D01*
X84670000Y-107327170D01*
X85170000Y-107327170D01*
X85174404Y-107342169D01*
X85175774Y-107343356D01*
X85183332Y-107345000D01*
X85852170Y-107345000D01*
X85867169Y-107340596D01*
X85868356Y-107339226D01*
X85870000Y-107331668D01*
X85870000Y-106999909D01*
X85869683Y-106993647D01*
X85856030Y-106859245D01*
X85853516Y-106846995D01*
X85799558Y-106674816D01*
X85794637Y-106663333D01*
X85707159Y-106505518D01*
X85700027Y-106495256D01*
X85582607Y-106358261D01*
X85573551Y-106349637D01*
X85430987Y-106239053D01*
X85420380Y-106232425D01*
X85258490Y-106152765D01*
X85246770Y-106148406D01*
X85187251Y-106132903D01*
X85173381Y-106133330D01*
X85170000Y-106141379D01*
X85170000Y-107327170D01*
X84670000Y-107327170D01*
X84670000Y-106142540D01*
X84666090Y-106129223D01*
X84660082Y-106128359D01*
X84507296Y-106184573D01*
X84496061Y-106190052D01*
X84342713Y-106285132D01*
X84332808Y-106292760D01*
X84201713Y-106416730D01*
X84193540Y-106426199D01*
X84090053Y-106573994D01*
X84083951Y-106584912D01*
X84012296Y-106750497D01*
X84008514Y-106762418D01*
X83971307Y-106940521D01*
X83970083Y-106949940D01*
X83970000Y-106953126D01*
X83970000Y-107439197D01*
X83950315Y-107506236D01*
X83897511Y-107551991D01*
X83828353Y-107561935D01*
X83793138Y-107549748D01*
X83792841Y-107550464D01*
X83654271Y-107493066D01*
X83654269Y-107493065D01*
X83646762Y-107489956D01*
X83611229Y-107485278D01*
X83533381Y-107475029D01*
X83533377Y-107475029D01*
X83529361Y-107474500D01*
X83450639Y-107474500D01*
X83446623Y-107475029D01*
X83446619Y-107475029D01*
X83368771Y-107485278D01*
X83333238Y-107489956D01*
X83325731Y-107493065D01*
X83325729Y-107493066D01*
X83211936Y-107540201D01*
X83187159Y-107550464D01*
X83061718Y-107646718D01*
X82965464Y-107772159D01*
X82962354Y-107779667D01*
X82925327Y-107869059D01*
X82904956Y-107918238D01*
X82884318Y-108075000D01*
X78315682Y-108075000D01*
X78295044Y-107918238D01*
X78274674Y-107869059D01*
X78237646Y-107779667D01*
X78234536Y-107772159D01*
X78138282Y-107646718D01*
X78012841Y-107550464D01*
X77988064Y-107540201D01*
X77874271Y-107493066D01*
X77874269Y-107493065D01*
X77866762Y-107489956D01*
X77831229Y-107485278D01*
X77753381Y-107475029D01*
X77753377Y-107475029D01*
X77749361Y-107474500D01*
X77670639Y-107474500D01*
X77666623Y-107475029D01*
X77666619Y-107475029D01*
X77588771Y-107485278D01*
X77553238Y-107489956D01*
X77545731Y-107493065D01*
X77545729Y-107493066D01*
X77407159Y-107550464D01*
X77406506Y-107548888D01*
X77348094Y-107563056D01*
X77282068Y-107540201D01*
X77238880Y-107485278D01*
X77230000Y-107439197D01*
X77230000Y-106999909D01*
X77229683Y-106993647D01*
X77216030Y-106859245D01*
X77213516Y-106846995D01*
X77159558Y-106674816D01*
X77154637Y-106663333D01*
X77067159Y-106505518D01*
X77060027Y-106495256D01*
X76942607Y-106358261D01*
X76933551Y-106349637D01*
X76790987Y-106239053D01*
X76780380Y-106232425D01*
X76618490Y-106152765D01*
X76606770Y-106148406D01*
X76547251Y-106132903D01*
X76533381Y-106133330D01*
X76530000Y-106141379D01*
X76530000Y-109047460D01*
X76030000Y-109047460D01*
X76030000Y-107862830D01*
X76025596Y-107847831D01*
X76024226Y-107846644D01*
X76016668Y-107845000D01*
X75347830Y-107845000D01*
X75332831Y-107849404D01*
X75331644Y-107850774D01*
X75330000Y-107858332D01*
X75330000Y-108190091D01*
X64000500Y-108190091D01*
X64000500Y-107327170D01*
X75330000Y-107327170D01*
X75334404Y-107342169D01*
X75335774Y-107343356D01*
X75343332Y-107345000D01*
X76012170Y-107345000D01*
X76027169Y-107340596D01*
X76028356Y-107339226D01*
X76030000Y-107331668D01*
X76030000Y-106142540D01*
X76026090Y-106129223D01*
X76020082Y-106128359D01*
X75867296Y-106184573D01*
X75856061Y-106190052D01*
X75702713Y-106285132D01*
X75692808Y-106292760D01*
X75561713Y-106416730D01*
X75553540Y-106426199D01*
X75450053Y-106573994D01*
X75443951Y-106584912D01*
X75372296Y-106750497D01*
X75368514Y-106762418D01*
X75331307Y-106940521D01*
X75330083Y-106949940D01*
X75330000Y-106953126D01*
X75330000Y-107327170D01*
X64000500Y-107327170D01*
X64000500Y-61391275D01*
X64002027Y-61371878D01*
X64003965Y-61359641D01*
X64005492Y-61350000D01*
X64003965Y-61340359D01*
X64003965Y-61337880D01*
X64005492Y-61318480D01*
X64012087Y-61276845D01*
X64024074Y-61239952D01*
X64048782Y-61191458D01*
X64071587Y-61160070D01*
X64110070Y-61121587D01*
X64141456Y-61098784D01*
X64189952Y-61074074D01*
X64226845Y-61062087D01*
X64239156Y-61060137D01*
X64268485Y-61055492D01*
X64287880Y-61053965D01*
X64290359Y-61053965D01*
X64300000Y-61055492D01*
X64321901Y-61052023D01*
X64341279Y-61050497D01*
X106335680Y-61047986D01*
X148263745Y-61045478D01*
X148283150Y-61047005D01*
G37*
%TD.AperFunction*%
%TA.AperFunction,Conductor*%
G36*
X110100232Y-63918745D02*
G01*
X110120874Y-63935379D01*
X110187944Y-64002449D01*
X110221429Y-64063772D01*
X110223203Y-64106310D01*
X110221646Y-64118138D01*
X110222466Y-64125566D01*
X110222466Y-64125568D01*
X110229259Y-64187098D01*
X110238923Y-64274633D01*
X110241490Y-64281648D01*
X110241491Y-64281652D01*
X110269389Y-64357887D01*
X110273942Y-64427608D01*
X110240078Y-64488722D01*
X110178548Y-64521827D01*
X110152941Y-64524500D01*
X108758068Y-64524500D01*
X108757419Y-64524498D01*
X108682157Y-64524104D01*
X108682156Y-64524104D01*
X108674684Y-64524065D01*
X108667420Y-64525809D01*
X108639296Y-64532561D01*
X108625889Y-64535009D01*
X108586942Y-64539929D01*
X108579691Y-64542800D01*
X108579683Y-64542802D01*
X108561733Y-64549910D01*
X108545039Y-64555190D01*
X108521588Y-64560820D01*
X108514948Y-64564247D01*
X108514943Y-64564249D01*
X108485605Y-64579392D01*
X108474380Y-64584495D01*
X108434129Y-64600432D01*
X108416743Y-64613064D01*
X108415480Y-64613981D01*
X108399473Y-64623848D01*
X108381679Y-64633032D01*
X108376046Y-64637946D01*
X108348079Y-64662343D01*
X108339451Y-64669219D01*
X108307473Y-64692452D01*
X108307471Y-64692454D01*
X108301163Y-64697037D01*
X108289061Y-64711667D01*
X108275035Y-64726064D01*
X108263034Y-64736533D01*
X108258733Y-64742653D01*
X108258731Y-64742655D01*
X108235030Y-64776378D01*
X108229124Y-64784117D01*
X108201373Y-64817662D01*
X108201371Y-64817665D01*
X108196400Y-64823674D01*
X108193078Y-64830734D01*
X108190051Y-64837166D01*
X108179308Y-64855662D01*
X108172501Y-64865348D01*
X108169786Y-64872312D01*
X108153308Y-64914576D01*
X108149979Y-64922323D01*
X108126421Y-64972387D01*
X108124391Y-64983029D01*
X108118116Y-65004838D01*
X108118027Y-65005067D01*
X108115309Y-65012039D01*
X108110029Y-65052140D01*
X108107873Y-65068518D01*
X108106738Y-65075566D01*
X108095624Y-65133830D01*
X108096114Y-65141618D01*
X108095890Y-65145183D01*
X108095615Y-65153245D01*
X108095812Y-65153247D01*
X108095734Y-65160730D01*
X108094758Y-65168138D01*
X108095578Y-65175566D01*
X108095578Y-65175567D01*
X108101470Y-65228931D01*
X108101973Y-65234744D01*
X108105944Y-65297860D01*
X108108355Y-65305280D01*
X108108774Y-65307477D01*
X108109770Y-65311044D01*
X108111215Y-65317203D01*
X108112035Y-65324633D01*
X108134527Y-65386093D01*
X108135977Y-65390293D01*
X108156732Y-65454171D01*
X108160916Y-65460763D01*
X108161783Y-65462606D01*
X108163857Y-65466242D01*
X108166143Y-65472490D01*
X108182447Y-65496752D01*
X108205078Y-65530431D01*
X108206837Y-65533124D01*
X108244798Y-65592940D01*
X108250484Y-65598280D01*
X108251476Y-65599479D01*
X108253958Y-65603172D01*
X108259485Y-65608201D01*
X108259877Y-65608558D01*
X108260078Y-65608888D01*
X108264369Y-65613859D01*
X108263540Y-65614575D01*
X108296210Y-65668238D01*
X108294510Y-65738087D01*
X108268570Y-65783238D01*
X108266965Y-65785021D01*
X108261334Y-65789933D01*
X108257035Y-65796050D01*
X108257034Y-65796051D01*
X108230011Y-65834500D01*
X108224105Y-65842239D01*
X108215802Y-65852276D01*
X108198100Y-65873674D01*
X108194779Y-65880732D01*
X108193796Y-65882820D01*
X108183056Y-65901309D01*
X108175098Y-65912633D01*
X108175096Y-65912636D01*
X108170801Y-65918748D01*
X108163598Y-65937224D01*
X108142914Y-65990276D01*
X108139583Y-65998029D01*
X108128121Y-66022387D01*
X108126658Y-66030053D01*
X108124249Y-66037468D01*
X108123841Y-66037335D01*
X108121806Y-66044413D01*
X108113609Y-66065439D01*
X108106201Y-66121710D01*
X108100045Y-66168465D01*
X108098911Y-66175509D01*
X108097325Y-66183825D01*
X108096898Y-66183744D01*
X108095654Y-66187169D01*
X108097550Y-66187419D01*
X108093058Y-66221538D01*
X108093878Y-66228966D01*
X108093878Y-66228968D01*
X108095916Y-66247425D01*
X108110335Y-66378033D01*
X108112901Y-66385045D01*
X108112902Y-66385049D01*
X108140421Y-66460247D01*
X108164443Y-66525890D01*
X108168614Y-66532097D01*
X108222236Y-66611894D01*
X108252258Y-66656572D01*
X108306993Y-66706377D01*
X108363178Y-66757502D01*
X108363182Y-66757505D01*
X108368710Y-66762535D01*
X108375280Y-66766102D01*
X108375281Y-66766103D01*
X108440861Y-66801710D01*
X108507076Y-66837662D01*
X108609331Y-66864488D01*
X108652141Y-66875719D01*
X108652143Y-66875719D01*
X108659369Y-66877615D01*
X108736427Y-66878825D01*
X108809325Y-66879971D01*
X108809328Y-66879971D01*
X108816795Y-66880088D01*
X108824079Y-66878420D01*
X108831514Y-66877638D01*
X108831519Y-66877685D01*
X108850844Y-66875500D01*
X109683746Y-66875500D01*
X109750785Y-66895185D01*
X109796540Y-66947989D01*
X109806484Y-67017147D01*
X109777459Y-67080703D01*
X109771429Y-67087179D01*
X108394496Y-68464111D01*
X108394493Y-68464115D01*
X108371930Y-68486678D01*
X108367500Y-68495373D01*
X108361874Y-68506415D01*
X108351708Y-68523004D01*
X108338684Y-68540930D01*
X108335667Y-68550216D01*
X108331837Y-68562001D01*
X108324393Y-68579972D01*
X108318765Y-68591018D01*
X108318763Y-68591023D01*
X108314334Y-68599716D01*
X108312808Y-68609353D01*
X108310869Y-68621595D01*
X108306325Y-68640521D01*
X108299480Y-68661587D01*
X108299480Y-84063717D01*
X108279795Y-84130756D01*
X108263161Y-84151398D01*
X108144505Y-84270054D01*
X108144502Y-84270058D01*
X108121939Y-84292621D01*
X108112826Y-84310508D01*
X108111883Y-84312358D01*
X108101717Y-84328947D01*
X108088693Y-84346873D01*
X108085676Y-84356159D01*
X108081846Y-84367944D01*
X108074402Y-84385915D01*
X108068774Y-84396961D01*
X108068772Y-84396966D01*
X108064343Y-84405659D01*
X108060894Y-84427435D01*
X108060878Y-84427538D01*
X108056334Y-84446464D01*
X108049489Y-84467530D01*
X108049489Y-85213422D01*
X108052504Y-85222700D01*
X108056334Y-85234488D01*
X108060878Y-85253413D01*
X108064343Y-85275293D01*
X108068772Y-85283986D01*
X108068774Y-85283991D01*
X108074402Y-85295037D01*
X108081846Y-85313008D01*
X108084652Y-85321642D01*
X108088693Y-85334079D01*
X108101717Y-85352005D01*
X108111881Y-85368591D01*
X108121939Y-85388331D01*
X108144502Y-85410894D01*
X108144505Y-85410898D01*
X108411056Y-85677449D01*
X108444541Y-85738772D01*
X108446315Y-85781310D01*
X108444758Y-85793138D01*
X108445578Y-85800566D01*
X108445578Y-85800568D01*
X108457325Y-85906973D01*
X108462035Y-85949633D01*
X108464601Y-85956645D01*
X108464602Y-85956649D01*
X108481084Y-86001688D01*
X108516143Y-86097490D01*
X108520314Y-86103697D01*
X108585035Y-86200011D01*
X108603958Y-86228172D01*
X108626183Y-86248395D01*
X108714878Y-86329102D01*
X108714882Y-86329105D01*
X108720410Y-86334135D01*
X108726980Y-86337702D01*
X108726981Y-86337703D01*
X108852208Y-86405696D01*
X108858776Y-86409262D01*
X108961031Y-86436088D01*
X109003841Y-86447319D01*
X109003843Y-86447319D01*
X109011069Y-86449215D01*
X109088127Y-86450425D01*
X109161025Y-86451571D01*
X109161028Y-86451571D01*
X109168495Y-86451688D01*
X109175776Y-86450020D01*
X109175780Y-86450020D01*
X109314681Y-86418207D01*
X109321968Y-86416538D01*
X109462625Y-86345795D01*
X109468306Y-86340943D01*
X109468309Y-86340941D01*
X109576666Y-86248395D01*
X109576667Y-86248394D01*
X109582348Y-86243542D01*
X109593393Y-86228172D01*
X109620708Y-86190158D01*
X109674224Y-86115683D01*
X109732950Y-85969598D01*
X109734003Y-85962201D01*
X109754562Y-85817744D01*
X109754562Y-85817740D01*
X109755134Y-85813723D01*
X109755278Y-85800000D01*
X109752637Y-85778172D01*
X109737262Y-85651119D01*
X109737261Y-85651115D01*
X109736363Y-85643694D01*
X109715415Y-85588256D01*
X109683354Y-85503408D01*
X109683352Y-85503405D01*
X109680710Y-85496412D01*
X109592910Y-85368663D01*
X109571160Y-85302266D01*
X109588761Y-85234649D01*
X109594403Y-85226070D01*
X109619346Y-85191358D01*
X109673724Y-85115683D01*
X109732450Y-84969598D01*
X109741413Y-84906620D01*
X109754062Y-84817744D01*
X109754062Y-84817740D01*
X109754634Y-84813723D01*
X109754685Y-84808931D01*
X109754706Y-84806821D01*
X109754778Y-84800000D01*
X109747728Y-84741742D01*
X109736762Y-84651119D01*
X109736761Y-84651115D01*
X109735863Y-84643694D01*
X109710347Y-84576167D01*
X109682854Y-84503408D01*
X109682852Y-84503405D01*
X109680210Y-84496412D01*
X109673673Y-84486900D01*
X109595268Y-84372821D01*
X109595265Y-84372818D01*
X109591031Y-84366657D01*
X109541511Y-84322536D01*
X109504552Y-84263242D01*
X109500000Y-84229953D01*
X109500000Y-69107761D01*
X109519685Y-69040722D01*
X109536319Y-69020080D01*
X110770059Y-67786339D01*
X110831382Y-67752854D01*
X110857740Y-67750020D01*
X136025500Y-67750020D01*
X136092539Y-67769705D01*
X136138294Y-67822509D01*
X136149500Y-67874020D01*
X136149500Y-69088433D01*
X136152515Y-69097711D01*
X136156345Y-69109499D01*
X136160889Y-69128424D01*
X136164354Y-69150304D01*
X136168783Y-69158997D01*
X136168785Y-69159002D01*
X136174413Y-69170048D01*
X136181857Y-69188019D01*
X136184507Y-69196172D01*
X136188704Y-69209090D01*
X136201728Y-69227016D01*
X136211892Y-69243602D01*
X136221950Y-69263342D01*
X136244513Y-69285905D01*
X136244516Y-69285909D01*
X136567399Y-69608792D01*
X136567403Y-69608795D01*
X136589966Y-69631358D01*
X136609706Y-69641416D01*
X136626292Y-69651580D01*
X136644218Y-69664604D01*
X136656655Y-69668645D01*
X136665289Y-69671451D01*
X136683260Y-69678895D01*
X136694306Y-69684523D01*
X136694311Y-69684525D01*
X136703004Y-69688954D01*
X136724884Y-69692419D01*
X136743806Y-69696962D01*
X136753359Y-69700066D01*
X136802096Y-69732448D01*
X136802977Y-69731480D01*
X136913897Y-69832410D01*
X136913901Y-69832413D01*
X136919429Y-69837443D01*
X136925999Y-69841010D01*
X136926000Y-69841011D01*
X137051227Y-69909004D01*
X137057795Y-69912570D01*
X137130372Y-69931610D01*
X137202860Y-69950627D01*
X137202862Y-69950627D01*
X137210088Y-69952523D01*
X137287146Y-69953733D01*
X137360044Y-69954879D01*
X137360047Y-69954879D01*
X137367514Y-69954996D01*
X137374795Y-69953328D01*
X137374799Y-69953328D01*
X137513700Y-69921515D01*
X137520987Y-69919846D01*
X137661644Y-69849103D01*
X137667325Y-69844251D01*
X137667328Y-69844249D01*
X137718890Y-69800210D01*
X137782651Y-69771639D01*
X137799422Y-69770500D01*
X137855500Y-69770500D01*
X137922539Y-69790185D01*
X137968294Y-69842989D01*
X137979500Y-69894500D01*
X137979500Y-69914646D01*
X137982618Y-69940846D01*
X138028061Y-70043153D01*
X138035367Y-70050446D01*
X138056888Y-70116150D01*
X138039286Y-70183766D01*
X138035744Y-70189288D01*
X138027759Y-70197287D01*
X138023130Y-70207758D01*
X138002653Y-70254076D01*
X137982494Y-70299673D01*
X137979500Y-70325354D01*
X137979500Y-70328943D01*
X137979414Y-70330423D01*
X137955873Y-70396207D01*
X137900503Y-70438821D01*
X137830884Y-70444735D01*
X137773134Y-70415811D01*
X137684559Y-70336893D01*
X137684558Y-70336892D01*
X137678976Y-70331919D01*
X137539831Y-70258245D01*
X137387128Y-70219889D01*
X137305329Y-70219461D01*
X137237158Y-70219104D01*
X137237157Y-70219104D01*
X137229684Y-70219065D01*
X137222421Y-70220809D01*
X137222418Y-70220809D01*
X137153136Y-70237442D01*
X137076588Y-70255820D01*
X136936679Y-70328032D01*
X136818034Y-70431533D01*
X136727501Y-70560348D01*
X136670309Y-70707039D01*
X136649758Y-70863138D01*
X136667035Y-71019633D01*
X136721143Y-71167490D01*
X136808958Y-71298172D01*
X136837270Y-71323934D01*
X136919878Y-71399102D01*
X136919882Y-71399105D01*
X136925410Y-71404135D01*
X136931980Y-71407702D01*
X136931981Y-71407703D01*
X136953071Y-71419154D01*
X137063776Y-71479262D01*
X137140451Y-71499377D01*
X137200301Y-71535428D01*
X137231159Y-71598115D01*
X137223227Y-71667533D01*
X137179025Y-71721643D01*
X137137933Y-71739892D01*
X137071588Y-71755820D01*
X136931679Y-71828032D01*
X136813034Y-71931533D01*
X136722501Y-72060348D01*
X136665309Y-72207039D01*
X136644758Y-72363138D01*
X136662035Y-72519633D01*
X136716143Y-72667490D01*
X136803958Y-72798172D01*
X136858545Y-72847842D01*
X136914878Y-72899102D01*
X136914882Y-72899105D01*
X136920410Y-72904135D01*
X136926980Y-72907702D01*
X136926981Y-72907703D01*
X136941885Y-72915795D01*
X137058776Y-72979262D01*
X137117765Y-72994737D01*
X137147792Y-73002615D01*
X137207642Y-73038667D01*
X137238500Y-73101353D01*
X137230568Y-73170771D01*
X137186366Y-73224881D01*
X137145274Y-73243130D01*
X137071588Y-73260820D01*
X136931679Y-73333032D01*
X136813034Y-73436533D01*
X136722501Y-73565348D01*
X136665309Y-73712039D01*
X136644758Y-73868138D01*
X136662035Y-74024633D01*
X136664602Y-74031648D01*
X136664603Y-74031652D01*
X136715026Y-74169440D01*
X136719579Y-74239161D01*
X136685715Y-74300275D01*
X136624185Y-74333380D01*
X136599952Y-74336045D01*
X133581665Y-74369396D01*
X133519614Y-74373910D01*
X133495513Y-74377164D01*
X133493654Y-74377533D01*
X133493646Y-74377534D01*
X133436398Y-74388887D01*
X133436392Y-74388888D01*
X133434503Y-74389263D01*
X133045159Y-74491722D01*
X133044306Y-74491973D01*
X133044294Y-74491976D01*
X133037719Y-74493908D01*
X133017533Y-74499840D01*
X133012772Y-74502182D01*
X133012771Y-74502182D01*
X132892393Y-74561387D01*
X132892388Y-74561390D01*
X132888423Y-74563340D01*
X132833525Y-74600889D01*
X132798917Y-74626800D01*
X132701629Y-74732804D01*
X132638147Y-74861922D01*
X132619240Y-74920113D01*
X132618477Y-74924929D01*
X132618477Y-74924930D01*
X132595263Y-75071497D01*
X132595262Y-75071504D01*
X132594500Y-75076318D01*
X132594500Y-79634266D01*
X132595071Y-79638438D01*
X132595071Y-79638440D01*
X132602174Y-79690350D01*
X132613082Y-79770063D01*
X132627371Y-79821298D01*
X132689394Y-79959352D01*
X132783758Y-80067966D01*
X132830051Y-80107973D01*
X132830369Y-80108240D01*
X132830396Y-80108263D01*
X132833142Y-80110568D01*
X132841110Y-80117257D01*
X132964419Y-80191395D01*
X133360412Y-80358129D01*
X133409214Y-80373166D01*
X133453575Y-80386834D01*
X133453578Y-80386835D01*
X133456516Y-80387740D01*
X133459523Y-80388347D01*
X133459530Y-80388349D01*
X133491907Y-80394887D01*
X133491912Y-80394888D01*
X133494934Y-80395498D01*
X133498006Y-80395805D01*
X133498012Y-80395806D01*
X133591921Y-80405193D01*
X133591923Y-80405193D01*
X133594993Y-80405500D01*
X136525868Y-80405500D01*
X136592907Y-80425185D01*
X136638662Y-80477989D01*
X136648606Y-80547147D01*
X136641399Y-80574541D01*
X136614809Y-80642740D01*
X136594258Y-80798839D01*
X136595078Y-80806267D01*
X136595078Y-80806269D01*
X136606422Y-80909017D01*
X136611535Y-80955334D01*
X136665643Y-81103191D01*
X136753458Y-81233873D01*
X136808193Y-81283678D01*
X136864378Y-81334803D01*
X136864382Y-81334806D01*
X136869910Y-81339836D01*
X136876480Y-81343403D01*
X136876481Y-81343404D01*
X137001708Y-81411397D01*
X137008276Y-81414963D01*
X137104959Y-81440327D01*
X137153341Y-81453020D01*
X137153343Y-81453020D01*
X137160569Y-81454916D01*
X137237627Y-81456126D01*
X137310525Y-81457272D01*
X137310528Y-81457272D01*
X137317995Y-81457389D01*
X137325276Y-81455721D01*
X137325280Y-81455721D01*
X137464181Y-81423908D01*
X137471468Y-81422239D01*
X137612125Y-81351496D01*
X137617806Y-81346644D01*
X137617809Y-81346642D01*
X137672173Y-81300210D01*
X137735935Y-81271639D01*
X137752705Y-81270500D01*
X137855500Y-81270500D01*
X137922539Y-81290185D01*
X137968294Y-81342989D01*
X137979500Y-81394500D01*
X137979500Y-81414646D01*
X137982618Y-81440846D01*
X138028061Y-81543153D01*
X138035367Y-81550446D01*
X138056888Y-81616150D01*
X138039286Y-81683766D01*
X138035744Y-81689288D01*
X138027759Y-81697287D01*
X138023130Y-81707758D01*
X138002653Y-81754076D01*
X137982494Y-81799673D01*
X137979500Y-81825354D01*
X137979500Y-81845500D01*
X137959815Y-81912539D01*
X137907011Y-81958294D01*
X137855500Y-81969500D01*
X137845277Y-81969500D01*
X137778238Y-81949815D01*
X137762134Y-81935981D01*
X137761531Y-81936657D01*
X137649559Y-81836893D01*
X137649558Y-81836892D01*
X137643976Y-81831919D01*
X137504831Y-81758245D01*
X137352128Y-81719889D01*
X137270329Y-81719461D01*
X137202158Y-81719104D01*
X137202157Y-81719104D01*
X137194684Y-81719065D01*
X137187421Y-81720809D01*
X137187418Y-81720809D01*
X137118136Y-81737443D01*
X137041588Y-81755820D01*
X136901679Y-81828032D01*
X136783034Y-81931533D01*
X136692501Y-82060348D01*
X136635309Y-82207039D01*
X136614758Y-82363138D01*
X136632035Y-82519633D01*
X136634601Y-82526645D01*
X136634602Y-82526649D01*
X136664206Y-82607544D01*
X136686143Y-82667490D01*
X136690314Y-82673697D01*
X136760519Y-82778172D01*
X136773958Y-82798172D01*
X136823211Y-82842989D01*
X136884878Y-82899102D01*
X136884882Y-82899105D01*
X136890410Y-82904135D01*
X136896980Y-82907702D01*
X136896981Y-82907703D01*
X137005341Y-82966538D01*
X137028776Y-82979262D01*
X137181069Y-83019215D01*
X137180290Y-83022185D01*
X137231254Y-83045040D01*
X137269428Y-83103559D01*
X137269905Y-83173427D01*
X137232532Y-83232462D01*
X137179639Y-83259879D01*
X137152428Y-83266412D01*
X137071588Y-83285820D01*
X136931679Y-83358032D01*
X136926048Y-83362945D01*
X136926047Y-83362945D01*
X136872856Y-83409347D01*
X136813034Y-83461533D01*
X136722501Y-83590348D01*
X136665309Y-83737039D01*
X136644758Y-83893138D01*
X136645578Y-83900566D01*
X136645578Y-83900568D01*
X136657041Y-84004395D01*
X136662035Y-84049633D01*
X136664601Y-84056645D01*
X136664602Y-84056649D01*
X136673751Y-84081649D01*
X136716143Y-84197490D01*
X136748224Y-84245231D01*
X136797951Y-84319232D01*
X136803958Y-84328172D01*
X136836965Y-84358206D01*
X136914878Y-84429102D01*
X136914882Y-84429105D01*
X136920410Y-84434135D01*
X136926980Y-84437702D01*
X136926981Y-84437703D01*
X137039644Y-84498874D01*
X137058776Y-84509262D01*
X137063187Y-84510419D01*
X137117291Y-84552635D01*
X137140394Y-84618574D01*
X137124180Y-84686537D01*
X137073797Y-84734944D01*
X137072104Y-84735696D01*
X137071588Y-84735820D01*
X136931679Y-84808032D01*
X136926048Y-84812945D01*
X136926047Y-84812945D01*
X136913733Y-84823687D01*
X136813034Y-84911533D01*
X136722501Y-85040348D01*
X136665309Y-85187039D01*
X136644758Y-85343138D01*
X136645578Y-85350566D01*
X136645578Y-85350568D01*
X136647979Y-85372314D01*
X136662035Y-85499633D01*
X136664601Y-85506645D01*
X136664602Y-85506649D01*
X136680430Y-85549900D01*
X136716143Y-85647490D01*
X136803958Y-85778172D01*
X136828571Y-85800568D01*
X136914878Y-85879102D01*
X136914882Y-85879105D01*
X136920410Y-85884135D01*
X136926980Y-85887702D01*
X136926981Y-85887703D01*
X137052208Y-85955696D01*
X137058776Y-85959262D01*
X137140063Y-85980587D01*
X137203841Y-85997319D01*
X137203843Y-85997319D01*
X137211069Y-85999215D01*
X137288127Y-86000425D01*
X137361025Y-86001571D01*
X137361028Y-86001571D01*
X137368495Y-86001688D01*
X137375776Y-86000020D01*
X137375780Y-86000020D01*
X137514681Y-85968207D01*
X137521968Y-85966538D01*
X137662625Y-85895795D01*
X137668308Y-85890942D01*
X137668313Y-85890938D01*
X137774542Y-85800210D01*
X137838303Y-85771639D01*
X137855073Y-85770500D01*
X137855500Y-85770500D01*
X137922539Y-85790185D01*
X137968294Y-85842989D01*
X137979500Y-85894500D01*
X137979500Y-85908298D01*
X137959815Y-85975337D01*
X137935899Y-86001039D01*
X137936126Y-86001266D01*
X137917516Y-86019876D01*
X137842212Y-86120354D01*
X137833817Y-86135689D01*
X137789371Y-86254247D01*
X137785803Y-86269256D01*
X137780363Y-86319331D01*
X137780000Y-86326028D01*
X137780000Y-88602170D01*
X137784404Y-88617169D01*
X137785774Y-88618356D01*
X137793332Y-88620000D01*
X143406000Y-88620000D01*
X143473039Y-88639685D01*
X143518794Y-88692489D01*
X143530000Y-88744000D01*
X143530000Y-88996000D01*
X143510315Y-89063039D01*
X143457511Y-89108794D01*
X143406000Y-89120000D01*
X137797830Y-89120000D01*
X137782831Y-89124404D01*
X137781644Y-89125774D01*
X137780000Y-89133332D01*
X137780000Y-91413972D01*
X137780363Y-91420669D01*
X137785803Y-91470744D01*
X137789371Y-91485753D01*
X137833817Y-91604311D01*
X137842212Y-91619646D01*
X137917516Y-91720124D01*
X137936126Y-91738734D01*
X137935221Y-91739639D01*
X137971704Y-91788429D01*
X137979500Y-91831702D01*
X137979500Y-91845500D01*
X137959815Y-91912539D01*
X137907011Y-91958294D01*
X137855500Y-91969500D01*
X137841949Y-91969500D01*
X137774910Y-91949815D01*
X137759460Y-91938083D01*
X137679559Y-91866893D01*
X137679558Y-91866892D01*
X137673976Y-91861919D01*
X137534831Y-91788245D01*
X137382128Y-91749889D01*
X137300329Y-91749461D01*
X137232158Y-91749104D01*
X137232157Y-91749104D01*
X137224684Y-91749065D01*
X137217421Y-91750809D01*
X137217418Y-91750809D01*
X137148136Y-91767442D01*
X137071588Y-91785820D01*
X136931679Y-91858032D01*
X136926048Y-91862945D01*
X136926047Y-91862945D01*
X136826467Y-91949815D01*
X136815449Y-91959426D01*
X136815446Y-91959428D01*
X136813034Y-91961533D01*
X136812683Y-91961131D01*
X136757512Y-91995120D01*
X136724848Y-91999500D01*
X136043481Y-91999500D01*
X136043477Y-91999501D01*
X136011567Y-91999501D01*
X135990490Y-92006349D01*
X135971594Y-92010886D01*
X135949696Y-92014354D01*
X135941001Y-92018784D01*
X135940999Y-92018785D01*
X135929952Y-92024414D01*
X135911977Y-92031859D01*
X135890910Y-92038704D01*
X135883013Y-92044441D01*
X135883014Y-92044441D01*
X135872987Y-92051726D01*
X135856397Y-92061892D01*
X135836658Y-92071950D01*
X134624926Y-93283682D01*
X134563603Y-93317167D01*
X134493911Y-93312183D01*
X134435054Y-93266236D01*
X134404002Y-93221055D01*
X134403999Y-93221052D01*
X134399765Y-93214891D01*
X134293189Y-93119935D01*
X134287793Y-93115127D01*
X134287792Y-93115126D01*
X134282210Y-93110153D01*
X134143065Y-93036479D01*
X133990362Y-92998123D01*
X133908563Y-92997695D01*
X133840392Y-92997338D01*
X133840391Y-92997338D01*
X133832918Y-92997299D01*
X133825655Y-92999043D01*
X133825652Y-92999043D01*
X133763370Y-93013996D01*
X133679822Y-93034054D01*
X133539913Y-93106266D01*
X133421268Y-93209767D01*
X133330735Y-93338582D01*
X133273543Y-93485273D01*
X133252992Y-93641372D01*
X133270269Y-93797867D01*
X133324377Y-93945724D01*
X133412192Y-94076406D01*
X133460396Y-94120268D01*
X133496731Y-94179943D01*
X133500941Y-94211980D01*
X133500940Y-105345980D01*
X133481255Y-105413019D01*
X133428451Y-105458774D01*
X133376940Y-105469980D01*
X99272741Y-105469980D01*
X99205702Y-105450295D01*
X99185060Y-105433661D01*
X97777836Y-104026437D01*
X97777832Y-104026434D01*
X97755269Y-104003871D01*
X97735529Y-103993813D01*
X97718943Y-103983649D01*
X97701017Y-103970625D01*
X97688580Y-103966584D01*
X97679946Y-103963778D01*
X97661975Y-103956334D01*
X97650929Y-103950706D01*
X97650924Y-103950704D01*
X97642231Y-103946275D01*
X97620351Y-103942810D01*
X97601426Y-103938266D01*
X97601034Y-103938139D01*
X97580360Y-103931421D01*
X97548446Y-103931421D01*
X90531740Y-103931420D01*
X90464701Y-103911735D01*
X90444059Y-103895101D01*
X90010096Y-103461138D01*
X113007758Y-103461138D01*
X113008578Y-103468566D01*
X113008578Y-103468568D01*
X113010474Y-103485744D01*
X113025035Y-103617633D01*
X113079143Y-103765490D01*
X113166958Y-103896172D01*
X113184062Y-103911735D01*
X113277878Y-103997102D01*
X113277882Y-103997105D01*
X113283410Y-104002135D01*
X113289980Y-104005702D01*
X113289981Y-104005703D01*
X113328163Y-104026434D01*
X113421776Y-104077262D01*
X113524031Y-104104088D01*
X113566841Y-104115319D01*
X113566843Y-104115319D01*
X113574069Y-104117215D01*
X113651127Y-104118425D01*
X113724025Y-104119571D01*
X113724028Y-104119571D01*
X113731495Y-104119688D01*
X113738776Y-104118020D01*
X113738780Y-104118020D01*
X113877681Y-104086207D01*
X113884968Y-104084538D01*
X114025625Y-104013795D01*
X114031306Y-104008943D01*
X114031309Y-104008941D01*
X114139666Y-103916395D01*
X114139667Y-103916394D01*
X114145348Y-103911542D01*
X114156393Y-103896172D01*
X114176798Y-103867775D01*
X114237224Y-103783683D01*
X114295950Y-103637598D01*
X114297793Y-103624649D01*
X114317562Y-103485744D01*
X114317562Y-103485740D01*
X114318134Y-103481723D01*
X114318278Y-103468000D01*
X114317448Y-103461138D01*
X116507758Y-103461138D01*
X116508578Y-103468566D01*
X116508578Y-103468568D01*
X116510474Y-103485744D01*
X116525035Y-103617633D01*
X116579143Y-103765490D01*
X116666958Y-103896172D01*
X116684062Y-103911735D01*
X116777878Y-103997102D01*
X116777882Y-103997105D01*
X116783410Y-104002135D01*
X116789980Y-104005702D01*
X116789981Y-104005703D01*
X116828163Y-104026434D01*
X116921776Y-104077262D01*
X117024031Y-104104088D01*
X117066841Y-104115319D01*
X117066843Y-104115319D01*
X117074069Y-104117215D01*
X117151127Y-104118425D01*
X117224025Y-104119571D01*
X117224028Y-104119571D01*
X117231495Y-104119688D01*
X117238776Y-104118020D01*
X117238780Y-104118020D01*
X117377681Y-104086207D01*
X117384968Y-104084538D01*
X117525625Y-104013795D01*
X117531306Y-104008943D01*
X117531309Y-104008941D01*
X117639666Y-103916395D01*
X117639667Y-103916394D01*
X117645348Y-103911542D01*
X117656393Y-103896172D01*
X117676798Y-103867775D01*
X117737224Y-103783683D01*
X117795950Y-103637598D01*
X117797793Y-103624649D01*
X117817562Y-103485744D01*
X117817562Y-103485740D01*
X117818134Y-103481723D01*
X117818278Y-103468000D01*
X117817448Y-103461138D01*
X120057758Y-103461138D01*
X120058578Y-103468566D01*
X120058578Y-103468568D01*
X120060474Y-103485744D01*
X120075035Y-103617633D01*
X120129143Y-103765490D01*
X120216958Y-103896172D01*
X120234062Y-103911735D01*
X120327878Y-103997102D01*
X120327882Y-103997105D01*
X120333410Y-104002135D01*
X120339980Y-104005702D01*
X120339981Y-104005703D01*
X120378163Y-104026434D01*
X120471776Y-104077262D01*
X120574031Y-104104088D01*
X120616841Y-104115319D01*
X120616843Y-104115319D01*
X120624069Y-104117215D01*
X120701127Y-104118425D01*
X120774025Y-104119571D01*
X120774028Y-104119571D01*
X120781495Y-104119688D01*
X120788776Y-104118020D01*
X120788780Y-104118020D01*
X120927681Y-104086207D01*
X120934968Y-104084538D01*
X121075625Y-104013795D01*
X121081306Y-104008943D01*
X121081309Y-104008941D01*
X121189666Y-103916395D01*
X121189667Y-103916394D01*
X121195348Y-103911542D01*
X121206393Y-103896172D01*
X121226798Y-103867775D01*
X121287224Y-103783683D01*
X121345950Y-103637598D01*
X121347793Y-103624649D01*
X121367562Y-103485744D01*
X121367562Y-103485740D01*
X121368134Y-103481723D01*
X121368278Y-103468000D01*
X121367448Y-103461138D01*
X123507758Y-103461138D01*
X123508578Y-103468566D01*
X123508578Y-103468568D01*
X123510474Y-103485744D01*
X123525035Y-103617633D01*
X123579143Y-103765490D01*
X123666958Y-103896172D01*
X123684062Y-103911735D01*
X123777878Y-103997102D01*
X123777882Y-103997105D01*
X123783410Y-104002135D01*
X123789980Y-104005702D01*
X123789981Y-104005703D01*
X123828163Y-104026434D01*
X123921776Y-104077262D01*
X124024031Y-104104088D01*
X124066841Y-104115319D01*
X124066843Y-104115319D01*
X124074069Y-104117215D01*
X124151127Y-104118425D01*
X124224025Y-104119571D01*
X124224028Y-104119571D01*
X124231495Y-104119688D01*
X124238776Y-104118020D01*
X124238780Y-104118020D01*
X124377681Y-104086207D01*
X124384968Y-104084538D01*
X124525625Y-104013795D01*
X124531306Y-104008943D01*
X124531309Y-104008941D01*
X124639666Y-103916395D01*
X124639667Y-103916394D01*
X124645348Y-103911542D01*
X124656393Y-103896172D01*
X124676798Y-103867775D01*
X124737224Y-103783683D01*
X124795950Y-103637598D01*
X124797793Y-103624649D01*
X124817562Y-103485744D01*
X124817562Y-103485740D01*
X124818134Y-103481723D01*
X124818278Y-103468000D01*
X124807682Y-103380436D01*
X124800262Y-103319119D01*
X124800261Y-103319115D01*
X124799363Y-103311694D01*
X124773728Y-103243853D01*
X124746354Y-103171408D01*
X124746352Y-103171405D01*
X124743710Y-103164412D01*
X124711549Y-103117618D01*
X124658768Y-103040821D01*
X124658765Y-103040818D01*
X124654531Y-103034657D01*
X124648945Y-103029680D01*
X124644488Y-103024625D01*
X124614918Y-102961321D01*
X124613500Y-102942620D01*
X124613500Y-69293195D01*
X124633185Y-69226156D01*
X124642756Y-69213756D01*
X124645348Y-69211542D01*
X124737224Y-69083683D01*
X124795950Y-68937598D01*
X124797793Y-68924649D01*
X124817562Y-68785744D01*
X124817562Y-68785740D01*
X124818134Y-68781723D01*
X124818278Y-68768000D01*
X124817448Y-68761138D01*
X124800262Y-68619119D01*
X124800261Y-68619115D01*
X124799363Y-68611694D01*
X124780586Y-68562001D01*
X124746354Y-68471408D01*
X124746352Y-68471405D01*
X124743710Y-68464412D01*
X124734320Y-68450750D01*
X124658768Y-68340821D01*
X124658765Y-68340818D01*
X124654531Y-68334657D01*
X124563704Y-68253733D01*
X124542559Y-68234893D01*
X124542558Y-68234892D01*
X124536976Y-68229919D01*
X124397831Y-68156245D01*
X124261105Y-68121902D01*
X124252378Y-68119710D01*
X124245128Y-68117889D01*
X124163329Y-68117461D01*
X124095158Y-68117104D01*
X124095157Y-68117104D01*
X124087684Y-68117065D01*
X124080421Y-68118809D01*
X124080418Y-68118809D01*
X124022851Y-68132630D01*
X123934588Y-68153820D01*
X123794679Y-68226032D01*
X123676034Y-68329533D01*
X123585501Y-68458348D01*
X123582785Y-68465313D01*
X123582785Y-68465314D01*
X123566761Y-68506415D01*
X123528309Y-68605039D01*
X123507758Y-68761138D01*
X123508578Y-68768566D01*
X123508578Y-68768568D01*
X123519772Y-68869965D01*
X123525035Y-68917633D01*
X123527601Y-68924645D01*
X123527602Y-68924649D01*
X123557206Y-69005544D01*
X123579143Y-69065490D01*
X123666958Y-69196172D01*
X123672488Y-69201204D01*
X123677372Y-69206862D01*
X123676272Y-69207811D01*
X123708290Y-69260395D01*
X123712500Y-69292432D01*
X123712500Y-102942777D01*
X123692815Y-103009816D01*
X123681204Y-103025023D01*
X123676034Y-103029533D01*
X123585501Y-103158348D01*
X123528309Y-103305039D01*
X123507758Y-103461138D01*
X121367448Y-103461138D01*
X121357682Y-103380436D01*
X121350262Y-103319119D01*
X121350261Y-103319115D01*
X121349363Y-103311694D01*
X121323728Y-103243853D01*
X121296354Y-103171408D01*
X121296352Y-103171405D01*
X121293710Y-103164412D01*
X121261549Y-103117618D01*
X121208768Y-103040821D01*
X121208765Y-103040818D01*
X121204531Y-103034657D01*
X121198945Y-103029680D01*
X121194488Y-103024625D01*
X121164918Y-102961321D01*
X121163500Y-102942620D01*
X121163500Y-69293195D01*
X121183185Y-69226156D01*
X121192756Y-69213756D01*
X121195348Y-69211542D01*
X121287224Y-69083683D01*
X121345950Y-68937598D01*
X121347793Y-68924649D01*
X121367562Y-68785744D01*
X121367562Y-68785740D01*
X121368134Y-68781723D01*
X121368278Y-68768000D01*
X121367448Y-68761138D01*
X121350262Y-68619119D01*
X121350261Y-68619115D01*
X121349363Y-68611694D01*
X121330586Y-68562001D01*
X121296354Y-68471408D01*
X121296352Y-68471405D01*
X121293710Y-68464412D01*
X121284320Y-68450750D01*
X121208768Y-68340821D01*
X121208765Y-68340818D01*
X121204531Y-68334657D01*
X121113704Y-68253733D01*
X121092559Y-68234893D01*
X121092558Y-68234892D01*
X121086976Y-68229919D01*
X120947831Y-68156245D01*
X120811105Y-68121902D01*
X120802378Y-68119710D01*
X120795128Y-68117889D01*
X120713329Y-68117461D01*
X120645158Y-68117104D01*
X120645157Y-68117104D01*
X120637684Y-68117065D01*
X120630421Y-68118809D01*
X120630418Y-68118809D01*
X120572851Y-68132630D01*
X120484588Y-68153820D01*
X120344679Y-68226032D01*
X120226034Y-68329533D01*
X120135501Y-68458348D01*
X120132785Y-68465313D01*
X120132785Y-68465314D01*
X120116761Y-68506415D01*
X120078309Y-68605039D01*
X120057758Y-68761138D01*
X120058578Y-68768566D01*
X120058578Y-68768568D01*
X120069772Y-68869965D01*
X120075035Y-68917633D01*
X120077601Y-68924645D01*
X120077602Y-68924649D01*
X120107206Y-69005544D01*
X120129143Y-69065490D01*
X120216958Y-69196172D01*
X120222488Y-69201204D01*
X120227372Y-69206862D01*
X120226272Y-69207811D01*
X120258290Y-69260395D01*
X120262500Y-69292432D01*
X120262500Y-102942777D01*
X120242815Y-103009816D01*
X120231204Y-103025023D01*
X120226034Y-103029533D01*
X120135501Y-103158348D01*
X120078309Y-103305039D01*
X120057758Y-103461138D01*
X117817448Y-103461138D01*
X117807682Y-103380436D01*
X117800262Y-103319119D01*
X117800261Y-103319115D01*
X117799363Y-103311694D01*
X117773728Y-103243853D01*
X117746354Y-103171408D01*
X117746352Y-103171405D01*
X117743710Y-103164412D01*
X117711549Y-103117618D01*
X117658768Y-103040821D01*
X117658765Y-103040818D01*
X117654531Y-103034657D01*
X117648945Y-103029680D01*
X117644488Y-103024625D01*
X117614918Y-102961321D01*
X117613500Y-102942620D01*
X117613500Y-69293195D01*
X117633185Y-69226156D01*
X117642756Y-69213756D01*
X117645348Y-69211542D01*
X117737224Y-69083683D01*
X117795950Y-68937598D01*
X117797793Y-68924649D01*
X117817562Y-68785744D01*
X117817562Y-68785740D01*
X117818134Y-68781723D01*
X117818278Y-68768000D01*
X117817448Y-68761138D01*
X117800262Y-68619119D01*
X117800261Y-68619115D01*
X117799363Y-68611694D01*
X117780586Y-68562001D01*
X117746354Y-68471408D01*
X117746352Y-68471405D01*
X117743710Y-68464412D01*
X117734320Y-68450750D01*
X117658768Y-68340821D01*
X117658765Y-68340818D01*
X117654531Y-68334657D01*
X117563704Y-68253733D01*
X117542559Y-68234893D01*
X117542558Y-68234892D01*
X117536976Y-68229919D01*
X117397831Y-68156245D01*
X117261105Y-68121902D01*
X117252378Y-68119710D01*
X117245128Y-68117889D01*
X117163329Y-68117461D01*
X117095158Y-68117104D01*
X117095157Y-68117104D01*
X117087684Y-68117065D01*
X117080421Y-68118809D01*
X117080418Y-68118809D01*
X117022851Y-68132630D01*
X116934588Y-68153820D01*
X116794679Y-68226032D01*
X116676034Y-68329533D01*
X116585501Y-68458348D01*
X116582785Y-68465313D01*
X116582785Y-68465314D01*
X116566761Y-68506415D01*
X116528309Y-68605039D01*
X116507758Y-68761138D01*
X116508578Y-68768566D01*
X116508578Y-68768568D01*
X116519772Y-68869965D01*
X116525035Y-68917633D01*
X116527601Y-68924645D01*
X116527602Y-68924649D01*
X116557206Y-69005544D01*
X116579143Y-69065490D01*
X116666958Y-69196172D01*
X116672488Y-69201204D01*
X116677372Y-69206862D01*
X116676272Y-69207811D01*
X116708290Y-69260395D01*
X116712500Y-69292432D01*
X116712500Y-102942777D01*
X116692815Y-103009816D01*
X116681204Y-103025023D01*
X116676034Y-103029533D01*
X116585501Y-103158348D01*
X116528309Y-103305039D01*
X116507758Y-103461138D01*
X114317448Y-103461138D01*
X114307682Y-103380436D01*
X114300262Y-103319119D01*
X114300261Y-103319115D01*
X114299363Y-103311694D01*
X114273728Y-103243853D01*
X114246354Y-103171408D01*
X114246352Y-103171405D01*
X114243710Y-103164412D01*
X114211549Y-103117618D01*
X114158768Y-103040821D01*
X114158765Y-103040818D01*
X114154531Y-103034657D01*
X114148945Y-103029680D01*
X114144488Y-103024625D01*
X114114918Y-102961321D01*
X114113500Y-102942620D01*
X114113500Y-69293195D01*
X114133185Y-69226156D01*
X114142756Y-69213756D01*
X114145348Y-69211542D01*
X114237224Y-69083683D01*
X114295950Y-68937598D01*
X114297793Y-68924649D01*
X114317562Y-68785744D01*
X114317562Y-68785740D01*
X114318134Y-68781723D01*
X114318278Y-68768000D01*
X114317448Y-68761138D01*
X114300262Y-68619119D01*
X114300261Y-68619115D01*
X114299363Y-68611694D01*
X114280586Y-68562001D01*
X114246354Y-68471408D01*
X114246352Y-68471405D01*
X114243710Y-68464412D01*
X114234320Y-68450750D01*
X114158768Y-68340821D01*
X114158765Y-68340818D01*
X114154531Y-68334657D01*
X114063704Y-68253733D01*
X114042559Y-68234893D01*
X114042558Y-68234892D01*
X114036976Y-68229919D01*
X113897831Y-68156245D01*
X113761105Y-68121902D01*
X113752378Y-68119710D01*
X113745128Y-68117889D01*
X113663329Y-68117461D01*
X113595158Y-68117104D01*
X113595157Y-68117104D01*
X113587684Y-68117065D01*
X113580421Y-68118809D01*
X113580418Y-68118809D01*
X113522851Y-68132630D01*
X113434588Y-68153820D01*
X113294679Y-68226032D01*
X113176034Y-68329533D01*
X113085501Y-68458348D01*
X113082785Y-68465313D01*
X113082785Y-68465314D01*
X113066761Y-68506415D01*
X113028309Y-68605039D01*
X113007758Y-68761138D01*
X113008578Y-68768566D01*
X113008578Y-68768568D01*
X113019772Y-68869965D01*
X113025035Y-68917633D01*
X113027601Y-68924645D01*
X113027602Y-68924649D01*
X113057206Y-69005544D01*
X113079143Y-69065490D01*
X113166958Y-69196172D01*
X113172488Y-69201204D01*
X113177372Y-69206862D01*
X113176272Y-69207811D01*
X113208290Y-69260395D01*
X113212500Y-69292432D01*
X113212500Y-102942777D01*
X113192815Y-103009816D01*
X113181204Y-103025023D01*
X113176034Y-103029533D01*
X113085501Y-103158348D01*
X113028309Y-103305039D01*
X113007758Y-103461138D01*
X90010096Y-103461138D01*
X89825433Y-103276475D01*
X89825429Y-103276472D01*
X89802866Y-103253909D01*
X89783126Y-103243851D01*
X89766540Y-103233687D01*
X89748614Y-103220663D01*
X89736177Y-103216622D01*
X89727543Y-103213816D01*
X89709572Y-103206372D01*
X89698526Y-103200744D01*
X89698521Y-103200742D01*
X89689828Y-103196313D01*
X89667948Y-103192848D01*
X89649023Y-103188304D01*
X89648631Y-103188177D01*
X89627957Y-103181459D01*
X88237049Y-103181459D01*
X88216375Y-103188177D01*
X88215983Y-103188304D01*
X88197058Y-103192848D01*
X88175178Y-103196313D01*
X88166483Y-103200743D01*
X88166484Y-103200743D01*
X88155436Y-103206372D01*
X88137461Y-103213818D01*
X88116393Y-103220663D01*
X88108501Y-103226397D01*
X88108499Y-103226398D01*
X88098470Y-103233685D01*
X88081883Y-103243850D01*
X88062140Y-103253909D01*
X88039577Y-103276472D01*
X88039573Y-103276475D01*
X87371849Y-103944199D01*
X87310526Y-103977684D01*
X87283519Y-103980516D01*
X87202655Y-103980093D01*
X87202654Y-103980093D01*
X87195181Y-103980054D01*
X87187918Y-103981798D01*
X87187915Y-103981798D01*
X87137862Y-103993815D01*
X87042085Y-104016809D01*
X86902176Y-104089021D01*
X86783531Y-104192522D01*
X86692998Y-104321337D01*
X86635806Y-104468028D01*
X86634830Y-104475443D01*
X86631765Y-104498724D01*
X86603499Y-104562621D01*
X86545175Y-104601093D01*
X86475311Y-104601925D01*
X86421145Y-104570221D01*
X84406494Y-102555569D01*
X84373009Y-102494246D01*
X84377993Y-102424554D01*
X84413643Y-102373598D01*
X84522465Y-102280655D01*
X84522466Y-102280654D01*
X84528147Y-102275802D01*
X84620023Y-102147943D01*
X84678749Y-102001858D01*
X84700933Y-101845983D01*
X84701077Y-101832260D01*
X84682162Y-101675954D01*
X84626509Y-101528672D01*
X84622272Y-101522507D01*
X84541567Y-101405081D01*
X84541564Y-101405078D01*
X84537330Y-101398917D01*
X84419775Y-101294179D01*
X84280630Y-101220505D01*
X84273379Y-101218684D01*
X84268362Y-101216758D01*
X84212828Y-101174357D01*
X84189034Y-101108664D01*
X84188797Y-101100993D01*
X84188797Y-99961310D01*
X84181952Y-99940244D01*
X84177408Y-99921318D01*
X84175469Y-99909076D01*
X84173943Y-99899439D01*
X84163884Y-99879697D01*
X84156438Y-99861721D01*
X84152608Y-99849933D01*
X84149593Y-99840654D01*
X84136571Y-99822730D01*
X84126406Y-99806144D01*
X84116347Y-99786401D01*
X84093784Y-99763838D01*
X84093781Y-99763834D01*
X83274899Y-98944952D01*
X83241414Y-98883629D01*
X83238580Y-98857271D01*
X83238580Y-91867843D01*
X93830219Y-91867843D01*
X93831039Y-91875271D01*
X93831039Y-91875273D01*
X93832935Y-91892449D01*
X93847496Y-92024338D01*
X93850062Y-92031350D01*
X93850063Y-92031354D01*
X93867445Y-92078852D01*
X93901604Y-92172195D01*
X93989419Y-92302877D01*
X94011644Y-92323100D01*
X94100339Y-92403807D01*
X94100343Y-92403810D01*
X94105871Y-92408840D01*
X94244237Y-92483967D01*
X94346492Y-92510793D01*
X94389302Y-92522024D01*
X94389304Y-92522024D01*
X94396530Y-92523920D01*
X94473588Y-92525130D01*
X94546486Y-92526276D01*
X94546489Y-92526276D01*
X94553956Y-92526393D01*
X94561237Y-92524725D01*
X94561241Y-92524725D01*
X94700142Y-92492912D01*
X94707429Y-92491243D01*
X94848086Y-92420500D01*
X94853767Y-92415648D01*
X94853770Y-92415646D01*
X94962127Y-92323100D01*
X94962128Y-92323099D01*
X94967809Y-92318247D01*
X94978854Y-92302877D01*
X94999259Y-92274480D01*
X95059685Y-92190388D01*
X95118411Y-92044303D01*
X95120254Y-92031354D01*
X95140023Y-91892449D01*
X95140023Y-91892445D01*
X95140595Y-91888428D01*
X95140739Y-91874705D01*
X95139012Y-91860432D01*
X95122723Y-91725824D01*
X95122722Y-91725820D01*
X95121824Y-91718399D01*
X95083910Y-91618061D01*
X95068815Y-91578113D01*
X95068813Y-91578110D01*
X95066171Y-91571117D01*
X95057798Y-91558934D01*
X94981229Y-91447526D01*
X94981226Y-91447523D01*
X94976992Y-91441362D01*
X94927472Y-91397241D01*
X94890513Y-91337947D01*
X94885961Y-91304658D01*
X94885961Y-90881794D01*
X94905646Y-90814755D01*
X94922280Y-90794113D01*
X96679954Y-89036438D01*
X96741277Y-89002953D01*
X96769583Y-89000134D01*
X96861025Y-89001571D01*
X96861028Y-89001571D01*
X96868495Y-89001688D01*
X96875776Y-89000020D01*
X96875780Y-89000020D01*
X97014681Y-88968207D01*
X97021968Y-88966538D01*
X97162625Y-88895795D01*
X97168306Y-88890943D01*
X97168309Y-88890941D01*
X97276666Y-88798395D01*
X97276667Y-88798394D01*
X97282348Y-88793542D01*
X97374224Y-88665683D01*
X97432950Y-88519598D01*
X97439804Y-88471438D01*
X97454562Y-88367744D01*
X97454562Y-88367740D01*
X97455134Y-88363723D01*
X97455278Y-88350000D01*
X97436363Y-88193694D01*
X97380710Y-88046412D01*
X97349972Y-88001688D01*
X97295768Y-87922821D01*
X97295765Y-87922818D01*
X97291531Y-87916657D01*
X97223729Y-87856247D01*
X97179559Y-87816893D01*
X97179558Y-87816892D01*
X97173976Y-87811919D01*
X97034831Y-87738245D01*
X96933474Y-87712786D01*
X96889378Y-87701710D01*
X96882128Y-87699889D01*
X96800329Y-87699461D01*
X96732158Y-87699104D01*
X96732157Y-87699104D01*
X96724684Y-87699065D01*
X96717421Y-87700809D01*
X96717418Y-87700809D01*
X96648136Y-87717442D01*
X96571588Y-87735820D01*
X96431679Y-87808032D01*
X96313034Y-87911533D01*
X96222501Y-88040348D01*
X96165309Y-88187039D01*
X96144758Y-88343138D01*
X96145578Y-88350566D01*
X96145578Y-88350569D01*
X96147740Y-88370151D01*
X96135531Y-88438945D01*
X96112170Y-88471438D01*
X94179977Y-90403630D01*
X94179974Y-90403634D01*
X94157411Y-90426197D01*
X94152981Y-90434892D01*
X94147355Y-90445934D01*
X94137189Y-90462523D01*
X94124165Y-90480449D01*
X94121148Y-90489735D01*
X94117318Y-90501520D01*
X94109874Y-90519491D01*
X94104246Y-90530537D01*
X94104244Y-90530542D01*
X94099815Y-90539235D01*
X94098289Y-90548872D01*
X94096350Y-90561114D01*
X94091806Y-90580040D01*
X94084961Y-90601106D01*
X94084961Y-91304430D01*
X94065276Y-91371469D01*
X94042475Y-91397872D01*
X94004133Y-91431319D01*
X94004130Y-91431322D01*
X93998495Y-91436238D01*
X93907962Y-91565053D01*
X93905246Y-91572018D01*
X93905246Y-91572019D01*
X93902870Y-91578113D01*
X93850770Y-91711744D01*
X93830219Y-91867843D01*
X83238580Y-91867843D01*
X83238580Y-87829175D01*
X83258265Y-87762136D01*
X83274899Y-87741494D01*
X84330062Y-86686330D01*
X84391385Y-86652845D01*
X84417743Y-86650011D01*
X89488422Y-86650011D01*
X89509488Y-86643166D01*
X89528413Y-86638622D01*
X89550293Y-86635157D01*
X89558986Y-86630728D01*
X89558991Y-86630726D01*
X89570037Y-86625098D01*
X89588008Y-86617654D01*
X89596642Y-86614848D01*
X89609079Y-86610807D01*
X89627005Y-86597783D01*
X89643591Y-86587619D01*
X89663331Y-86577561D01*
X89685894Y-86554998D01*
X89685898Y-86554995D01*
X89879454Y-86361438D01*
X89940777Y-86327953D01*
X89969083Y-86325134D01*
X90060525Y-86326571D01*
X90060528Y-86326571D01*
X90067995Y-86326688D01*
X90075276Y-86325020D01*
X90075280Y-86325020D01*
X90214181Y-86293207D01*
X90221468Y-86291538D01*
X90362125Y-86220795D01*
X90367806Y-86215943D01*
X90367809Y-86215941D01*
X90476166Y-86123395D01*
X90476167Y-86123394D01*
X90481848Y-86118542D01*
X90563822Y-86004463D01*
X90618927Y-85961508D01*
X90680920Y-85953911D01*
X90793769Y-85968968D01*
X90807543Y-85969257D01*
X90972480Y-85954247D01*
X90992039Y-85950232D01*
X91061667Y-85956034D01*
X91117105Y-85998559D01*
X91127457Y-86015402D01*
X91128677Y-86017796D01*
X91131693Y-86027079D01*
X91144717Y-86045005D01*
X91154881Y-86061591D01*
X91164939Y-86081331D01*
X91187502Y-86103894D01*
X91187505Y-86103898D01*
X91521961Y-86438353D01*
X91611669Y-86528061D01*
X91631407Y-86538118D01*
X91647997Y-86548285D01*
X91665921Y-86561307D01*
X91686988Y-86568152D01*
X91704963Y-86575597D01*
X91716014Y-86581228D01*
X91716016Y-86581229D01*
X91724707Y-86585657D01*
X91734343Y-86587183D01*
X91743259Y-86590080D01*
X91797079Y-86625837D01*
X91798655Y-86628183D01*
X91804184Y-86633214D01*
X91909575Y-86729113D01*
X91909579Y-86729116D01*
X91915107Y-86734146D01*
X91921677Y-86737713D01*
X91921678Y-86737714D01*
X91993262Y-86776581D01*
X92053473Y-86809273D01*
X92143405Y-86832866D01*
X92198538Y-86847330D01*
X92198540Y-86847330D01*
X92205766Y-86849226D01*
X92282824Y-86850436D01*
X92355722Y-86851582D01*
X92355725Y-86851582D01*
X92363192Y-86851699D01*
X92370473Y-86850031D01*
X92370477Y-86850031D01*
X92509378Y-86818218D01*
X92516665Y-86816549D01*
X92657322Y-86745806D01*
X92663003Y-86740954D01*
X92663006Y-86740952D01*
X92771363Y-86648406D01*
X92771364Y-86648405D01*
X92777045Y-86643553D01*
X92784475Y-86633214D01*
X92831227Y-86568151D01*
X92868921Y-86515694D01*
X92927647Y-86369609D01*
X92933471Y-86328689D01*
X92949259Y-86217755D01*
X92949259Y-86217751D01*
X92949831Y-86213734D01*
X92949975Y-86200011D01*
X92946061Y-86167663D01*
X92931762Y-86049506D01*
X92943250Y-85980587D01*
X92990175Y-85928820D01*
X93057638Y-85910640D01*
X93098086Y-85918386D01*
X93166242Y-85943733D01*
X93179603Y-85947064D01*
X93343769Y-85968968D01*
X93357543Y-85969257D01*
X93522478Y-85954247D01*
X93535973Y-85951477D01*
X93693479Y-85900300D01*
X93706031Y-85894606D01*
X93714226Y-85889722D01*
X93723662Y-85879545D01*
X93720212Y-85871265D01*
X93101628Y-85252681D01*
X93068143Y-85191358D01*
X93069948Y-85166113D01*
X93726168Y-85166113D01*
X93726297Y-85167919D01*
X93730479Y-85174426D01*
X94072445Y-85516392D01*
X94084626Y-85523043D01*
X94088383Y-85520231D01*
X94144806Y-85371695D01*
X94148234Y-85358343D01*
X94171706Y-85191335D01*
X94172302Y-85183588D01*
X94172508Y-85168899D01*
X94172127Y-85161122D01*
X94153329Y-84993528D01*
X94150277Y-84980097D01*
X94095810Y-84823687D01*
X94092026Y-84815791D01*
X94083137Y-84807889D01*
X94074232Y-84811821D01*
X93733660Y-85152393D01*
X93726168Y-85166113D01*
X93069948Y-85166113D01*
X93073127Y-85121666D01*
X93101628Y-85077319D01*
X93638840Y-84540107D01*
X93646332Y-84526387D01*
X93646203Y-84524581D01*
X93642021Y-84518074D01*
X93101628Y-83977681D01*
X93068143Y-83916358D01*
X93069948Y-83891113D01*
X93726168Y-83891113D01*
X93726297Y-83892919D01*
X93730479Y-83899426D01*
X94072445Y-84241392D01*
X94084626Y-84248043D01*
X94088383Y-84245231D01*
X94144806Y-84096695D01*
X94148234Y-84083343D01*
X94171706Y-83916335D01*
X94172302Y-83908588D01*
X94172508Y-83893899D01*
X94172127Y-83886122D01*
X94153329Y-83718528D01*
X94150277Y-83705097D01*
X94095810Y-83548687D01*
X94092026Y-83540791D01*
X94083137Y-83532889D01*
X94074232Y-83536821D01*
X93733660Y-83877393D01*
X93726168Y-83891113D01*
X93069948Y-83891113D01*
X93073127Y-83846666D01*
X93101628Y-83802319D01*
X93638840Y-83265107D01*
X93646332Y-83251387D01*
X93646203Y-83249581D01*
X93642021Y-83243074D01*
X92742607Y-82343660D01*
X92728887Y-82336168D01*
X92727081Y-82336297D01*
X92720574Y-82340479D01*
X92180181Y-82880872D01*
X92118858Y-82914357D01*
X92049166Y-82909373D01*
X92004819Y-82880872D01*
X91929808Y-82805861D01*
X91896323Y-82744538D01*
X91893489Y-82718180D01*
X91893489Y-82511820D01*
X91913174Y-82444781D01*
X91929808Y-82424139D01*
X92443280Y-81910667D01*
X92449931Y-81898486D01*
X92445205Y-81892172D01*
X92438884Y-81889089D01*
X92282865Y-81833533D01*
X92269457Y-81830389D01*
X92259673Y-81829222D01*
X92195435Y-81801739D01*
X92156254Y-81743890D01*
X92151590Y-81688623D01*
X92155134Y-81663723D01*
X92155278Y-81650000D01*
X92141892Y-81539385D01*
X92153380Y-81470467D01*
X92200305Y-81418700D01*
X92264994Y-81400489D01*
X93778243Y-81400489D01*
X93845282Y-81420174D01*
X93891037Y-81472978D01*
X93901182Y-81540674D01*
X93887758Y-81642638D01*
X93888578Y-81650066D01*
X93888578Y-81650068D01*
X93901710Y-81769014D01*
X93889501Y-81837809D01*
X93842037Y-81889082D01*
X93774387Y-81906554D01*
X93724105Y-81894073D01*
X93713890Y-81889091D01*
X93557865Y-81833533D01*
X93544458Y-81830389D01*
X93380002Y-81810779D01*
X93366227Y-81810682D01*
X93201521Y-81827993D01*
X93188063Y-81830952D01*
X93031281Y-81884325D01*
X93019752Y-81889750D01*
X93010733Y-81899754D01*
X93014496Y-81908443D01*
X94072445Y-82966392D01*
X94084626Y-82973043D01*
X94088383Y-82970231D01*
X94144806Y-82821695D01*
X94148234Y-82808343D01*
X94171706Y-82641335D01*
X94172302Y-82633588D01*
X94172508Y-82618899D01*
X94172127Y-82611122D01*
X94153329Y-82443528D01*
X94150275Y-82430087D01*
X94145522Y-82416437D01*
X94142065Y-82346653D01*
X94176886Y-82286079D01*
X94238928Y-82253945D01*
X94301519Y-82259743D01*
X94301776Y-82258762D01*
X94309011Y-82260660D01*
X94446841Y-82296819D01*
X94446843Y-82296819D01*
X94454069Y-82298715D01*
X94531127Y-82299925D01*
X94604025Y-82301071D01*
X94604028Y-82301071D01*
X94611495Y-82301188D01*
X94618776Y-82299520D01*
X94618780Y-82299520D01*
X94757681Y-82267707D01*
X94764968Y-82266038D01*
X94905625Y-82195295D01*
X94911306Y-82190443D01*
X94911309Y-82190441D01*
X95019666Y-82097895D01*
X95019667Y-82097894D01*
X95025348Y-82093042D01*
X95027958Y-82089409D01*
X95086728Y-82054044D01*
X95118139Y-82050000D01*
X95976470Y-82050000D01*
X96043509Y-82069685D01*
X96089264Y-82122489D01*
X96100470Y-82174000D01*
X96100470Y-84422957D01*
X96106114Y-84440327D01*
X96107315Y-84444023D01*
X96111859Y-84462948D01*
X96115324Y-84484828D01*
X96119753Y-84493521D01*
X96119755Y-84493526D01*
X96125383Y-84504572D01*
X96132827Y-84522543D01*
X96135138Y-84529655D01*
X96139674Y-84543614D01*
X96152698Y-84561540D01*
X96162862Y-84578126D01*
X96172920Y-84597866D01*
X96195483Y-84620429D01*
X96195486Y-84620433D01*
X97680057Y-86105004D01*
X97680061Y-86105007D01*
X97702624Y-86127570D01*
X97722364Y-86137628D01*
X97738950Y-86147792D01*
X97756876Y-86160816D01*
X97769313Y-86164857D01*
X97777947Y-86167663D01*
X97795918Y-86175107D01*
X97806964Y-86180735D01*
X97806969Y-86180737D01*
X97815662Y-86185166D01*
X97837542Y-86188631D01*
X97856467Y-86193175D01*
X97877533Y-86200020D01*
X99490121Y-86200020D01*
X99557160Y-86219705D01*
X99577802Y-86236339D01*
X99763661Y-86422197D01*
X99797146Y-86483520D01*
X99799980Y-86509878D01*
X99799980Y-86613717D01*
X99780295Y-86680756D01*
X99763661Y-86701398D01*
X99319516Y-87145543D01*
X99319513Y-87145547D01*
X99296950Y-87168110D01*
X99292520Y-87176805D01*
X99286894Y-87187847D01*
X99276728Y-87204436D01*
X99263704Y-87222362D01*
X99260687Y-87231648D01*
X99256857Y-87243433D01*
X99249413Y-87261404D01*
X99243785Y-87272450D01*
X99243783Y-87272455D01*
X99239354Y-87281148D01*
X99237828Y-87290785D01*
X99235889Y-87303027D01*
X99231345Y-87321953D01*
X99224500Y-87343019D01*
X99224500Y-97183190D01*
X99227515Y-97192468D01*
X99231345Y-97204256D01*
X99235889Y-97223181D01*
X99239354Y-97245061D01*
X99243783Y-97253754D01*
X99243785Y-97253759D01*
X99249413Y-97264805D01*
X99256857Y-97282776D01*
X99258171Y-97286819D01*
X99263704Y-97303847D01*
X99276728Y-97321773D01*
X99286892Y-97338359D01*
X99296950Y-97358099D01*
X99319513Y-97380662D01*
X99319516Y-97380666D01*
X100279117Y-98340267D01*
X100312602Y-98401590D01*
X100314375Y-98444133D01*
X100294758Y-98593138D01*
X100295578Y-98600566D01*
X100295578Y-98600568D01*
X100297474Y-98617744D01*
X100312035Y-98749633D01*
X100366143Y-98897490D01*
X100453958Y-99028172D01*
X100476183Y-99048395D01*
X100564878Y-99129102D01*
X100564882Y-99129105D01*
X100570410Y-99134135D01*
X100708776Y-99209262D01*
X100811031Y-99236088D01*
X100853841Y-99247319D01*
X100853843Y-99247319D01*
X100861069Y-99249215D01*
X100938127Y-99250425D01*
X101011025Y-99251571D01*
X101011028Y-99251571D01*
X101018495Y-99251688D01*
X101025776Y-99250020D01*
X101025780Y-99250020D01*
X101164681Y-99218207D01*
X101171968Y-99216538D01*
X101312625Y-99145795D01*
X101318306Y-99140943D01*
X101318309Y-99140941D01*
X101426666Y-99048395D01*
X101426667Y-99048394D01*
X101432348Y-99043542D01*
X101443393Y-99028172D01*
X101503192Y-98944952D01*
X101524224Y-98915683D01*
X101582950Y-98769598D01*
X101584793Y-98756649D01*
X101604562Y-98617744D01*
X101604562Y-98617740D01*
X101605134Y-98613723D01*
X101605278Y-98600000D01*
X101586363Y-98443694D01*
X101567379Y-98393453D01*
X101533354Y-98303408D01*
X101533352Y-98303405D01*
X101530710Y-98296412D01*
X101457707Y-98190193D01*
X101445768Y-98172821D01*
X101445765Y-98172818D01*
X101441531Y-98166657D01*
X101323976Y-98061919D01*
X101184831Y-97988245D01*
X101153850Y-97980463D01*
X101051207Y-97954681D01*
X100993734Y-97922098D01*
X100061819Y-96990183D01*
X100028334Y-96928860D01*
X100025500Y-96902502D01*
X100025500Y-87984763D01*
X100045185Y-87917724D01*
X100097989Y-87871969D01*
X100167147Y-87862025D01*
X100218812Y-87882681D01*
X100220410Y-87884135D01*
X100358776Y-87959262D01*
X100455981Y-87984763D01*
X100503841Y-87997319D01*
X100503843Y-87997319D01*
X100511069Y-87999215D01*
X100588127Y-88000425D01*
X100661025Y-88001571D01*
X100661028Y-88001571D01*
X100668495Y-88001688D01*
X100675776Y-88000020D01*
X100675780Y-88000020D01*
X100814681Y-87968207D01*
X100821968Y-87966538D01*
X100962625Y-87895795D01*
X100968306Y-87890943D01*
X100968309Y-87890941D01*
X101076666Y-87798395D01*
X101076667Y-87798394D01*
X101082348Y-87793542D01*
X101088606Y-87784834D01*
X101142742Y-87709495D01*
X101174224Y-87665683D01*
X101232950Y-87519598D01*
X101255134Y-87363723D01*
X101255278Y-87350000D01*
X101254433Y-87343019D01*
X101237262Y-87201119D01*
X101237261Y-87201115D01*
X101236363Y-87193694D01*
X101180710Y-87046412D01*
X101182616Y-87045692D01*
X101171021Y-86987329D01*
X101196619Y-86922317D01*
X101253300Y-86881464D01*
X101323071Y-86877741D01*
X101382206Y-86910730D01*
X102177223Y-87705747D01*
X102180818Y-87709495D01*
X102210473Y-87741744D01*
X102222880Y-87755237D01*
X102256881Y-87776318D01*
X102259942Y-87778216D01*
X102269568Y-87784832D01*
X102304297Y-87811193D01*
X102312154Y-87814304D01*
X102312156Y-87814305D01*
X102318445Y-87816795D01*
X102338131Y-87826696D01*
X102342130Y-87829175D01*
X102351067Y-87834716D01*
X102389386Y-87845849D01*
X102392945Y-87846883D01*
X102403997Y-87850667D01*
X102436671Y-87863604D01*
X102436678Y-87863606D01*
X102444534Y-87866716D01*
X102452937Y-87867599D01*
X102452941Y-87867600D01*
X102459654Y-87868305D01*
X102481295Y-87872551D01*
X102489666Y-87874983D01*
X102495906Y-87876796D01*
X102502381Y-87877271D01*
X102502384Y-87877272D01*
X102504321Y-87877414D01*
X102504323Y-87877414D01*
X102506596Y-87877581D01*
X102541404Y-87877581D01*
X102554366Y-87878260D01*
X102594535Y-87882482D01*
X102602865Y-87881073D01*
X102602868Y-87881073D01*
X102613248Y-87879317D01*
X102633927Y-87877581D01*
X105437420Y-87877581D01*
X105442613Y-87877690D01*
X105496223Y-87879937D01*
X105496224Y-87879937D01*
X105504671Y-87880291D01*
X105512902Y-87878360D01*
X105512906Y-87878360D01*
X105547124Y-87870334D01*
X105558609Y-87868205D01*
X105576465Y-87865759D01*
X105593437Y-87863434D01*
X105593438Y-87863434D01*
X105601809Y-87862287D01*
X105615767Y-87856247D01*
X105636702Y-87849323D01*
X105643280Y-87847780D01*
X105651513Y-87845849D01*
X105689725Y-87824842D01*
X105700212Y-87819705D01*
X105732474Y-87805744D01*
X105732479Y-87805741D01*
X105740232Y-87802386D01*
X105746798Y-87797069D01*
X105746800Y-87797068D01*
X105752053Y-87792814D01*
X105770342Y-87780524D01*
X105783685Y-87773188D01*
X105791799Y-87766184D01*
X105816411Y-87741572D01*
X105826056Y-87732887D01*
X105857447Y-87707467D01*
X105868441Y-87691997D01*
X105881836Y-87676147D01*
X106478667Y-87079315D01*
X106482415Y-87075720D01*
X106521935Y-87039380D01*
X106521937Y-87039378D01*
X106528156Y-87033659D01*
X106551136Y-86996595D01*
X106557753Y-86986968D01*
X106584112Y-86952242D01*
X106589714Y-86938094D01*
X106599615Y-86918408D01*
X106603181Y-86912656D01*
X106603181Y-86912655D01*
X106607635Y-86905472D01*
X106611226Y-86893112D01*
X106629602Y-86855351D01*
X106674224Y-86793253D01*
X106732950Y-86647168D01*
X106734003Y-86639771D01*
X106754562Y-86495314D01*
X106754562Y-86495310D01*
X106755134Y-86491293D01*
X106755278Y-86477570D01*
X106748577Y-86422197D01*
X106737262Y-86328689D01*
X106737261Y-86328685D01*
X106736363Y-86321264D01*
X106716711Y-86269256D01*
X106683354Y-86180978D01*
X106683352Y-86180975D01*
X106680710Y-86173982D01*
X106676476Y-86167821D01*
X106676473Y-86167816D01*
X106672310Y-86161760D01*
X106650500Y-86091524D01*
X106650500Y-85067680D01*
X106669382Y-85009070D01*
X106666261Y-85007354D01*
X106669864Y-85000800D01*
X106674224Y-84994733D01*
X106732950Y-84848648D01*
X106736265Y-84825354D01*
X106754562Y-84696794D01*
X106754562Y-84696790D01*
X106755134Y-84692773D01*
X106755200Y-84686537D01*
X106755206Y-84685871D01*
X106755278Y-84679050D01*
X106751898Y-84651119D01*
X106737262Y-84530169D01*
X106737261Y-84530165D01*
X106736363Y-84522744D01*
X106726413Y-84496412D01*
X106683354Y-84382458D01*
X106683352Y-84382455D01*
X106680710Y-84375462D01*
X106675543Y-84367944D01*
X106595768Y-84251871D01*
X106595765Y-84251868D01*
X106591531Y-84245707D01*
X106517567Y-84179807D01*
X106479559Y-84145943D01*
X106479558Y-84145942D01*
X106473976Y-84140969D01*
X106334831Y-84067295D01*
X106182128Y-84028939D01*
X106100329Y-84028511D01*
X106032158Y-84028154D01*
X106032157Y-84028154D01*
X106024684Y-84028115D01*
X106017421Y-84029859D01*
X106017418Y-84029859D01*
X105948136Y-84046492D01*
X105871588Y-84064870D01*
X105731679Y-84137082D01*
X105726050Y-84141993D01*
X105726042Y-84141998D01*
X105681644Y-84180730D01*
X105618186Y-84209967D01*
X105548995Y-84200255D01*
X105517641Y-84179872D01*
X105479564Y-84145947D01*
X105479560Y-84145944D01*
X105473976Y-84140969D01*
X105334831Y-84067295D01*
X105182128Y-84028939D01*
X105100329Y-84028511D01*
X105032158Y-84028154D01*
X105032157Y-84028154D01*
X105024684Y-84028115D01*
X105017421Y-84029859D01*
X105017418Y-84029859D01*
X104948136Y-84046492D01*
X104871588Y-84064870D01*
X104731679Y-84137082D01*
X104726048Y-84141995D01*
X104726047Y-84141995D01*
X104648130Y-84209967D01*
X104613034Y-84240583D01*
X104611658Y-84239006D01*
X104561167Y-84270118D01*
X104528495Y-84274500D01*
X102942254Y-84274500D01*
X102875215Y-84254815D01*
X102854573Y-84238181D01*
X102664600Y-84048207D01*
X102631115Y-83986884D01*
X102629653Y-83946819D01*
X102629254Y-83946789D01*
X102629523Y-83943255D01*
X102629516Y-83943069D01*
X102629561Y-83942752D01*
X102629561Y-83942746D01*
X102630134Y-83938723D01*
X102630278Y-83925000D01*
X102627959Y-83905837D01*
X102612262Y-83776119D01*
X102612261Y-83776115D01*
X102611363Y-83768694D01*
X102555710Y-83621412D01*
X102526388Y-83578748D01*
X102470768Y-83497821D01*
X102470765Y-83497818D01*
X102466531Y-83491657D01*
X102412444Y-83443467D01*
X102354559Y-83391893D01*
X102354558Y-83391892D01*
X102348976Y-83386919D01*
X102209831Y-83313245D01*
X102057128Y-83274889D01*
X101975329Y-83274461D01*
X101907158Y-83274104D01*
X101907157Y-83274104D01*
X101899684Y-83274065D01*
X101892421Y-83275809D01*
X101892418Y-83275809D01*
X101836446Y-83289247D01*
X101746588Y-83310820D01*
X101606679Y-83383032D01*
X101488034Y-83486533D01*
X101397501Y-83615348D01*
X101340309Y-83762039D01*
X101319758Y-83918138D01*
X101320578Y-83925566D01*
X101320578Y-83925568D01*
X101329281Y-84004395D01*
X101337035Y-84074633D01*
X101339601Y-84081645D01*
X101339602Y-84081649D01*
X101361686Y-84141995D01*
X101391143Y-84222490D01*
X101423148Y-84270118D01*
X101457376Y-84321054D01*
X101478958Y-84353172D01*
X101503826Y-84375800D01*
X101589878Y-84454102D01*
X101589882Y-84454105D01*
X101595410Y-84459135D01*
X101601980Y-84462702D01*
X101601981Y-84462703D01*
X101727208Y-84530696D01*
X101733776Y-84534262D01*
X101836031Y-84561088D01*
X101878841Y-84572319D01*
X101878843Y-84572319D01*
X101886069Y-84574215D01*
X102010346Y-84576167D01*
X102077067Y-84596902D01*
X102096079Y-84612471D01*
X102486658Y-85003050D01*
X102498473Y-85009070D01*
X102506396Y-85013107D01*
X102522986Y-85023274D01*
X102540910Y-85036296D01*
X102550192Y-85039312D01*
X102561981Y-85043143D01*
X102579952Y-85050587D01*
X102590998Y-85056215D01*
X102591003Y-85056217D01*
X102599696Y-85060646D01*
X102621576Y-85064111D01*
X102640501Y-85068655D01*
X102661567Y-85075500D01*
X104521125Y-85075500D01*
X104588164Y-85095185D01*
X104604572Y-85107780D01*
X104720410Y-85213185D01*
X104726980Y-85216752D01*
X104726981Y-85216753D01*
X104852208Y-85284746D01*
X104858776Y-85288312D01*
X104952912Y-85313008D01*
X105003841Y-85326369D01*
X105003843Y-85326369D01*
X105011069Y-85328265D01*
X105088127Y-85329475D01*
X105161025Y-85330621D01*
X105161028Y-85330621D01*
X105168495Y-85330738D01*
X105175776Y-85329070D01*
X105175780Y-85329070D01*
X105314681Y-85297257D01*
X105321968Y-85295588D01*
X105346672Y-85283163D01*
X105369785Y-85271539D01*
X105438521Y-85259003D01*
X105503123Y-85285618D01*
X105543080Y-85342935D01*
X105549500Y-85382317D01*
X105549500Y-86090286D01*
X105529164Y-86154589D01*
X105530331Y-86155215D01*
X105527004Y-86161420D01*
X105526952Y-86161584D01*
X105526800Y-86161800D01*
X105526798Y-86161805D01*
X105522501Y-86167918D01*
X105465309Y-86314609D01*
X105444758Y-86470708D01*
X105446722Y-86488495D01*
X105434514Y-86557287D01*
X105411154Y-86589779D01*
X105335855Y-86665079D01*
X105260672Y-86740262D01*
X105199349Y-86773747D01*
X105172991Y-86776581D01*
X102856468Y-86776581D01*
X102789429Y-86756896D01*
X102768787Y-86740262D01*
X100379380Y-84350856D01*
X100375785Y-84347108D01*
X100339444Y-84307587D01*
X100339442Y-84307585D01*
X100333723Y-84301366D01*
X100296660Y-84278386D01*
X100287032Y-84271769D01*
X100259038Y-84250520D01*
X100259035Y-84250518D01*
X100252305Y-84245410D01*
X100244447Y-84242299D01*
X100244442Y-84242296D01*
X100238167Y-84239812D01*
X100218466Y-84229904D01*
X100212721Y-84226342D01*
X100205536Y-84221887D01*
X100164507Y-84209967D01*
X100163664Y-84209722D01*
X100152613Y-84205938D01*
X100119930Y-84192998D01*
X100119927Y-84192997D01*
X100112069Y-84189886D01*
X100096940Y-84188296D01*
X100075306Y-84184051D01*
X100066941Y-84181621D01*
X100060697Y-84179807D01*
X100053198Y-84179256D01*
X100052282Y-84179189D01*
X100052280Y-84179189D01*
X100050007Y-84179022D01*
X100015200Y-84179022D01*
X100002239Y-84178343D01*
X99970474Y-84175004D01*
X99970471Y-84175004D01*
X99962068Y-84174121D01*
X99953738Y-84175530D01*
X99953735Y-84175530D01*
X99943355Y-84177286D01*
X99922676Y-84179022D01*
X98527507Y-84179022D01*
X98460468Y-84159337D01*
X98439826Y-84142703D01*
X98233236Y-83936114D01*
X98199751Y-83874791D01*
X98197815Y-83863330D01*
X98187262Y-83776119D01*
X98187261Y-83776115D01*
X98186363Y-83768694D01*
X98130710Y-83621412D01*
X98126476Y-83615251D01*
X98126473Y-83615246D01*
X98122310Y-83609190D01*
X98100500Y-83538954D01*
X98100500Y-77824500D01*
X98120185Y-77757461D01*
X98172989Y-77711706D01*
X98224500Y-77700500D01*
X98686032Y-77700500D01*
X98691225Y-77700609D01*
X98744835Y-77702856D01*
X98744836Y-77702856D01*
X98753283Y-77703210D01*
X98761514Y-77701279D01*
X98761518Y-77701279D01*
X98795736Y-77693253D01*
X98807221Y-77691124D01*
X98832193Y-77687703D01*
X98842049Y-77686353D01*
X98842050Y-77686353D01*
X98850421Y-77685206D01*
X98864379Y-77679166D01*
X98885314Y-77672242D01*
X98891892Y-77670699D01*
X98900125Y-77668768D01*
X98938337Y-77647761D01*
X98948824Y-77642624D01*
X98981086Y-77628663D01*
X98981091Y-77628660D01*
X98988844Y-77625305D01*
X98995410Y-77619988D01*
X98995412Y-77619987D01*
X99000665Y-77615733D01*
X99018954Y-77603443D01*
X99032297Y-77596107D01*
X99040411Y-77589103D01*
X99065023Y-77564491D01*
X99074668Y-77555806D01*
X99079314Y-77552044D01*
X99106059Y-77530386D01*
X99117053Y-77514916D01*
X99130448Y-77499066D01*
X99688308Y-76941206D01*
X99749631Y-76907721D01*
X99819323Y-76912705D01*
X99875256Y-76954577D01*
X99899673Y-77020041D01*
X99899989Y-77028887D01*
X99899989Y-79459990D01*
X99899744Y-79466212D01*
X99899787Y-79466214D01*
X99899692Y-79468644D01*
X99899500Y-79471078D01*
X99899500Y-79523809D01*
X99899404Y-79528678D01*
X99897665Y-79572945D01*
X99897162Y-79585735D01*
X99899040Y-79592819D01*
X99899500Y-79601179D01*
X99899500Y-81824777D01*
X99879815Y-81891816D01*
X99868204Y-81907023D01*
X99863034Y-81911533D01*
X99772501Y-82040348D01*
X99715309Y-82187039D01*
X99694758Y-82343138D01*
X99695578Y-82350566D01*
X99695578Y-82350568D01*
X99697474Y-82367744D01*
X99712035Y-82499633D01*
X99714601Y-82506645D01*
X99714602Y-82506649D01*
X99733587Y-82558527D01*
X99766143Y-82647490D01*
X99853958Y-82778172D01*
X99875938Y-82798172D01*
X99964878Y-82879102D01*
X99964882Y-82879105D01*
X99970410Y-82884135D01*
X99976980Y-82887702D01*
X99976981Y-82887703D01*
X100084540Y-82946103D01*
X100108776Y-82959262D01*
X100199943Y-82983179D01*
X100253841Y-82997319D01*
X100253843Y-82997319D01*
X100261069Y-82999215D01*
X100338127Y-83000425D01*
X100411025Y-83001571D01*
X100411028Y-83001571D01*
X100418495Y-83001688D01*
X100425776Y-83000020D01*
X100425780Y-83000020D01*
X100564681Y-82968207D01*
X100571968Y-82966538D01*
X100712625Y-82895795D01*
X100718306Y-82890943D01*
X100718309Y-82890941D01*
X100826666Y-82798395D01*
X100826667Y-82798394D01*
X100832348Y-82793542D01*
X100843393Y-82778172D01*
X100874416Y-82734998D01*
X100924224Y-82665683D01*
X100982950Y-82519598D01*
X100985723Y-82500117D01*
X101004562Y-82367744D01*
X101004562Y-82367740D01*
X101005134Y-82363723D01*
X101005278Y-82350000D01*
X100999072Y-82298715D01*
X100987262Y-82201119D01*
X100987261Y-82201115D01*
X100986363Y-82193694D01*
X100939504Y-82069685D01*
X100933354Y-82053408D01*
X100933352Y-82053405D01*
X100930710Y-82046412D01*
X100922337Y-82034229D01*
X100845768Y-81922821D01*
X100845765Y-81922818D01*
X100841531Y-81916657D01*
X100835945Y-81911680D01*
X100831488Y-81906625D01*
X100801918Y-81843321D01*
X100800500Y-81824620D01*
X100800500Y-80084481D01*
X101820258Y-80084481D01*
X101821078Y-80091909D01*
X101821078Y-80091911D01*
X101823876Y-80117257D01*
X101837535Y-80240976D01*
X101840101Y-80247988D01*
X101840102Y-80247992D01*
X101852704Y-80282427D01*
X101891643Y-80388833D01*
X101979458Y-80519515D01*
X102014494Y-80551395D01*
X102090378Y-80620445D01*
X102090382Y-80620448D01*
X102095910Y-80625478D01*
X102102480Y-80629045D01*
X102102481Y-80629046D01*
X102223041Y-80694505D01*
X102234276Y-80700605D01*
X102327189Y-80724980D01*
X102379341Y-80738662D01*
X102379343Y-80738662D01*
X102386569Y-80740558D01*
X102463627Y-80741768D01*
X102536525Y-80742914D01*
X102536528Y-80742914D01*
X102543995Y-80743031D01*
X102551276Y-80741363D01*
X102551280Y-80741363D01*
X102690181Y-80709550D01*
X102697468Y-80707881D01*
X102838125Y-80637138D01*
X102843806Y-80632286D01*
X102843809Y-80632284D01*
X102952166Y-80539738D01*
X102952167Y-80539737D01*
X102957848Y-80534885D01*
X102968893Y-80519515D01*
X103036985Y-80424754D01*
X103049724Y-80407026D01*
X103108450Y-80260941D01*
X103109503Y-80253544D01*
X103130062Y-80109087D01*
X103130062Y-80109083D01*
X103130634Y-80105066D01*
X103130778Y-80091343D01*
X103128433Y-80071961D01*
X103139919Y-80003045D01*
X103163853Y-79969383D01*
X104570864Y-78562372D01*
X104632187Y-78528887D01*
X104660492Y-78526068D01*
X104786025Y-78528040D01*
X104786028Y-78528040D01*
X104793495Y-78528157D01*
X104800776Y-78526489D01*
X104800780Y-78526489D01*
X104939681Y-78494676D01*
X104946968Y-78493007D01*
X105087625Y-78422264D01*
X105093306Y-78417412D01*
X105093309Y-78417410D01*
X105201666Y-78324864D01*
X105201667Y-78324863D01*
X105207348Y-78320011D01*
X105299224Y-78192152D01*
X105357950Y-78046067D01*
X105372098Y-77946660D01*
X105379562Y-77894213D01*
X105379562Y-77894209D01*
X105380134Y-77890192D01*
X105380278Y-77876469D01*
X105371229Y-77801688D01*
X105362262Y-77727588D01*
X105362261Y-77727584D01*
X105361363Y-77720163D01*
X105344720Y-77676119D01*
X105308354Y-77579877D01*
X105308352Y-77579874D01*
X105305710Y-77572881D01*
X105291389Y-77552044D01*
X105220768Y-77449290D01*
X105220765Y-77449287D01*
X105216531Y-77443126D01*
X105165322Y-77397500D01*
X105104559Y-77343362D01*
X105104558Y-77343361D01*
X105098976Y-77338388D01*
X104959831Y-77264714D01*
X104807128Y-77226358D01*
X104725329Y-77225930D01*
X104657158Y-77225573D01*
X104657157Y-77225573D01*
X104649684Y-77225534D01*
X104642421Y-77227278D01*
X104642418Y-77227278D01*
X104573136Y-77243911D01*
X104496588Y-77262289D01*
X104356679Y-77334501D01*
X104238034Y-77438002D01*
X104147501Y-77566817D01*
X104090309Y-77713508D01*
X104069758Y-77869607D01*
X104070578Y-77877038D01*
X104070549Y-77879831D01*
X104050164Y-77946660D01*
X104034237Y-77966213D01*
X102595798Y-79404652D01*
X102534475Y-79438137D01*
X102507469Y-79440969D01*
X102407658Y-79440447D01*
X102407657Y-79440447D01*
X102400184Y-79440408D01*
X102392921Y-79442152D01*
X102392918Y-79442152D01*
X102323636Y-79458786D01*
X102247088Y-79477163D01*
X102107179Y-79549375D01*
X101988534Y-79652876D01*
X101898001Y-79781691D01*
X101895285Y-79788656D01*
X101895285Y-79788657D01*
X101893113Y-79794229D01*
X101840809Y-79928382D01*
X101820258Y-80084481D01*
X100800500Y-80084481D01*
X100800500Y-79611003D01*
X100800745Y-79604781D01*
X100800702Y-79604779D01*
X100800797Y-79602349D01*
X100800989Y-79599915D01*
X100800989Y-79547209D01*
X100801085Y-79542340D01*
X100802964Y-79494521D01*
X100803328Y-79485258D01*
X100801449Y-79478174D01*
X100800989Y-79469809D01*
X100800989Y-65859592D01*
X100801848Y-65845018D01*
X100804764Y-65820382D01*
X100804764Y-65820381D01*
X100805853Y-65811179D01*
X100804188Y-65802063D01*
X100804188Y-65802056D01*
X100795307Y-65753427D01*
X100794667Y-65749586D01*
X100787316Y-65700691D01*
X100787316Y-65700690D01*
X100785938Y-65691527D01*
X100782812Y-65685017D01*
X100781515Y-65677916D01*
X100769138Y-65654089D01*
X100754450Y-65625811D01*
X100752710Y-65622329D01*
X100731311Y-65577766D01*
X100731310Y-65577764D01*
X100727298Y-65569410D01*
X100722472Y-65564190D01*
X100722329Y-65563977D01*
X100719069Y-65557701D01*
X100714764Y-65552661D01*
X100677495Y-65515392D01*
X100674120Y-65511882D01*
X100641636Y-65476740D01*
X100641633Y-65476738D01*
X100635343Y-65469933D01*
X100629005Y-65466252D01*
X100622764Y-65460661D01*
X99717667Y-64555564D01*
X99707969Y-64544651D01*
X99692611Y-64525170D01*
X99686872Y-64517890D01*
X99638554Y-64484495D01*
X99635454Y-64482281D01*
X99588184Y-64447366D01*
X99581368Y-64444973D01*
X99575431Y-64440869D01*
X99519481Y-64423174D01*
X99515791Y-64421943D01*
X99469116Y-64405552D01*
X99469112Y-64405551D01*
X99460369Y-64402481D01*
X99453265Y-64402202D01*
X99453014Y-64402153D01*
X99446270Y-64400020D01*
X99439663Y-64399500D01*
X99386932Y-64399500D01*
X99382063Y-64399404D01*
X99334273Y-64397526D01*
X99334272Y-64397526D01*
X99325006Y-64397162D01*
X99317922Y-64399040D01*
X99309562Y-64399500D01*
X89859891Y-64399500D01*
X89792852Y-64379815D01*
X89777402Y-64368083D01*
X89704559Y-64303182D01*
X89704557Y-64303181D01*
X89698976Y-64298208D01*
X89559831Y-64224534D01*
X89407128Y-64186178D01*
X89325329Y-64185750D01*
X89257158Y-64185393D01*
X89257157Y-64185393D01*
X89249684Y-64185354D01*
X89242421Y-64187098D01*
X89242418Y-64187098D01*
X89173136Y-64203732D01*
X89096588Y-64222109D01*
X88956679Y-64294321D01*
X88838034Y-64397822D01*
X88747501Y-64526637D01*
X88744785Y-64533602D01*
X88744785Y-64533603D01*
X88736367Y-64555194D01*
X88690309Y-64673328D01*
X88669758Y-64829427D01*
X88670578Y-64836855D01*
X88670578Y-64836857D01*
X88683727Y-64955962D01*
X88687035Y-64985922D01*
X88689601Y-64992934D01*
X88689602Y-64992938D01*
X88707284Y-65041255D01*
X88741143Y-65133779D01*
X88828958Y-65264461D01*
X88869816Y-65301639D01*
X88939878Y-65365391D01*
X88939882Y-65365394D01*
X88945410Y-65370424D01*
X88951980Y-65373991D01*
X88951981Y-65373992D01*
X88973073Y-65385444D01*
X89083776Y-65445551D01*
X89186031Y-65472377D01*
X89228841Y-65483608D01*
X89228843Y-65483608D01*
X89236069Y-65485504D01*
X89313127Y-65486714D01*
X89386025Y-65487860D01*
X89386028Y-65487860D01*
X89393495Y-65487977D01*
X89400776Y-65486309D01*
X89400780Y-65486309D01*
X89539681Y-65454496D01*
X89546968Y-65452827D01*
X89675479Y-65388193D01*
X89680945Y-65385444D01*
X89680947Y-65385443D01*
X89687625Y-65382084D01*
X89693306Y-65377232D01*
X89693315Y-65377226D01*
X89748363Y-65330210D01*
X89812124Y-65301639D01*
X89828894Y-65300500D01*
X99137035Y-65300500D01*
X99204074Y-65320185D01*
X99224716Y-65336819D01*
X99863670Y-65975773D01*
X99897155Y-66037096D01*
X99899989Y-66063454D01*
X99899989Y-75432806D01*
X99880304Y-75499845D01*
X99827500Y-75545600D01*
X99758342Y-75555544D01*
X99745781Y-75553070D01*
X99740367Y-75551710D01*
X99733117Y-75549889D01*
X99651318Y-75549461D01*
X99583147Y-75549104D01*
X99583146Y-75549104D01*
X99575673Y-75549065D01*
X99568410Y-75550809D01*
X99568407Y-75550809D01*
X99499125Y-75567442D01*
X99422577Y-75585820D01*
X99282668Y-75658032D01*
X99277037Y-75662945D01*
X99277036Y-75662945D01*
X99262111Y-75675965D01*
X99164023Y-75761533D01*
X99073490Y-75890348D01*
X99016298Y-76037039D01*
X99014911Y-76036498D01*
X98986950Y-76085514D01*
X98509284Y-76563181D01*
X98447961Y-76596666D01*
X98421603Y-76599500D01*
X93581324Y-76599500D01*
X93523301Y-76585087D01*
X93441443Y-76541745D01*
X93441437Y-76541743D01*
X93434831Y-76538245D01*
X93282128Y-76499889D01*
X93200329Y-76499461D01*
X93132158Y-76499104D01*
X93132157Y-76499104D01*
X93124684Y-76499065D01*
X93117421Y-76500809D01*
X93117418Y-76500809D01*
X93048136Y-76517443D01*
X92971588Y-76535820D01*
X92831679Y-76608032D01*
X92713034Y-76711533D01*
X92622501Y-76840348D01*
X92565309Y-76987039D01*
X92544758Y-77143138D01*
X92545578Y-77150566D01*
X92545578Y-77150568D01*
X92554346Y-77229987D01*
X92562035Y-77299633D01*
X92564601Y-77306645D01*
X92564602Y-77306649D01*
X92594206Y-77387544D01*
X92616143Y-77447490D01*
X92703958Y-77578172D01*
X92737585Y-77608770D01*
X92814878Y-77679102D01*
X92814882Y-77679105D01*
X92820410Y-77684135D01*
X92826980Y-77687702D01*
X92826981Y-77687703D01*
X92900440Y-77727588D01*
X92958776Y-77759262D01*
X93055554Y-77784651D01*
X93103841Y-77797319D01*
X93103843Y-77797319D01*
X93111069Y-77799215D01*
X93188127Y-77800425D01*
X93261025Y-77801571D01*
X93261028Y-77801571D01*
X93268495Y-77801688D01*
X93275776Y-77800020D01*
X93275780Y-77800020D01*
X93414677Y-77768208D01*
X93414678Y-77768208D01*
X93421968Y-77766538D01*
X93526981Y-77713722D01*
X93582697Y-77700500D01*
X96875500Y-77700500D01*
X96942539Y-77720185D01*
X96988294Y-77772989D01*
X96999500Y-77824500D01*
X96999500Y-80717269D01*
X96979815Y-80784308D01*
X96927011Y-80830063D01*
X96857853Y-80840007D01*
X96794297Y-80810982D01*
X96787819Y-80804950D01*
X96677374Y-80694505D01*
X96677370Y-80694502D01*
X96654807Y-80671939D01*
X96635067Y-80661881D01*
X96618481Y-80651717D01*
X96600555Y-80638693D01*
X96588118Y-80634652D01*
X96579484Y-80631846D01*
X96561513Y-80624402D01*
X96550467Y-80618774D01*
X96550462Y-80618772D01*
X96541769Y-80614343D01*
X96519889Y-80610878D01*
X96500964Y-80606334D01*
X96500572Y-80606207D01*
X96479898Y-80599489D01*
X88944325Y-80599489D01*
X88877286Y-80579804D01*
X88831531Y-80527000D01*
X88821587Y-80457842D01*
X88829273Y-80429238D01*
X88833516Y-80418683D01*
X88880265Y-80302392D01*
X88881318Y-80294995D01*
X88901877Y-80150538D01*
X88901877Y-80150534D01*
X88902449Y-80146517D01*
X88902593Y-80132794D01*
X88899903Y-80110568D01*
X88884577Y-79983913D01*
X88884576Y-79983909D01*
X88883678Y-79976488D01*
X88828025Y-79829206D01*
X88778225Y-79756747D01*
X88756475Y-79690350D01*
X88774076Y-79622734D01*
X88779718Y-79614154D01*
X88786455Y-79604779D01*
X88832207Y-79541108D01*
X88890933Y-79395023D01*
X88913117Y-79239148D01*
X88913261Y-79225425D01*
X88894346Y-79069119D01*
X88838693Y-78921837D01*
X88798051Y-78862703D01*
X88776301Y-78796304D01*
X88793902Y-78728688D01*
X88799543Y-78720109D01*
X88855733Y-78641913D01*
X88914459Y-78495828D01*
X88924929Y-78422264D01*
X88936071Y-78343974D01*
X88936071Y-78343970D01*
X88936643Y-78339953D01*
X88936787Y-78326230D01*
X88917872Y-78169924D01*
X88871071Y-78046067D01*
X88864863Y-78029638D01*
X88864861Y-78029635D01*
X88862219Y-78022642D01*
X88794849Y-77924619D01*
X88777277Y-77899051D01*
X88777274Y-77899048D01*
X88773040Y-77892887D01*
X88670681Y-77801688D01*
X88661068Y-77793123D01*
X88661067Y-77793122D01*
X88655485Y-77788149D01*
X88516340Y-77714475D01*
X88363637Y-77676119D01*
X88348853Y-77676042D01*
X88281918Y-77656009D01*
X88236439Y-77602967D01*
X88225500Y-77552044D01*
X88225500Y-66733830D01*
X88645624Y-66733830D01*
X88655944Y-66897860D01*
X88658354Y-66905278D01*
X88658355Y-66905282D01*
X88686174Y-66990899D01*
X88706732Y-67054171D01*
X88794798Y-67192940D01*
X88800483Y-67198278D01*
X88800485Y-67198281D01*
X88810519Y-67207703D01*
X88845913Y-67267944D01*
X88843121Y-67337758D01*
X88821179Y-67377135D01*
X88762830Y-67447667D01*
X88757861Y-67453674D01*
X88687882Y-67602387D01*
X88657085Y-67763830D01*
X88667405Y-67927860D01*
X88669815Y-67935278D01*
X88669816Y-67935282D01*
X88697635Y-68020899D01*
X88718193Y-68084171D01*
X88739591Y-68117889D01*
X88802078Y-68216353D01*
X88802081Y-68216357D01*
X88806259Y-68222940D01*
X88818988Y-68234893D01*
X88920384Y-68330111D01*
X88920387Y-68330113D01*
X88926068Y-68335448D01*
X88932896Y-68339202D01*
X88932899Y-68339204D01*
X89063258Y-68410870D01*
X89063262Y-68410872D01*
X89070093Y-68414627D01*
X89229284Y-68455500D01*
X91345925Y-68455500D01*
X91376365Y-68451655D01*
X91378495Y-68451688D01*
X91381441Y-68451013D01*
X91399827Y-68448690D01*
X91460320Y-68441049D01*
X91460324Y-68441048D01*
X91468058Y-68440071D01*
X91475310Y-68437200D01*
X91475313Y-68437199D01*
X91512590Y-68422440D01*
X91517689Y-68420856D01*
X91517647Y-68420739D01*
X91524678Y-68418208D01*
X91531968Y-68416538D01*
X91543591Y-68410692D01*
X91553651Y-68406182D01*
X91613618Y-68382440D01*
X91613620Y-68382439D01*
X91620871Y-68379568D01*
X91627178Y-68374986D01*
X91627181Y-68374984D01*
X91647344Y-68360334D01*
X91664520Y-68349871D01*
X91665948Y-68349153D01*
X91672625Y-68345795D01*
X91698947Y-68323314D01*
X91706579Y-68317298D01*
X91747524Y-68287550D01*
X91747526Y-68287548D01*
X91753837Y-68282963D01*
X91765405Y-68268980D01*
X91780409Y-68253739D01*
X91792348Y-68243542D01*
X91796705Y-68237478D01*
X91796711Y-68237472D01*
X91828889Y-68192691D01*
X91834032Y-68186023D01*
X91858600Y-68156326D01*
X91861920Y-68149270D01*
X91866104Y-68142677D01*
X91866130Y-68142693D01*
X91872046Y-68132630D01*
X91879863Y-68121752D01*
X91879863Y-68121751D01*
X91884224Y-68115683D01*
X91921000Y-68024200D01*
X91923854Y-68017654D01*
X91925254Y-68014678D01*
X91928579Y-68007613D01*
X91928768Y-68007702D01*
X91931266Y-68004049D01*
X91929402Y-68003300D01*
X91940162Y-67976533D01*
X91942950Y-67969598D01*
X91965134Y-67813723D01*
X91965278Y-67800000D01*
X91946363Y-67643694D01*
X91932365Y-67606649D01*
X91893354Y-67503408D01*
X91893352Y-67503405D01*
X91890710Y-67496412D01*
X91801531Y-67366657D01*
X91795950Y-67361685D01*
X91794347Y-67359866D01*
X91764779Y-67296562D01*
X91774130Y-67227321D01*
X91786663Y-67205505D01*
X91817428Y-67162691D01*
X91822571Y-67156023D01*
X91847139Y-67126326D01*
X91850459Y-67119270D01*
X91854643Y-67112677D01*
X91854669Y-67112693D01*
X91860585Y-67102630D01*
X91868402Y-67091752D01*
X91868402Y-67091751D01*
X91872763Y-67085683D01*
X91909539Y-66994200D01*
X91912393Y-66987654D01*
X91917118Y-66977613D01*
X91917307Y-66977702D01*
X91919805Y-66974049D01*
X91917941Y-66973300D01*
X91928701Y-66946533D01*
X91931489Y-66939598D01*
X91940611Y-66875500D01*
X91953101Y-66787744D01*
X91953101Y-66787740D01*
X91953673Y-66783723D01*
X91953817Y-66770000D01*
X91938632Y-66644516D01*
X91935801Y-66621119D01*
X91935800Y-66621115D01*
X91934902Y-66613694D01*
X91920059Y-66574413D01*
X91881893Y-66473408D01*
X91881891Y-66473405D01*
X91879249Y-66466412D01*
X91829892Y-66394598D01*
X91794307Y-66342821D01*
X91794304Y-66342818D01*
X91790070Y-66336657D01*
X91719558Y-66273833D01*
X91678098Y-66236893D01*
X91678097Y-66236892D01*
X91672515Y-66231919D01*
X91533370Y-66158245D01*
X91442603Y-66135446D01*
X91387917Y-66121710D01*
X91380667Y-66119889D01*
X91297227Y-66119452D01*
X91230696Y-66119104D01*
X91230695Y-66119104D01*
X91223223Y-66119065D01*
X91215959Y-66120809D01*
X91214855Y-66121074D01*
X91185907Y-66124500D01*
X89425820Y-66124500D01*
X89406859Y-66122155D01*
X89406797Y-66122647D01*
X89399376Y-66121710D01*
X89392128Y-66119889D01*
X89311761Y-66119468D01*
X89242157Y-66119104D01*
X89242156Y-66119104D01*
X89234684Y-66119065D01*
X89227420Y-66120809D01*
X89166454Y-66135446D01*
X89153045Y-66137894D01*
X89144693Y-66138949D01*
X89144685Y-66138951D01*
X89136942Y-66139929D01*
X89128406Y-66143309D01*
X89111710Y-66148589D01*
X89081588Y-66155820D01*
X89074944Y-66159249D01*
X89074942Y-66159250D01*
X89036949Y-66178860D01*
X89025740Y-66183957D01*
X88984129Y-66200432D01*
X88977822Y-66205014D01*
X88977819Y-66205016D01*
X88964718Y-66214535D01*
X88948701Y-66224408D01*
X88941679Y-66228032D01*
X88936050Y-66232943D01*
X88936048Y-66232944D01*
X88923612Y-66243793D01*
X88914982Y-66250669D01*
X88857482Y-66292445D01*
X88857477Y-66292450D01*
X88851163Y-66297037D01*
X88846187Y-66303052D01*
X88758419Y-66409146D01*
X88746400Y-66423674D01*
X88676421Y-66572387D01*
X88645624Y-66733830D01*
X88225500Y-66733830D01*
X88225500Y-64322267D01*
X88245185Y-64255228D01*
X88261819Y-64234586D01*
X88561026Y-63935379D01*
X88622349Y-63901894D01*
X88648707Y-63899060D01*
X110033193Y-63899060D01*
X110100232Y-63918745D01*
G37*
%TD.AperFunction*%
%TA.AperFunction,Conductor*%
G36*
X86862615Y-84110185D02*
G01*
X86879022Y-84122780D01*
X86990410Y-84224135D01*
X86996980Y-84227702D01*
X86996981Y-84227703D01*
X87103835Y-84285720D01*
X87128776Y-84299262D01*
X87217492Y-84322536D01*
X87273841Y-84337319D01*
X87273843Y-84337319D01*
X87281069Y-84339215D01*
X87358127Y-84340425D01*
X87431025Y-84341571D01*
X87431028Y-84341571D01*
X87438495Y-84341688D01*
X87445776Y-84340020D01*
X87445780Y-84340020D01*
X87584681Y-84308207D01*
X87591968Y-84306538D01*
X87726073Y-84239091D01*
X87794806Y-84226554D01*
X87838080Y-84239384D01*
X87894207Y-84267982D01*
X87965042Y-84279201D01*
X88019511Y-84287828D01*
X88029152Y-84286301D01*
X88041389Y-84284363D01*
X88060786Y-84282836D01*
X89323240Y-84282836D01*
X89390279Y-84302521D01*
X89406686Y-84315116D01*
X89518074Y-84416471D01*
X89524644Y-84420038D01*
X89524645Y-84420039D01*
X89643971Y-84484828D01*
X89656440Y-84491598D01*
X89757361Y-84518074D01*
X89801505Y-84529655D01*
X89801507Y-84529655D01*
X89808733Y-84531551D01*
X89885791Y-84532761D01*
X89958689Y-84533907D01*
X89958692Y-84533907D01*
X89966159Y-84534024D01*
X89973440Y-84532356D01*
X89973444Y-84532356D01*
X90028439Y-84519760D01*
X90098181Y-84523981D01*
X90154570Y-84565237D01*
X90179702Y-84630430D01*
X90165598Y-84698862D01*
X90160352Y-84707802D01*
X90100151Y-84801214D01*
X90094025Y-84813555D01*
X90047091Y-84942507D01*
X90005665Y-84998771D01*
X89940396Y-85023707D01*
X89932592Y-85023996D01*
X89931657Y-85024104D01*
X89924184Y-85024065D01*
X89916921Y-85025809D01*
X89916918Y-85025809D01*
X89856360Y-85040348D01*
X89771088Y-85060820D01*
X89631179Y-85133032D01*
X89512534Y-85236533D01*
X89422001Y-85365348D01*
X89364809Y-85512039D01*
X89344258Y-85668138D01*
X89345078Y-85675566D01*
X89345078Y-85675568D01*
X89347240Y-85695149D01*
X89335031Y-85763944D01*
X89311670Y-85796437D01*
X89295415Y-85812692D01*
X89234092Y-85846177D01*
X89207734Y-85849011D01*
X84168970Y-85849011D01*
X84168966Y-85849012D01*
X84137056Y-85849012D01*
X84115979Y-85855860D01*
X84097083Y-85860397D01*
X84075185Y-85863865D01*
X84066490Y-85868295D01*
X84066488Y-85868296D01*
X84055441Y-85873925D01*
X84037466Y-85881370D01*
X84016399Y-85888215D01*
X84007603Y-85894606D01*
X83998476Y-85901237D01*
X83981886Y-85911403D01*
X83962147Y-85921461D01*
X83939580Y-85944028D01*
X83050741Y-86832866D01*
X82989418Y-86866351D01*
X82919726Y-86861367D01*
X82863793Y-86819495D01*
X82839376Y-86754031D01*
X82839060Y-86745185D01*
X82839060Y-85648695D01*
X82858745Y-85581656D01*
X82875379Y-85561014D01*
X84309574Y-84126819D01*
X84370897Y-84093334D01*
X84397255Y-84090500D01*
X86795576Y-84090500D01*
X86862615Y-84110185D01*
G37*
%TD.AperFunction*%
%TD*%
%TA.AperFunction,Conductor*%
%TO.N,GND*%
G36*
X138135888Y-86350531D02*
G01*
X138171420Y-86363851D01*
X138232623Y-86370500D01*
X142309415Y-86370500D01*
X147751024Y-86396536D01*
X148309824Y-86599736D01*
X148309824Y-91222536D01*
X147770956Y-91369500D01*
X138280958Y-91369501D01*
X138232624Y-91369501D01*
X138229965Y-91369790D01*
X138229962Y-91369790D01*
X138182585Y-91374936D01*
X137133824Y-91374936D01*
X136678224Y-90968536D01*
X136678224Y-86802936D01*
X137133824Y-86345736D01*
X138135888Y-86350531D01*
G37*
%TD.AperFunction*%
%TD*%
M02*
