%TF.GenerationSoftware,KiCad,Pcbnew,(6.0.5)*%
%TF.CreationDate,2022-06-08T22:30:05-07:00*%
%TF.ProjectId,diva-card,64697661-2d63-4617-9264-2e6b69636164,rev?*%
%TF.SameCoordinates,Original*%
%TF.FileFunction,Paste,Top*%
%TF.FilePolarity,Positive*%
%FSLAX46Y46*%
G04 Gerber Fmt 4.6, Leading zero omitted, Abs format (unit mm)*
G04 Created by KiCad (PCBNEW (6.0.5)) date 2022-06-08 22:30:05*
%MOMM*%
%LPD*%
G01*
G04 APERTURE LIST*
G04 Aperture macros list*
%AMRoundRect*
0 Rectangle with rounded corners*
0 $1 Rounding radius*
0 $2 $3 $4 $5 $6 $7 $8 $9 X,Y pos of 4 corners*
0 Add a 4 corners polygon primitive as box body*
4,1,4,$2,$3,$4,$5,$6,$7,$8,$9,$2,$3,0*
0 Add four circle primitives for the rounded corners*
1,1,$1+$1,$2,$3*
1,1,$1+$1,$4,$5*
1,1,$1+$1,$6,$7*
1,1,$1+$1,$8,$9*
0 Add four rect primitives between the rounded corners*
20,1,$1+$1,$2,$3,$4,$5,0*
20,1,$1+$1,$4,$5,$6,$7,0*
20,1,$1+$1,$6,$7,$8,$9,0*
20,1,$1+$1,$8,$9,$2,$3,0*%
G04 Aperture macros list end*
%ADD10C,0.100000*%
%ADD11R,0.609600X0.914400*%
%ADD12R,1.000000X0.750000*%
%ADD13R,3.454400X4.343400*%
%ADD14R,0.965200X0.431800*%
%ADD15R,0.600000X0.500000*%
%ADD16R,0.300000X0.750000*%
%ADD17RoundRect,0.135000X0.135000X0.185000X-0.135000X0.185000X-0.135000X-0.185000X0.135000X-0.185000X0*%
%ADD18RoundRect,0.225000X0.225000X0.250000X-0.225000X0.250000X-0.225000X-0.250000X0.225000X-0.250000X0*%
%ADD19RoundRect,0.140000X-0.170000X0.140000X-0.170000X-0.140000X0.170000X-0.140000X0.170000X0.140000X0*%
%ADD20RoundRect,0.140000X-0.140000X-0.170000X0.140000X-0.170000X0.140000X0.170000X-0.140000X0.170000X0*%
%ADD21RoundRect,0.135000X0.185000X-0.135000X0.185000X0.135000X-0.185000X0.135000X-0.185000X-0.135000X0*%
%ADD22RoundRect,0.140000X0.140000X0.170000X-0.140000X0.170000X-0.140000X-0.170000X0.140000X-0.170000X0*%
%ADD23RoundRect,0.140000X0.170000X-0.140000X0.170000X0.140000X-0.170000X0.140000X-0.170000X-0.140000X0*%
%ADD24RoundRect,0.150000X0.150000X-0.512500X0.150000X0.512500X-0.150000X0.512500X-0.150000X-0.512500X0*%
%ADD25RoundRect,0.147500X0.147500X0.172500X-0.147500X0.172500X-0.147500X-0.172500X0.147500X-0.172500X0*%
%ADD26RoundRect,0.135000X-0.185000X0.135000X-0.185000X-0.135000X0.185000X-0.135000X0.185000X0.135000X0*%
%ADD27R,0.600000X1.160000*%
%ADD28R,0.300000X1.160000*%
%ADD29RoundRect,0.147500X0.172500X-0.147500X0.172500X0.147500X-0.172500X0.147500X-0.172500X-0.147500X0*%
%ADD30RoundRect,0.225000X0.250000X-0.225000X0.250000X0.225000X-0.250000X0.225000X-0.250000X-0.225000X0*%
%ADD31RoundRect,0.050000X0.050000X0.387500X-0.050000X0.387500X-0.050000X-0.387500X0.050000X-0.387500X0*%
%ADD32RoundRect,0.050000X0.387500X0.050000X-0.387500X0.050000X-0.387500X-0.050000X0.387500X-0.050000X0*%
%ADD33RoundRect,0.250000X0.292217X0.292217X-0.292217X0.292217X-0.292217X-0.292217X0.292217X-0.292217X0*%
%ADD34R,1.400000X1.200000*%
%ADD35RoundRect,0.135000X-0.135000X-0.185000X0.135000X-0.185000X0.135000X0.185000X-0.135000X0.185000X0*%
G04 APERTURE END LIST*
%TO.C,U3*%
G36*
X106574100Y-93998900D02*
G01*
X105046900Y-93998900D01*
X105046900Y-92751100D01*
X106574100Y-92751100D01*
X106574100Y-93998900D01*
G37*
D10*
X106574100Y-93998900D02*
X105046900Y-93998900D01*
X105046900Y-92751100D01*
X106574100Y-92751100D01*
X106574100Y-93998900D01*
G36*
X104846900Y-95446700D02*
G01*
X103319700Y-95446700D01*
X103319700Y-94198900D01*
X104846900Y-94198900D01*
X104846900Y-95446700D01*
G37*
X104846900Y-95446700D02*
X103319700Y-95446700D01*
X103319700Y-94198900D01*
X104846900Y-94198900D01*
X104846900Y-95446700D01*
G36*
X104846900Y-92551100D02*
G01*
X103319700Y-92551100D01*
X103319700Y-91303300D01*
X104846900Y-91303300D01*
X104846900Y-92551100D01*
G37*
X104846900Y-92551100D02*
X103319700Y-92551100D01*
X103319700Y-91303300D01*
X104846900Y-91303300D01*
X104846900Y-92551100D01*
G36*
X106574100Y-95446700D02*
G01*
X105046900Y-95446700D01*
X105046900Y-94198900D01*
X106574100Y-94198900D01*
X106574100Y-95446700D01*
G37*
X106574100Y-95446700D02*
X105046900Y-95446700D01*
X105046900Y-94198900D01*
X106574100Y-94198900D01*
X106574100Y-95446700D01*
G36*
X106574100Y-92551100D02*
G01*
X105046900Y-92551100D01*
X105046900Y-91303300D01*
X106574100Y-91303300D01*
X106574100Y-92551100D01*
G37*
X106574100Y-92551100D02*
X105046900Y-92551100D01*
X105046900Y-91303300D01*
X106574100Y-91303300D01*
X106574100Y-92551100D01*
G36*
X104846900Y-93998900D02*
G01*
X103319700Y-93998900D01*
X103319700Y-92751100D01*
X104846900Y-92751100D01*
X104846900Y-93998900D01*
G37*
X104846900Y-93998900D02*
X103319700Y-93998900D01*
X103319700Y-92751100D01*
X104846900Y-92751100D01*
X104846900Y-93998900D01*
%TD*%
D11*
%TO.C,L33*%
X126462999Y-101263100D03*
X125463001Y-101263100D03*
X125463001Y-103472900D03*
X126462999Y-103472900D03*
%TD*%
%TO.C,L34*%
X126462999Y-96620242D03*
X125463001Y-96620242D03*
X125463001Y-98830042D03*
X126462999Y-98830042D03*
%TD*%
%TO.C,L36*%
X126462999Y-87334528D03*
X125463001Y-87334528D03*
X125463001Y-89544328D03*
X126462999Y-89544328D03*
%TD*%
%TO.C,L6*%
X112462998Y-78048814D03*
X111463000Y-78048814D03*
X111463000Y-80258614D03*
X112462998Y-80258614D03*
%TD*%
%TO.C,L12*%
X115962999Y-87334528D03*
X114963001Y-87334528D03*
X114963001Y-89544328D03*
X115962999Y-89544328D03*
%TD*%
%TO.C,L10*%
X115962999Y-96620242D03*
X114963001Y-96620242D03*
X114963001Y-98830042D03*
X115962999Y-98830042D03*
%TD*%
%TO.C,L20*%
X119462999Y-87334528D03*
X118463001Y-87334528D03*
X118463001Y-89544328D03*
X119462999Y-89544328D03*
%TD*%
%TO.C,L17*%
X119462999Y-101263100D03*
X118463001Y-101263100D03*
X118463001Y-103472900D03*
X119462999Y-103472900D03*
%TD*%
%TO.C,L15*%
X115962999Y-73405957D03*
X114963001Y-73405957D03*
X114963001Y-75615757D03*
X115962999Y-75615757D03*
%TD*%
%TO.C,L4*%
X112462998Y-87334528D03*
X111463000Y-87334528D03*
X111463000Y-89544328D03*
X112462998Y-89544328D03*
%TD*%
%TO.C,L31*%
X122962999Y-73405957D03*
X121963001Y-73405957D03*
X121963001Y-75615757D03*
X122962999Y-75615757D03*
%TD*%
%TO.C,L25*%
X122962999Y-101263100D03*
X121963001Y-101263100D03*
X121963001Y-103472900D03*
X122962999Y-103472900D03*
%TD*%
%TO.C,L24*%
X119462999Y-68763100D03*
X118463001Y-68763100D03*
X118463001Y-70972900D03*
X119462999Y-70972900D03*
%TD*%
%TO.C,L9*%
X115962999Y-101263100D03*
X114963001Y-101263100D03*
X114963001Y-103472900D03*
X115962999Y-103472900D03*
%TD*%
%TO.C,L3*%
X112462998Y-91977385D03*
X111463000Y-91977385D03*
X111463000Y-94187185D03*
X112462998Y-94187185D03*
%TD*%
%TO.C,L39*%
X126462999Y-73405957D03*
X125463001Y-73405957D03*
X125463001Y-75615757D03*
X126462999Y-75615757D03*
%TD*%
%TO.C,L27*%
X122962999Y-91977385D03*
X121963001Y-91977385D03*
X121963001Y-94187185D03*
X122962999Y-94187185D03*
%TD*%
%TO.C,L1*%
X112399974Y-101263100D03*
X111399976Y-101263100D03*
X111399976Y-103472900D03*
X112399974Y-103472900D03*
%TD*%
%TO.C,L40*%
X126462999Y-68763100D03*
X125463001Y-68763100D03*
X125463001Y-70972900D03*
X126462999Y-70972900D03*
%TD*%
%TO.C,L30*%
X122962999Y-78048814D03*
X121963001Y-78048814D03*
X121963001Y-80258614D03*
X122962999Y-80258614D03*
%TD*%
%TO.C,L13*%
X115962999Y-82691671D03*
X114963001Y-82691671D03*
X114963001Y-84901471D03*
X115962999Y-84901471D03*
%TD*%
%TO.C,L38*%
X126462999Y-78048814D03*
X125463001Y-78048814D03*
X125463001Y-80258614D03*
X126462999Y-80258614D03*
%TD*%
%TO.C,L18*%
X119462999Y-96620242D03*
X118463001Y-96620242D03*
X118463001Y-98830042D03*
X119462999Y-98830042D03*
%TD*%
%TO.C,L8*%
X112462998Y-68763100D03*
X111463000Y-68763100D03*
X111463000Y-70972900D03*
X112462998Y-70972900D03*
%TD*%
%TO.C,L11*%
X115962999Y-91977385D03*
X114963001Y-91977385D03*
X114963001Y-94187185D03*
X115962999Y-94187185D03*
%TD*%
%TO.C,L32*%
X122962999Y-68763100D03*
X121963001Y-68763100D03*
X121963001Y-70972900D03*
X122962999Y-70972900D03*
%TD*%
%TO.C,L29*%
X122962999Y-82691671D03*
X121963001Y-82691671D03*
X121963001Y-84901471D03*
X122962999Y-84901471D03*
%TD*%
%TO.C,L21*%
X119462999Y-82691671D03*
X118463001Y-82691671D03*
X118463001Y-84901471D03*
X119462999Y-84901471D03*
%TD*%
%TO.C,L16*%
X115962999Y-68763100D03*
X114963001Y-68763100D03*
X114963001Y-70972900D03*
X115962999Y-70972900D03*
%TD*%
%TO.C,L23*%
X119462999Y-73405957D03*
X118463001Y-73405957D03*
X118463001Y-75615757D03*
X119462999Y-75615757D03*
%TD*%
%TO.C,L35*%
X126462999Y-91977385D03*
X125463001Y-91977385D03*
X125463001Y-94187185D03*
X126462999Y-94187185D03*
%TD*%
%TO.C,L14*%
X115962999Y-78048814D03*
X114963001Y-78048814D03*
X114963001Y-80258614D03*
X115962999Y-80258614D03*
%TD*%
%TO.C,L7*%
X112462998Y-73405957D03*
X111463000Y-73405957D03*
X111463000Y-75615757D03*
X112462998Y-75615757D03*
%TD*%
%TO.C,L19*%
X119462999Y-91977385D03*
X118463001Y-91977385D03*
X118463001Y-94187185D03*
X119462999Y-94187185D03*
%TD*%
%TO.C,L28*%
X122962999Y-87334528D03*
X121963001Y-87334528D03*
X121963001Y-89544328D03*
X122962999Y-89544328D03*
%TD*%
%TO.C,L26*%
X122962999Y-96620242D03*
X121963001Y-96620242D03*
X121963001Y-98830042D03*
X122962999Y-98830042D03*
%TD*%
%TO.C,L37*%
X126462999Y-82691671D03*
X125463001Y-82691671D03*
X125463001Y-84901471D03*
X126462999Y-84901471D03*
%TD*%
%TO.C,L5*%
X112462998Y-82691671D03*
X111463000Y-82691671D03*
X111463000Y-84901471D03*
X112462998Y-84901471D03*
%TD*%
%TO.C,L2*%
X112399974Y-96620242D03*
X111399976Y-96620242D03*
X111399976Y-98830042D03*
X112399974Y-98830042D03*
%TD*%
%TO.C,L22*%
X119462999Y-78048814D03*
X118463001Y-78048814D03*
X118463001Y-80258614D03*
X119462999Y-80258614D03*
%TD*%
D12*
%TO.C,SW1*%
X72900000Y-70200000D03*
X72900000Y-73950000D03*
X66900000Y-70200000D03*
X66900000Y-73950000D03*
%TD*%
%TO.C,SW2*%
X72900000Y-76350000D03*
X72900000Y-80100000D03*
X66900000Y-76350000D03*
X66900000Y-80100000D03*
%TD*%
D13*
%TO.C,U3*%
X104946900Y-93375000D03*
D14*
X107817100Y-91470000D03*
X107817100Y-92740000D03*
X107817100Y-94010000D03*
X107817100Y-95280000D03*
X102076700Y-95280000D03*
X102076700Y-94010000D03*
X102076700Y-92740000D03*
X102076700Y-91470000D03*
%TD*%
D15*
%TO.C,U2*%
X104975000Y-82475000D03*
X105725000Y-82475000D03*
X104975000Y-81825000D03*
X105725000Y-81825000D03*
D16*
X106100000Y-80700000D03*
X105600000Y-80700000D03*
X105100000Y-80700000D03*
X104600000Y-80700000D03*
X104600000Y-83600000D03*
X105100000Y-83600000D03*
X105600000Y-83600000D03*
X106100000Y-83600000D03*
%TD*%
D17*
%TO.C,R5*%
X101635000Y-88925000D03*
X100615000Y-88925000D03*
%TD*%
D18*
%TO.C,C2*%
X74841400Y-98532000D03*
X73291400Y-98532000D03*
%TD*%
D19*
%TO.C,C10*%
X88983600Y-89282400D03*
X88983600Y-90242400D03*
%TD*%
D20*
%TO.C,C6*%
X122948000Y-104768000D03*
X123908000Y-104768000D03*
%TD*%
D17*
%TO.C,R10*%
X93960000Y-75420000D03*
X92940000Y-75420000D03*
%TD*%
D19*
%TO.C,C19*%
X87950000Y-89270000D03*
X87950000Y-90230000D03*
%TD*%
D20*
%TO.C,C7*%
X126463000Y-104768000D03*
X127423000Y-104768000D03*
%TD*%
%TO.C,C22*%
X92990000Y-74374400D03*
X93950000Y-74374400D03*
%TD*%
D21*
%TO.C,R2*%
X73275000Y-72585000D03*
X73275000Y-71565000D03*
%TD*%
D20*
%TO.C,C16*%
X96770000Y-87110000D03*
X97730000Y-87110000D03*
%TD*%
D22*
%TO.C,C13*%
X86430000Y-82875000D03*
X85470000Y-82875000D03*
%TD*%
D23*
%TO.C,C14*%
X91700000Y-76230000D03*
X91700000Y-75270000D03*
%TD*%
D24*
%TO.C,U1*%
X74874400Y-102619500D03*
X75824400Y-102619500D03*
X76774400Y-102619500D03*
X76774400Y-100344500D03*
X74874400Y-100344500D03*
%TD*%
D20*
%TO.C,C3*%
X112403000Y-104768000D03*
X113363000Y-104768000D03*
%TD*%
D25*
%TO.C,D1*%
X103250000Y-98600000D03*
X102280000Y-98600000D03*
%TD*%
D26*
%TO.C,R7*%
X91100000Y-90160000D03*
X91100000Y-91180000D03*
%TD*%
D27*
%TO.C,J2*%
X77400000Y-107015000D03*
X78200000Y-107015000D03*
D28*
X78850000Y-107015000D03*
X79850000Y-107015000D03*
X81350000Y-107015000D03*
X82350000Y-107015000D03*
D27*
X83000000Y-107015000D03*
X83800000Y-107015000D03*
X83800000Y-107015000D03*
X83000000Y-107015000D03*
D28*
X81850000Y-107015000D03*
X80850000Y-107015000D03*
X80350000Y-107015000D03*
X79350000Y-107015000D03*
D27*
X78200000Y-107015000D03*
X77400000Y-107015000D03*
%TD*%
D20*
%TO.C,C4*%
X115918000Y-104768000D03*
X116878000Y-104768000D03*
%TD*%
D29*
%TO.C,D2*%
X74800000Y-91720000D03*
X74800000Y-90750000D03*
%TD*%
D30*
%TO.C,C1*%
X73124400Y-102807000D03*
X73124400Y-101257000D03*
%TD*%
D22*
%TO.C,C21*%
X96004000Y-74374400D03*
X95044000Y-74374400D03*
%TD*%
D31*
%TO.C,U4*%
X94692500Y-87327500D03*
X94292500Y-87327500D03*
X93892500Y-87327500D03*
X93492500Y-87327500D03*
X93092500Y-87327500D03*
X92692500Y-87327500D03*
X92292500Y-87327500D03*
X91892500Y-87327500D03*
X91492500Y-87327500D03*
X91092500Y-87327500D03*
X90692500Y-87327500D03*
X90292500Y-87327500D03*
X89892500Y-87327500D03*
X89492500Y-87327500D03*
D32*
X88655000Y-86490000D03*
X88655000Y-86090000D03*
X88655000Y-85690000D03*
X88655000Y-85290000D03*
X88655000Y-84890000D03*
X88655000Y-84490000D03*
X88655000Y-84090000D03*
X88655000Y-83690000D03*
X88655000Y-83290000D03*
X88655000Y-82890000D03*
X88655000Y-82490000D03*
X88655000Y-82090000D03*
X88655000Y-81690000D03*
X88655000Y-81290000D03*
D31*
X89492500Y-80452500D03*
X89892500Y-80452500D03*
X90292500Y-80452500D03*
X90692500Y-80452500D03*
X91092500Y-80452500D03*
X91492500Y-80452500D03*
X91892500Y-80452500D03*
X92292500Y-80452500D03*
X92692500Y-80452500D03*
X93092500Y-80452500D03*
X93492500Y-80452500D03*
X93892500Y-80452500D03*
X94292500Y-80452500D03*
X94692500Y-80452500D03*
D32*
X95530000Y-81290000D03*
X95530000Y-81690000D03*
X95530000Y-82090000D03*
X95530000Y-82490000D03*
X95530000Y-82890000D03*
X95530000Y-83290000D03*
X95530000Y-83690000D03*
X95530000Y-84090000D03*
X95530000Y-84490000D03*
X95530000Y-84890000D03*
X95530000Y-85290000D03*
X95530000Y-85690000D03*
X95530000Y-86090000D03*
X95530000Y-86490000D03*
D33*
X91455000Y-83252500D03*
X92730000Y-84527500D03*
X91455000Y-84527500D03*
X92730000Y-83252500D03*
%TD*%
D22*
%TO.C,C20*%
X87355000Y-87700000D03*
X86395000Y-87700000D03*
%TD*%
D34*
%TO.C,Y1*%
X93916000Y-72887600D03*
X96116000Y-72887600D03*
X96116000Y-71187600D03*
X93916000Y-71187600D03*
%TD*%
D26*
%TO.C,R8*%
X90058600Y-90160000D03*
X90058600Y-91180000D03*
%TD*%
D21*
%TO.C,R11*%
X79349600Y-101193600D03*
X79349600Y-100173600D03*
%TD*%
D19*
%TO.C,C17*%
X92220000Y-90860000D03*
X92220000Y-91820000D03*
%TD*%
%TO.C,C11*%
X93330000Y-91190000D03*
X93330000Y-92150000D03*
%TD*%
D26*
%TO.C,R9*%
X89325000Y-75265000D03*
X89325000Y-76285000D03*
%TD*%
D20*
%TO.C,C8*%
X107810000Y-88980000D03*
X108770000Y-88980000D03*
%TD*%
D19*
%TO.C,C9*%
X95650000Y-91720000D03*
X95650000Y-92680000D03*
%TD*%
D26*
%TO.C,R3*%
X106150000Y-89030000D03*
X106150000Y-88010000D03*
%TD*%
%TO.C,R6*%
X74800000Y-93235000D03*
X74800000Y-94255000D03*
%TD*%
D22*
%TO.C,C12*%
X87363600Y-86512400D03*
X86403600Y-86512400D03*
%TD*%
D35*
%TO.C,R4*%
X104721200Y-98600000D03*
X105741200Y-98600000D03*
%TD*%
D20*
%TO.C,C15*%
X97550000Y-82940000D03*
X98510000Y-82940000D03*
%TD*%
%TO.C,C5*%
X119433000Y-104768000D03*
X120393000Y-104768000D03*
%TD*%
D21*
%TO.C,R1*%
X78130400Y-103634000D03*
X78130400Y-102614000D03*
%TD*%
D19*
%TO.C,C18*%
X86890000Y-89270000D03*
X86890000Y-90230000D03*
%TD*%
D21*
%TO.C,R12*%
X82346800Y-105259600D03*
X82346800Y-104239600D03*
%TD*%
M02*
