M48
; DRILL file {KiCad (6.0.5)} date Wed Jun 22 21:04:07 2022
; FORMAT={-:-/ absolute / inch / decimal}
; #@! TF.CreationDate,2022-06-22T21:04:07-07:00
; #@! TF.GenerationSoftware,Kicad,Pcbnew,(6.0.5)
; #@! TF.FileFunction,Plated,1,2,PTH
FMAT,2
INCH
; #@! TA.AperFunction,Plated,PTH,ViaDrill
T1C0.0118
; #@! TA.AperFunction,Plated,PTH,ComponentDrill
T2C0.0138
; #@! TA.AperFunction,Plated,PTH,ViaDrill
T3C0.0157
; #@! TA.AperFunction,Plated,PTH,ComponentDrill
T4C0.0236
%
G90
G05
T1
X2.5948Y-2.5551
X2.7975Y-2.656
X2.8169Y-2.9122
X2.8169Y-3.1535
X2.8278Y-3.0049
X2.8474Y-2.6555
X2.8789Y-3.9409
X2.8848Y-3.8327
X2.9449Y-3.7459
X3.0472Y-4.1535
X3.0768Y-3.9961
X3.124Y-3.9083
X3.189Y-2.9114
X3.1959Y-2.8169
X3.278Y-3.1539
X3.2953Y-4.1067
X3.3134Y-3.1537
X3.3764Y-3.2299
X3.3799Y-3.003
X3.3858Y-3.5531
X3.4016Y-3.3701
X3.4299Y-3.0679
X3.4409Y-3.2943
X3.4669Y-3.0687
X3.4727Y-3.0334
X3.5118Y-3.0363
X3.5166Y-2.5933
X3.5393Y-3.3025
X3.5433Y-3.373
X3.6024Y-3.2146
X3.6102Y-2.9276
X3.6106Y-3.0378
X3.6336Y-3.3937
X3.6407Y-2.8031
X3.7199Y-3.6171
X3.7222Y-3.2145
X3.8Y-3.6488
X3.811Y-3.4783
X3.8406Y-3.3041
X3.8421Y-2.8689
X3.8773Y-3.6983
X3.8795Y-3.0374
X3.8847Y-4.0104
X3.9063Y-3.808
X3.9102Y-3.2654
X3.9359Y-4.0103
X3.9361Y-3.9714
X3.948Y-3.1591
X3.9606Y-3.439
X3.9677Y-3.808
X3.9713Y-4.0103
X3.9807Y-3.3323
X4.0067Y-4.0103
X4.0266Y-3.2077
X4.0268Y-3.808
X4.0345Y-3.1532
X4.035Y-3.1165
X4.0508Y-2.537
X4.0579Y-4.0076
X4.0862Y-2.537
X4.1004Y-3.3469
X4.1358Y-3.3063
X4.1981Y-3.8819
X4.2108Y-3.5183
X4.2953Y-3.3882
X4.2954Y-3.3522
X4.3652Y-2.5246
X4.3863Y-3.8472
X4.3863Y-4.0302
X4.3883Y-2.7507
X4.3883Y-2.9338
X4.3883Y-3.1169
X4.3883Y-3.298
X4.3883Y-3.481
X4.3883Y-3.6641
X4.4052Y-2.5246
X4.4452Y-2.5246
X4.4749Y-2.7074
X4.4749Y-4.0735
X4.4852Y-2.5246
X4.4961Y-4.1253
X4.5025Y-2.8432
X4.5025Y-3.0263
X4.5025Y-3.2094
X4.5025Y-3.5755
X4.5025Y-3.9397
X4.5029Y-3.3895
X4.5044Y-3.7586
X4.5261Y-2.7507
X4.6127Y-2.7074
X4.6127Y-4.0735
X4.6361Y-4.1253
X4.6403Y-3.0263
X4.6403Y-3.2094
X4.6403Y-3.3924
X4.6403Y-3.5735
X4.6403Y-3.7566
X4.6403Y-3.9397
X4.6407Y-2.8423
X4.6639Y-2.7507
X4.7525Y-2.7074
X4.7525Y-4.0735
X4.7761Y-4.1253
X4.78Y-2.8432
X4.78Y-3.0263
X4.78Y-3.2094
X4.78Y-3.3905
X4.78Y-3.5735
X4.78Y-3.7566
X4.78Y-3.9417
X4.8017Y-2.7507
X4.8883Y-2.7074
X4.8883Y-4.0735
X4.9159Y-3.0263
X4.9159Y-3.2094
X4.9159Y-3.3885
X4.9159Y-3.5735
X4.9159Y-3.7566
X4.9161Y-4.1253
X4.9163Y-2.8423
X4.9178Y-3.9397
X4.9395Y-2.7507
X5.0527Y-4.1257
X5.2756Y-2.964
X5.2756Y-3.018
X5.2756Y-3.072
X5.2756Y-3.126
X5.3205Y-3.6384
X5.4035Y-3.1813
X5.4043Y-3.2429
X5.4047Y-4.2469
X5.4055Y-2.7285
X5.4055Y-2.4518
X5.4055Y-2.5058
X5.4055Y-2.5598
X5.4055Y-2.6138
X5.4055Y-2.6693
X5.4055Y-2.8492
X5.4055Y-2.9085
X5.4055Y-2.964
X5.4055Y-3.018
X5.4055Y-3.072
X5.4055Y-3.126
X5.4055Y-3.3031
X5.4055Y-3.3602
X5.4055Y-3.4187
X5.4055Y-3.4727
X5.4055Y-3.5267
X5.4055Y-3.5807
X5.4055Y-3.6378
X5.4055Y-3.6949
X5.4055Y-3.7539
X5.4055Y-3.813
X5.4055Y-3.8695
X5.4055Y-3.9235
X5.4055Y-3.9775
X5.4055Y-4.0315
X5.4055Y-4.2116
X5.4055Y-4.2844
X5.4055Y-4.3574
X5.4055Y-4.4114
X5.4057Y-2.7902
T2
X3.5755Y-3.2526
X3.5755Y-3.3028
X3.5755Y-3.353
X3.6257Y-3.2526
X3.6257Y-3.3028
X3.6257Y-3.353
X3.6759Y-3.2526
X3.6759Y-3.3028
X3.6759Y-3.353
T3
X3.8831Y-3.4339
X4.1004Y-3.4232
X4.1047Y-3.139
T4
G00X3.0031Y-4.2577
M15
G01X3.0031Y-4.2144
M16
G05
G00X3.0031Y-4.4159
M15
G01X3.0031Y-4.3844
M16
G05
G00X3.3433Y-4.2577
M15
G01X3.3433Y-4.2144
M16
G05
G00X3.3433Y-4.4159
M15
G01X3.3433Y-4.3844
M16
G05
T0
M30
