%TF.GenerationSoftware,KiCad,Pcbnew,(6.0.5)*%
%TF.CreationDate,2022-06-08T22:30:05-07:00*%
%TF.ProjectId,diva-card,64697661-2d63-4617-9264-2e6b69636164,rev?*%
%TF.SameCoordinates,Original*%
%TF.FileFunction,Legend,Top*%
%TF.FilePolarity,Positive*%
%FSLAX46Y46*%
G04 Gerber Fmt 4.6, Leading zero omitted, Abs format (unit mm)*
G04 Created by KiCad (PCBNEW (6.0.5)) date 2022-06-08 22:30:05*
%MOMM*%
%LPD*%
G01*
G04 APERTURE LIST*
G04 Aperture macros list*
%AMRoundRect*
0 Rectangle with rounded corners*
0 $1 Rounding radius*
0 $2 $3 $4 $5 $6 $7 $8 $9 X,Y pos of 4 corners*
0 Add a 4 corners polygon primitive as box body*
4,1,4,$2,$3,$4,$5,$6,$7,$8,$9,$2,$3,0*
0 Add four circle primitives for the rounded corners*
1,1,$1+$1,$2,$3*
1,1,$1+$1,$4,$5*
1,1,$1+$1,$6,$7*
1,1,$1+$1,$8,$9*
0 Add four rect primitives between the rounded corners*
20,1,$1+$1,$2,$3,$4,$5,0*
20,1,$1+$1,$4,$5,$6,$7,0*
20,1,$1+$1,$6,$7,$8,$9,0*
20,1,$1+$1,$8,$9,$2,$3,0*%
G04 Aperture macros list end*
%ADD10C,0.150000*%
%ADD11C,0.250000*%
%ADD12C,0.120000*%
%ADD13C,0.127000*%
%ADD14C,0.200000*%
%ADD15C,0.100000*%
%ADD16C,0.400000*%
%ADD17R,0.609600X0.914400*%
%ADD18R,1.000000X0.750000*%
%ADD19R,3.454400X4.343400*%
%ADD20R,0.965200X0.431800*%
%ADD21R,0.300000X0.750000*%
%ADD22R,1.500000X1.300000*%
%ADD23RoundRect,0.135000X0.135000X0.185000X-0.135000X0.185000X-0.135000X-0.185000X0.135000X-0.185000X0*%
%ADD24RoundRect,0.225000X0.225000X0.250000X-0.225000X0.250000X-0.225000X-0.250000X0.225000X-0.250000X0*%
%ADD25RoundRect,0.140000X-0.170000X0.140000X-0.170000X-0.140000X0.170000X-0.140000X0.170000X0.140000X0*%
%ADD26R,10.000000X3.000000*%
%ADD27R,10.000000X1.000000*%
%ADD28R,10.000000X5.000000*%
%ADD29RoundRect,0.140000X-0.140000X-0.170000X0.140000X-0.170000X0.140000X0.170000X-0.140000X0.170000X0*%
%ADD30RoundRect,0.135000X0.185000X-0.135000X0.185000X0.135000X-0.185000X0.135000X-0.185000X-0.135000X0*%
%ADD31RoundRect,0.140000X0.140000X0.170000X-0.140000X0.170000X-0.140000X-0.170000X0.140000X-0.170000X0*%
%ADD32RoundRect,0.140000X0.170000X-0.140000X0.170000X0.140000X-0.170000X0.140000X-0.170000X-0.140000X0*%
%ADD33RoundRect,0.150000X0.150000X-0.512500X0.150000X0.512500X-0.150000X0.512500X-0.150000X-0.512500X0*%
%ADD34RoundRect,0.147500X0.147500X0.172500X-0.147500X0.172500X-0.147500X-0.172500X0.147500X-0.172500X0*%
%ADD35RoundRect,0.135000X-0.185000X0.135000X-0.185000X-0.135000X0.185000X-0.135000X0.185000X0.135000X0*%
%ADD36O,0.900000X2.000000*%
%ADD37O,0.900000X1.700000*%
%ADD38R,0.600000X1.160000*%
%ADD39R,0.300000X1.160000*%
%ADD40C,0.600000*%
%ADD41RoundRect,0.147500X0.172500X-0.147500X0.172500X0.147500X-0.172500X0.147500X-0.172500X-0.147500X0*%
%ADD42RoundRect,0.225000X0.250000X-0.225000X0.250000X0.225000X-0.250000X0.225000X-0.250000X-0.225000X0*%
%ADD43RoundRect,0.144000X1.456000X1.456000X-1.456000X1.456000X-1.456000X-1.456000X1.456000X-1.456000X0*%
%ADD44RoundRect,0.050000X0.050000X0.387500X-0.050000X0.387500X-0.050000X-0.387500X0.050000X-0.387500X0*%
%ADD45RoundRect,0.050000X0.387500X0.050000X-0.387500X0.050000X-0.387500X-0.050000X0.387500X-0.050000X0*%
%ADD46R,1.400000X1.200000*%
%ADD47C,0.787400*%
%ADD48RoundRect,0.135000X-0.135000X-0.185000X0.135000X-0.185000X0.135000X0.185000X-0.135000X0.185000X0*%
G04 APERTURE END LIST*
D10*
X96504428Y-96826571D02*
X96171095Y-96826571D01*
X96171095Y-97350380D02*
X96171095Y-96350380D01*
X96647285Y-96350380D01*
X97171095Y-97350380D02*
X97075857Y-97302761D01*
X97028238Y-97207523D01*
X97028238Y-96350380D01*
X97980619Y-97350380D02*
X97980619Y-96826571D01*
X97933000Y-96731333D01*
X97837761Y-96683714D01*
X97647285Y-96683714D01*
X97552047Y-96731333D01*
X97980619Y-97302761D02*
X97885380Y-97350380D01*
X97647285Y-97350380D01*
X97552047Y-97302761D01*
X97504428Y-97207523D01*
X97504428Y-97112285D01*
X97552047Y-97017047D01*
X97647285Y-96969428D01*
X97885380Y-96969428D01*
X97980619Y-96921809D01*
X98409190Y-97302761D02*
X98504428Y-97350380D01*
X98694904Y-97350380D01*
X98790142Y-97302761D01*
X98837761Y-97207523D01*
X98837761Y-97159904D01*
X98790142Y-97064666D01*
X98694904Y-97017047D01*
X98552047Y-97017047D01*
X98456809Y-96969428D01*
X98409190Y-96874190D01*
X98409190Y-96826571D01*
X98456809Y-96731333D01*
X98552047Y-96683714D01*
X98694904Y-96683714D01*
X98790142Y-96731333D01*
X99266333Y-97350380D02*
X99266333Y-96350380D01*
X99694904Y-97350380D02*
X99694904Y-96826571D01*
X99647285Y-96731333D01*
X99552047Y-96683714D01*
X99409190Y-96683714D01*
X99313952Y-96731333D01*
X99266333Y-96778952D01*
X100217000Y-97608000D02*
X101233000Y-96592000D01*
X76904761Y-109511904D02*
X76904761Y-110083333D01*
X76866666Y-110197619D01*
X76790476Y-110273809D01*
X76676190Y-110311904D01*
X76600000Y-110311904D01*
X77666666Y-110311904D02*
X77285714Y-110311904D01*
X77285714Y-109511904D01*
X78390476Y-110235714D02*
X78352380Y-110273809D01*
X78238095Y-110311904D01*
X78161904Y-110311904D01*
X78047619Y-110273809D01*
X77971428Y-110197619D01*
X77933333Y-110121428D01*
X77895238Y-109969047D01*
X77895238Y-109854761D01*
X77933333Y-109702380D01*
X77971428Y-109626190D01*
X78047619Y-109550000D01*
X78161904Y-109511904D01*
X78238095Y-109511904D01*
X78352380Y-109550000D01*
X78390476Y-109588095D01*
X78961904Y-109511904D02*
X78961904Y-110083333D01*
X78923809Y-110197619D01*
X78847619Y-110273809D01*
X78733333Y-110311904D01*
X78657142Y-110311904D01*
X79723809Y-110311904D02*
X79342857Y-110311904D01*
X79342857Y-109511904D01*
X80447619Y-110235714D02*
X80409523Y-110273809D01*
X80295238Y-110311904D01*
X80219047Y-110311904D01*
X80104761Y-110273809D01*
X80028571Y-110197619D01*
X79990476Y-110121428D01*
X79952380Y-109969047D01*
X79952380Y-109854761D01*
X79990476Y-109702380D01*
X80028571Y-109626190D01*
X80104761Y-109550000D01*
X80219047Y-109511904D01*
X80295238Y-109511904D01*
X80409523Y-109550000D01*
X80447619Y-109588095D01*
X81019047Y-109511904D02*
X81019047Y-110083333D01*
X80980952Y-110197619D01*
X80904761Y-110273809D01*
X80790476Y-110311904D01*
X80714285Y-110311904D01*
X81780952Y-110311904D02*
X81400000Y-110311904D01*
X81400000Y-109511904D01*
X82504761Y-110235714D02*
X82466666Y-110273809D01*
X82352380Y-110311904D01*
X82276190Y-110311904D01*
X82161904Y-110273809D01*
X82085714Y-110197619D01*
X82047619Y-110121428D01*
X82009523Y-109969047D01*
X82009523Y-109854761D01*
X82047619Y-109702380D01*
X82085714Y-109626190D01*
X82161904Y-109550000D01*
X82276190Y-109511904D01*
X82352380Y-109511904D01*
X82466666Y-109550000D01*
X82504761Y-109588095D01*
X83076190Y-109511904D02*
X83076190Y-110083333D01*
X83038095Y-110197619D01*
X82961904Y-110273809D01*
X82847619Y-110311904D01*
X82771428Y-110311904D01*
X83838095Y-110311904D02*
X83457142Y-110311904D01*
X83457142Y-109511904D01*
X84561904Y-110235714D02*
X84523809Y-110273809D01*
X84409523Y-110311904D01*
X84333333Y-110311904D01*
X84219047Y-110273809D01*
X84142857Y-110197619D01*
X84104761Y-110121428D01*
X84066666Y-109969047D01*
X84066666Y-109854761D01*
X84104761Y-109702380D01*
X84142857Y-109626190D01*
X84219047Y-109550000D01*
X84333333Y-109511904D01*
X84409523Y-109511904D01*
X84523809Y-109550000D01*
X84561904Y-109588095D01*
X95793000Y-97608000D02*
X100217000Y-97608000D01*
X109450000Y-105333000D02*
X109450000Y-110800000D01*
X72459000Y-90209000D02*
X73475000Y-91225000D01*
X78876000Y-97875000D02*
X77860000Y-98891000D01*
X137057000Y-68066000D02*
X136041000Y-69082000D01*
X136041000Y-103500000D02*
X136041000Y-111754000D01*
X101450000Y-97700000D02*
X104075000Y-97700000D01*
X104075000Y-97700000D02*
X104075000Y-99550000D01*
X104075000Y-99550000D02*
X101450000Y-99550000D01*
X101450000Y-99550000D02*
X101450000Y-97700000D01*
X137057000Y-81274000D02*
X136041000Y-82290000D01*
X137057000Y-98842000D02*
X136041000Y-99858000D01*
X110466000Y-104317000D02*
X109450000Y-105333000D01*
X86534000Y-78534000D02*
X80143000Y-78534000D01*
X136041000Y-88386000D02*
X136041000Y-91434000D01*
X136041000Y-63494000D02*
X136041000Y-66542000D01*
X137057000Y-75686000D02*
X136041000Y-76702000D01*
X102884000Y-100284000D02*
X103900000Y-101300000D01*
X136041000Y-82290000D02*
X136041000Y-85338000D01*
X102942000Y-78942000D02*
X98518000Y-78942000D01*
X136041000Y-99858000D02*
X136041000Y-102906000D01*
X136041000Y-111754000D02*
X137057000Y-112770000D01*
X136041000Y-69082000D02*
X136041000Y-72130000D01*
X87550000Y-79550000D02*
X86534000Y-78534000D01*
X103900000Y-101300000D02*
X108324000Y-101300000D01*
X137057000Y-92450000D02*
X136041000Y-93466000D01*
X137057000Y-87370000D02*
X136041000Y-88386000D01*
X73892000Y-92550000D02*
X75742000Y-92550000D01*
X75742000Y-92550000D02*
X75742000Y-89925000D01*
X75742000Y-89925000D02*
X73892000Y-89925000D01*
X73892000Y-89925000D02*
X73892000Y-92550000D01*
X136041000Y-93466000D02*
X136041000Y-96514000D01*
X136041000Y-76702000D02*
X136041000Y-79750000D01*
X83300000Y-97875000D02*
X78876000Y-97875000D01*
X137057000Y-62478000D02*
X136041000Y-63494000D01*
X103958000Y-79958000D02*
X102942000Y-78942000D01*
X72459000Y-88084000D02*
X72459000Y-90209000D01*
X68542857Y-81703571D02*
X68685714Y-81751190D01*
X68733333Y-81798809D01*
X68780952Y-81894047D01*
X68780952Y-82036904D01*
X68733333Y-82132142D01*
X68685714Y-82179761D01*
X68590476Y-82227380D01*
X68209523Y-82227380D01*
X68209523Y-81227380D01*
X68542857Y-81227380D01*
X68638095Y-81275000D01*
X68685714Y-81322619D01*
X68733333Y-81417857D01*
X68733333Y-81513095D01*
X68685714Y-81608333D01*
X68638095Y-81655952D01*
X68542857Y-81703571D01*
X68209523Y-81703571D01*
X69400000Y-81227380D02*
X69590476Y-81227380D01*
X69685714Y-81275000D01*
X69780952Y-81370238D01*
X69828571Y-81560714D01*
X69828571Y-81894047D01*
X69780952Y-82084523D01*
X69685714Y-82179761D01*
X69590476Y-82227380D01*
X69400000Y-82227380D01*
X69304761Y-82179761D01*
X69209523Y-82084523D01*
X69161904Y-81894047D01*
X69161904Y-81560714D01*
X69209523Y-81370238D01*
X69304761Y-81275000D01*
X69400000Y-81227380D01*
X70447619Y-81227380D02*
X70638095Y-81227380D01*
X70733333Y-81275000D01*
X70828571Y-81370238D01*
X70876190Y-81560714D01*
X70876190Y-81894047D01*
X70828571Y-82084523D01*
X70733333Y-82179761D01*
X70638095Y-82227380D01*
X70447619Y-82227380D01*
X70352380Y-82179761D01*
X70257142Y-82084523D01*
X70209523Y-81894047D01*
X70209523Y-81560714D01*
X70257142Y-81370238D01*
X70352380Y-81275000D01*
X70447619Y-81227380D01*
X71161904Y-81227380D02*
X71733333Y-81227380D01*
X71447619Y-82227380D02*
X71447619Y-81227380D01*
X134525000Y-65859142D02*
X134477380Y-65954380D01*
X134477380Y-66097238D01*
X134525000Y-66240095D01*
X134620238Y-66335333D01*
X134715476Y-66382952D01*
X134905952Y-66430571D01*
X135048809Y-66430571D01*
X135239285Y-66382952D01*
X135334523Y-66335333D01*
X135429761Y-66240095D01*
X135477380Y-66097238D01*
X135477380Y-66002000D01*
X135429761Y-65859142D01*
X135382142Y-65811523D01*
X135048809Y-65811523D01*
X135048809Y-66002000D01*
X135477380Y-65382952D02*
X134810714Y-65382952D01*
X135001190Y-65382952D02*
X134905952Y-65335333D01*
X134858333Y-65287714D01*
X134810714Y-65192476D01*
X134810714Y-65097238D01*
X135477380Y-64621047D02*
X135429761Y-64716285D01*
X135382142Y-64763904D01*
X135286904Y-64811523D01*
X135001190Y-64811523D01*
X134905952Y-64763904D01*
X134858333Y-64716285D01*
X134810714Y-64621047D01*
X134810714Y-64478190D01*
X134858333Y-64382952D01*
X134905952Y-64335333D01*
X135001190Y-64287714D01*
X135286904Y-64287714D01*
X135382142Y-64335333D01*
X135429761Y-64382952D01*
X135477380Y-64478190D01*
X135477380Y-64621047D01*
X134810714Y-63430571D02*
X135477380Y-63430571D01*
X134810714Y-63859142D02*
X135334523Y-63859142D01*
X135429761Y-63811523D01*
X135477380Y-63716285D01*
X135477380Y-63573428D01*
X135429761Y-63478190D01*
X135382142Y-63430571D01*
X134810714Y-62954380D02*
X135477380Y-62954380D01*
X134905952Y-62954380D02*
X134858333Y-62906761D01*
X134810714Y-62811523D01*
X134810714Y-62668666D01*
X134858333Y-62573428D01*
X134953571Y-62525809D01*
X135477380Y-62525809D01*
X135477380Y-61621047D02*
X134477380Y-61621047D01*
X135429761Y-61621047D02*
X135477380Y-61716285D01*
X135477380Y-61906761D01*
X135429761Y-62002000D01*
X135382142Y-62049619D01*
X135286904Y-62097238D01*
X135001190Y-62097238D01*
X134905952Y-62049619D01*
X134858333Y-62002000D01*
X134810714Y-61906761D01*
X134810714Y-61716285D01*
X134858333Y-61621047D01*
X134477380Y-71748857D02*
X134477380Y-71653619D01*
X134525000Y-71558380D01*
X134572619Y-71510761D01*
X134667857Y-71463142D01*
X134858333Y-71415523D01*
X135096428Y-71415523D01*
X135286904Y-71463142D01*
X135382142Y-71510761D01*
X135429761Y-71558380D01*
X135477380Y-71653619D01*
X135477380Y-71748857D01*
X135429761Y-71844095D01*
X135382142Y-71891714D01*
X135286904Y-71939333D01*
X135096428Y-71986952D01*
X134858333Y-71986952D01*
X134667857Y-71939333D01*
X134572619Y-71891714D01*
X134525000Y-71844095D01*
X134477380Y-71748857D01*
X135096428Y-70986952D02*
X135096428Y-70225047D01*
X134810714Y-69320285D02*
X135477380Y-69320285D01*
X134429761Y-69558380D02*
X135144047Y-69796476D01*
X135144047Y-69177428D01*
X127810714Y-70160714D02*
X128477380Y-70160714D01*
X127429761Y-70398809D02*
X128144047Y-70636904D01*
X128144047Y-70017857D01*
X127477380Y-69446428D02*
X127477380Y-69351190D01*
X127525000Y-69255952D01*
X127572619Y-69208333D01*
X127667857Y-69160714D01*
X127858333Y-69113095D01*
X128096428Y-69113095D01*
X128286904Y-69160714D01*
X128382142Y-69208333D01*
X128429761Y-69255952D01*
X128477380Y-69351190D01*
X128477380Y-69446428D01*
X128429761Y-69541666D01*
X128382142Y-69589285D01*
X128286904Y-69636904D01*
X128096428Y-69684523D01*
X127858333Y-69684523D01*
X127667857Y-69636904D01*
X127572619Y-69589285D01*
X127525000Y-69541666D01*
X127477380Y-69446428D01*
X68442857Y-63354761D02*
X68585714Y-63402380D01*
X68823809Y-63402380D01*
X68919047Y-63354761D01*
X68966666Y-63307142D01*
X69014285Y-63211904D01*
X69014285Y-63116666D01*
X68966666Y-63021428D01*
X68919047Y-62973809D01*
X68823809Y-62926190D01*
X68633333Y-62878571D01*
X68538095Y-62830952D01*
X68490476Y-62783333D01*
X68442857Y-62688095D01*
X68442857Y-62592857D01*
X68490476Y-62497619D01*
X68538095Y-62450000D01*
X68633333Y-62402380D01*
X68871428Y-62402380D01*
X69014285Y-62450000D01*
X69347619Y-62402380D02*
X69585714Y-63402380D01*
X69776190Y-62688095D01*
X69966666Y-63402380D01*
X70204761Y-62402380D01*
X70585714Y-63402380D02*
X70585714Y-62402380D01*
X70823809Y-62402380D01*
X70966666Y-62450000D01*
X71061904Y-62545238D01*
X71109523Y-62640476D01*
X71157142Y-62830952D01*
X71157142Y-62973809D01*
X71109523Y-63164285D01*
X71061904Y-63259523D01*
X70966666Y-63354761D01*
X70823809Y-63402380D01*
X70585714Y-63402380D01*
X79123809Y-97593380D02*
X79123809Y-96593380D01*
X79504761Y-96593380D01*
X79600000Y-96641000D01*
X79647619Y-96688619D01*
X79695238Y-96783857D01*
X79695238Y-96926714D01*
X79647619Y-97021952D01*
X79600000Y-97069571D01*
X79504761Y-97117190D01*
X79123809Y-97117190D01*
X80266666Y-97593380D02*
X80171428Y-97545761D01*
X80123809Y-97498142D01*
X80076190Y-97402904D01*
X80076190Y-97117190D01*
X80123809Y-97021952D01*
X80171428Y-96974333D01*
X80266666Y-96926714D01*
X80409523Y-96926714D01*
X80504761Y-96974333D01*
X80552380Y-97021952D01*
X80600000Y-97117190D01*
X80600000Y-97402904D01*
X80552380Y-97498142D01*
X80504761Y-97545761D01*
X80409523Y-97593380D01*
X80266666Y-97593380D01*
X80933333Y-96926714D02*
X81123809Y-97593380D01*
X81314285Y-97117190D01*
X81504761Y-97593380D01*
X81695238Y-96926714D01*
X82457142Y-97545761D02*
X82361904Y-97593380D01*
X82171428Y-97593380D01*
X82076190Y-97545761D01*
X82028571Y-97450523D01*
X82028571Y-97069571D01*
X82076190Y-96974333D01*
X82171428Y-96926714D01*
X82361904Y-96926714D01*
X82457142Y-96974333D01*
X82504761Y-97069571D01*
X82504761Y-97164809D01*
X82028571Y-97260047D01*
X82933333Y-97593380D02*
X82933333Y-96926714D01*
X82933333Y-97117190D02*
X82980952Y-97021952D01*
X83028571Y-96974333D01*
X83123809Y-96926714D01*
X83219047Y-96926714D01*
X134477380Y-84671142D02*
X134477380Y-85147333D01*
X134953571Y-85194952D01*
X134905952Y-85147333D01*
X134858333Y-85052095D01*
X134858333Y-84814000D01*
X134905952Y-84718761D01*
X134953571Y-84671142D01*
X135048809Y-84623523D01*
X135286904Y-84623523D01*
X135382142Y-84671142D01*
X135429761Y-84718761D01*
X135477380Y-84814000D01*
X135477380Y-85052095D01*
X135429761Y-85147333D01*
X135382142Y-85194952D01*
X135096428Y-84194952D02*
X135096428Y-83433047D01*
X134905952Y-82814000D02*
X134858333Y-82909238D01*
X134810714Y-82956857D01*
X134715476Y-83004476D01*
X134667857Y-83004476D01*
X134572619Y-82956857D01*
X134525000Y-82909238D01*
X134477380Y-82814000D01*
X134477380Y-82623523D01*
X134525000Y-82528285D01*
X134572619Y-82480666D01*
X134667857Y-82433047D01*
X134715476Y-82433047D01*
X134810714Y-82480666D01*
X134858333Y-82528285D01*
X134905952Y-82623523D01*
X134905952Y-82814000D01*
X134953571Y-82909238D01*
X135001190Y-82956857D01*
X135096428Y-83004476D01*
X135286904Y-83004476D01*
X135382142Y-82956857D01*
X135429761Y-82909238D01*
X135477380Y-82814000D01*
X135477380Y-82623523D01*
X135429761Y-82528285D01*
X135382142Y-82480666D01*
X135286904Y-82433047D01*
X135096428Y-82433047D01*
X135001190Y-82480666D01*
X134953571Y-82528285D01*
X134905952Y-82623523D01*
X134525000Y-90751142D02*
X134477380Y-90846380D01*
X134477380Y-90989238D01*
X134525000Y-91132095D01*
X134620238Y-91227333D01*
X134715476Y-91274952D01*
X134905952Y-91322571D01*
X135048809Y-91322571D01*
X135239285Y-91274952D01*
X135334523Y-91227333D01*
X135429761Y-91132095D01*
X135477380Y-90989238D01*
X135477380Y-90894000D01*
X135429761Y-90751142D01*
X135382142Y-90703523D01*
X135048809Y-90703523D01*
X135048809Y-90894000D01*
X135477380Y-90274952D02*
X134810714Y-90274952D01*
X135001190Y-90274952D02*
X134905952Y-90227333D01*
X134858333Y-90179714D01*
X134810714Y-90084476D01*
X134810714Y-89989238D01*
X135477380Y-89513047D02*
X135429761Y-89608285D01*
X135382142Y-89655904D01*
X135286904Y-89703523D01*
X135001190Y-89703523D01*
X134905952Y-89655904D01*
X134858333Y-89608285D01*
X134810714Y-89513047D01*
X134810714Y-89370190D01*
X134858333Y-89274952D01*
X134905952Y-89227333D01*
X135001190Y-89179714D01*
X135286904Y-89179714D01*
X135382142Y-89227333D01*
X135429761Y-89274952D01*
X135477380Y-89370190D01*
X135477380Y-89513047D01*
X134810714Y-88322571D02*
X135477380Y-88322571D01*
X134810714Y-88751142D02*
X135334523Y-88751142D01*
X135429761Y-88703523D01*
X135477380Y-88608285D01*
X135477380Y-88465428D01*
X135429761Y-88370190D01*
X135382142Y-88322571D01*
X134810714Y-87846380D02*
X135477380Y-87846380D01*
X134905952Y-87846380D02*
X134858333Y-87798761D01*
X134810714Y-87703523D01*
X134810714Y-87560666D01*
X134858333Y-87465428D01*
X134953571Y-87417809D01*
X135477380Y-87417809D01*
X135477380Y-86513047D02*
X134477380Y-86513047D01*
X135429761Y-86513047D02*
X135477380Y-86608285D01*
X135477380Y-86798761D01*
X135429761Y-86894000D01*
X135382142Y-86941619D01*
X135286904Y-86989238D01*
X135001190Y-86989238D01*
X134905952Y-86941619D01*
X134858333Y-86894000D01*
X134810714Y-86798761D01*
X134810714Y-86608285D01*
X134858333Y-86513047D01*
X109302380Y-102422619D02*
X109302380Y-102327380D01*
X109350000Y-102232142D01*
X109397619Y-102184523D01*
X109492857Y-102136904D01*
X109683333Y-102089285D01*
X109921428Y-102089285D01*
X110111904Y-102136904D01*
X110207142Y-102184523D01*
X110254761Y-102232142D01*
X110302380Y-102327380D01*
X110302380Y-102422619D01*
X110254761Y-102517857D01*
X110207142Y-102565476D01*
X110111904Y-102613095D01*
X109921428Y-102660714D01*
X109683333Y-102660714D01*
X109492857Y-102613095D01*
X109397619Y-102565476D01*
X109350000Y-102517857D01*
X109302380Y-102422619D01*
D11*
X70013580Y-99364609D02*
X71013580Y-99031276D01*
X70013580Y-98697942D01*
X71013580Y-97840800D02*
X71013580Y-98412228D01*
X71013580Y-98126514D02*
X70013580Y-98126514D01*
X70156438Y-98221752D01*
X70251676Y-98316990D01*
X70299295Y-98412228D01*
X70918342Y-97412228D02*
X70965961Y-97364609D01*
X71013580Y-97412228D01*
X70965961Y-97459847D01*
X70918342Y-97412228D01*
X71013580Y-97412228D01*
X70013580Y-96745561D02*
X70013580Y-96650323D01*
X70061200Y-96555085D01*
X70108819Y-96507466D01*
X70204057Y-96459847D01*
X70394533Y-96412228D01*
X70632628Y-96412228D01*
X70823104Y-96459847D01*
X70918342Y-96507466D01*
X70965961Y-96555085D01*
X71013580Y-96650323D01*
X71013580Y-96745561D01*
X70965961Y-96840800D01*
X70918342Y-96888419D01*
X70823104Y-96936038D01*
X70632628Y-96983657D01*
X70394533Y-96983657D01*
X70204057Y-96936038D01*
X70108819Y-96888419D01*
X70061200Y-96840800D01*
X70013580Y-96745561D01*
D10*
X68185714Y-68102380D02*
X68185714Y-68911904D01*
X68233333Y-69007142D01*
X68280952Y-69054761D01*
X68376190Y-69102380D01*
X68566666Y-69102380D01*
X68661904Y-69054761D01*
X68709523Y-69007142D01*
X68757142Y-68911904D01*
X68757142Y-68102380D01*
X69185714Y-69054761D02*
X69328571Y-69102380D01*
X69566666Y-69102380D01*
X69661904Y-69054761D01*
X69709523Y-69007142D01*
X69757142Y-68911904D01*
X69757142Y-68816666D01*
X69709523Y-68721428D01*
X69661904Y-68673809D01*
X69566666Y-68626190D01*
X69376190Y-68578571D01*
X69280952Y-68530952D01*
X69233333Y-68483333D01*
X69185714Y-68388095D01*
X69185714Y-68292857D01*
X69233333Y-68197619D01*
X69280952Y-68150000D01*
X69376190Y-68102380D01*
X69614285Y-68102380D01*
X69757142Y-68150000D01*
X70185714Y-68578571D02*
X70519047Y-68578571D01*
X70661904Y-69102380D02*
X70185714Y-69102380D01*
X70185714Y-68102380D01*
X70661904Y-68102380D01*
X71661904Y-69102380D02*
X71328571Y-68626190D01*
X71090476Y-69102380D02*
X71090476Y-68102380D01*
X71471428Y-68102380D01*
X71566666Y-68150000D01*
X71614285Y-68197619D01*
X71661904Y-68292857D01*
X71661904Y-68435714D01*
X71614285Y-68530952D01*
X71566666Y-68578571D01*
X71471428Y-68626190D01*
X71090476Y-68626190D01*
X99253571Y-78307142D02*
X99205952Y-78354761D01*
X99063095Y-78402380D01*
X98967857Y-78402380D01*
X98825000Y-78354761D01*
X98729761Y-78259523D01*
X98682142Y-78164285D01*
X98634523Y-77973809D01*
X98634523Y-77830952D01*
X98682142Y-77640476D01*
X98729761Y-77545238D01*
X98825000Y-77450000D01*
X98967857Y-77402380D01*
X99063095Y-77402380D01*
X99205952Y-77450000D01*
X99253571Y-77497619D01*
X99682142Y-78402380D02*
X99682142Y-77735714D01*
X99682142Y-77926190D02*
X99729761Y-77830952D01*
X99777380Y-77783333D01*
X99872619Y-77735714D01*
X99967857Y-77735714D01*
X100205952Y-77735714D02*
X100444047Y-78402380D01*
X100682142Y-77735714D02*
X100444047Y-78402380D01*
X100348809Y-78640476D01*
X100301190Y-78688095D01*
X100205952Y-78735714D01*
X101063095Y-77735714D02*
X101063095Y-78735714D01*
X101063095Y-77783333D02*
X101158333Y-77735714D01*
X101348809Y-77735714D01*
X101444047Y-77783333D01*
X101491666Y-77830952D01*
X101539285Y-77926190D01*
X101539285Y-78211904D01*
X101491666Y-78307142D01*
X101444047Y-78354761D01*
X101348809Y-78402380D01*
X101158333Y-78402380D01*
X101063095Y-78354761D01*
X101825000Y-77735714D02*
X102205952Y-77735714D01*
X101967857Y-77402380D02*
X101967857Y-78259523D01*
X102015476Y-78354761D01*
X102110714Y-78402380D01*
X102205952Y-78402380D01*
X102682142Y-78402380D02*
X102586904Y-78354761D01*
X102539285Y-78307142D01*
X102491666Y-78211904D01*
X102491666Y-77926190D01*
X102539285Y-77830952D01*
X102586904Y-77783333D01*
X102682142Y-77735714D01*
X102825000Y-77735714D01*
X102920238Y-77783333D01*
X102967857Y-77830952D01*
X103015476Y-77926190D01*
X103015476Y-78211904D01*
X102967857Y-78307142D01*
X102920238Y-78354761D01*
X102825000Y-78402380D01*
X102682142Y-78402380D01*
X71177380Y-89747619D02*
X71177380Y-89557142D01*
X71225000Y-89461904D01*
X71320238Y-89366666D01*
X71510714Y-89319047D01*
X71844047Y-89319047D01*
X72034523Y-89366666D01*
X72129761Y-89461904D01*
X72177380Y-89557142D01*
X72177380Y-89747619D01*
X72129761Y-89842857D01*
X72034523Y-89938095D01*
X71844047Y-89985714D01*
X71510714Y-89985714D01*
X71320238Y-89938095D01*
X71225000Y-89842857D01*
X71177380Y-89747619D01*
X71510714Y-88890476D02*
X72177380Y-88890476D01*
X71605952Y-88890476D02*
X71558333Y-88842857D01*
X71510714Y-88747619D01*
X71510714Y-88604761D01*
X71558333Y-88509523D01*
X71653571Y-88461904D01*
X72177380Y-88461904D01*
X104521428Y-100102380D02*
X104521428Y-100911904D01*
X104569047Y-101007142D01*
X104616666Y-101054761D01*
X104711904Y-101102380D01*
X104902380Y-101102380D01*
X104997619Y-101054761D01*
X105045238Y-101007142D01*
X105092857Y-100911904D01*
X105092857Y-100102380D01*
X105521428Y-101054761D02*
X105616666Y-101102380D01*
X105807142Y-101102380D01*
X105902380Y-101054761D01*
X105950000Y-100959523D01*
X105950000Y-100911904D01*
X105902380Y-100816666D01*
X105807142Y-100769047D01*
X105664285Y-100769047D01*
X105569047Y-100721428D01*
X105521428Y-100626190D01*
X105521428Y-100578571D01*
X105569047Y-100483333D01*
X105664285Y-100435714D01*
X105807142Y-100435714D01*
X105902380Y-100483333D01*
X106759523Y-101054761D02*
X106664285Y-101102380D01*
X106473809Y-101102380D01*
X106378571Y-101054761D01*
X106330952Y-100959523D01*
X106330952Y-100578571D01*
X106378571Y-100483333D01*
X106473809Y-100435714D01*
X106664285Y-100435714D01*
X106759523Y-100483333D01*
X106807142Y-100578571D01*
X106807142Y-100673809D01*
X106330952Y-100769047D01*
X107235714Y-101102380D02*
X107235714Y-100435714D01*
X107235714Y-100626190D02*
X107283333Y-100530952D01*
X107330952Y-100483333D01*
X107426190Y-100435714D01*
X107521428Y-100435714D01*
X135477380Y-96751904D02*
X135477380Y-96561428D01*
X135429761Y-96466190D01*
X135382142Y-96418571D01*
X135239285Y-96323333D01*
X135048809Y-96275714D01*
X134667857Y-96275714D01*
X134572619Y-96323333D01*
X134525000Y-96370952D01*
X134477380Y-96466190D01*
X134477380Y-96656666D01*
X134525000Y-96751904D01*
X134572619Y-96799523D01*
X134667857Y-96847142D01*
X134905952Y-96847142D01*
X135001190Y-96799523D01*
X135048809Y-96751904D01*
X135096428Y-96656666D01*
X135096428Y-96466190D01*
X135048809Y-96370952D01*
X135001190Y-96323333D01*
X134905952Y-96275714D01*
X135096428Y-95847142D02*
X135096428Y-95085238D01*
X135477380Y-94085238D02*
X135477380Y-94656666D01*
X135477380Y-94370952D02*
X134477380Y-94370952D01*
X134620238Y-94466190D01*
X134715476Y-94561428D01*
X134763095Y-94656666D01*
X134572619Y-93704285D02*
X134525000Y-93656666D01*
X134477380Y-93561428D01*
X134477380Y-93323333D01*
X134525000Y-93228095D01*
X134572619Y-93180476D01*
X134667857Y-93132857D01*
X134763095Y-93132857D01*
X134905952Y-93180476D01*
X135477380Y-93751904D01*
X135477380Y-93132857D01*
X134644047Y-104066428D02*
X135405952Y-104066428D01*
X135025000Y-104447380D02*
X135025000Y-103685476D01*
X134644047Y-105676428D02*
X135405952Y-105676428D01*
X80972761Y-78269380D02*
X80639428Y-77793190D01*
X80401333Y-78269380D02*
X80401333Y-77269380D01*
X80782285Y-77269380D01*
X80877523Y-77317000D01*
X80925142Y-77364619D01*
X80972761Y-77459857D01*
X80972761Y-77602714D01*
X80925142Y-77697952D01*
X80877523Y-77745571D01*
X80782285Y-77793190D01*
X80401333Y-77793190D01*
X81401333Y-78269380D02*
X81401333Y-77269380D01*
X81782285Y-77269380D01*
X81877523Y-77317000D01*
X81925142Y-77364619D01*
X81972761Y-77459857D01*
X81972761Y-77602714D01*
X81925142Y-77697952D01*
X81877523Y-77745571D01*
X81782285Y-77793190D01*
X81401333Y-77793190D01*
X82353714Y-77364619D02*
X82401333Y-77317000D01*
X82496571Y-77269380D01*
X82734666Y-77269380D01*
X82829904Y-77317000D01*
X82877523Y-77364619D01*
X82925142Y-77459857D01*
X82925142Y-77555095D01*
X82877523Y-77697952D01*
X82306095Y-78269380D01*
X82925142Y-78269380D01*
X83544190Y-77269380D02*
X83639428Y-77269380D01*
X83734666Y-77317000D01*
X83782285Y-77364619D01*
X83829904Y-77459857D01*
X83877523Y-77650333D01*
X83877523Y-77888428D01*
X83829904Y-78078904D01*
X83782285Y-78174142D01*
X83734666Y-78221761D01*
X83639428Y-78269380D01*
X83544190Y-78269380D01*
X83448952Y-78221761D01*
X83401333Y-78174142D01*
X83353714Y-78078904D01*
X83306095Y-77888428D01*
X83306095Y-77650333D01*
X83353714Y-77459857D01*
X83401333Y-77364619D01*
X83448952Y-77317000D01*
X83544190Y-77269380D01*
X84734666Y-77602714D02*
X84734666Y-78269380D01*
X84496571Y-77221761D02*
X84258476Y-77936047D01*
X84877523Y-77936047D01*
X85448952Y-77269380D02*
X85544190Y-77269380D01*
X85639428Y-77317000D01*
X85687047Y-77364619D01*
X85734666Y-77459857D01*
X85782285Y-77650333D01*
X85782285Y-77888428D01*
X85734666Y-78078904D01*
X85687047Y-78174142D01*
X85639428Y-78221761D01*
X85544190Y-78269380D01*
X85448952Y-78269380D01*
X85353714Y-78221761D01*
X85306095Y-78174142D01*
X85258476Y-78078904D01*
X85210857Y-77888428D01*
X85210857Y-77650333D01*
X85258476Y-77459857D01*
X85306095Y-77364619D01*
X85353714Y-77317000D01*
X85448952Y-77269380D01*
X134477380Y-103128095D02*
X134477380Y-102509047D01*
X134858333Y-102842380D01*
X134858333Y-102699523D01*
X134905952Y-102604285D01*
X134953571Y-102556666D01*
X135048809Y-102509047D01*
X135286904Y-102509047D01*
X135382142Y-102556666D01*
X135429761Y-102604285D01*
X135477380Y-102699523D01*
X135477380Y-102985238D01*
X135429761Y-103080476D01*
X135382142Y-103128095D01*
X134477380Y-102223333D02*
X135477380Y-101890000D01*
X134477380Y-101556666D01*
X134477380Y-101318571D02*
X134477380Y-100699523D01*
X134858333Y-101032857D01*
X134858333Y-100890000D01*
X134905952Y-100794761D01*
X134953571Y-100747142D01*
X135048809Y-100699523D01*
X135286904Y-100699523D01*
X135382142Y-100747142D01*
X135429761Y-100794761D01*
X135477380Y-100890000D01*
X135477380Y-101175714D01*
X135429761Y-101270952D01*
X135382142Y-101318571D01*
X134477380Y-79972095D02*
X134477380Y-79353047D01*
X134858333Y-79686380D01*
X134858333Y-79543523D01*
X134905952Y-79448285D01*
X134953571Y-79400666D01*
X135048809Y-79353047D01*
X135286904Y-79353047D01*
X135382142Y-79400666D01*
X135429761Y-79448285D01*
X135477380Y-79543523D01*
X135477380Y-79829238D01*
X135429761Y-79924476D01*
X135382142Y-79972095D01*
X134477380Y-79067333D02*
X135477380Y-78734000D01*
X134477380Y-78400666D01*
X134477380Y-78162571D02*
X134477380Y-77543523D01*
X134858333Y-77876857D01*
X134858333Y-77734000D01*
X134905952Y-77638761D01*
X134953571Y-77591142D01*
X135048809Y-77543523D01*
X135286904Y-77543523D01*
X135382142Y-77591142D01*
X135429761Y-77638761D01*
X135477380Y-77734000D01*
X135477380Y-78019714D01*
X135429761Y-78114952D01*
X135382142Y-78162571D01*
X134477380Y-110461904D02*
X135286904Y-110461904D01*
X135382142Y-110414285D01*
X135429761Y-110366666D01*
X135477380Y-110271428D01*
X135477380Y-110080952D01*
X135429761Y-109985714D01*
X135382142Y-109938095D01*
X135286904Y-109890476D01*
X134477380Y-109890476D01*
X135429761Y-109461904D02*
X135477380Y-109319047D01*
X135477380Y-109080952D01*
X135429761Y-108985714D01*
X135382142Y-108938095D01*
X135286904Y-108890476D01*
X135191666Y-108890476D01*
X135096428Y-108938095D01*
X135048809Y-108985714D01*
X135001190Y-109080952D01*
X134953571Y-109271428D01*
X134905952Y-109366666D01*
X134858333Y-109414285D01*
X134763095Y-109461904D01*
X134667857Y-109461904D01*
X134572619Y-109414285D01*
X134525000Y-109366666D01*
X134477380Y-109271428D01*
X134477380Y-109033333D01*
X134525000Y-108890476D01*
X134953571Y-108128571D02*
X135001190Y-107985714D01*
X135048809Y-107938095D01*
X135144047Y-107890476D01*
X135286904Y-107890476D01*
X135382142Y-107938095D01*
X135429761Y-107985714D01*
X135477380Y-108080952D01*
X135477380Y-108461904D01*
X134477380Y-108461904D01*
X134477380Y-108128571D01*
X134525000Y-108033333D01*
X134572619Y-107985714D01*
X134667857Y-107938095D01*
X134763095Y-107938095D01*
X134858333Y-107985714D01*
X134905952Y-108033333D01*
X134953571Y-108128571D01*
X134953571Y-108461904D01*
X109202380Y-111508333D02*
X108726190Y-111841666D01*
X109202380Y-112079761D02*
X108202380Y-112079761D01*
X108202380Y-111698809D01*
X108250000Y-111603571D01*
X108297619Y-111555952D01*
X108392857Y-111508333D01*
X108535714Y-111508333D01*
X108630952Y-111555952D01*
X108678571Y-111603571D01*
X108726190Y-111698809D01*
X108726190Y-112079761D01*
X108250000Y-110555952D02*
X108202380Y-110651190D01*
X108202380Y-110794047D01*
X108250000Y-110936904D01*
X108345238Y-111032142D01*
X108440476Y-111079761D01*
X108630952Y-111127380D01*
X108773809Y-111127380D01*
X108964285Y-111079761D01*
X109059523Y-111032142D01*
X109154761Y-110936904D01*
X109202380Y-110794047D01*
X109202380Y-110698809D01*
X109154761Y-110555952D01*
X109107142Y-110508333D01*
X108773809Y-110508333D01*
X108773809Y-110698809D01*
X108678571Y-109746428D02*
X108726190Y-109603571D01*
X108773809Y-109555952D01*
X108869047Y-109508333D01*
X109011904Y-109508333D01*
X109107142Y-109555952D01*
X109154761Y-109603571D01*
X109202380Y-109698809D01*
X109202380Y-110079761D01*
X108202380Y-110079761D01*
X108202380Y-109746428D01*
X108250000Y-109651190D01*
X108297619Y-109603571D01*
X108392857Y-109555952D01*
X108488095Y-109555952D01*
X108583333Y-109603571D01*
X108630952Y-109651190D01*
X108678571Y-109746428D01*
X108678571Y-110079761D01*
X109202380Y-108317857D02*
X108202380Y-108317857D01*
X108916666Y-107984523D01*
X108202380Y-107651190D01*
X109202380Y-107651190D01*
X109202380Y-106746428D02*
X108678571Y-106746428D01*
X108583333Y-106794047D01*
X108535714Y-106889285D01*
X108535714Y-107079761D01*
X108583333Y-107175000D01*
X109154761Y-106746428D02*
X109202380Y-106841666D01*
X109202380Y-107079761D01*
X109154761Y-107175000D01*
X109059523Y-107222619D01*
X108964285Y-107222619D01*
X108869047Y-107175000D01*
X108821428Y-107079761D01*
X108821428Y-106841666D01*
X108773809Y-106746428D01*
X108535714Y-106413095D02*
X108535714Y-106032142D01*
X108202380Y-106270238D02*
X109059523Y-106270238D01*
X109154761Y-106222619D01*
X109202380Y-106127380D01*
X109202380Y-106032142D01*
X109202380Y-105698809D02*
X108535714Y-105698809D01*
X108726190Y-105698809D02*
X108630952Y-105651190D01*
X108583333Y-105603571D01*
X108535714Y-105508333D01*
X108535714Y-105413095D01*
X109202380Y-105079761D02*
X108535714Y-105079761D01*
X108202380Y-105079761D02*
X108250000Y-105127380D01*
X108297619Y-105079761D01*
X108250000Y-105032142D01*
X108202380Y-105079761D01*
X108297619Y-105079761D01*
X109202380Y-104698809D02*
X108535714Y-104175000D01*
X108535714Y-104698809D02*
X109202380Y-104175000D01*
D11*
X69013580Y-101507466D02*
X68013580Y-101507466D01*
X68013580Y-101269371D01*
X68061200Y-101126514D01*
X68156438Y-101031276D01*
X68251676Y-100983657D01*
X68442152Y-100936038D01*
X68585009Y-100936038D01*
X68775485Y-100983657D01*
X68870723Y-101031276D01*
X68965961Y-101126514D01*
X69013580Y-101269371D01*
X69013580Y-101507466D01*
X69013580Y-100507466D02*
X68013580Y-100507466D01*
X68013580Y-100174133D02*
X69013580Y-99840800D01*
X68013580Y-99507466D01*
X68727866Y-99221752D02*
X68727866Y-98745561D01*
X69013580Y-99316990D02*
X68013580Y-98983657D01*
X69013580Y-98650323D01*
X68918342Y-96983657D02*
X68965961Y-97031276D01*
X69013580Y-97174133D01*
X69013580Y-97269371D01*
X68965961Y-97412228D01*
X68870723Y-97507466D01*
X68775485Y-97555085D01*
X68585009Y-97602704D01*
X68442152Y-97602704D01*
X68251676Y-97555085D01*
X68156438Y-97507466D01*
X68061200Y-97412228D01*
X68013580Y-97269371D01*
X68013580Y-97174133D01*
X68061200Y-97031276D01*
X68108819Y-96983657D01*
X68727866Y-96602704D02*
X68727866Y-96126514D01*
X69013580Y-96697942D02*
X68013580Y-96364609D01*
X69013580Y-96031276D01*
X69013580Y-95126514D02*
X68537390Y-95459847D01*
X69013580Y-95697942D02*
X68013580Y-95697942D01*
X68013580Y-95316990D01*
X68061200Y-95221752D01*
X68108819Y-95174133D01*
X68204057Y-95126514D01*
X68346914Y-95126514D01*
X68442152Y-95174133D01*
X68489771Y-95221752D01*
X68537390Y-95316990D01*
X68537390Y-95697942D01*
X69013580Y-94697942D02*
X68013580Y-94697942D01*
X68013580Y-94459847D01*
X68061200Y-94316990D01*
X68156438Y-94221752D01*
X68251676Y-94174133D01*
X68442152Y-94126514D01*
X68585009Y-94126514D01*
X68775485Y-94174133D01*
X68870723Y-94221752D01*
X68965961Y-94316990D01*
X69013580Y-94459847D01*
X69013580Y-94697942D01*
D10*
%TO.C,SW1*%
X68566666Y-72429761D02*
X68709523Y-72477380D01*
X68947619Y-72477380D01*
X69042857Y-72429761D01*
X69090476Y-72382142D01*
X69138095Y-72286904D01*
X69138095Y-72191666D01*
X69090476Y-72096428D01*
X69042857Y-72048809D01*
X68947619Y-72001190D01*
X68757142Y-71953571D01*
X68661904Y-71905952D01*
X68614285Y-71858333D01*
X68566666Y-71763095D01*
X68566666Y-71667857D01*
X68614285Y-71572619D01*
X68661904Y-71525000D01*
X68757142Y-71477380D01*
X68995238Y-71477380D01*
X69138095Y-71525000D01*
X69471428Y-71477380D02*
X69709523Y-72477380D01*
X69900000Y-71763095D01*
X70090476Y-72477380D01*
X70328571Y-71477380D01*
X71233333Y-72477380D02*
X70661904Y-72477380D01*
X70947619Y-72477380D02*
X70947619Y-71477380D01*
X70852380Y-71620238D01*
X70757142Y-71715476D01*
X70661904Y-71763095D01*
%TO.C,SW2*%
X68516666Y-78579761D02*
X68659523Y-78627380D01*
X68897619Y-78627380D01*
X68992857Y-78579761D01*
X69040476Y-78532142D01*
X69088095Y-78436904D01*
X69088095Y-78341666D01*
X69040476Y-78246428D01*
X68992857Y-78198809D01*
X68897619Y-78151190D01*
X68707142Y-78103571D01*
X68611904Y-78055952D01*
X68564285Y-78008333D01*
X68516666Y-77913095D01*
X68516666Y-77817857D01*
X68564285Y-77722619D01*
X68611904Y-77675000D01*
X68707142Y-77627380D01*
X68945238Y-77627380D01*
X69088095Y-77675000D01*
X69421428Y-77627380D02*
X69659523Y-78627380D01*
X69850000Y-77913095D01*
X70040476Y-78627380D01*
X70278571Y-77627380D01*
X70611904Y-77722619D02*
X70659523Y-77675000D01*
X70754761Y-77627380D01*
X70992857Y-77627380D01*
X71088095Y-77675000D01*
X71135714Y-77722619D01*
X71183333Y-77817857D01*
X71183333Y-77913095D01*
X71135714Y-78055952D01*
X70564285Y-78627380D01*
X71183333Y-78627380D01*
%TO.C,U3*%
X99338095Y-92827380D02*
X99338095Y-93636904D01*
X99385714Y-93732142D01*
X99433333Y-93779761D01*
X99528571Y-93827380D01*
X99719047Y-93827380D01*
X99814285Y-93779761D01*
X99861904Y-93732142D01*
X99909523Y-93636904D01*
X99909523Y-92827380D01*
X100290476Y-92827380D02*
X100909523Y-92827380D01*
X100576190Y-93208333D01*
X100719047Y-93208333D01*
X100814285Y-93255952D01*
X100861904Y-93303571D01*
X100909523Y-93398809D01*
X100909523Y-93636904D01*
X100861904Y-93732142D01*
X100814285Y-93779761D01*
X100719047Y-93827380D01*
X100433333Y-93827380D01*
X100338095Y-93779761D01*
X100290476Y-93732142D01*
%TO.C,U2*%
X107238095Y-81602380D02*
X107238095Y-82411904D01*
X107285714Y-82507142D01*
X107333333Y-82554761D01*
X107428571Y-82602380D01*
X107619047Y-82602380D01*
X107714285Y-82554761D01*
X107761904Y-82507142D01*
X107809523Y-82411904D01*
X107809523Y-81602380D01*
X108238095Y-81697619D02*
X108285714Y-81650000D01*
X108380952Y-81602380D01*
X108619047Y-81602380D01*
X108714285Y-81650000D01*
X108761904Y-81697619D01*
X108809523Y-81792857D01*
X108809523Y-81888095D01*
X108761904Y-82030952D01*
X108190476Y-82602380D01*
X108809523Y-82602380D01*
%TO.C,R5*%
X103058333Y-89952380D02*
X102725000Y-89476190D01*
X102486904Y-89952380D02*
X102486904Y-88952380D01*
X102867857Y-88952380D01*
X102963095Y-89000000D01*
X103010714Y-89047619D01*
X103058333Y-89142857D01*
X103058333Y-89285714D01*
X103010714Y-89380952D01*
X102963095Y-89428571D01*
X102867857Y-89476190D01*
X102486904Y-89476190D01*
X103963095Y-88952380D02*
X103486904Y-88952380D01*
X103439285Y-89428571D01*
X103486904Y-89380952D01*
X103582142Y-89333333D01*
X103820238Y-89333333D01*
X103915476Y-89380952D01*
X103963095Y-89428571D01*
X104010714Y-89523809D01*
X104010714Y-89761904D01*
X103963095Y-89857142D01*
X103915476Y-89904761D01*
X103820238Y-89952380D01*
X103582142Y-89952380D01*
X103486904Y-89904761D01*
X103439285Y-89857142D01*
%TO.C,C2*%
X74508333Y-97507142D02*
X74460714Y-97554761D01*
X74317857Y-97602380D01*
X74222619Y-97602380D01*
X74079761Y-97554761D01*
X73984523Y-97459523D01*
X73936904Y-97364285D01*
X73889285Y-97173809D01*
X73889285Y-97030952D01*
X73936904Y-96840476D01*
X73984523Y-96745238D01*
X74079761Y-96650000D01*
X74222619Y-96602380D01*
X74317857Y-96602380D01*
X74460714Y-96650000D01*
X74508333Y-96697619D01*
X74889285Y-96697619D02*
X74936904Y-96650000D01*
X75032142Y-96602380D01*
X75270238Y-96602380D01*
X75365476Y-96650000D01*
X75413095Y-96697619D01*
X75460714Y-96792857D01*
X75460714Y-96888095D01*
X75413095Y-97030952D01*
X74841666Y-97602380D01*
X75460714Y-97602380D01*
%TO.C,C10*%
X89140742Y-92855257D02*
X89188361Y-92902876D01*
X89235980Y-93045733D01*
X89235980Y-93140971D01*
X89188361Y-93283828D01*
X89093123Y-93379066D01*
X88997885Y-93426685D01*
X88807409Y-93474304D01*
X88664552Y-93474304D01*
X88474076Y-93426685D01*
X88378838Y-93379066D01*
X88283600Y-93283828D01*
X88235980Y-93140971D01*
X88235980Y-93045733D01*
X88283600Y-92902876D01*
X88331219Y-92855257D01*
X89235980Y-91902876D02*
X89235980Y-92474304D01*
X89235980Y-92188590D02*
X88235980Y-92188590D01*
X88378838Y-92283828D01*
X88474076Y-92379066D01*
X88521695Y-92474304D01*
X88235980Y-91283828D02*
X88235980Y-91188590D01*
X88283600Y-91093352D01*
X88331219Y-91045733D01*
X88426457Y-90998114D01*
X88616933Y-90950495D01*
X88855028Y-90950495D01*
X89045504Y-90998114D01*
X89140742Y-91045733D01*
X89188361Y-91093352D01*
X89235980Y-91188590D01*
X89235980Y-91283828D01*
X89188361Y-91379066D01*
X89140742Y-91426685D01*
X89045504Y-91474304D01*
X88855028Y-91521923D01*
X88616933Y-91521923D01*
X88426457Y-91474304D01*
X88331219Y-91426685D01*
X88283600Y-91379066D01*
X88235980Y-91283828D01*
%TO.C,C6*%
X123258333Y-106332142D02*
X123210714Y-106379761D01*
X123067857Y-106427380D01*
X122972619Y-106427380D01*
X122829761Y-106379761D01*
X122734523Y-106284523D01*
X122686904Y-106189285D01*
X122639285Y-105998809D01*
X122639285Y-105855952D01*
X122686904Y-105665476D01*
X122734523Y-105570238D01*
X122829761Y-105475000D01*
X122972619Y-105427380D01*
X123067857Y-105427380D01*
X123210714Y-105475000D01*
X123258333Y-105522619D01*
X124115476Y-105427380D02*
X123925000Y-105427380D01*
X123829761Y-105475000D01*
X123782142Y-105522619D01*
X123686904Y-105665476D01*
X123639285Y-105855952D01*
X123639285Y-106236904D01*
X123686904Y-106332142D01*
X123734523Y-106379761D01*
X123829761Y-106427380D01*
X124020238Y-106427380D01*
X124115476Y-106379761D01*
X124163095Y-106332142D01*
X124210714Y-106236904D01*
X124210714Y-105998809D01*
X124163095Y-105903571D01*
X124115476Y-105855952D01*
X124020238Y-105808333D01*
X123829761Y-105808333D01*
X123734523Y-105855952D01*
X123686904Y-105903571D01*
X123639285Y-105998809D01*
%TO.C,R10*%
X95257142Y-76402380D02*
X94923809Y-75926190D01*
X94685714Y-76402380D02*
X94685714Y-75402380D01*
X95066666Y-75402380D01*
X95161904Y-75450000D01*
X95209523Y-75497619D01*
X95257142Y-75592857D01*
X95257142Y-75735714D01*
X95209523Y-75830952D01*
X95161904Y-75878571D01*
X95066666Y-75926190D01*
X94685714Y-75926190D01*
X96209523Y-76402380D02*
X95638095Y-76402380D01*
X95923809Y-76402380D02*
X95923809Y-75402380D01*
X95828571Y-75545238D01*
X95733333Y-75640476D01*
X95638095Y-75688095D01*
X96828571Y-75402380D02*
X96923809Y-75402380D01*
X97019047Y-75450000D01*
X97066666Y-75497619D01*
X97114285Y-75592857D01*
X97161904Y-75783333D01*
X97161904Y-76021428D01*
X97114285Y-76211904D01*
X97066666Y-76307142D01*
X97019047Y-76354761D01*
X96923809Y-76402380D01*
X96828571Y-76402380D01*
X96733333Y-76354761D01*
X96685714Y-76307142D01*
X96638095Y-76211904D01*
X96590476Y-76021428D01*
X96590476Y-75783333D01*
X96638095Y-75592857D01*
X96685714Y-75497619D01*
X96733333Y-75450000D01*
X96828571Y-75402380D01*
%TO.C,C19*%
X87907142Y-92842857D02*
X87954761Y-92890476D01*
X88002380Y-93033333D01*
X88002380Y-93128571D01*
X87954761Y-93271428D01*
X87859523Y-93366666D01*
X87764285Y-93414285D01*
X87573809Y-93461904D01*
X87430952Y-93461904D01*
X87240476Y-93414285D01*
X87145238Y-93366666D01*
X87050000Y-93271428D01*
X87002380Y-93128571D01*
X87002380Y-93033333D01*
X87050000Y-92890476D01*
X87097619Y-92842857D01*
X88002380Y-91890476D02*
X88002380Y-92461904D01*
X88002380Y-92176190D02*
X87002380Y-92176190D01*
X87145238Y-92271428D01*
X87240476Y-92366666D01*
X87288095Y-92461904D01*
X88002380Y-91414285D02*
X88002380Y-91223809D01*
X87954761Y-91128571D01*
X87907142Y-91080952D01*
X87764285Y-90985714D01*
X87573809Y-90938095D01*
X87192857Y-90938095D01*
X87097619Y-90985714D01*
X87050000Y-91033333D01*
X87002380Y-91128571D01*
X87002380Y-91319047D01*
X87050000Y-91414285D01*
X87097619Y-91461904D01*
X87192857Y-91509523D01*
X87430952Y-91509523D01*
X87526190Y-91461904D01*
X87573809Y-91414285D01*
X87621428Y-91319047D01*
X87621428Y-91128571D01*
X87573809Y-91033333D01*
X87526190Y-90985714D01*
X87430952Y-90938095D01*
%TO.C,C7*%
X126782333Y-106332142D02*
X126734714Y-106379761D01*
X126591857Y-106427380D01*
X126496619Y-106427380D01*
X126353761Y-106379761D01*
X126258523Y-106284523D01*
X126210904Y-106189285D01*
X126163285Y-105998809D01*
X126163285Y-105855952D01*
X126210904Y-105665476D01*
X126258523Y-105570238D01*
X126353761Y-105475000D01*
X126496619Y-105427380D01*
X126591857Y-105427380D01*
X126734714Y-105475000D01*
X126782333Y-105522619D01*
X127115666Y-105427380D02*
X127782333Y-105427380D01*
X127353761Y-106427380D01*
%TO.C,C22*%
X90755942Y-73567142D02*
X90708323Y-73614761D01*
X90565466Y-73662380D01*
X90470228Y-73662380D01*
X90327371Y-73614761D01*
X90232133Y-73519523D01*
X90184514Y-73424285D01*
X90136895Y-73233809D01*
X90136895Y-73090952D01*
X90184514Y-72900476D01*
X90232133Y-72805238D01*
X90327371Y-72710000D01*
X90470228Y-72662380D01*
X90565466Y-72662380D01*
X90708323Y-72710000D01*
X90755942Y-72757619D01*
X91136895Y-72757619D02*
X91184514Y-72710000D01*
X91279752Y-72662380D01*
X91517847Y-72662380D01*
X91613085Y-72710000D01*
X91660704Y-72757619D01*
X91708323Y-72852857D01*
X91708323Y-72948095D01*
X91660704Y-73090952D01*
X91089276Y-73662380D01*
X91708323Y-73662380D01*
X92089276Y-72757619D02*
X92136895Y-72710000D01*
X92232133Y-72662380D01*
X92470228Y-72662380D01*
X92565466Y-72710000D01*
X92613085Y-72757619D01*
X92660704Y-72852857D01*
X92660704Y-72948095D01*
X92613085Y-73090952D01*
X92041657Y-73662380D01*
X92660704Y-73662380D01*
%TO.C,R2*%
X74818333Y-72527380D02*
X74485000Y-72051190D01*
X74246904Y-72527380D02*
X74246904Y-71527380D01*
X74627857Y-71527380D01*
X74723095Y-71575000D01*
X74770714Y-71622619D01*
X74818333Y-71717857D01*
X74818333Y-71860714D01*
X74770714Y-71955952D01*
X74723095Y-72003571D01*
X74627857Y-72051190D01*
X74246904Y-72051190D01*
X75199285Y-71622619D02*
X75246904Y-71575000D01*
X75342142Y-71527380D01*
X75580238Y-71527380D01*
X75675476Y-71575000D01*
X75723095Y-71622619D01*
X75770714Y-71717857D01*
X75770714Y-71813095D01*
X75723095Y-71955952D01*
X75151666Y-72527380D01*
X75770714Y-72527380D01*
%TO.C,C16*%
X96607142Y-89057142D02*
X96559523Y-89104761D01*
X96416666Y-89152380D01*
X96321428Y-89152380D01*
X96178571Y-89104761D01*
X96083333Y-89009523D01*
X96035714Y-88914285D01*
X95988095Y-88723809D01*
X95988095Y-88580952D01*
X96035714Y-88390476D01*
X96083333Y-88295238D01*
X96178571Y-88200000D01*
X96321428Y-88152380D01*
X96416666Y-88152380D01*
X96559523Y-88200000D01*
X96607142Y-88247619D01*
X97559523Y-89152380D02*
X96988095Y-89152380D01*
X97273809Y-89152380D02*
X97273809Y-88152380D01*
X97178571Y-88295238D01*
X97083333Y-88390476D01*
X96988095Y-88438095D01*
X98416666Y-88152380D02*
X98226190Y-88152380D01*
X98130952Y-88200000D01*
X98083333Y-88247619D01*
X97988095Y-88390476D01*
X97940476Y-88580952D01*
X97940476Y-88961904D01*
X97988095Y-89057142D01*
X98035714Y-89104761D01*
X98130952Y-89152380D01*
X98321428Y-89152380D01*
X98416666Y-89104761D01*
X98464285Y-89057142D01*
X98511904Y-88961904D01*
X98511904Y-88723809D01*
X98464285Y-88628571D01*
X98416666Y-88580952D01*
X98321428Y-88533333D01*
X98130952Y-88533333D01*
X98035714Y-88580952D01*
X97988095Y-88628571D01*
X97940476Y-88723809D01*
%TO.C,C13*%
X82837142Y-83232142D02*
X82789523Y-83279761D01*
X82646666Y-83327380D01*
X82551428Y-83327380D01*
X82408571Y-83279761D01*
X82313333Y-83184523D01*
X82265714Y-83089285D01*
X82218095Y-82898809D01*
X82218095Y-82755952D01*
X82265714Y-82565476D01*
X82313333Y-82470238D01*
X82408571Y-82375000D01*
X82551428Y-82327380D01*
X82646666Y-82327380D01*
X82789523Y-82375000D01*
X82837142Y-82422619D01*
X83789523Y-83327380D02*
X83218095Y-83327380D01*
X83503809Y-83327380D02*
X83503809Y-82327380D01*
X83408571Y-82470238D01*
X83313333Y-82565476D01*
X83218095Y-82613095D01*
X84122857Y-82327380D02*
X84741904Y-82327380D01*
X84408571Y-82708333D01*
X84551428Y-82708333D01*
X84646666Y-82755952D01*
X84694285Y-82803571D01*
X84741904Y-82898809D01*
X84741904Y-83136904D01*
X84694285Y-83232142D01*
X84646666Y-83279761D01*
X84551428Y-83327380D01*
X84265714Y-83327380D01*
X84170476Y-83279761D01*
X84122857Y-83232142D01*
%TO.C,C14*%
X91077142Y-78367142D02*
X91029523Y-78414761D01*
X90886666Y-78462380D01*
X90791428Y-78462380D01*
X90648571Y-78414761D01*
X90553333Y-78319523D01*
X90505714Y-78224285D01*
X90458095Y-78033809D01*
X90458095Y-77890952D01*
X90505714Y-77700476D01*
X90553333Y-77605238D01*
X90648571Y-77510000D01*
X90791428Y-77462380D01*
X90886666Y-77462380D01*
X91029523Y-77510000D01*
X91077142Y-77557619D01*
X92029523Y-78462380D02*
X91458095Y-78462380D01*
X91743809Y-78462380D02*
X91743809Y-77462380D01*
X91648571Y-77605238D01*
X91553333Y-77700476D01*
X91458095Y-77748095D01*
X92886666Y-77795714D02*
X92886666Y-78462380D01*
X92648571Y-77414761D02*
X92410476Y-78129047D01*
X93029523Y-78129047D01*
%TO.C,U1*%
X73938095Y-103802380D02*
X73938095Y-104611904D01*
X73985714Y-104707142D01*
X74033333Y-104754761D01*
X74128571Y-104802380D01*
X74319047Y-104802380D01*
X74414285Y-104754761D01*
X74461904Y-104707142D01*
X74509523Y-104611904D01*
X74509523Y-103802380D01*
X75509523Y-104802380D02*
X74938095Y-104802380D01*
X75223809Y-104802380D02*
X75223809Y-103802380D01*
X75128571Y-103945238D01*
X75033333Y-104040476D01*
X74938095Y-104088095D01*
%TO.C,C3*%
X112708333Y-106332142D02*
X112660714Y-106379761D01*
X112517857Y-106427380D01*
X112422619Y-106427380D01*
X112279761Y-106379761D01*
X112184523Y-106284523D01*
X112136904Y-106189285D01*
X112089285Y-105998809D01*
X112089285Y-105855952D01*
X112136904Y-105665476D01*
X112184523Y-105570238D01*
X112279761Y-105475000D01*
X112422619Y-105427380D01*
X112517857Y-105427380D01*
X112660714Y-105475000D01*
X112708333Y-105522619D01*
X113041666Y-105427380D02*
X113660714Y-105427380D01*
X113327380Y-105808333D01*
X113470238Y-105808333D01*
X113565476Y-105855952D01*
X113613095Y-105903571D01*
X113660714Y-105998809D01*
X113660714Y-106236904D01*
X113613095Y-106332142D01*
X113565476Y-106379761D01*
X113470238Y-106427380D01*
X113184523Y-106427380D01*
X113089285Y-106379761D01*
X113041666Y-106332142D01*
%TO.C,R7*%
X91629980Y-94480266D02*
X91153790Y-94813600D01*
X91629980Y-95051695D02*
X90629980Y-95051695D01*
X90629980Y-94670742D01*
X90677600Y-94575504D01*
X90725219Y-94527885D01*
X90820457Y-94480266D01*
X90963314Y-94480266D01*
X91058552Y-94527885D01*
X91106171Y-94575504D01*
X91153790Y-94670742D01*
X91153790Y-95051695D01*
X90629980Y-94146933D02*
X90629980Y-93480266D01*
X91629980Y-93908838D01*
%TO.C,C4*%
X116233333Y-106332142D02*
X116185714Y-106379761D01*
X116042857Y-106427380D01*
X115947619Y-106427380D01*
X115804761Y-106379761D01*
X115709523Y-106284523D01*
X115661904Y-106189285D01*
X115614285Y-105998809D01*
X115614285Y-105855952D01*
X115661904Y-105665476D01*
X115709523Y-105570238D01*
X115804761Y-105475000D01*
X115947619Y-105427380D01*
X116042857Y-105427380D01*
X116185714Y-105475000D01*
X116233333Y-105522619D01*
X117090476Y-105760714D02*
X117090476Y-106427380D01*
X116852380Y-105379761D02*
X116614285Y-106094047D01*
X117233333Y-106094047D01*
%TO.C,C1*%
X70957733Y-102389142D02*
X70910114Y-102436761D01*
X70767257Y-102484380D01*
X70672019Y-102484380D01*
X70529161Y-102436761D01*
X70433923Y-102341523D01*
X70386304Y-102246285D01*
X70338685Y-102055809D01*
X70338685Y-101912952D01*
X70386304Y-101722476D01*
X70433923Y-101627238D01*
X70529161Y-101532000D01*
X70672019Y-101484380D01*
X70767257Y-101484380D01*
X70910114Y-101532000D01*
X70957733Y-101579619D01*
X71910114Y-102484380D02*
X71338685Y-102484380D01*
X71624400Y-102484380D02*
X71624400Y-101484380D01*
X71529161Y-101627238D01*
X71433923Y-101722476D01*
X71338685Y-101770095D01*
%TO.C,C21*%
X97957142Y-74437142D02*
X97909523Y-74484761D01*
X97766666Y-74532380D01*
X97671428Y-74532380D01*
X97528571Y-74484761D01*
X97433333Y-74389523D01*
X97385714Y-74294285D01*
X97338095Y-74103809D01*
X97338095Y-73960952D01*
X97385714Y-73770476D01*
X97433333Y-73675238D01*
X97528571Y-73580000D01*
X97671428Y-73532380D01*
X97766666Y-73532380D01*
X97909523Y-73580000D01*
X97957142Y-73627619D01*
X98338095Y-73627619D02*
X98385714Y-73580000D01*
X98480952Y-73532380D01*
X98719047Y-73532380D01*
X98814285Y-73580000D01*
X98861904Y-73627619D01*
X98909523Y-73722857D01*
X98909523Y-73818095D01*
X98861904Y-73960952D01*
X98290476Y-74532380D01*
X98909523Y-74532380D01*
X99861904Y-74532380D02*
X99290476Y-74532380D01*
X99576190Y-74532380D02*
X99576190Y-73532380D01*
X99480952Y-73675238D01*
X99385714Y-73770476D01*
X99290476Y-73818095D01*
%TO.C,U4*%
X91330595Y-88162380D02*
X91330595Y-88971904D01*
X91378214Y-89067142D01*
X91425833Y-89114761D01*
X91521071Y-89162380D01*
X91711547Y-89162380D01*
X91806785Y-89114761D01*
X91854404Y-89067142D01*
X91902023Y-88971904D01*
X91902023Y-88162380D01*
X92806785Y-88495714D02*
X92806785Y-89162380D01*
X92568690Y-88114761D02*
X92330595Y-88829047D01*
X92949642Y-88829047D01*
%TO.C,C20*%
X83707142Y-88057142D02*
X83659523Y-88104761D01*
X83516666Y-88152380D01*
X83421428Y-88152380D01*
X83278571Y-88104761D01*
X83183333Y-88009523D01*
X83135714Y-87914285D01*
X83088095Y-87723809D01*
X83088095Y-87580952D01*
X83135714Y-87390476D01*
X83183333Y-87295238D01*
X83278571Y-87200000D01*
X83421428Y-87152380D01*
X83516666Y-87152380D01*
X83659523Y-87200000D01*
X83707142Y-87247619D01*
X84088095Y-87247619D02*
X84135714Y-87200000D01*
X84230952Y-87152380D01*
X84469047Y-87152380D01*
X84564285Y-87200000D01*
X84611904Y-87247619D01*
X84659523Y-87342857D01*
X84659523Y-87438095D01*
X84611904Y-87580952D01*
X84040476Y-88152380D01*
X84659523Y-88152380D01*
X85278571Y-87152380D02*
X85373809Y-87152380D01*
X85469047Y-87200000D01*
X85516666Y-87247619D01*
X85564285Y-87342857D01*
X85611904Y-87533333D01*
X85611904Y-87771428D01*
X85564285Y-87961904D01*
X85516666Y-88057142D01*
X85469047Y-88104761D01*
X85373809Y-88152380D01*
X85278571Y-88152380D01*
X85183333Y-88104761D01*
X85135714Y-88057142D01*
X85088095Y-87961904D01*
X85040476Y-87771428D01*
X85040476Y-87533333D01*
X85088095Y-87342857D01*
X85135714Y-87247619D01*
X85183333Y-87200000D01*
X85278571Y-87152380D01*
%TO.C,Y1*%
X94539809Y-69563790D02*
X94539809Y-70039980D01*
X94206476Y-69039980D02*
X94539809Y-69563790D01*
X94873142Y-69039980D01*
X95730285Y-70039980D02*
X95158857Y-70039980D01*
X95444571Y-70039980D02*
X95444571Y-69039980D01*
X95349333Y-69182838D01*
X95254095Y-69278076D01*
X95158857Y-69325695D01*
%TO.C,R8*%
X90429980Y-94480266D02*
X89953790Y-94813600D01*
X90429980Y-95051695D02*
X89429980Y-95051695D01*
X89429980Y-94670742D01*
X89477600Y-94575504D01*
X89525219Y-94527885D01*
X89620457Y-94480266D01*
X89763314Y-94480266D01*
X89858552Y-94527885D01*
X89906171Y-94575504D01*
X89953790Y-94670742D01*
X89953790Y-95051695D01*
X89858552Y-93908838D02*
X89810933Y-94004076D01*
X89763314Y-94051695D01*
X89668076Y-94099314D01*
X89620457Y-94099314D01*
X89525219Y-94051695D01*
X89477600Y-94004076D01*
X89429980Y-93908838D01*
X89429980Y-93718361D01*
X89477600Y-93623123D01*
X89525219Y-93575504D01*
X89620457Y-93527885D01*
X89668076Y-93527885D01*
X89763314Y-93575504D01*
X89810933Y-93623123D01*
X89858552Y-93718361D01*
X89858552Y-93908838D01*
X89906171Y-94004076D01*
X89953790Y-94051695D01*
X90049028Y-94099314D01*
X90239504Y-94099314D01*
X90334742Y-94051695D01*
X90382361Y-94004076D01*
X90429980Y-93908838D01*
X90429980Y-93718361D01*
X90382361Y-93623123D01*
X90334742Y-93575504D01*
X90239504Y-93527885D01*
X90049028Y-93527885D01*
X89953790Y-93575504D01*
X89906171Y-93623123D01*
X89858552Y-93718361D01*
%TO.C,R11*%
X80827142Y-101132380D02*
X80493809Y-100656190D01*
X80255714Y-101132380D02*
X80255714Y-100132380D01*
X80636666Y-100132380D01*
X80731904Y-100180000D01*
X80779523Y-100227619D01*
X80827142Y-100322857D01*
X80827142Y-100465714D01*
X80779523Y-100560952D01*
X80731904Y-100608571D01*
X80636666Y-100656190D01*
X80255714Y-100656190D01*
X81779523Y-101132380D02*
X81208095Y-101132380D01*
X81493809Y-101132380D02*
X81493809Y-100132380D01*
X81398571Y-100275238D01*
X81303333Y-100370476D01*
X81208095Y-100418095D01*
X82731904Y-101132380D02*
X82160476Y-101132380D01*
X82446190Y-101132380D02*
X82446190Y-100132380D01*
X82350952Y-100275238D01*
X82255714Y-100370476D01*
X82160476Y-100418095D01*
%TO.C,C17*%
X92477142Y-93857142D02*
X92429523Y-93904761D01*
X92286666Y-93952380D01*
X92191428Y-93952380D01*
X92048571Y-93904761D01*
X91953333Y-93809523D01*
X91905714Y-93714285D01*
X91858095Y-93523809D01*
X91858095Y-93380952D01*
X91905714Y-93190476D01*
X91953333Y-93095238D01*
X92048571Y-93000000D01*
X92191428Y-92952380D01*
X92286666Y-92952380D01*
X92429523Y-93000000D01*
X92477142Y-93047619D01*
X93429523Y-93952380D02*
X92858095Y-93952380D01*
X93143809Y-93952380D02*
X93143809Y-92952380D01*
X93048571Y-93095238D01*
X92953333Y-93190476D01*
X92858095Y-93238095D01*
X93762857Y-92952380D02*
X94429523Y-92952380D01*
X94000952Y-93952380D01*
%TO.C,C11*%
X93607142Y-90447142D02*
X93559523Y-90494761D01*
X93416666Y-90542380D01*
X93321428Y-90542380D01*
X93178571Y-90494761D01*
X93083333Y-90399523D01*
X93035714Y-90304285D01*
X92988095Y-90113809D01*
X92988095Y-89970952D01*
X93035714Y-89780476D01*
X93083333Y-89685238D01*
X93178571Y-89590000D01*
X93321428Y-89542380D01*
X93416666Y-89542380D01*
X93559523Y-89590000D01*
X93607142Y-89637619D01*
X94559523Y-90542380D02*
X93988095Y-90542380D01*
X94273809Y-90542380D02*
X94273809Y-89542380D01*
X94178571Y-89685238D01*
X94083333Y-89780476D01*
X93988095Y-89828095D01*
X95511904Y-90542380D02*
X94940476Y-90542380D01*
X95226190Y-90542380D02*
X95226190Y-89542380D01*
X95130952Y-89685238D01*
X95035714Y-89780476D01*
X94940476Y-89828095D01*
%TO.C,R9*%
X87393333Y-76222380D02*
X87060000Y-75746190D01*
X86821904Y-76222380D02*
X86821904Y-75222380D01*
X87202857Y-75222380D01*
X87298095Y-75270000D01*
X87345714Y-75317619D01*
X87393333Y-75412857D01*
X87393333Y-75555714D01*
X87345714Y-75650952D01*
X87298095Y-75698571D01*
X87202857Y-75746190D01*
X86821904Y-75746190D01*
X87869523Y-76222380D02*
X88060000Y-76222380D01*
X88155238Y-76174761D01*
X88202857Y-76127142D01*
X88298095Y-75984285D01*
X88345714Y-75793809D01*
X88345714Y-75412857D01*
X88298095Y-75317619D01*
X88250476Y-75270000D01*
X88155238Y-75222380D01*
X87964761Y-75222380D01*
X87869523Y-75270000D01*
X87821904Y-75317619D01*
X87774285Y-75412857D01*
X87774285Y-75650952D01*
X87821904Y-75746190D01*
X87869523Y-75793809D01*
X87964761Y-75841428D01*
X88155238Y-75841428D01*
X88250476Y-75793809D01*
X88298095Y-75746190D01*
X88345714Y-75650952D01*
%TO.C,C8*%
X108133333Y-87432142D02*
X108085714Y-87479761D01*
X107942857Y-87527380D01*
X107847619Y-87527380D01*
X107704761Y-87479761D01*
X107609523Y-87384523D01*
X107561904Y-87289285D01*
X107514285Y-87098809D01*
X107514285Y-86955952D01*
X107561904Y-86765476D01*
X107609523Y-86670238D01*
X107704761Y-86575000D01*
X107847619Y-86527380D01*
X107942857Y-86527380D01*
X108085714Y-86575000D01*
X108133333Y-86622619D01*
X108704761Y-86955952D02*
X108609523Y-86908333D01*
X108561904Y-86860714D01*
X108514285Y-86765476D01*
X108514285Y-86717857D01*
X108561904Y-86622619D01*
X108609523Y-86575000D01*
X108704761Y-86527380D01*
X108895238Y-86527380D01*
X108990476Y-86575000D01*
X109038095Y-86622619D01*
X109085714Y-86717857D01*
X109085714Y-86765476D01*
X109038095Y-86860714D01*
X108990476Y-86908333D01*
X108895238Y-86955952D01*
X108704761Y-86955952D01*
X108609523Y-87003571D01*
X108561904Y-87051190D01*
X108514285Y-87146428D01*
X108514285Y-87336904D01*
X108561904Y-87432142D01*
X108609523Y-87479761D01*
X108704761Y-87527380D01*
X108895238Y-87527380D01*
X108990476Y-87479761D01*
X109038095Y-87432142D01*
X109085714Y-87336904D01*
X109085714Y-87146428D01*
X109038095Y-87051190D01*
X108990476Y-87003571D01*
X108895238Y-86955952D01*
%TO.C,C9*%
X96973333Y-91947142D02*
X96925714Y-91994761D01*
X96782857Y-92042380D01*
X96687619Y-92042380D01*
X96544761Y-91994761D01*
X96449523Y-91899523D01*
X96401904Y-91804285D01*
X96354285Y-91613809D01*
X96354285Y-91470952D01*
X96401904Y-91280476D01*
X96449523Y-91185238D01*
X96544761Y-91090000D01*
X96687619Y-91042380D01*
X96782857Y-91042380D01*
X96925714Y-91090000D01*
X96973333Y-91137619D01*
X97449523Y-92042380D02*
X97640000Y-92042380D01*
X97735238Y-91994761D01*
X97782857Y-91947142D01*
X97878095Y-91804285D01*
X97925714Y-91613809D01*
X97925714Y-91232857D01*
X97878095Y-91137619D01*
X97830476Y-91090000D01*
X97735238Y-91042380D01*
X97544761Y-91042380D01*
X97449523Y-91090000D01*
X97401904Y-91137619D01*
X97354285Y-91232857D01*
X97354285Y-91470952D01*
X97401904Y-91566190D01*
X97449523Y-91613809D01*
X97544761Y-91661428D01*
X97735238Y-91661428D01*
X97830476Y-91613809D01*
X97878095Y-91566190D01*
X97925714Y-91470952D01*
%TO.C,R3*%
X104383333Y-87902380D02*
X104050000Y-87426190D01*
X103811904Y-87902380D02*
X103811904Y-86902380D01*
X104192857Y-86902380D01*
X104288095Y-86950000D01*
X104335714Y-86997619D01*
X104383333Y-87092857D01*
X104383333Y-87235714D01*
X104335714Y-87330952D01*
X104288095Y-87378571D01*
X104192857Y-87426190D01*
X103811904Y-87426190D01*
X104716666Y-86902380D02*
X105335714Y-86902380D01*
X105002380Y-87283333D01*
X105145238Y-87283333D01*
X105240476Y-87330952D01*
X105288095Y-87378571D01*
X105335714Y-87473809D01*
X105335714Y-87711904D01*
X105288095Y-87807142D01*
X105240476Y-87854761D01*
X105145238Y-87902380D01*
X104859523Y-87902380D01*
X104764285Y-87854761D01*
X104716666Y-87807142D01*
%TO.C,R6*%
X73702380Y-93911666D02*
X73226190Y-94245000D01*
X73702380Y-94483095D02*
X72702380Y-94483095D01*
X72702380Y-94102142D01*
X72750000Y-94006904D01*
X72797619Y-93959285D01*
X72892857Y-93911666D01*
X73035714Y-93911666D01*
X73130952Y-93959285D01*
X73178571Y-94006904D01*
X73226190Y-94102142D01*
X73226190Y-94483095D01*
X72702380Y-93054523D02*
X72702380Y-93245000D01*
X72750000Y-93340238D01*
X72797619Y-93387857D01*
X72940476Y-93483095D01*
X73130952Y-93530714D01*
X73511904Y-93530714D01*
X73607142Y-93483095D01*
X73654761Y-93435476D01*
X73702380Y-93340238D01*
X73702380Y-93149761D01*
X73654761Y-93054523D01*
X73607142Y-93006904D01*
X73511904Y-92959285D01*
X73273809Y-92959285D01*
X73178571Y-93006904D01*
X73130952Y-93054523D01*
X73083333Y-93149761D01*
X73083333Y-93340238D01*
X73130952Y-93435476D01*
X73178571Y-93483095D01*
X73273809Y-93530714D01*
%TO.C,C12*%
X83682142Y-86857142D02*
X83634523Y-86904761D01*
X83491666Y-86952380D01*
X83396428Y-86952380D01*
X83253571Y-86904761D01*
X83158333Y-86809523D01*
X83110714Y-86714285D01*
X83063095Y-86523809D01*
X83063095Y-86380952D01*
X83110714Y-86190476D01*
X83158333Y-86095238D01*
X83253571Y-86000000D01*
X83396428Y-85952380D01*
X83491666Y-85952380D01*
X83634523Y-86000000D01*
X83682142Y-86047619D01*
X84634523Y-86952380D02*
X84063095Y-86952380D01*
X84348809Y-86952380D02*
X84348809Y-85952380D01*
X84253571Y-86095238D01*
X84158333Y-86190476D01*
X84063095Y-86238095D01*
X85015476Y-86047619D02*
X85063095Y-86000000D01*
X85158333Y-85952380D01*
X85396428Y-85952380D01*
X85491666Y-86000000D01*
X85539285Y-86047619D01*
X85586904Y-86142857D01*
X85586904Y-86238095D01*
X85539285Y-86380952D01*
X84967857Y-86952380D01*
X85586904Y-86952380D01*
%TO.C,R4*%
X105033333Y-97852380D02*
X104700000Y-97376190D01*
X104461904Y-97852380D02*
X104461904Y-96852380D01*
X104842857Y-96852380D01*
X104938095Y-96900000D01*
X104985714Y-96947619D01*
X105033333Y-97042857D01*
X105033333Y-97185714D01*
X104985714Y-97280952D01*
X104938095Y-97328571D01*
X104842857Y-97376190D01*
X104461904Y-97376190D01*
X105890476Y-97185714D02*
X105890476Y-97852380D01*
X105652380Y-96804761D02*
X105414285Y-97519047D01*
X106033333Y-97519047D01*
%TO.C,C15*%
X97407142Y-82007142D02*
X97359523Y-82054761D01*
X97216666Y-82102380D01*
X97121428Y-82102380D01*
X96978571Y-82054761D01*
X96883333Y-81959523D01*
X96835714Y-81864285D01*
X96788095Y-81673809D01*
X96788095Y-81530952D01*
X96835714Y-81340476D01*
X96883333Y-81245238D01*
X96978571Y-81150000D01*
X97121428Y-81102380D01*
X97216666Y-81102380D01*
X97359523Y-81150000D01*
X97407142Y-81197619D01*
X98359523Y-82102380D02*
X97788095Y-82102380D01*
X98073809Y-82102380D02*
X98073809Y-81102380D01*
X97978571Y-81245238D01*
X97883333Y-81340476D01*
X97788095Y-81388095D01*
X99264285Y-81102380D02*
X98788095Y-81102380D01*
X98740476Y-81578571D01*
X98788095Y-81530952D01*
X98883333Y-81483333D01*
X99121428Y-81483333D01*
X99216666Y-81530952D01*
X99264285Y-81578571D01*
X99311904Y-81673809D01*
X99311904Y-81911904D01*
X99264285Y-82007142D01*
X99216666Y-82054761D01*
X99121428Y-82102380D01*
X98883333Y-82102380D01*
X98788095Y-82054761D01*
X98740476Y-82007142D01*
%TO.C,C5*%
X119758333Y-106332142D02*
X119710714Y-106379761D01*
X119567857Y-106427380D01*
X119472619Y-106427380D01*
X119329761Y-106379761D01*
X119234523Y-106284523D01*
X119186904Y-106189285D01*
X119139285Y-105998809D01*
X119139285Y-105855952D01*
X119186904Y-105665476D01*
X119234523Y-105570238D01*
X119329761Y-105475000D01*
X119472619Y-105427380D01*
X119567857Y-105427380D01*
X119710714Y-105475000D01*
X119758333Y-105522619D01*
X120663095Y-105427380D02*
X120186904Y-105427380D01*
X120139285Y-105903571D01*
X120186904Y-105855952D01*
X120282142Y-105808333D01*
X120520238Y-105808333D01*
X120615476Y-105855952D01*
X120663095Y-105903571D01*
X120710714Y-105998809D01*
X120710714Y-106236904D01*
X120663095Y-106332142D01*
X120615476Y-106379761D01*
X120520238Y-106427380D01*
X120282142Y-106427380D01*
X120186904Y-106379761D01*
X120139285Y-106332142D01*
%TO.C,R1*%
X79608333Y-103527380D02*
X79275000Y-103051190D01*
X79036904Y-103527380D02*
X79036904Y-102527380D01*
X79417857Y-102527380D01*
X79513095Y-102575000D01*
X79560714Y-102622619D01*
X79608333Y-102717857D01*
X79608333Y-102860714D01*
X79560714Y-102955952D01*
X79513095Y-103003571D01*
X79417857Y-103051190D01*
X79036904Y-103051190D01*
X80560714Y-103527380D02*
X79989285Y-103527380D01*
X80275000Y-103527380D02*
X80275000Y-102527380D01*
X80179761Y-102670238D01*
X80084523Y-102765476D01*
X79989285Y-102813095D01*
%TO.C,C18*%
X86687142Y-92892857D02*
X86734761Y-92940476D01*
X86782380Y-93083333D01*
X86782380Y-93178571D01*
X86734761Y-93321428D01*
X86639523Y-93416666D01*
X86544285Y-93464285D01*
X86353809Y-93511904D01*
X86210952Y-93511904D01*
X86020476Y-93464285D01*
X85925238Y-93416666D01*
X85830000Y-93321428D01*
X85782380Y-93178571D01*
X85782380Y-93083333D01*
X85830000Y-92940476D01*
X85877619Y-92892857D01*
X86782380Y-91940476D02*
X86782380Y-92511904D01*
X86782380Y-92226190D02*
X85782380Y-92226190D01*
X85925238Y-92321428D01*
X86020476Y-92416666D01*
X86068095Y-92511904D01*
X86210952Y-91369047D02*
X86163333Y-91464285D01*
X86115714Y-91511904D01*
X86020476Y-91559523D01*
X85972857Y-91559523D01*
X85877619Y-91511904D01*
X85830000Y-91464285D01*
X85782380Y-91369047D01*
X85782380Y-91178571D01*
X85830000Y-91083333D01*
X85877619Y-91035714D01*
X85972857Y-90988095D01*
X86020476Y-90988095D01*
X86115714Y-91035714D01*
X86163333Y-91083333D01*
X86210952Y-91178571D01*
X86210952Y-91369047D01*
X86258571Y-91464285D01*
X86306190Y-91511904D01*
X86401428Y-91559523D01*
X86591904Y-91559523D01*
X86687142Y-91511904D01*
X86734761Y-91464285D01*
X86782380Y-91369047D01*
X86782380Y-91178571D01*
X86734761Y-91083333D01*
X86687142Y-91035714D01*
X86591904Y-90988095D01*
X86401428Y-90988095D01*
X86306190Y-91035714D01*
X86258571Y-91083333D01*
X86210952Y-91178571D01*
%TO.C,R12*%
X79657142Y-105202380D02*
X79323809Y-104726190D01*
X79085714Y-105202380D02*
X79085714Y-104202380D01*
X79466666Y-104202380D01*
X79561904Y-104250000D01*
X79609523Y-104297619D01*
X79657142Y-104392857D01*
X79657142Y-104535714D01*
X79609523Y-104630952D01*
X79561904Y-104678571D01*
X79466666Y-104726190D01*
X79085714Y-104726190D01*
X80609523Y-105202380D02*
X80038095Y-105202380D01*
X80323809Y-105202380D02*
X80323809Y-104202380D01*
X80228571Y-104345238D01*
X80133333Y-104440476D01*
X80038095Y-104488095D01*
X80990476Y-104297619D02*
X81038095Y-104250000D01*
X81133333Y-104202380D01*
X81371428Y-104202380D01*
X81466666Y-104250000D01*
X81514285Y-104297619D01*
X81561904Y-104392857D01*
X81561904Y-104488095D01*
X81514285Y-104630952D01*
X80942857Y-105202380D01*
X81561904Y-105202380D01*
D12*
%TO.C,L33*%
X124832700Y-102946671D02*
X124832700Y-101789329D01*
X127093300Y-102946671D02*
X127093300Y-101789329D01*
%TO.C,L34*%
X124832700Y-98303813D02*
X124832700Y-97146471D01*
X127093300Y-98303813D02*
X127093300Y-97146471D01*
%TO.C,L36*%
X124832700Y-89018099D02*
X124832700Y-87860757D01*
X127093300Y-89018099D02*
X127093300Y-87860757D01*
%TO.C,L6*%
X110832699Y-79732385D02*
X110832699Y-78575043D01*
X113093299Y-79732385D02*
X113093299Y-78575043D01*
%TO.C,L12*%
X114332700Y-89018099D02*
X114332700Y-87860757D01*
X116593300Y-89018099D02*
X116593300Y-87860757D01*
%TO.C,L10*%
X114332700Y-98303813D02*
X114332700Y-97146471D01*
X116593300Y-98303813D02*
X116593300Y-97146471D01*
%TO.C,L20*%
X117832700Y-89018099D02*
X117832700Y-87860757D01*
X120093300Y-89018099D02*
X120093300Y-87860757D01*
%TO.C,L17*%
X117832700Y-102946671D02*
X117832700Y-101789329D01*
X120093300Y-102946671D02*
X120093300Y-101789329D01*
%TO.C,L15*%
X114332700Y-75089528D02*
X114332700Y-73932186D01*
X116593300Y-75089528D02*
X116593300Y-73932186D01*
%TO.C,L4*%
X110832699Y-89018099D02*
X110832699Y-87860757D01*
X113093299Y-89018099D02*
X113093299Y-87860757D01*
%TO.C,L31*%
X121332700Y-75089528D02*
X121332700Y-73932186D01*
X123593300Y-75089528D02*
X123593300Y-73932186D01*
%TO.C,L25*%
X121332700Y-102946671D02*
X121332700Y-101789329D01*
X123593300Y-102946671D02*
X123593300Y-101789329D01*
%TO.C,L24*%
X117832700Y-70446671D02*
X117832700Y-69289329D01*
X120093300Y-70446671D02*
X120093300Y-69289329D01*
%TO.C,L9*%
X114332700Y-102946671D02*
X114332700Y-101789329D01*
X116593300Y-102946671D02*
X116593300Y-101789329D01*
%TO.C,L3*%
X110832699Y-93660956D02*
X110832699Y-92503614D01*
X113093299Y-93660956D02*
X113093299Y-92503614D01*
%TO.C,L39*%
X124832700Y-75089528D02*
X124832700Y-73932186D01*
X127093300Y-75089528D02*
X127093300Y-73932186D01*
%TO.C,L27*%
X121332700Y-93660956D02*
X121332700Y-92503614D01*
X123593300Y-93660956D02*
X123593300Y-92503614D01*
%TO.C,L1*%
X110769675Y-102946671D02*
X110769675Y-101789329D01*
X113030275Y-102946671D02*
X113030275Y-101789329D01*
%TO.C,L40*%
X124832700Y-70446671D02*
X124832700Y-69289329D01*
X127093300Y-70446671D02*
X127093300Y-69289329D01*
%TO.C,L30*%
X121332700Y-79732385D02*
X121332700Y-78575043D01*
X123593300Y-79732385D02*
X123593300Y-78575043D01*
%TO.C,L13*%
X114332700Y-84375242D02*
X114332700Y-83217900D01*
X116593300Y-84375242D02*
X116593300Y-83217900D01*
%TO.C,L38*%
X124832700Y-79732385D02*
X124832700Y-78575043D01*
X127093300Y-79732385D02*
X127093300Y-78575043D01*
%TO.C,L18*%
X117832700Y-98303813D02*
X117832700Y-97146471D01*
X120093300Y-98303813D02*
X120093300Y-97146471D01*
%TO.C,L8*%
X110832699Y-70446671D02*
X110832699Y-69289329D01*
X113093299Y-70446671D02*
X113093299Y-69289329D01*
%TO.C,L11*%
X114332700Y-93660956D02*
X114332700Y-92503614D01*
X116593300Y-93660956D02*
X116593300Y-92503614D01*
%TO.C,L32*%
X121332700Y-70446671D02*
X121332700Y-69289329D01*
X123593300Y-70446671D02*
X123593300Y-69289329D01*
%TO.C,L29*%
X121332700Y-84375242D02*
X121332700Y-83217900D01*
X123593300Y-84375242D02*
X123593300Y-83217900D01*
%TO.C,L21*%
X117832700Y-84375242D02*
X117832700Y-83217900D01*
X120093300Y-84375242D02*
X120093300Y-83217900D01*
%TO.C,L16*%
X114332700Y-70446671D02*
X114332700Y-69289329D01*
X116593300Y-70446671D02*
X116593300Y-69289329D01*
%TO.C,L23*%
X117832700Y-75089528D02*
X117832700Y-73932186D01*
X120093300Y-75089528D02*
X120093300Y-73932186D01*
%TO.C,L35*%
X124832700Y-93660956D02*
X124832700Y-92503614D01*
X127093300Y-93660956D02*
X127093300Y-92503614D01*
%TO.C,L14*%
X114332700Y-79732385D02*
X114332700Y-78575043D01*
X116593300Y-79732385D02*
X116593300Y-78575043D01*
%TO.C,L7*%
X110832699Y-75089528D02*
X110832699Y-73932186D01*
X113093299Y-75089528D02*
X113093299Y-73932186D01*
%TO.C,L19*%
X117832700Y-93660956D02*
X117832700Y-92503614D01*
X120093300Y-93660956D02*
X120093300Y-92503614D01*
%TO.C,L28*%
X121332700Y-89018099D02*
X121332700Y-87860757D01*
X123593300Y-89018099D02*
X123593300Y-87860757D01*
%TO.C,L26*%
X121332700Y-98303813D02*
X121332700Y-97146471D01*
X123593300Y-98303813D02*
X123593300Y-97146471D01*
%TO.C,L37*%
X124832700Y-84375242D02*
X124832700Y-83217900D01*
X127093300Y-84375242D02*
X127093300Y-83217900D01*
%TO.C,L5*%
X110832699Y-84375242D02*
X110832699Y-83217900D01*
X113093299Y-84375242D02*
X113093299Y-83217900D01*
%TO.C,L2*%
X110769675Y-98303813D02*
X110769675Y-97146471D01*
X113030275Y-98303813D02*
X113030275Y-97146471D01*
%TO.C,L22*%
X117832700Y-79732385D02*
X117832700Y-78575043D01*
X120093300Y-79732385D02*
X120093300Y-78575043D01*
D13*
%TO.C,SW1*%
X72450000Y-73255000D02*
X72450000Y-70895000D01*
X72150000Y-69525000D02*
X67650000Y-69525000D01*
X72150000Y-74625000D02*
X67650000Y-74625000D01*
X67350000Y-70895000D02*
X67350000Y-73255000D01*
D14*
X65750000Y-70200000D02*
G75*
G03*
X65750000Y-70200000I-100000J0D01*
G01*
D13*
%TO.C,SW2*%
X72450000Y-79405000D02*
X72450000Y-77045000D01*
X72150000Y-75675000D02*
X67650000Y-75675000D01*
X72150000Y-80775000D02*
X67650000Y-80775000D01*
X67350000Y-77045000D02*
X67350000Y-79405000D01*
D14*
X65750000Y-76350000D02*
G75*
G03*
X65750000Y-76350000I-100000J0D01*
G01*
D12*
%TO.C,U3*%
X100933700Y-91470000D02*
G75*
G03*
X100933700Y-91470000I-76200J0D01*
G01*
X108121900Y-90695300D02*
X101771900Y-90695300D01*
X101771900Y-96054700D02*
X108121900Y-96054700D01*
D10*
%TO.C,U2*%
X104225000Y-80650000D02*
X104225000Y-83650000D01*
X106475000Y-82150000D02*
X106475000Y-83650000D01*
D12*
%TO.C,R5*%
X101278641Y-89305000D02*
X100971359Y-89305000D01*
X101278641Y-88545000D02*
X100971359Y-88545000D01*
%TO.C,C2*%
X74206980Y-98022000D02*
X73925820Y-98022000D01*
X74206980Y-99042000D02*
X73925820Y-99042000D01*
%TO.C,C10*%
X88623600Y-89654564D02*
X88623600Y-89870236D01*
X89343600Y-89654564D02*
X89343600Y-89870236D01*
%TO.C,C6*%
X123320164Y-104408000D02*
X123535836Y-104408000D01*
X123320164Y-105128000D02*
X123535836Y-105128000D01*
%TO.C,R10*%
X93603641Y-75040000D02*
X93296359Y-75040000D01*
X93603641Y-75800000D02*
X93296359Y-75800000D01*
%TO.C,C19*%
X88310000Y-89642164D02*
X88310000Y-89857836D01*
X87590000Y-89642164D02*
X87590000Y-89857836D01*
%TO.C,C7*%
X126835164Y-105128000D02*
X127050836Y-105128000D01*
X126835164Y-104408000D02*
X127050836Y-104408000D01*
%TO.C,C22*%
X93362164Y-74734400D02*
X93577836Y-74734400D01*
X93362164Y-74014400D02*
X93577836Y-74014400D01*
%TO.C,R2*%
X73655000Y-72228641D02*
X73655000Y-71921359D01*
X72895000Y-72228641D02*
X72895000Y-71921359D01*
%TO.C,C16*%
X97142164Y-86750000D02*
X97357836Y-86750000D01*
X97142164Y-87470000D02*
X97357836Y-87470000D01*
%TO.C,C13*%
X86057836Y-83235000D02*
X85842164Y-83235000D01*
X86057836Y-82515000D02*
X85842164Y-82515000D01*
%TO.C,C14*%
X91340000Y-75857836D02*
X91340000Y-75642164D01*
X92060000Y-75857836D02*
X92060000Y-75642164D01*
%TO.C,U1*%
X77384400Y-101482000D02*
X77384400Y-102282000D01*
X74264400Y-101482000D02*
X74264400Y-100682000D01*
X77384400Y-101482000D02*
X77384400Y-100682000D01*
X74264400Y-101482000D02*
X74264400Y-103282000D01*
%TO.C,C3*%
X112775164Y-105128000D02*
X112990836Y-105128000D01*
X112775164Y-104408000D02*
X112990836Y-104408000D01*
D15*
%TO.C,D1*%
X103905000Y-98600000D02*
G75*
G03*
X103905000Y-98600000I-50000J0D01*
G01*
D12*
%TO.C,R7*%
X90720000Y-90516359D02*
X90720000Y-90823641D01*
X91480000Y-90516359D02*
X91480000Y-90823641D01*
%TO.C,J2*%
X85070000Y-108855000D02*
X85070000Y-110655000D01*
X76130000Y-108855000D02*
X76130000Y-110655000D01*
%TO.C,C4*%
X116290164Y-105128000D02*
X116505836Y-105128000D01*
X116290164Y-104408000D02*
X116505836Y-104408000D01*
D15*
%TO.C,D2*%
X74850000Y-92325000D02*
G75*
G03*
X74850000Y-92325000I-50000J0D01*
G01*
D12*
%TO.C,C1*%
X72614400Y-102172580D02*
X72614400Y-101891420D01*
X73634400Y-102172580D02*
X73634400Y-101891420D01*
%TO.C,C21*%
X95631836Y-74734400D02*
X95416164Y-74734400D01*
X95631836Y-74014400D02*
X95416164Y-74014400D01*
%TO.C,U4*%
X89132500Y-80280000D02*
X88482500Y-80280000D01*
X88482500Y-80280000D02*
X88482500Y-80930000D01*
X95702500Y-80280000D02*
X95702500Y-80930000D01*
X89132500Y-87500000D02*
X88482500Y-87500000D01*
X88482500Y-87500000D02*
X88482500Y-86850000D01*
X95052500Y-80280000D02*
X95702500Y-80280000D01*
X95052500Y-87500000D02*
X95702500Y-87500000D01*
%TO.C,C20*%
X86982836Y-88060000D02*
X86767164Y-88060000D01*
X86982836Y-87340000D02*
X86767164Y-87340000D01*
%TO.C,Y1*%
X93016000Y-73687600D02*
X97016000Y-73687600D01*
X93016000Y-70387600D02*
X93016000Y-73687600D01*
%TO.C,R8*%
X90438600Y-90516359D02*
X90438600Y-90823641D01*
X89678600Y-90516359D02*
X89678600Y-90823641D01*
%TO.C,R11*%
X78969600Y-100837241D02*
X78969600Y-100529959D01*
X79729600Y-100837241D02*
X79729600Y-100529959D01*
%TO.C,C17*%
X92580000Y-91232164D02*
X92580000Y-91447836D01*
X91860000Y-91232164D02*
X91860000Y-91447836D01*
D16*
%TO.C,J1*%
X72785660Y-63815000D02*
G75*
G03*
X72785660Y-63815000I-1J0D01*
G01*
D12*
X73085659Y-66815000D02*
X73085659Y-64215000D01*
X66585659Y-64215000D02*
X73085659Y-64215000D01*
X73085659Y-66815000D02*
X66585659Y-66815000D01*
X66585659Y-66815000D02*
X66585659Y-64215000D01*
%TO.C,C11*%
X92970000Y-91562164D02*
X92970000Y-91777836D01*
X93690000Y-91562164D02*
X93690000Y-91777836D01*
%TO.C,G\u002A\u002A\u002A*%
G36*
X72138675Y-107386836D02*
G01*
X72261175Y-107387710D01*
X72383675Y-107388585D01*
X72383675Y-106931836D01*
X72597008Y-106931836D01*
X72597008Y-107388502D01*
X72890341Y-107388502D01*
X72890341Y-106898502D01*
X73117008Y-106898502D01*
X73117008Y-107668502D01*
X71913675Y-107668502D01*
X71913675Y-106898502D01*
X72136965Y-106898502D01*
X72138675Y-107386836D01*
G37*
G36*
X72563270Y-109240668D02*
G01*
X72508615Y-109222956D01*
X71913745Y-109030169D01*
X71914528Y-108883447D01*
X72154285Y-108883447D01*
X72155979Y-108885171D01*
X72159257Y-108886456D01*
X72163721Y-108887663D01*
X72173930Y-108890315D01*
X72189268Y-108894257D01*
X72209121Y-108899333D01*
X72232873Y-108905389D01*
X72259911Y-108912267D01*
X72289619Y-108919814D01*
X72321382Y-108927873D01*
X72354586Y-108936288D01*
X72388617Y-108944905D01*
X72422858Y-108953567D01*
X72456696Y-108962119D01*
X72489516Y-108970406D01*
X72520703Y-108978272D01*
X72549642Y-108985562D01*
X72575718Y-108992120D01*
X72598318Y-108997790D01*
X72616825Y-109002417D01*
X72630625Y-109005846D01*
X72639104Y-109007920D01*
X72641669Y-109008502D01*
X72642120Y-109005291D01*
X72642535Y-108996140D01*
X72642904Y-108981779D01*
X72643213Y-108962936D01*
X72643453Y-108940338D01*
X72643610Y-108914715D01*
X72643674Y-108886793D01*
X72643675Y-108883278D01*
X72643659Y-108851067D01*
X72643594Y-108824908D01*
X72643449Y-108804187D01*
X72643196Y-108788291D01*
X72642806Y-108776606D01*
X72642249Y-108768516D01*
X72641498Y-108763408D01*
X72640522Y-108760669D01*
X72639292Y-108759683D01*
X72637841Y-108759818D01*
X72633729Y-108760907D01*
X72623675Y-108763498D01*
X72608198Y-108767461D01*
X72587819Y-108772661D01*
X72563059Y-108778968D01*
X72534438Y-108786248D01*
X72502477Y-108794369D01*
X72467694Y-108803199D01*
X72430612Y-108812604D01*
X72393703Y-108821959D01*
X72355061Y-108831760D01*
X72318333Y-108841097D01*
X72284027Y-108849839D01*
X72252650Y-108857857D01*
X72224708Y-108865020D01*
X72200710Y-108871197D01*
X72181161Y-108876260D01*
X72166568Y-108880076D01*
X72157440Y-108882517D01*
X72154285Y-108883447D01*
X71914528Y-108883447D01*
X71915341Y-108731211D01*
X72515318Y-108536524D01*
X72576512Y-108516668D01*
X72635997Y-108497370D01*
X72693463Y-108478729D01*
X72748602Y-108460847D01*
X72801103Y-108443822D01*
X72850658Y-108427756D01*
X72896957Y-108412748D01*
X72939692Y-108398899D01*
X72978554Y-108386309D01*
X73013232Y-108375077D01*
X73043419Y-108365305D01*
X73068804Y-108357092D01*
X73089079Y-108350538D01*
X73103935Y-108345744D01*
X73113062Y-108342810D01*
X73116151Y-108341836D01*
X73116328Y-108345058D01*
X73116493Y-108354280D01*
X73116641Y-108368834D01*
X73116770Y-108388054D01*
X73116874Y-108411273D01*
X73116951Y-108437823D01*
X73116997Y-108467038D01*
X73117008Y-108491050D01*
X73117008Y-108640264D01*
X72997841Y-108669931D01*
X72970239Y-108676809D01*
X72944305Y-108683284D01*
X72920842Y-108689155D01*
X72900654Y-108694219D01*
X72884542Y-108698276D01*
X72873311Y-108701124D01*
X72867812Y-108702548D01*
X72856950Y-108705498D01*
X72857812Y-108884250D01*
X72858675Y-109063002D01*
X72973675Y-109091978D01*
X73000968Y-109098865D01*
X73026753Y-109105388D01*
X73050181Y-109111332D01*
X73070401Y-109116481D01*
X73086563Y-109120618D01*
X73097819Y-109123526D01*
X73102841Y-109124857D01*
X73117008Y-109128759D01*
X73117008Y-109274020D01*
X73117002Y-109308895D01*
X73116967Y-109337679D01*
X73116876Y-109360948D01*
X73116702Y-109379278D01*
X73116417Y-109393245D01*
X73115994Y-109403424D01*
X73115406Y-109410392D01*
X73114626Y-109414725D01*
X73113627Y-109416997D01*
X73112381Y-109417785D01*
X73110862Y-109417666D01*
X73110246Y-109417512D01*
X73106426Y-109416317D01*
X73096578Y-109413168D01*
X73081019Y-109408166D01*
X73060061Y-109401413D01*
X73034021Y-109393011D01*
X73003212Y-109383061D01*
X72967949Y-109371666D01*
X72928548Y-109358927D01*
X72885321Y-109344945D01*
X72838585Y-109329823D01*
X72788654Y-109313663D01*
X72735842Y-109296565D01*
X72680465Y-109278632D01*
X72641669Y-109266066D01*
X72622836Y-109259966D01*
X72563270Y-109240668D01*
G37*
G36*
X73072725Y-104536836D02*
G01*
X73088928Y-104589206D01*
X73103225Y-104645713D01*
X73115082Y-104703971D01*
X73123966Y-104761591D01*
X73125223Y-104771836D01*
X73127516Y-104795616D01*
X73129399Y-104823603D01*
X73130833Y-104854174D01*
X73131778Y-104885706D01*
X73132194Y-104916579D01*
X73132042Y-104945169D01*
X73131282Y-104969854D01*
X73130396Y-104983607D01*
X73121970Y-105049960D01*
X73108245Y-105112303D01*
X73089185Y-105170717D01*
X73064756Y-105225280D01*
X73034924Y-105276074D01*
X72999652Y-105323179D01*
X72967148Y-105358607D01*
X72924695Y-105396840D01*
X72878998Y-105429848D01*
X72829749Y-105457772D01*
X72776642Y-105480752D01*
X72719368Y-105498926D01*
X72657623Y-105512435D01*
X72615341Y-105518732D01*
X72596624Y-105520438D01*
X72572875Y-105521672D01*
X72545713Y-105522434D01*
X72516758Y-105522723D01*
X72487628Y-105522539D01*
X72459941Y-105521883D01*
X72435316Y-105520752D01*
X72415372Y-105519149D01*
X72412008Y-105518761D01*
X72345971Y-105507955D01*
X72284464Y-105492325D01*
X72227344Y-105471801D01*
X72174470Y-105446317D01*
X72125700Y-105415803D01*
X72080892Y-105380192D01*
X72040788Y-105340393D01*
X72007860Y-105299421D01*
X71978580Y-105253463D01*
X71953353Y-105203359D01*
X71932583Y-105149946D01*
X71916673Y-105094064D01*
X71912193Y-105073401D01*
X71904402Y-105024290D01*
X71899423Y-104970335D01*
X71897213Y-104912718D01*
X71897732Y-104852620D01*
X71900937Y-104791222D01*
X71906788Y-104729707D01*
X71915242Y-104669254D01*
X71926258Y-104611047D01*
X71928867Y-104599336D01*
X71934398Y-104575169D01*
X72049036Y-104575169D01*
X72075929Y-104575221D01*
X72100579Y-104575366D01*
X72122225Y-104575595D01*
X72140108Y-104575893D01*
X72153464Y-104576250D01*
X72161535Y-104576652D01*
X72163675Y-104577005D01*
X72162903Y-104580731D01*
X72160785Y-104589705D01*
X72157614Y-104602715D01*
X72153682Y-104618547D01*
X72152187Y-104624505D01*
X72140759Y-104673075D01*
X72132125Y-104717443D01*
X72126079Y-104759363D01*
X72122413Y-104800588D01*
X72120922Y-104842869D01*
X72121346Y-104886146D01*
X72122367Y-104914660D01*
X72123712Y-104937687D01*
X72125485Y-104956404D01*
X72127792Y-104971988D01*
X72129820Y-104981836D01*
X72143244Y-105028142D01*
X72160937Y-105069413D01*
X72183061Y-105105866D01*
X72209778Y-105137721D01*
X72241253Y-105165194D01*
X72277647Y-105188502D01*
X72288675Y-105194279D01*
X72329557Y-105211503D01*
X72375019Y-105224463D01*
X72425242Y-105233192D01*
X72480405Y-105237726D01*
X72515341Y-105238448D01*
X72575181Y-105236161D01*
X72630288Y-105229334D01*
X72680608Y-105218014D01*
X72726089Y-105202252D01*
X72766677Y-105182094D01*
X72802321Y-105157591D01*
X72832966Y-105128790D01*
X72858561Y-105095741D01*
X72879052Y-105058493D01*
X72894387Y-105017093D01*
X72904512Y-104971590D01*
X72909375Y-104922035D01*
X72909276Y-104875500D01*
X72908006Y-104855727D01*
X72906055Y-104835848D01*
X72903683Y-104818141D01*
X72901222Y-104805169D01*
X72895181Y-104780169D01*
X72746094Y-104779302D01*
X72597008Y-104778434D01*
X72597008Y-105041836D01*
X72383634Y-105041836D01*
X72384488Y-104777669D01*
X72385341Y-104513502D01*
X73064723Y-104513502D01*
X73072725Y-104536836D01*
G37*
G36*
X71919552Y-109509442D02*
G01*
X71928960Y-109512405D01*
X71944088Y-109517226D01*
X71964625Y-109523803D01*
X71990262Y-109532037D01*
X72020687Y-109541828D01*
X72055591Y-109553075D01*
X72094662Y-109565679D01*
X72137590Y-109579539D01*
X72184065Y-109594555D01*
X72233776Y-109610626D01*
X72286412Y-109627653D01*
X72341664Y-109645534D01*
X72399220Y-109664171D01*
X72458770Y-109683463D01*
X72517826Y-109702604D01*
X73116978Y-109896836D01*
X73117008Y-110194520D01*
X73094508Y-110201515D01*
X73089017Y-110203265D01*
X73077516Y-110206968D01*
X73060336Y-110212516D01*
X73037808Y-110219802D01*
X73010262Y-110228719D01*
X72978029Y-110239159D01*
X72941441Y-110251015D01*
X72900827Y-110264181D01*
X72856519Y-110278548D01*
X72808847Y-110294010D01*
X72758142Y-110310459D01*
X72704734Y-110327788D01*
X72648956Y-110345890D01*
X72591136Y-110364657D01*
X72531607Y-110383983D01*
X72493675Y-110396300D01*
X71915341Y-110584090D01*
X71914473Y-110435775D01*
X71914312Y-110405015D01*
X71914199Y-110376374D01*
X71914133Y-110350526D01*
X71914115Y-110328146D01*
X71914145Y-110309907D01*
X71914223Y-110296483D01*
X71914349Y-110288550D01*
X71914473Y-110286609D01*
X71917745Y-110285699D01*
X71927116Y-110283232D01*
X71942223Y-110279301D01*
X71962706Y-110274000D01*
X71988203Y-110267421D01*
X72018353Y-110259656D01*
X72052795Y-110250799D01*
X72091168Y-110240942D01*
X72133109Y-110230179D01*
X72178259Y-110218602D01*
X72226255Y-110206304D01*
X72276737Y-110193378D01*
X72329343Y-110179917D01*
X72380310Y-110166883D01*
X72434593Y-110152998D01*
X72487097Y-110139554D01*
X72537460Y-110126644D01*
X72585322Y-110114361D01*
X72630319Y-110102799D01*
X72672090Y-110092052D01*
X72710273Y-110082212D01*
X72744506Y-110073373D01*
X72774428Y-110065628D01*
X72799676Y-110059070D01*
X72819889Y-110053793D01*
X72834704Y-110049891D01*
X72843761Y-110047456D01*
X72846699Y-110046589D01*
X72846730Y-110044035D01*
X72843400Y-110043071D01*
X72833986Y-110040513D01*
X72818853Y-110036459D01*
X72798366Y-110031005D01*
X72772889Y-110024246D01*
X72742787Y-110016279D01*
X72708426Y-110007201D01*
X72670170Y-109997108D01*
X72628385Y-109986096D01*
X72583434Y-109974262D01*
X72535684Y-109961702D01*
X72485498Y-109948513D01*
X72433242Y-109934789D01*
X72390341Y-109923531D01*
X72336510Y-109909407D01*
X72284340Y-109895717D01*
X72234206Y-109882560D01*
X72186484Y-109870033D01*
X72141548Y-109858236D01*
X72099773Y-109847267D01*
X72061534Y-109837224D01*
X72027207Y-109828206D01*
X71997166Y-109820312D01*
X71971786Y-109813639D01*
X71951443Y-109808287D01*
X71936511Y-109804353D01*
X71927366Y-109801938D01*
X71924508Y-109801175D01*
X71913675Y-109798189D01*
X71913675Y-109653346D01*
X71913730Y-109622993D01*
X71913889Y-109594796D01*
X71914140Y-109569432D01*
X71914470Y-109547580D01*
X71914869Y-109529915D01*
X71915325Y-109517116D01*
X71915826Y-109509860D01*
X71916175Y-109508437D01*
X71919552Y-109509442D01*
G37*
G36*
X70720337Y-103587063D02*
G01*
X70745853Y-103597441D01*
X70751042Y-103600391D01*
X70772432Y-103614338D01*
X70794740Y-103630921D01*
X70816731Y-103649047D01*
X70837167Y-103667625D01*
X70854814Y-103685561D01*
X70868435Y-103701764D01*
X70872753Y-103707938D01*
X70881760Y-103724332D01*
X70891387Y-103746194D01*
X70901266Y-103772403D01*
X70911030Y-103801833D01*
X70920314Y-103833360D01*
X70928749Y-103865861D01*
X70935969Y-103898213D01*
X70937674Y-103906836D01*
X70940100Y-103921629D01*
X70942046Y-103938657D01*
X70943587Y-103958957D01*
X70944796Y-103983565D01*
X70945749Y-104013517D01*
X70945975Y-104022802D01*
X70946576Y-104045403D01*
X70947266Y-104065558D01*
X70948003Y-104082386D01*
X70948743Y-104095008D01*
X70949444Y-104102543D01*
X70949944Y-104104319D01*
X70976354Y-104091231D01*
X70999948Y-104082405D01*
X71022615Y-104077375D01*
X71046241Y-104075680D01*
X71064316Y-104076225D01*
X71078714Y-104077506D01*
X71091436Y-104079716D01*
X71104642Y-104083407D01*
X71120493Y-104089136D01*
X71131227Y-104093399D01*
X71165788Y-104108189D01*
X71194201Y-104122134D01*
X71216900Y-104135466D01*
X71234314Y-104148419D01*
X71236292Y-104150159D01*
X71249482Y-104163676D01*
X71264935Y-104182300D01*
X71282047Y-104205121D01*
X71300214Y-104231228D01*
X71318830Y-104259710D01*
X71337292Y-104289657D01*
X71354994Y-104320157D01*
X71371332Y-104350301D01*
X71378489Y-104364329D01*
X71394273Y-104397966D01*
X71407563Y-104430973D01*
X71418529Y-104464252D01*
X71427339Y-104498707D01*
X71434164Y-104535242D01*
X71439173Y-104574759D01*
X71442536Y-104618162D01*
X71444422Y-104666355D01*
X71445002Y-104718502D01*
X71444258Y-104769201D01*
X71442072Y-104820905D01*
X71438556Y-104872702D01*
X71433824Y-104923682D01*
X71427987Y-104972932D01*
X71421159Y-105019540D01*
X71413453Y-105062594D01*
X71404982Y-105101182D01*
X71395859Y-105134392D01*
X71392117Y-105145777D01*
X71380897Y-105178069D01*
X71397277Y-105181582D01*
X71423466Y-105189699D01*
X71449744Y-105202370D01*
X71474826Y-105218619D01*
X71497424Y-105237470D01*
X71516251Y-105257949D01*
X71530022Y-105279080D01*
X71532365Y-105283990D01*
X71539321Y-105301591D01*
X71544471Y-105319465D01*
X71548084Y-105339140D01*
X71550428Y-105362140D01*
X71551772Y-105389993D01*
X71551916Y-105395169D01*
X71552285Y-105413702D01*
X71552423Y-105430423D01*
X71552332Y-105443946D01*
X71552017Y-105452879D01*
X71551779Y-105455169D01*
X71550580Y-105462535D01*
X71548793Y-105474098D01*
X71546789Y-105487457D01*
X71546635Y-105488502D01*
X71540803Y-105516423D01*
X71531147Y-105548431D01*
X71518131Y-105583511D01*
X71502222Y-105620649D01*
X71483885Y-105658827D01*
X71463583Y-105697031D01*
X71441784Y-105734246D01*
X71418951Y-105769454D01*
X71415953Y-105773801D01*
X71366657Y-105842086D01*
X71316547Y-105906364D01*
X71265991Y-105966236D01*
X71215364Y-106021300D01*
X71165034Y-106071157D01*
X71115374Y-106115408D01*
X71066756Y-106153652D01*
X71055989Y-106161395D01*
X71039918Y-106172776D01*
X71023366Y-106184550D01*
X71008363Y-106195268D01*
X70997656Y-106202966D01*
X70961162Y-106227855D01*
X70920913Y-106252416D01*
X70876570Y-106276800D01*
X70827794Y-106301159D01*
X70774247Y-106325648D01*
X70715590Y-106350416D01*
X70651484Y-106375618D01*
X70581591Y-106401405D01*
X70505572Y-106427929D01*
X70473675Y-106438679D01*
X70411187Y-106459252D01*
X70353854Y-106477475D01*
X70300693Y-106493607D01*
X70250726Y-106507910D01*
X70202971Y-106520644D01*
X70156448Y-106532070D01*
X70110177Y-106542448D01*
X70063178Y-106552039D01*
X70014469Y-106561103D01*
X70010303Y-106561843D01*
X69952329Y-106572099D01*
X69928845Y-106546134D01*
X69910430Y-106525880D01*
X69892006Y-106505851D01*
X69873131Y-106485590D01*
X69853360Y-106464638D01*
X69832250Y-106442538D01*
X69809358Y-106418832D01*
X69784240Y-106393062D01*
X69756453Y-106364772D01*
X69725552Y-106333503D01*
X69691096Y-106298798D01*
X69652639Y-106260198D01*
X69623012Y-106230526D01*
X69593600Y-106201070D01*
X69565607Y-106172994D01*
X69539384Y-106146653D01*
X69515281Y-106122400D01*
X69493648Y-106100588D01*
X69474835Y-106081571D01*
X69459191Y-106065703D01*
X69447068Y-106053336D01*
X69438814Y-106044826D01*
X69434780Y-106040524D01*
X69434429Y-106040057D01*
X69437856Y-106039431D01*
X69446934Y-106038142D01*
X69460696Y-106036317D01*
X69478171Y-106034084D01*
X69498391Y-106031570D01*
X69507008Y-106030517D01*
X69550566Y-106025129D01*
X69592497Y-106019764D01*
X69632235Y-106014503D01*
X69669213Y-106009429D01*
X69702864Y-106004625D01*
X69732622Y-106000173D01*
X69757921Y-105996155D01*
X69778193Y-105992654D01*
X69792872Y-105989752D01*
X69800341Y-105987876D01*
X69822968Y-105979251D01*
X69839454Y-105968983D01*
X69850224Y-105956586D01*
X69855700Y-105941573D01*
X69856325Y-105923644D01*
X69854213Y-105910922D01*
X69849716Y-105900257D01*
X69842132Y-105891149D01*
X69830756Y-105883101D01*
X69814884Y-105875614D01*
X69793815Y-105868189D01*
X69767008Y-105860374D01*
X69752265Y-105856313D01*
X69732353Y-105850788D01*
X69708518Y-105844145D01*
X69682005Y-105836734D01*
X69654060Y-105828901D01*
X69625931Y-105820995D01*
X69617008Y-105818483D01*
X69588428Y-105810482D01*
X69559035Y-105802347D01*
X69530206Y-105794450D01*
X69503315Y-105787167D01*
X69479738Y-105780872D01*
X69460851Y-105775939D01*
X69457008Y-105774958D01*
X69433127Y-105768649D01*
X69405886Y-105761044D01*
X69378235Y-105752989D01*
X69353126Y-105745332D01*
X69347008Y-105743392D01*
X69297718Y-105728087D01*
X69243544Y-105712142D01*
X69186178Y-105696021D01*
X69127312Y-105680186D01*
X69068636Y-105665099D01*
X69011843Y-105651224D01*
X68999876Y-105648405D01*
X68954109Y-105637441D01*
X68904960Y-105625200D01*
X68854267Y-105612164D01*
X68803868Y-105598815D01*
X68755602Y-105585638D01*
X68711307Y-105573113D01*
X68695341Y-105568461D01*
X68663240Y-105559210D01*
X68626551Y-105548969D01*
X68586196Y-105537974D01*
X68543095Y-105526461D01*
X68498173Y-105514662D01*
X68452349Y-105502815D01*
X68406547Y-105491153D01*
X68361688Y-105479911D01*
X68318695Y-105469325D01*
X68278489Y-105459629D01*
X68241992Y-105451057D01*
X68210126Y-105443846D01*
X68185341Y-105438542D01*
X68173352Y-105435948D01*
X68157210Y-105432269D01*
X68137822Y-105427726D01*
X68116096Y-105422545D01*
X68092938Y-105416947D01*
X68069256Y-105411159D01*
X68045956Y-105405402D01*
X68023946Y-105399902D01*
X68004132Y-105394881D01*
X67987421Y-105390563D01*
X67974720Y-105387173D01*
X67966937Y-105384933D01*
X67964881Y-105384153D01*
X67965114Y-105380776D01*
X67966160Y-105371575D01*
X67967917Y-105357329D01*
X67970288Y-105338820D01*
X67973171Y-105316826D01*
X67976469Y-105292128D01*
X67978776Y-105275081D01*
X67982352Y-105248477D01*
X67985620Y-105223564D01*
X67988470Y-105201224D01*
X67990794Y-105182336D01*
X67992482Y-105167782D01*
X67993424Y-105158443D01*
X67993586Y-105155771D01*
X67991939Y-105144673D01*
X67987484Y-105130471D01*
X67981160Y-105115295D01*
X67973905Y-105101273D01*
X67966660Y-105090535D01*
X67963235Y-105086978D01*
X67952922Y-105080229D01*
X67941500Y-105075289D01*
X67941024Y-105075149D01*
X67936906Y-105074540D01*
X67926512Y-105073232D01*
X67910189Y-105071266D01*
X67888289Y-105068680D01*
X67861159Y-105065514D01*
X67829149Y-105061806D01*
X67792607Y-105057597D01*
X67751884Y-105052926D01*
X67707328Y-105047831D01*
X67659287Y-105042353D01*
X67608113Y-105036531D01*
X67554152Y-105030403D01*
X67497755Y-105024010D01*
X67439271Y-105017391D01*
X67379048Y-105010585D01*
X67317436Y-105003631D01*
X67254784Y-104996568D01*
X67191440Y-104989437D01*
X67127755Y-104982276D01*
X67064077Y-104975124D01*
X67000755Y-104968022D01*
X66938139Y-104961008D01*
X66876577Y-104954121D01*
X66816419Y-104947402D01*
X66758013Y-104940889D01*
X66701709Y-104934621D01*
X66647856Y-104928639D01*
X66596803Y-104922980D01*
X66548899Y-104917686D01*
X66504493Y-104912794D01*
X66463935Y-104908345D01*
X66427572Y-104904377D01*
X66395756Y-104900931D01*
X66373675Y-104898560D01*
X66347157Y-104895694D01*
X66326558Y-104893367D01*
X66311159Y-104891466D01*
X66300246Y-104889881D01*
X66293099Y-104888501D01*
X66289004Y-104887212D01*
X66287243Y-104885905D01*
X66287008Y-104885075D01*
X66289340Y-104880867D01*
X66295704Y-104873173D01*
X66305154Y-104862937D01*
X66316741Y-104851107D01*
X66329519Y-104838628D01*
X66342540Y-104826445D01*
X66354858Y-104815505D01*
X66365171Y-104807026D01*
X66393414Y-104786273D01*
X66426140Y-104764143D01*
X66461626Y-104741700D01*
X66498151Y-104720005D01*
X66533992Y-104700123D01*
X66560207Y-104686634D01*
X66594134Y-104671120D01*
X66627824Y-104658055D01*
X66659583Y-104648041D01*
X66685476Y-104642070D01*
X66707277Y-104638578D01*
X66734698Y-104634852D01*
X66766700Y-104630991D01*
X66802244Y-104627095D01*
X66840292Y-104623267D01*
X66879806Y-104619606D01*
X66919747Y-104616212D01*
X66959076Y-104613186D01*
X66996754Y-104610628D01*
X67030341Y-104608711D01*
X67056415Y-104607369D01*
X67084782Y-104605879D01*
X67113143Y-104604364D01*
X67139201Y-104602947D01*
X67158675Y-104601862D01*
X67185116Y-104600574D01*
X67217514Y-104599347D01*
X67255159Y-104598192D01*
X67297343Y-104597116D01*
X67343355Y-104596129D01*
X67392485Y-104595241D01*
X67444025Y-104594460D01*
X67497265Y-104593795D01*
X67551495Y-104593256D01*
X67606005Y-104592852D01*
X67660087Y-104592592D01*
X67713031Y-104592485D01*
X67764126Y-104592541D01*
X67812664Y-104592768D01*
X67843675Y-104593023D01*
X67927996Y-104593847D01*
X68005966Y-104594594D01*
X68077903Y-104595266D01*
X68144121Y-104595863D01*
X68204937Y-104596385D01*
X68260667Y-104596835D01*
X68311626Y-104597213D01*
X68358131Y-104597519D01*
X68400498Y-104597755D01*
X68439042Y-104597922D01*
X68474080Y-104598020D01*
X68505927Y-104598050D01*
X68534900Y-104598015D01*
X68561315Y-104597913D01*
X68585487Y-104597747D01*
X68607732Y-104597516D01*
X68628367Y-104597223D01*
X68647708Y-104596868D01*
X68666069Y-104596452D01*
X68683769Y-104595976D01*
X68698675Y-104595519D01*
X68742653Y-104594027D01*
X68786213Y-104592403D01*
X68828676Y-104590680D01*
X68869361Y-104588893D01*
X68907589Y-104587076D01*
X68942679Y-104585263D01*
X68973954Y-104583487D01*
X69000731Y-104581783D01*
X69022332Y-104580184D01*
X69038078Y-104578725D01*
X69040341Y-104578467D01*
X69051180Y-104577289D01*
X69067482Y-104575657D01*
X69088068Y-104573683D01*
X69111760Y-104571478D01*
X69137378Y-104569154D01*
X69163743Y-104566820D01*
X69165341Y-104566681D01*
X69190181Y-104564477D01*
X69212962Y-104562383D01*
X69232809Y-104560484D01*
X69248846Y-104558866D01*
X69260198Y-104557617D01*
X69265989Y-104556823D01*
X69266449Y-104556711D01*
X69270937Y-104555896D01*
X69281035Y-104554473D01*
X69295727Y-104552572D01*
X69313997Y-104550322D01*
X69334829Y-104547853D01*
X69344783Y-104546703D01*
X69367518Y-104544054D01*
X69389159Y-104541452D01*
X69408429Y-104539054D01*
X69424052Y-104537022D01*
X69434752Y-104535516D01*
X69437008Y-104535157D01*
X69473464Y-104528985D01*
X69504180Y-104523675D01*
X69530001Y-104519060D01*
X69551774Y-104514974D01*
X69570344Y-104511250D01*
X69586559Y-104507721D01*
X69601263Y-104504221D01*
X69615303Y-104500584D01*
X69622008Y-104498754D01*
X69649880Y-104490924D01*
X69675570Y-104483492D01*
X69698275Y-104476705D01*
X69717191Y-104470808D01*
X69731517Y-104466047D01*
X69740449Y-104462670D01*
X69741991Y-104461945D01*
X69748092Y-104459310D01*
X69758620Y-104455271D01*
X69771681Y-104450544D01*
X69777008Y-104448684D01*
X69847555Y-104422775D01*
X69916343Y-104394466D01*
X69982679Y-104364129D01*
X70045869Y-104332135D01*
X70105221Y-104298854D01*
X70160039Y-104264657D01*
X70209631Y-104229915D01*
X70253304Y-104194998D01*
X70256191Y-104192497D01*
X70265781Y-104183410D01*
X70278764Y-104170050D01*
X70294337Y-104153325D01*
X70311701Y-104134145D01*
X70330054Y-104113418D01*
X70348595Y-104092055D01*
X70366524Y-104070963D01*
X70383038Y-104051052D01*
X70397336Y-104033231D01*
X70403140Y-104025735D01*
X70435798Y-103980818D01*
X70465170Y-103936148D01*
X70490901Y-103892394D01*
X70512639Y-103850226D01*
X70530031Y-103810314D01*
X70542722Y-103773328D01*
X70548491Y-103750169D01*
X70553069Y-103728923D01*
X70557332Y-103711992D01*
X70561937Y-103697099D01*
X70567540Y-103681963D01*
X70569594Y-103676836D01*
X70583980Y-103648362D01*
X70601740Y-103624688D01*
X70622280Y-103606062D01*
X70645004Y-103592736D01*
X70669318Y-103584961D01*
X70694627Y-103582986D01*
X70720337Y-103587063D01*
G37*
G36*
X70171250Y-106987933D02*
G01*
X70150095Y-106979546D01*
X70127655Y-106971438D01*
X70112465Y-106966442D01*
X70190341Y-106966442D01*
X70192688Y-106969484D01*
X70193675Y-106970169D01*
X70196791Y-106971019D01*
X70197008Y-106970563D01*
X70194661Y-106967521D01*
X70193675Y-106966836D01*
X70190558Y-106965986D01*
X70190341Y-106966442D01*
X70112465Y-106966442D01*
X70103253Y-106963412D01*
X70076215Y-106955273D01*
X70045867Y-106946822D01*
X70011533Y-106937864D01*
X69972538Y-106928202D01*
X69928207Y-106917639D01*
X69888675Y-106908460D01*
X69737896Y-106874930D01*
X69591787Y-106844840D01*
X69449402Y-106818037D01*
X69309796Y-106794368D01*
X69172023Y-106773681D01*
X69035137Y-106755823D01*
X68898191Y-106740640D01*
X68785341Y-106730092D01*
X68765767Y-106728338D01*
X68748299Y-106726633D01*
X68734104Y-106725102D01*
X68724348Y-106723871D01*
X68720341Y-106723127D01*
X68715377Y-106722303D01*
X68705064Y-106721251D01*
X68690709Y-106720083D01*
X68673622Y-106718912D01*
X68665341Y-106718411D01*
X68642292Y-106716766D01*
X68616419Y-106714426D01*
X68590877Y-106711701D01*
X68568820Y-106708903D01*
X68568675Y-106708883D01*
X68549113Y-106706420D01*
X68525212Y-106703897D01*
X68499295Y-106701531D01*
X68473684Y-106699541D01*
X68458675Y-106698573D01*
X68420100Y-106696320D01*
X68387624Y-106694391D01*
X68360686Y-106692746D01*
X68338727Y-106691343D01*
X68321189Y-106690141D01*
X68307512Y-106689098D01*
X68297137Y-106688173D01*
X68289506Y-106687324D01*
X68284058Y-106686511D01*
X68280236Y-106685691D01*
X68278675Y-106685238D01*
X68269219Y-106683128D01*
X68253332Y-106680761D01*
X68231243Y-106678156D01*
X68203181Y-106675332D01*
X68169375Y-106672309D01*
X68130054Y-106669106D01*
X68085448Y-106665742D01*
X68035786Y-106662236D01*
X67981297Y-106658608D01*
X67922211Y-106654877D01*
X67902008Y-106653643D01*
X67872898Y-106651855D01*
X67849973Y-106650419D01*
X67840732Y-106649840D01*
X67807754Y-106647742D01*
X67776205Y-106645703D01*
X67748330Y-106643866D01*
X67740341Y-106643330D01*
X67714637Y-106641602D01*
X67687451Y-106639783D01*
X67660769Y-106638006D01*
X67636579Y-106636403D01*
X67616869Y-106635107D01*
X67615341Y-106635007D01*
X67588953Y-106633580D01*
X67557024Y-106632340D01*
X67520678Y-106631296D01*
X67481038Y-106630458D01*
X67439227Y-106629836D01*
X67396370Y-106629438D01*
X67353588Y-106629274D01*
X67312007Y-106629352D01*
X67272749Y-106629684D01*
X67236937Y-106630276D01*
X67205696Y-106631140D01*
X67195341Y-106631537D01*
X67156364Y-106633325D01*
X67113028Y-106635576D01*
X67066373Y-106638220D01*
X67017441Y-106641184D01*
X66967272Y-106644399D01*
X66916907Y-106647792D01*
X66867387Y-106651293D01*
X66819753Y-106654831D01*
X66775045Y-106658334D01*
X66734305Y-106661731D01*
X66698573Y-106664952D01*
X66680341Y-106666732D01*
X66655898Y-106669311D01*
X66628675Y-106672337D01*
X66626081Y-106672625D01*
X66592124Y-106676525D01*
X66555261Y-106680862D01*
X66516725Y-106685485D01*
X66493675Y-106688300D01*
X66477750Y-106690245D01*
X66439571Y-106694992D01*
X66403421Y-106699577D01*
X66370533Y-106703849D01*
X66342142Y-106707659D01*
X66335341Y-106708599D01*
X66278539Y-106717129D01*
X66227979Y-106726079D01*
X66183242Y-106735567D01*
X66143911Y-106745708D01*
X66109568Y-106756620D01*
X66079794Y-106768418D01*
X66054172Y-106781220D01*
X66037146Y-106791742D01*
X66007792Y-106814784D01*
X65981337Y-106841677D01*
X65959172Y-106870872D01*
X65946963Y-106891836D01*
X65942504Y-106901740D01*
X65937125Y-106915377D01*
X65931331Y-106931248D01*
X65925628Y-106947852D01*
X65920523Y-106963687D01*
X65916521Y-106977253D01*
X65914128Y-106987050D01*
X65913675Y-106990591D01*
X65916603Y-107000761D01*
X65924012Y-107010142D01*
X65933834Y-107016685D01*
X65941855Y-107018502D01*
X65952930Y-107016812D01*
X65961847Y-107011211D01*
X65969295Y-107000902D01*
X65975966Y-106985091D01*
X65978951Y-106975795D01*
X65993259Y-106936635D01*
X66011139Y-106902873D01*
X66032864Y-106874112D01*
X66058708Y-106849959D01*
X66072677Y-106839871D01*
X66093552Y-106827991D01*
X66119405Y-106816830D01*
X66150494Y-106806321D01*
X66187079Y-106796397D01*
X66229418Y-106786993D01*
X66277770Y-106778040D01*
X66332396Y-106769472D01*
X66362008Y-106765330D01*
X66388580Y-106761816D01*
X66417233Y-106758150D01*
X66447000Y-106754446D01*
X66476916Y-106750815D01*
X66506013Y-106747372D01*
X66533326Y-106744229D01*
X66557887Y-106741498D01*
X66578729Y-106739293D01*
X66594888Y-106737726D01*
X66605341Y-106736914D01*
X66618646Y-106735910D01*
X66635967Y-106734226D01*
X66654718Y-106732126D01*
X66667122Y-106730576D01*
X66688712Y-106728000D01*
X66716143Y-106725150D01*
X66748600Y-106722085D01*
X66785265Y-106718865D01*
X66825323Y-106715550D01*
X66867957Y-106712201D01*
X66912351Y-106708878D01*
X66957688Y-106705641D01*
X67003152Y-106702550D01*
X67047926Y-106699666D01*
X67091194Y-106697049D01*
X67132140Y-106694758D01*
X67169946Y-106692855D01*
X67192008Y-106691872D01*
X67248721Y-106690019D01*
X67309869Y-106688961D01*
X67373270Y-106688698D01*
X67436740Y-106689231D01*
X67498096Y-106690560D01*
X67533675Y-106691768D01*
X67568320Y-106693182D01*
X67596799Y-106694483D01*
X67619611Y-106695711D01*
X67637253Y-106696908D01*
X67650225Y-106698117D01*
X67659025Y-106699380D01*
X67664150Y-106700738D01*
X67666101Y-106702233D01*
X67666093Y-106702913D01*
X67663028Y-106706080D01*
X67654713Y-106712896D01*
X67641123Y-106723379D01*
X67622231Y-106737550D01*
X67598011Y-106755427D01*
X67568435Y-106777031D01*
X67533478Y-106802380D01*
X67493114Y-106831495D01*
X67447314Y-106864394D01*
X67430341Y-106876560D01*
X67340226Y-106940788D01*
X67250800Y-107003847D01*
X67160907Y-107066537D01*
X67069390Y-107129660D01*
X66975090Y-107194013D01*
X66876851Y-107260398D01*
X66815871Y-107301312D01*
X66786594Y-107320929D01*
X66762437Y-107337186D01*
X66742961Y-107350411D01*
X66727731Y-107360930D01*
X66716309Y-107369070D01*
X66708259Y-107375157D01*
X66703144Y-107379517D01*
X66700527Y-107382477D01*
X66699973Y-107384364D01*
X66701043Y-107385503D01*
X66702537Y-107386035D01*
X66707182Y-107386950D01*
X66717914Y-107388871D01*
X66734244Y-107391715D01*
X66755683Y-107395399D01*
X66781741Y-107399841D01*
X66811929Y-107404957D01*
X66845757Y-107410664D01*
X66882736Y-107416880D01*
X66922376Y-107423520D01*
X66964188Y-107430503D01*
X67002008Y-107436802D01*
X67089668Y-107451411D01*
X67171879Y-107465175D01*
X67249777Y-107478288D01*
X67324499Y-107490947D01*
X67397180Y-107503345D01*
X67468957Y-107515678D01*
X67540966Y-107528141D01*
X67614343Y-107540929D01*
X67690224Y-107554237D01*
X67769746Y-107568259D01*
X67828155Y-107578599D01*
X67871007Y-107586217D01*
X67907792Y-107592812D01*
X67939012Y-107598486D01*
X67965172Y-107603343D01*
X67986775Y-107607485D01*
X68004324Y-107611016D01*
X68018322Y-107614039D01*
X68029274Y-107616657D01*
X68037681Y-107618972D01*
X68044049Y-107621089D01*
X68048879Y-107623109D01*
X68051124Y-107624251D01*
X68069261Y-107637169D01*
X68082590Y-107654007D01*
X68088571Y-107666075D01*
X68092885Y-107682752D01*
X68092873Y-107702072D01*
X68088438Y-107724239D01*
X68079481Y-107749457D01*
X68065905Y-107777930D01*
X68047612Y-107809862D01*
X68024506Y-107845456D01*
X67996487Y-107884917D01*
X67963460Y-107928449D01*
X67962309Y-107929925D01*
X67935416Y-107964281D01*
X67910916Y-107995334D01*
X67888192Y-108023811D01*
X67866623Y-108050438D01*
X67845593Y-108075942D01*
X67824482Y-108101049D01*
X67802672Y-108126487D01*
X67779545Y-108152981D01*
X67754482Y-108181259D01*
X67726864Y-108212047D01*
X67696074Y-108246072D01*
X67661492Y-108284061D01*
X67652551Y-108293857D01*
X67633093Y-108315169D01*
X67669217Y-108315177D01*
X67682917Y-108315030D01*
X67701831Y-108314615D01*
X67724514Y-108313973D01*
X67749521Y-108313149D01*
X67775406Y-108312185D01*
X67791195Y-108311539D01*
X67877049Y-108307893D01*
X67898223Y-108317802D01*
X67918385Y-108330128D01*
X67932566Y-108345184D01*
X67940656Y-108362537D01*
X67942543Y-108381755D01*
X67938116Y-108402406D01*
X67927264Y-108424058D01*
X67926057Y-108425907D01*
X67917960Y-108437388D01*
X67906201Y-108453095D01*
X67891458Y-108472192D01*
X67874408Y-108493844D01*
X67855728Y-108517217D01*
X67836097Y-108541476D01*
X67816193Y-108565784D01*
X67796692Y-108589309D01*
X67778273Y-108611213D01*
X67761614Y-108630664D01*
X67747392Y-108646824D01*
X67741322Y-108653502D01*
X67702507Y-108694352D01*
X67658941Y-108738045D01*
X67611480Y-108783818D01*
X67560979Y-108830907D01*
X67508295Y-108878548D01*
X67454284Y-108925980D01*
X67399801Y-108972437D01*
X67345703Y-109017158D01*
X67292845Y-109059377D01*
X67245341Y-109095885D01*
X67197905Y-109130561D01*
X67145659Y-109166939D01*
X67089889Y-109204213D01*
X67031885Y-109241577D01*
X66972935Y-109278224D01*
X66914326Y-109313347D01*
X66857346Y-109346141D01*
X66803285Y-109375799D01*
X66772623Y-109391836D01*
X66756335Y-109400274D01*
X66742358Y-109407700D01*
X66731674Y-109413579D01*
X66725267Y-109417372D01*
X66723852Y-109418502D01*
X66726797Y-109420207D01*
X66735115Y-109424241D01*
X66748066Y-109430268D01*
X66764914Y-109437949D01*
X66784922Y-109446947D01*
X66807350Y-109456924D01*
X66817956Y-109461607D01*
X66843292Y-109472856D01*
X66873238Y-109486293D01*
X66906370Y-109501273D01*
X66941265Y-109517146D01*
X66976500Y-109533267D01*
X67010652Y-109548988D01*
X67038675Y-109561976D01*
X67108373Y-109594204D01*
X67173625Y-109623937D01*
X67235873Y-109651802D01*
X67296559Y-109678429D01*
X67357127Y-109704445D01*
X67419019Y-109730478D01*
X67483678Y-109757157D01*
X67533675Y-109777489D01*
X67555187Y-109786261D01*
X67574706Y-109794351D01*
X67591358Y-109801389D01*
X67604274Y-109807002D01*
X67612582Y-109810819D01*
X67615341Y-109812345D01*
X67612911Y-109813017D01*
X67604423Y-109813516D01*
X67590485Y-109813849D01*
X67571704Y-109814023D01*
X67548687Y-109814043D01*
X67522041Y-109813917D01*
X67492372Y-109813652D01*
X67460289Y-109813254D01*
X67426398Y-109812730D01*
X67391306Y-109812086D01*
X67355620Y-109811330D01*
X67319947Y-109810467D01*
X67284895Y-109809506D01*
X67251070Y-109808451D01*
X67245341Y-109808258D01*
X67159912Y-109804764D01*
X67076477Y-109800197D01*
X66996025Y-109794629D01*
X66919544Y-109788135D01*
X66848019Y-109780788D01*
X66802008Y-109775252D01*
X66788597Y-109773560D01*
X66769451Y-109771190D01*
X66745457Y-109768250D01*
X66717499Y-109764847D01*
X66686464Y-109761088D01*
X66653236Y-109757081D01*
X66618703Y-109752933D01*
X66583749Y-109748752D01*
X66582008Y-109748544D01*
X66523796Y-109741556D01*
X66471730Y-109735200D01*
X66425323Y-109729399D01*
X66384094Y-109724073D01*
X66347557Y-109719144D01*
X66315228Y-109714532D01*
X66286624Y-109710159D01*
X66261261Y-109705947D01*
X66238655Y-109701815D01*
X66218321Y-109697686D01*
X66199776Y-109693480D01*
X66182535Y-109689119D01*
X66166115Y-109684523D01*
X66150033Y-109679615D01*
X66140996Y-109676701D01*
X66113537Y-109666972D01*
X66091105Y-109657155D01*
X66072116Y-109646305D01*
X66054987Y-109633476D01*
X66038134Y-109617723D01*
X66032613Y-109611987D01*
X66015679Y-109591550D01*
X66001535Y-109568686D01*
X65989423Y-109541972D01*
X65978951Y-109511210D01*
X65973298Y-109494391D01*
X65967950Y-109483056D01*
X65962356Y-109476077D01*
X65961514Y-109475377D01*
X65949427Y-109469497D01*
X65936957Y-109469331D01*
X65925767Y-109474328D01*
X65917519Y-109483934D01*
X65914863Y-109490888D01*
X65914959Y-109498379D01*
X65917294Y-109510586D01*
X65921424Y-109526126D01*
X65926906Y-109543613D01*
X65933294Y-109561661D01*
X65940145Y-109578885D01*
X65947014Y-109593901D01*
X65949319Y-109598339D01*
X65972148Y-109633681D01*
X65999965Y-109664943D01*
X66032130Y-109691575D01*
X66068004Y-109713024D01*
X66096240Y-109725119D01*
X66116109Y-109732069D01*
X66136005Y-109738482D01*
X66156447Y-109744450D01*
X66177954Y-109750064D01*
X66201041Y-109755415D01*
X66226229Y-109760594D01*
X66254034Y-109765692D01*
X66284975Y-109770800D01*
X66319570Y-109776010D01*
X66358336Y-109781412D01*
X66401792Y-109787098D01*
X66450456Y-109793159D01*
X66504844Y-109799686D01*
X66550341Y-109805016D01*
X66580911Y-109808583D01*
X66609590Y-109811961D01*
X66635666Y-109815063D01*
X66658428Y-109817803D01*
X66677164Y-109820095D01*
X66691163Y-109821854D01*
X66699712Y-109822992D01*
X66702008Y-109823358D01*
X66708903Y-109824523D01*
X66721456Y-109826262D01*
X66738689Y-109828464D01*
X66759631Y-109831016D01*
X66783304Y-109833805D01*
X66808735Y-109836719D01*
X66834950Y-109839646D01*
X66860972Y-109842472D01*
X66885829Y-109845087D01*
X66908545Y-109847376D01*
X66918675Y-109848353D01*
X66965937Y-109852624D01*
X67012586Y-109856413D01*
X67059300Y-109859746D01*
X67106756Y-109862649D01*
X67155630Y-109865148D01*
X67206602Y-109867268D01*
X67260347Y-109869035D01*
X67317544Y-109870476D01*
X67378869Y-109871617D01*
X67445001Y-109872482D01*
X67516617Y-109873099D01*
X67573675Y-109873411D01*
X67617324Y-109873655D01*
X67661912Y-109874007D01*
X67706534Y-109874454D01*
X67750289Y-109874982D01*
X67792275Y-109875579D01*
X67831589Y-109876230D01*
X67867328Y-109876924D01*
X67898591Y-109877646D01*
X67924476Y-109878383D01*
X67933675Y-109878699D01*
X67959722Y-109879526D01*
X67991292Y-109880311D01*
X68027238Y-109881036D01*
X68066415Y-109881686D01*
X68107678Y-109882243D01*
X68149882Y-109882691D01*
X68191882Y-109883013D01*
X68232533Y-109883193D01*
X68243675Y-109883216D01*
X68438675Y-109883502D01*
X68607008Y-109869309D01*
X68643520Y-109866202D01*
X68681023Y-109862958D01*
X68718395Y-109859678D01*
X68754510Y-109856462D01*
X68788244Y-109853411D01*
X68818474Y-109850626D01*
X68844075Y-109848207D01*
X68860341Y-109846617D01*
X68990039Y-109832376D01*
X69120833Y-109815450D01*
X69253417Y-109795716D01*
X69388489Y-109773054D01*
X69526744Y-109747345D01*
X69668877Y-109718466D01*
X69815586Y-109686299D01*
X69905341Y-109665547D01*
X69950901Y-109654612D01*
X69990774Y-109644560D01*
X70025839Y-109635119D01*
X70056974Y-109626019D01*
X70085060Y-109616989D01*
X70110974Y-109607759D01*
X70135597Y-109598059D01*
X70159806Y-109587617D01*
X70162400Y-109586449D01*
X70179199Y-109579057D01*
X70194324Y-109572780D01*
X70206531Y-109568106D01*
X70214575Y-109565524D01*
X70216671Y-109565169D01*
X70223708Y-109567119D01*
X70225415Y-109572760D01*
X70221793Y-109581778D01*
X70216606Y-109589271D01*
X70210184Y-109597084D01*
X70199822Y-109609132D01*
X70186110Y-109624758D01*
X70169637Y-109643303D01*
X70150991Y-109664110D01*
X70130761Y-109686519D01*
X70109534Y-109709874D01*
X70087901Y-109733515D01*
X70077131Y-109745220D01*
X70066056Y-109757379D01*
X70051381Y-109773711D01*
X70033871Y-109793352D01*
X70014294Y-109815437D01*
X69993415Y-109839102D01*
X69972000Y-109863483D01*
X69950816Y-109887714D01*
X69950084Y-109888554D01*
X69904528Y-109940670D01*
X69862609Y-109988309D01*
X69823716Y-110032130D01*
X69787239Y-110072793D01*
X69752565Y-110110959D01*
X69719084Y-110147287D01*
X69686183Y-110182436D01*
X69653253Y-110217066D01*
X69619680Y-110251837D01*
X69584854Y-110287410D01*
X69548163Y-110324443D01*
X69520692Y-110351939D01*
X69482625Y-110389705D01*
X69445985Y-110425619D01*
X69411156Y-110459323D01*
X69378520Y-110490458D01*
X69348460Y-110518666D01*
X69321359Y-110543590D01*
X69297600Y-110564870D01*
X69277564Y-110582150D01*
X69261636Y-110595069D01*
X69257786Y-110597989D01*
X69236898Y-110613502D01*
X69267786Y-110615818D01*
X69279363Y-110616555D01*
X69296382Y-110617462D01*
X69317624Y-110618484D01*
X69341868Y-110619563D01*
X69367894Y-110620644D01*
X69394481Y-110621670D01*
X69395341Y-110621702D01*
X69424051Y-110622848D01*
X69457543Y-110624327D01*
X69493946Y-110626047D01*
X69531389Y-110627918D01*
X69568002Y-110629847D01*
X69601914Y-110631743D01*
X69608439Y-110632124D01*
X69640162Y-110634029D01*
X69665934Y-110635680D01*
X69686462Y-110637151D01*
X69702453Y-110638515D01*
X69714613Y-110639844D01*
X69723651Y-110641212D01*
X69730273Y-110642692D01*
X69735186Y-110644357D01*
X69737605Y-110645474D01*
X69743160Y-110648553D01*
X69747249Y-110651531D01*
X69749584Y-110654495D01*
X69749876Y-110657530D01*
X69747838Y-110660724D01*
X69743181Y-110664164D01*
X69735617Y-110667936D01*
X69724858Y-110672127D01*
X69710616Y-110676823D01*
X69692603Y-110682112D01*
X69670529Y-110688079D01*
X69644108Y-110694813D01*
X69613051Y-110702399D01*
X69577070Y-110710923D01*
X69535877Y-110720474D01*
X69489183Y-110731137D01*
X69436700Y-110742999D01*
X69378141Y-110756147D01*
X69345341Y-110763488D01*
X69240055Y-110787430D01*
X69136772Y-110811744D01*
X69034169Y-110836765D01*
X68930919Y-110862830D01*
X68825696Y-110890273D01*
X68717175Y-110919430D01*
X68604029Y-110950638D01*
X68582008Y-110956797D01*
X68503018Y-110978767D01*
X68429285Y-110998933D01*
X68360928Y-111017266D01*
X68298064Y-111033736D01*
X68240812Y-111048314D01*
X68189290Y-111060970D01*
X68143618Y-111071673D01*
X68103914Y-111080396D01*
X68070296Y-111087107D01*
X68042884Y-111091778D01*
X68040341Y-111092153D01*
X68027021Y-111094327D01*
X68016130Y-111096553D01*
X68009447Y-111098450D01*
X68008426Y-111098971D01*
X68003881Y-111100280D01*
X67994098Y-111101874D01*
X67980486Y-111103557D01*
X67964457Y-111105134D01*
X67963426Y-111105223D01*
X67946802Y-111106843D01*
X67932030Y-111108650D01*
X67920699Y-111110424D01*
X67914401Y-111111946D01*
X67914351Y-111111966D01*
X67905589Y-111114533D01*
X67900184Y-111115169D01*
X67895894Y-111116359D01*
X67894015Y-111121081D01*
X67893675Y-111128346D01*
X67894518Y-111139066D01*
X67896589Y-111148174D01*
X67896983Y-111149179D01*
X67897980Y-111153762D01*
X67899669Y-111164101D01*
X67901940Y-111179336D01*
X67904679Y-111198605D01*
X67907776Y-111221047D01*
X67911116Y-111245801D01*
X67914589Y-111272006D01*
X67918082Y-111298800D01*
X67921483Y-111325323D01*
X67924680Y-111350713D01*
X67927560Y-111374110D01*
X67930011Y-111394651D01*
X67931922Y-111411475D01*
X67933179Y-111423723D01*
X67933672Y-111430531D01*
X67933675Y-111430821D01*
X67930710Y-111438184D01*
X67922773Y-111446422D01*
X67911299Y-111454568D01*
X67897722Y-111461658D01*
X67883479Y-111466726D01*
X67878675Y-111467829D01*
X67873386Y-111468534D01*
X67861790Y-111469847D01*
X67844215Y-111471735D01*
X67820991Y-111474166D01*
X67792447Y-111477107D01*
X67758909Y-111480523D01*
X67720708Y-111484384D01*
X67678173Y-111488655D01*
X67631631Y-111493305D01*
X67581411Y-111498299D01*
X67527843Y-111503606D01*
X67471254Y-111509191D01*
X67411974Y-111515023D01*
X67350331Y-111521069D01*
X67286655Y-111527295D01*
X67221273Y-111533669D01*
X67202008Y-111535543D01*
X67136220Y-111541945D01*
X67072057Y-111548196D01*
X67009847Y-111554263D01*
X66949917Y-111560116D01*
X66892594Y-111565721D01*
X66838207Y-111571045D01*
X66787082Y-111576058D01*
X66739549Y-111580727D01*
X66695933Y-111585019D01*
X66656562Y-111588903D01*
X66621765Y-111592345D01*
X66591869Y-111595315D01*
X66567201Y-111597779D01*
X66548090Y-111599706D01*
X66534861Y-111601063D01*
X66527844Y-111601818D01*
X66527008Y-111601921D01*
X66512636Y-111603860D01*
X66497603Y-111605839D01*
X66492008Y-111606560D01*
X66485989Y-111607223D01*
X66473904Y-111608460D01*
X66456320Y-111610217D01*
X66433809Y-111612438D01*
X66406939Y-111615067D01*
X66376280Y-111618049D01*
X66342401Y-111621328D01*
X66305872Y-111624848D01*
X66267263Y-111628555D01*
X66233675Y-111631768D01*
X66183475Y-111636528D01*
X66139585Y-111640612D01*
X66101684Y-111644046D01*
X66069450Y-111646854D01*
X66042565Y-111649063D01*
X66020705Y-111650697D01*
X66005233Y-111651676D01*
X66003553Y-111651782D01*
X65990786Y-111652342D01*
X65982084Y-111652404D01*
X65977205Y-111652008D01*
X65963554Y-111647203D01*
X65960318Y-111643952D01*
X65955096Y-111638707D01*
X65951864Y-111630169D01*
X65951220Y-111625888D01*
X65949813Y-111615502D01*
X65947709Y-111599522D01*
X65944974Y-111578459D01*
X65941673Y-111552823D01*
X65937871Y-111523126D01*
X65934137Y-111493821D01*
X65990789Y-111493821D01*
X65991207Y-111503001D01*
X65992350Y-111515956D01*
X65994041Y-111531309D01*
X65996101Y-111547687D01*
X65998351Y-111563715D01*
X66000612Y-111578018D01*
X66002706Y-111589220D01*
X66004455Y-111595948D01*
X66005233Y-111597255D01*
X66008809Y-111597054D01*
X66018755Y-111596232D01*
X66034802Y-111594816D01*
X66056685Y-111592830D01*
X66084137Y-111590301D01*
X66116892Y-111587253D01*
X66154681Y-111583712D01*
X66197240Y-111579703D01*
X66244301Y-111575251D01*
X66295598Y-111570382D01*
X66350864Y-111565122D01*
X66409832Y-111559494D01*
X66472237Y-111553526D01*
X66537810Y-111547241D01*
X66606286Y-111540666D01*
X66677398Y-111533826D01*
X66750879Y-111526745D01*
X66826463Y-111519450D01*
X66903883Y-111511966D01*
X66939016Y-111508565D01*
X67017197Y-111500998D01*
X67093674Y-111493599D01*
X67168179Y-111486394D01*
X67240445Y-111479410D01*
X67310205Y-111472672D01*
X67377191Y-111466205D01*
X67441136Y-111460035D01*
X67501772Y-111454189D01*
X67558832Y-111448692D01*
X67612049Y-111443569D01*
X67661155Y-111438846D01*
X67705883Y-111434550D01*
X67745965Y-111430705D01*
X67781135Y-111427338D01*
X67811124Y-111424474D01*
X67835665Y-111422139D01*
X67854491Y-111420358D01*
X67867335Y-111419159D01*
X67873929Y-111418565D01*
X67874782Y-111418502D01*
X67876931Y-111418556D01*
X67878474Y-111418154D01*
X67879385Y-111416448D01*
X67879636Y-111412592D01*
X67879198Y-111405740D01*
X67878044Y-111395046D01*
X67876147Y-111379662D01*
X67873478Y-111358741D01*
X67872596Y-111351836D01*
X67869872Y-111330869D01*
X67867711Y-111315637D01*
X67865897Y-111305255D01*
X67864213Y-111298838D01*
X67862444Y-111295499D01*
X67860374Y-111294354D01*
X67858582Y-111294390D01*
X67854753Y-111294804D01*
X67844561Y-111295877D01*
X67828272Y-111297582D01*
X67806155Y-111299890D01*
X67778478Y-111302774D01*
X67745507Y-111306205D01*
X67707511Y-111310157D01*
X67664758Y-111314601D01*
X67617514Y-111319510D01*
X67566048Y-111324856D01*
X67510626Y-111330610D01*
X67451518Y-111336746D01*
X67388990Y-111343235D01*
X67323310Y-111350049D01*
X67254746Y-111357161D01*
X67183565Y-111364544D01*
X67110035Y-111372168D01*
X67034423Y-111380007D01*
X66956998Y-111388032D01*
X66922575Y-111391600D01*
X66844498Y-111399698D01*
X66768148Y-111407628D01*
X66693791Y-111415362D01*
X66621692Y-111422873D01*
X66552117Y-111430132D01*
X66485333Y-111437112D01*
X66421605Y-111443784D01*
X66361199Y-111450121D01*
X66304380Y-111456093D01*
X66251415Y-111461674D01*
X66202570Y-111466836D01*
X66158110Y-111471549D01*
X66118301Y-111475787D01*
X66083409Y-111479520D01*
X66053700Y-111482722D01*
X66029440Y-111485364D01*
X66010894Y-111487418D01*
X65998329Y-111488857D01*
X65992010Y-111489651D01*
X65991276Y-111489790D01*
X65990789Y-111493821D01*
X65934137Y-111493821D01*
X65933635Y-111489877D01*
X65929029Y-111453587D01*
X65924119Y-111414767D01*
X65918970Y-111373927D01*
X65916928Y-111357695D01*
X65885647Y-111108864D01*
X65942202Y-111108864D01*
X65942355Y-111112220D01*
X65943197Y-111121066D01*
X65944597Y-111134278D01*
X65946422Y-111150732D01*
X65948541Y-111169301D01*
X65950822Y-111188861D01*
X65953134Y-111208287D01*
X65955344Y-111226454D01*
X65957321Y-111242237D01*
X65958934Y-111254511D01*
X65960050Y-111262151D01*
X65960318Y-111263611D01*
X65963506Y-111263308D01*
X65972527Y-111262398D01*
X65986582Y-111260963D01*
X66004872Y-111259086D01*
X66026598Y-111256847D01*
X66050963Y-111254330D01*
X66062841Y-111253100D01*
X66078129Y-111251518D01*
X66099586Y-111249300D01*
X66126749Y-111246493D01*
X66159156Y-111243146D01*
X66196344Y-111239307D01*
X66237850Y-111235022D01*
X66283212Y-111230340D01*
X66331968Y-111225309D01*
X66383654Y-111219976D01*
X66437808Y-111214388D01*
X66493968Y-111208595D01*
X66551671Y-111202643D01*
X66610454Y-111196580D01*
X66669854Y-111190454D01*
X66672008Y-111190232D01*
X66729513Y-111184293D01*
X66785244Y-111178520D01*
X66838835Y-111172951D01*
X66889923Y-111167625D01*
X66938144Y-111162581D01*
X66983134Y-111157856D01*
X67024530Y-111153490D01*
X67061967Y-111149521D01*
X67095081Y-111145987D01*
X67123509Y-111142928D01*
X67146887Y-111140380D01*
X67164850Y-111138384D01*
X67177036Y-111136977D01*
X67183080Y-111136198D01*
X67183675Y-111136082D01*
X67182118Y-111135196D01*
X67174834Y-111133846D01*
X67162737Y-111132159D01*
X67146739Y-111130260D01*
X67127753Y-111128276D01*
X67125341Y-111128040D01*
X67103266Y-111125836D01*
X67081410Y-111123541D01*
X67061448Y-111121338D01*
X67045055Y-111119412D01*
X67035341Y-111118152D01*
X67010828Y-111114402D01*
X66981923Y-111109470D01*
X66949659Y-111103573D01*
X66915070Y-111096928D01*
X66879190Y-111089750D01*
X66843055Y-111082258D01*
X66807697Y-111074666D01*
X66774150Y-111067194D01*
X66743450Y-111060055D01*
X66716629Y-111053469D01*
X66694722Y-111047651D01*
X66684305Y-111044599D01*
X66676406Y-111042266D01*
X66669492Y-111040695D01*
X66662284Y-111039871D01*
X66653504Y-111039777D01*
X66641871Y-111040399D01*
X66626108Y-111041720D01*
X66605972Y-111043624D01*
X66521926Y-111051716D01*
X66444349Y-111059194D01*
X66373072Y-111066075D01*
X66307926Y-111072374D01*
X66248744Y-111078109D01*
X66195356Y-111083295D01*
X66147594Y-111087950D01*
X66105290Y-111092091D01*
X66068276Y-111095732D01*
X66036383Y-111098893D01*
X66009442Y-111101587D01*
X65987285Y-111103833D01*
X65969745Y-111105647D01*
X65956652Y-111107046D01*
X65947837Y-111108045D01*
X65943134Y-111108662D01*
X65942202Y-111108864D01*
X65885647Y-111108864D01*
X65883513Y-111091887D01*
X65890303Y-111078577D01*
X65896229Y-111069149D01*
X65902742Y-111061844D01*
X65904551Y-111060458D01*
X65909382Y-111058868D01*
X65919548Y-111056964D01*
X65935269Y-111054720D01*
X65956768Y-111052110D01*
X65984266Y-111049105D01*
X66017985Y-111045680D01*
X66055341Y-111042072D01*
X66085936Y-111039157D01*
X66114775Y-111036377D01*
X66141117Y-111033806D01*
X66164218Y-111031517D01*
X66183336Y-111029586D01*
X66197729Y-111028084D01*
X66206652Y-111027088D01*
X66209017Y-111026773D01*
X66219359Y-111025051D01*
X66221330Y-110997610D01*
X66225173Y-110968950D01*
X66232163Y-110942906D01*
X66241847Y-110920922D01*
X66248767Y-110910274D01*
X66255063Y-110901622D01*
X66259266Y-110895070D01*
X66260341Y-110892615D01*
X66257486Y-110890456D01*
X66249524Y-110885901D01*
X66237365Y-110879429D01*
X66221914Y-110871523D01*
X66204080Y-110862663D01*
X66201175Y-110861242D01*
X66091807Y-110804808D01*
X65983581Y-110742933D01*
X65877445Y-110676257D01*
X65774350Y-110605417D01*
X65675248Y-110531054D01*
X65581087Y-110453807D01*
X65534442Y-110412756D01*
X65516049Y-110395786D01*
X65494377Y-110375166D01*
X65470300Y-110351780D01*
X65444695Y-110326511D01*
X65418436Y-110300241D01*
X65392399Y-110273853D01*
X65367459Y-110248231D01*
X65344490Y-110224258D01*
X65324369Y-110202816D01*
X65307970Y-110184788D01*
X65303901Y-110180169D01*
X65213708Y-110071964D01*
X65129397Y-109960793D01*
X65051024Y-109846748D01*
X64978647Y-109729916D01*
X64912324Y-109610387D01*
X64852113Y-109488249D01*
X64844765Y-109472244D01*
X64790541Y-109345186D01*
X64742645Y-109216180D01*
X64701117Y-109085421D01*
X64665994Y-108953103D01*
X64637314Y-108819419D01*
X64615118Y-108684565D01*
X64599442Y-108548733D01*
X64590325Y-108412119D01*
X64587807Y-108274915D01*
X64589708Y-108186003D01*
X64597526Y-108053115D01*
X64611129Y-107922624D01*
X64630637Y-107793955D01*
X64656170Y-107666531D01*
X64687848Y-107539777D01*
X64725792Y-107413118D01*
X64770121Y-107285979D01*
X64786943Y-107241836D01*
X64839383Y-107116281D01*
X64897825Y-106993496D01*
X64962108Y-106873705D01*
X65032072Y-106757131D01*
X65107557Y-106643998D01*
X65188404Y-106534529D01*
X65274451Y-106428948D01*
X65365539Y-106327478D01*
X65461509Y-106230345D01*
X65562199Y-106137770D01*
X65600706Y-106104643D01*
X65637705Y-106073860D01*
X65676296Y-106042617D01*
X65714978Y-106012096D01*
X65752247Y-105983479D01*
X65786600Y-105957947D01*
X65795341Y-105951621D01*
X65832040Y-105926280D01*
X69661452Y-105926280D01*
X69661910Y-105928262D01*
X69663675Y-105928502D01*
X69666418Y-105927283D01*
X69665897Y-105926280D01*
X69661941Y-105925881D01*
X69661452Y-105926280D01*
X65832040Y-105926280D01*
X65859816Y-105907100D01*
X65929266Y-105862528D01*
X66002073Y-105818847D01*
X66076619Y-105777001D01*
X66151287Y-105737933D01*
X66214508Y-105707208D01*
X66229126Y-105700212D01*
X66241264Y-105694096D01*
X66249794Y-105689451D01*
X66253583Y-105686872D01*
X66253675Y-105686678D01*
X66251783Y-105682954D01*
X66246994Y-105676075D01*
X66244118Y-105672316D01*
X66229244Y-105648744D01*
X66218180Y-105621553D01*
X66211730Y-105593075D01*
X66211265Y-105586639D01*
X66490341Y-105586639D01*
X66492677Y-105589485D01*
X66493675Y-105590169D01*
X66496746Y-105589905D01*
X66497008Y-105588699D01*
X66494588Y-105585305D01*
X66493675Y-105585169D01*
X66490428Y-105586306D01*
X66490341Y-105586639D01*
X66211265Y-105586639D01*
X66210390Y-105574533D01*
X66209764Y-105564893D01*
X66208231Y-105558351D01*
X66207292Y-105557011D01*
X66203422Y-105556254D01*
X66193633Y-105554870D01*
X66178632Y-105552946D01*
X66159129Y-105550567D01*
X66135832Y-105547820D01*
X66109449Y-105544789D01*
X66080690Y-105541560D01*
X66066464Y-105539989D01*
X66031267Y-105536032D01*
X66000197Y-105532358D01*
X65973684Y-105529024D01*
X65952158Y-105526088D01*
X65936050Y-105523609D01*
X65925790Y-105521645D01*
X65922013Y-105520441D01*
X65907671Y-105508794D01*
X65899531Y-105496657D01*
X65897122Y-105483881D01*
X65897539Y-105478486D01*
X65898333Y-105470715D01*
X65954782Y-105470715D01*
X65954793Y-105470732D01*
X65958117Y-105471188D01*
X65967530Y-105472314D01*
X65982495Y-105474050D01*
X66002474Y-105476337D01*
X66026929Y-105479116D01*
X66055324Y-105482325D01*
X66087120Y-105485906D01*
X66121781Y-105489798D01*
X66158768Y-105493942D01*
X66197544Y-105498278D01*
X66237572Y-105502745D01*
X66278315Y-105507285D01*
X66319234Y-105511838D01*
X66359793Y-105516343D01*
X66399453Y-105520740D01*
X66437678Y-105524971D01*
X66473930Y-105528975D01*
X66507671Y-105532692D01*
X66538364Y-105536063D01*
X66565471Y-105539027D01*
X66588456Y-105541525D01*
X66606780Y-105543497D01*
X66619906Y-105544883D01*
X66627296Y-105545624D01*
X66628675Y-105545733D01*
X66633304Y-105544969D01*
X66642530Y-105542846D01*
X66654525Y-105539792D01*
X66657008Y-105539131D01*
X66710622Y-105524937D01*
X66758936Y-105512588D01*
X66802985Y-105501854D01*
X66843801Y-105492501D01*
X66882420Y-105484298D01*
X66919876Y-105477012D01*
X66957203Y-105470410D01*
X66978925Y-105466848D01*
X66997592Y-105463811D01*
X67014475Y-105460962D01*
X67028231Y-105458534D01*
X67037520Y-105456761D01*
X67040341Y-105456123D01*
X67041837Y-105455833D01*
X67043626Y-105455617D01*
X67045421Y-105455440D01*
X67046934Y-105455269D01*
X67047877Y-105455069D01*
X67047963Y-105454806D01*
X67046904Y-105454446D01*
X67044413Y-105453954D01*
X67040202Y-105453297D01*
X67033983Y-105452441D01*
X67025469Y-105451350D01*
X67014372Y-105449991D01*
X67000405Y-105448331D01*
X66983279Y-105446333D01*
X66962708Y-105443966D01*
X66938403Y-105441193D01*
X66910078Y-105437982D01*
X66877443Y-105434297D01*
X66840212Y-105430105D01*
X66798098Y-105425372D01*
X66750812Y-105420063D01*
X66698067Y-105414144D01*
X66639575Y-105407581D01*
X66575049Y-105400340D01*
X66504201Y-105392386D01*
X66500341Y-105391953D01*
X66441714Y-105385374D01*
X66384902Y-105379008D01*
X66330257Y-105372893D01*
X66278131Y-105367068D01*
X66228875Y-105361573D01*
X66182841Y-105356446D01*
X66140382Y-105351727D01*
X66101848Y-105347454D01*
X66067592Y-105343667D01*
X66037965Y-105340404D01*
X66013320Y-105337705D01*
X65994008Y-105335608D01*
X65980380Y-105334154D01*
X65972789Y-105333379D01*
X65971256Y-105333261D01*
X65970567Y-105336657D01*
X65969286Y-105345466D01*
X65967557Y-105358490D01*
X65965522Y-105374531D01*
X65963326Y-105392393D01*
X65961111Y-105410876D01*
X65959022Y-105428784D01*
X65957201Y-105444920D01*
X65955792Y-105458085D01*
X65954938Y-105467083D01*
X65954782Y-105470715D01*
X65898333Y-105470715D01*
X65898712Y-105467000D01*
X65900581Y-105449949D01*
X65903083Y-105427861D01*
X65906158Y-105401260D01*
X65909743Y-105370674D01*
X65913778Y-105336627D01*
X65918201Y-105299646D01*
X65922951Y-105260258D01*
X65927965Y-105218987D01*
X65930037Y-105202025D01*
X65939211Y-105127030D01*
X65995341Y-105127030D01*
X66433675Y-105176191D01*
X66494140Y-105182973D01*
X66560261Y-105190390D01*
X66631072Y-105198335D01*
X66705603Y-105206698D01*
X66782886Y-105215371D01*
X66861953Y-105224245D01*
X66941835Y-105233211D01*
X67021566Y-105242161D01*
X67100175Y-105250986D01*
X67176696Y-105259578D01*
X67250159Y-105267827D01*
X67319598Y-105275625D01*
X67360145Y-105280179D01*
X67416483Y-105286494D01*
X67471004Y-105292580D01*
X67523342Y-105298397D01*
X67573129Y-105303906D01*
X67619998Y-105309066D01*
X67663583Y-105313839D01*
X67703516Y-105318184D01*
X67739431Y-105322061D01*
X67770960Y-105325431D01*
X67797736Y-105328254D01*
X67819392Y-105330490D01*
X67835562Y-105332099D01*
X67845878Y-105333042D01*
X67849973Y-105333278D01*
X67850026Y-105333262D01*
X67851072Y-105329425D01*
X67852686Y-105320107D01*
X67854726Y-105306455D01*
X67857050Y-105289618D01*
X67859514Y-105270743D01*
X67861976Y-105250977D01*
X67864293Y-105231468D01*
X67866323Y-105213364D01*
X67867923Y-105197812D01*
X67868951Y-105185960D01*
X67869264Y-105178956D01*
X67869251Y-105178567D01*
X67868675Y-105166964D01*
X66942693Y-105068992D01*
X66864783Y-105060754D01*
X66788604Y-105052708D01*
X66714422Y-105044883D01*
X66642503Y-105037305D01*
X66573113Y-105030004D01*
X66506518Y-105023006D01*
X66442984Y-105016339D01*
X66382776Y-105010031D01*
X66326162Y-105004110D01*
X66273406Y-104998604D01*
X66224776Y-104993539D01*
X66180536Y-104988945D01*
X66140952Y-104984849D01*
X66106292Y-104981278D01*
X66076820Y-104978261D01*
X66052803Y-104975824D01*
X66034506Y-104973996D01*
X66022196Y-104972805D01*
X66016139Y-104972278D01*
X66015523Y-104972261D01*
X66014794Y-104975781D01*
X66013395Y-104984979D01*
X66011454Y-104998916D01*
X66009101Y-105016652D01*
X66006463Y-105037247D01*
X66004838Y-105050266D01*
X65995341Y-105127030D01*
X65939211Y-105127030D01*
X65962838Y-104933881D01*
X65973309Y-104924525D01*
X65981223Y-104918643D01*
X65989610Y-104915864D01*
X66001431Y-104915169D01*
X66008336Y-104915527D01*
X66021201Y-104916553D01*
X66039359Y-104918178D01*
X66062145Y-104920332D01*
X66088893Y-104922943D01*
X66118937Y-104925943D01*
X66151610Y-104929261D01*
X66186248Y-104932826D01*
X66222184Y-104936569D01*
X66258751Y-104940420D01*
X66295285Y-104944308D01*
X66331119Y-104948163D01*
X66365588Y-104951916D01*
X66398025Y-104955495D01*
X66427764Y-104958831D01*
X66454139Y-104961853D01*
X66476485Y-104964492D01*
X66494136Y-104966678D01*
X66506425Y-104968339D01*
X66507008Y-104968425D01*
X66514774Y-104969434D01*
X66528831Y-104971097D01*
X66548842Y-104973377D01*
X66574467Y-104976237D01*
X66605368Y-104979643D01*
X66641205Y-104983556D01*
X66681640Y-104987940D01*
X66726333Y-104992760D01*
X66774946Y-104997979D01*
X66827141Y-105003560D01*
X66882577Y-105009467D01*
X66940917Y-105015663D01*
X67001821Y-105022113D01*
X67064951Y-105028779D01*
X67129968Y-105035625D01*
X67196532Y-105042615D01*
X67228595Y-105045975D01*
X67307860Y-105054281D01*
X67380760Y-105061928D01*
X67447563Y-105068949D01*
X67508534Y-105075372D01*
X67563940Y-105081228D01*
X67614047Y-105086547D01*
X67659123Y-105091359D01*
X67699433Y-105095695D01*
X67735244Y-105099585D01*
X67766822Y-105103058D01*
X67794435Y-105106146D01*
X67818348Y-105108878D01*
X67838829Y-105111284D01*
X67856143Y-105113395D01*
X67870557Y-105115241D01*
X67882338Y-105116852D01*
X67891752Y-105118259D01*
X67899065Y-105119490D01*
X67904545Y-105120578D01*
X67908458Y-105121551D01*
X67911070Y-105122440D01*
X67912648Y-105123276D01*
X67912939Y-105123502D01*
X67916729Y-105127138D01*
X67919734Y-105131269D01*
X67921943Y-105136515D01*
X67923347Y-105143493D01*
X67923935Y-105152820D01*
X67923698Y-105165113D01*
X67922625Y-105180991D01*
X67920708Y-105201071D01*
X67917935Y-105225970D01*
X67914297Y-105256306D01*
X67910294Y-105288620D01*
X67906556Y-105318090D01*
X67902907Y-105345978D01*
X67899461Y-105371476D01*
X67896331Y-105393778D01*
X67893633Y-105412074D01*
X67891479Y-105425559D01*
X67889984Y-105433424D01*
X67889739Y-105434377D01*
X67887459Y-105443593D01*
X67887754Y-105449113D01*
X67890928Y-105453509D01*
X67892142Y-105454673D01*
X67900698Y-105459782D01*
X67914931Y-105464880D01*
X67933855Y-105469688D01*
X67956487Y-105473931D01*
X67965341Y-105475265D01*
X67982769Y-105478121D01*
X68005323Y-105482418D01*
X68031689Y-105487870D01*
X68060555Y-105494188D01*
X68090607Y-105501085D01*
X68120532Y-105508277D01*
X68147008Y-105514953D01*
X68162309Y-105518906D01*
X68182842Y-105524201D01*
X68207381Y-105530522D01*
X68234700Y-105537553D01*
X68263574Y-105544979D01*
X68292777Y-105552485D01*
X68307008Y-105556140D01*
X68390581Y-105577798D01*
X68468642Y-105598439D01*
X68542222Y-105618340D01*
X68612348Y-105637775D01*
X68627008Y-105641901D01*
X68682419Y-105657318D01*
X68742860Y-105673732D01*
X68807240Y-105690868D01*
X68874469Y-105708451D01*
X68943458Y-105726207D01*
X69013118Y-105743859D01*
X69082358Y-105761133D01*
X69150089Y-105777754D01*
X69215222Y-105793447D01*
X69276666Y-105807936D01*
X69333332Y-105820947D01*
X69358675Y-105826622D01*
X69421101Y-105840492D01*
X69477313Y-105853042D01*
X69527615Y-105864356D01*
X69572310Y-105874514D01*
X69611701Y-105883599D01*
X69646092Y-105891693D01*
X69675786Y-105898878D01*
X69701088Y-105905236D01*
X69722299Y-105910850D01*
X69739725Y-105915801D01*
X69753669Y-105920171D01*
X69764433Y-105924044D01*
X69772322Y-105927499D01*
X69777640Y-105930621D01*
X69780689Y-105933491D01*
X69781773Y-105936190D01*
X69781195Y-105938802D01*
X69779996Y-105940585D01*
X69776561Y-105944014D01*
X69771999Y-105946917D01*
X69765655Y-105949391D01*
X69756873Y-105951533D01*
X69744997Y-105953440D01*
X69729371Y-105955208D01*
X69709341Y-105956936D01*
X69684250Y-105958719D01*
X69663675Y-105960011D01*
X69653443Y-105960654D01*
X69637930Y-105961578D01*
X69604850Y-105963452D01*
X69568656Y-105965378D01*
X69531231Y-105967264D01*
X69494455Y-105969017D01*
X69460209Y-105970546D01*
X69430377Y-105971759D01*
X69425341Y-105971947D01*
X69398884Y-105972963D01*
X69373066Y-105974037D01*
X69349080Y-105975114D01*
X69328120Y-105976138D01*
X69311380Y-105977052D01*
X69300054Y-105977802D01*
X69299679Y-105977832D01*
X69270683Y-105980169D01*
X69296345Y-106000560D01*
X69310367Y-106012153D01*
X69328462Y-106027823D01*
X69349970Y-106046955D01*
X69374232Y-106068931D01*
X69400586Y-106093134D01*
X69428374Y-106118949D01*
X69456934Y-106145757D01*
X69485607Y-106172943D01*
X69513732Y-106199890D01*
X69540650Y-106225980D01*
X69565700Y-106250598D01*
X69588223Y-106273126D01*
X69589992Y-106274917D01*
X69642102Y-106328397D01*
X69697772Y-106386801D01*
X69756600Y-106449694D01*
X69818184Y-106516638D01*
X69882121Y-106587197D01*
X69948009Y-106660935D01*
X70001781Y-106721836D01*
X70022882Y-106745790D01*
X70044371Y-106770056D01*
X70065438Y-106793733D01*
X70085276Y-106815914D01*
X70103078Y-106835699D01*
X70118035Y-106852182D01*
X70128449Y-106863502D01*
X70158983Y-106896473D01*
X70185035Y-106924899D01*
X70206790Y-106948999D01*
X70224436Y-106968988D01*
X70238156Y-106985083D01*
X70248138Y-106997500D01*
X70254566Y-107006456D01*
X70257627Y-107012168D01*
X70257871Y-107014336D01*
X70255215Y-107017395D01*
X70249673Y-107018113D01*
X70240617Y-107016321D01*
X70227421Y-107011855D01*
X70209457Y-107004548D01*
X70196791Y-106998989D01*
X70191794Y-106996796D01*
X70171250Y-106987933D01*
G37*
G36*
X69998492Y-109998601D02*
G01*
X70047749Y-110007827D01*
X70095029Y-110017491D01*
X70141336Y-110027861D01*
X70187675Y-110039203D01*
X70235050Y-110051786D01*
X70284464Y-110065876D01*
X70336921Y-110081743D01*
X70393426Y-110099652D01*
X70454983Y-110119871D01*
X70460341Y-110121659D01*
X70538881Y-110148518D01*
X70611161Y-110174579D01*
X70677520Y-110199994D01*
X70738296Y-110224916D01*
X70793828Y-110249498D01*
X70844455Y-110273890D01*
X70890514Y-110298246D01*
X70932345Y-110322718D01*
X70970287Y-110347459D01*
X70984323Y-110357372D01*
X70996098Y-110365835D01*
X71011295Y-110376688D01*
X71027883Y-110388483D01*
X71042656Y-110398944D01*
X71090989Y-110435780D01*
X71140446Y-110478713D01*
X71190657Y-110527343D01*
X71241250Y-110581269D01*
X71291854Y-110640093D01*
X71342097Y-110703413D01*
X71391609Y-110770831D01*
X71402619Y-110786538D01*
X71426834Y-110823461D01*
X71449958Y-110862735D01*
X71471450Y-110903207D01*
X71490770Y-110943724D01*
X71507379Y-110983133D01*
X71520736Y-111020281D01*
X71530300Y-111054015D01*
X71532391Y-111063502D01*
X71534528Y-111077819D01*
X71536305Y-111096964D01*
X71537664Y-111119185D01*
X71538550Y-111142726D01*
X71538908Y-111165833D01*
X71538681Y-111186754D01*
X71537813Y-111203732D01*
X71537073Y-111210542D01*
X71530424Y-111244132D01*
X71520380Y-111272800D01*
X71506270Y-111297710D01*
X71487422Y-111320027D01*
X71463164Y-111340913D01*
X71460810Y-111342676D01*
X71441114Y-111355375D01*
X71418863Y-111366659D01*
X71396779Y-111375251D01*
X71383944Y-111378756D01*
X71367564Y-111382269D01*
X71378784Y-111414561D01*
X71388133Y-111445407D01*
X71396874Y-111481990D01*
X71404895Y-111523397D01*
X71412081Y-111568716D01*
X71418321Y-111617036D01*
X71423501Y-111667445D01*
X71427509Y-111719030D01*
X71430231Y-111770879D01*
X71431556Y-111822082D01*
X71431669Y-111841836D01*
X71431052Y-111895533D01*
X71429123Y-111943566D01*
X71425712Y-111986837D01*
X71420650Y-112026250D01*
X71413767Y-112062708D01*
X71404894Y-112097114D01*
X71393860Y-112130372D01*
X71380496Y-112163384D01*
X71365155Y-112196009D01*
X71349684Y-112225660D01*
X71332559Y-112256103D01*
X71314386Y-112286429D01*
X71295768Y-112315725D01*
X71277310Y-112343082D01*
X71259618Y-112367589D01*
X71243296Y-112388334D01*
X71228948Y-112404408D01*
X71222959Y-112410180D01*
X71206227Y-112423100D01*
X71184270Y-112436367D01*
X71156656Y-112450215D01*
X71122954Y-112464876D01*
X71117894Y-112466939D01*
X71084367Y-112478439D01*
X71053273Y-112484447D01*
X71023431Y-112484894D01*
X70993660Y-112479708D01*
X70962779Y-112468818D01*
X70936610Y-112456020D01*
X70935971Y-112458888D01*
X70935259Y-112467542D01*
X70934516Y-112481102D01*
X70933786Y-112498687D01*
X70933110Y-112519418D01*
X70932641Y-112537537D01*
X70931747Y-112569135D01*
X70930615Y-112595105D01*
X70929173Y-112616483D01*
X70927345Y-112634306D01*
X70925058Y-112649609D01*
X70924341Y-112653502D01*
X70917514Y-112685618D01*
X70909373Y-112718190D01*
X70900284Y-112750094D01*
X70890614Y-112780205D01*
X70880730Y-112807401D01*
X70870999Y-112830556D01*
X70861787Y-112848548D01*
X70859420Y-112852400D01*
X70847915Y-112867520D01*
X70831851Y-112884844D01*
X70812464Y-112903279D01*
X70790992Y-112921734D01*
X70768669Y-112939115D01*
X70746732Y-112954332D01*
X70737709Y-112959947D01*
X70712307Y-112971658D01*
X70686588Y-112977015D01*
X70661147Y-112976269D01*
X70636579Y-112969670D01*
X70613478Y-112957470D01*
X70592439Y-112939918D01*
X70574056Y-112917265D01*
X70558925Y-112889761D01*
X70556260Y-112883502D01*
X70550212Y-112867825D01*
X70545367Y-112853100D01*
X70541067Y-112837049D01*
X70536658Y-112817393D01*
X70535158Y-112810169D01*
X70525868Y-112775558D01*
X70511637Y-112737565D01*
X70492820Y-112696860D01*
X70469768Y-112654113D01*
X70442836Y-112609993D01*
X70412376Y-112565171D01*
X70389807Y-112534603D01*
X70376846Y-112518098D01*
X70361288Y-112499070D01*
X70343934Y-112478428D01*
X70325585Y-112457080D01*
X70307043Y-112435937D01*
X70289107Y-112415906D01*
X70272580Y-112397897D01*
X70258263Y-112382820D01*
X70246956Y-112371583D01*
X70242858Y-112367842D01*
X70199637Y-112332927D01*
X70150446Y-112298160D01*
X70095979Y-112263911D01*
X70036930Y-112230552D01*
X69973992Y-112198453D01*
X69907859Y-112167985D01*
X69839223Y-112139519D01*
X69768779Y-112113425D01*
X69763675Y-112111654D01*
X69750140Y-112106853D01*
X69738408Y-112102463D01*
X69730371Y-112099200D01*
X69728658Y-112098393D01*
X69721553Y-112095492D01*
X69708807Y-112091133D01*
X69691222Y-112085560D01*
X69669600Y-112079021D01*
X69644746Y-112071762D01*
X69617462Y-112064029D01*
X69608675Y-112061584D01*
X69594653Y-112057823D01*
X69580370Y-112054279D01*
X69564981Y-112050785D01*
X69547640Y-112047175D01*
X69527499Y-112043282D01*
X69503713Y-112038939D01*
X69475436Y-112033981D01*
X69441821Y-112028241D01*
X69423675Y-112025181D01*
X69414903Y-112023886D01*
X69400782Y-112022011D01*
X69382588Y-112019718D01*
X69361597Y-112017166D01*
X69339085Y-112014515D01*
X69331449Y-112013635D01*
X69309795Y-112011110D01*
X69290244Y-112008745D01*
X69273814Y-112006670D01*
X69261521Y-112005016D01*
X69254379Y-112003911D01*
X69253116Y-112003627D01*
X69248765Y-112002953D01*
X69238647Y-112001803D01*
X69223637Y-112000265D01*
X69204610Y-111998425D01*
X69182443Y-111996369D01*
X69158010Y-111994183D01*
X69152008Y-111993657D01*
X69125635Y-111991327D01*
X69099938Y-111988999D01*
X69076096Y-111986784D01*
X69055287Y-111984793D01*
X69038692Y-111983137D01*
X69027488Y-111981928D01*
X69027008Y-111981871D01*
X69012446Y-111980442D01*
X68991900Y-111978867D01*
X68966049Y-111977180D01*
X68935573Y-111975415D01*
X68901152Y-111973606D01*
X68863466Y-111971787D01*
X68823193Y-111969992D01*
X68781014Y-111968255D01*
X68737610Y-111966609D01*
X68693658Y-111965090D01*
X68685341Y-111964819D01*
X68667959Y-111964292D01*
X68650185Y-111963824D01*
X68631703Y-111963416D01*
X68612199Y-111963070D01*
X68591355Y-111962786D01*
X68568856Y-111962564D01*
X68544386Y-111962407D01*
X68517629Y-111962315D01*
X68488268Y-111962288D01*
X68455988Y-111962328D01*
X68420473Y-111962436D01*
X68381407Y-111962613D01*
X68338474Y-111962858D01*
X68291358Y-111963175D01*
X68239743Y-111963562D01*
X68183312Y-111964022D01*
X68121751Y-111964556D01*
X68054742Y-111965163D01*
X67981971Y-111965845D01*
X67903121Y-111966603D01*
X67830341Y-111967316D01*
X67783934Y-111967664D01*
X67734490Y-111967834D01*
X67682718Y-111967836D01*
X67629329Y-111967678D01*
X67575030Y-111967371D01*
X67520533Y-111966922D01*
X67466546Y-111966341D01*
X67413779Y-111965638D01*
X67362942Y-111964821D01*
X67314744Y-111963900D01*
X67269894Y-111962883D01*
X67229103Y-111961781D01*
X67193079Y-111960601D01*
X67162532Y-111959354D01*
X67145341Y-111958477D01*
X67123291Y-111957250D01*
X67096881Y-111955816D01*
X67068411Y-111954298D01*
X67040177Y-111952818D01*
X67017008Y-111951628D01*
X66981884Y-111949613D01*
X66944115Y-111947034D01*
X66904740Y-111943991D01*
X66864796Y-111940583D01*
X66825323Y-111936913D01*
X66787359Y-111933080D01*
X66751943Y-111929184D01*
X66720113Y-111925327D01*
X66692908Y-111921608D01*
X66672143Y-111918268D01*
X66639613Y-111910624D01*
X66604316Y-111898794D01*
X66565944Y-111882633D01*
X66524190Y-111861994D01*
X66478746Y-111836731D01*
X66429306Y-111806699D01*
X66407008Y-111792456D01*
X66390548Y-111781360D01*
X66373466Y-111769075D01*
X66356458Y-111756189D01*
X66340220Y-111743293D01*
X66325446Y-111730977D01*
X66312832Y-111719831D01*
X66303074Y-111710444D01*
X66296867Y-111703407D01*
X66294907Y-111699310D01*
X66296251Y-111698502D01*
X66300800Y-111698202D01*
X66310754Y-111697372D01*
X66324879Y-111696122D01*
X66341945Y-111694559D01*
X66352792Y-111693543D01*
X66361082Y-111692761D01*
X66375684Y-111691384D01*
X66396272Y-111689443D01*
X66422521Y-111686968D01*
X66454106Y-111683990D01*
X66490700Y-111680540D01*
X66531978Y-111676648D01*
X66577615Y-111672346D01*
X66627285Y-111667663D01*
X66680663Y-111662631D01*
X66737424Y-111657280D01*
X66797241Y-111651641D01*
X66859790Y-111645745D01*
X66924744Y-111639621D01*
X66991779Y-111633302D01*
X67060568Y-111626818D01*
X67130787Y-111620198D01*
X67148675Y-111618512D01*
X67218564Y-111611913D01*
X67286760Y-111605454D01*
X67352958Y-111599163D01*
X67416857Y-111593070D01*
X67478155Y-111587205D01*
X67536551Y-111581597D01*
X67591741Y-111576276D01*
X67643423Y-111571270D01*
X67691297Y-111566610D01*
X67735059Y-111562325D01*
X67774408Y-111558444D01*
X67809041Y-111554996D01*
X67838656Y-111552012D01*
X67862952Y-111549520D01*
X67881627Y-111547550D01*
X67894377Y-111546131D01*
X67900902Y-111545293D01*
X67901672Y-111545138D01*
X67912022Y-111542790D01*
X67923337Y-111541781D01*
X67923339Y-111541781D01*
X67938642Y-111538739D01*
X67953510Y-111530674D01*
X67965685Y-111518978D01*
X67969385Y-111513435D01*
X67971786Y-111508884D01*
X67973700Y-111504136D01*
X67975123Y-111498544D01*
X67976052Y-111491463D01*
X67976483Y-111482244D01*
X67976413Y-111470242D01*
X67975839Y-111454810D01*
X67974757Y-111435301D01*
X67973164Y-111411069D01*
X67971056Y-111381468D01*
X67968504Y-111346836D01*
X67965626Y-111308217D01*
X67963204Y-111275718D01*
X67961223Y-111248810D01*
X67959670Y-111226961D01*
X67958532Y-111209643D01*
X67957794Y-111196325D01*
X67957445Y-111186477D01*
X67957470Y-111179568D01*
X67957855Y-111175070D01*
X67958588Y-111172451D01*
X67959655Y-111171183D01*
X67961043Y-111170734D01*
X67962737Y-111170575D01*
X67964029Y-111170369D01*
X67969941Y-111169138D01*
X67981091Y-111166928D01*
X67996162Y-111163995D01*
X68013842Y-111160597D01*
X68025341Y-111158406D01*
X68044631Y-111154627D01*
X68068607Y-111149750D01*
X68095451Y-111144156D01*
X68123350Y-111138224D01*
X68150487Y-111132334D01*
X68160341Y-111130160D01*
X68188732Y-111123920D01*
X68220463Y-111117042D01*
X68253189Y-111110030D01*
X68284564Y-111103385D01*
X68312240Y-111097610D01*
X68317008Y-111096627D01*
X68343615Y-111091026D01*
X68374363Y-111084337D01*
X68406923Y-111077080D01*
X68438967Y-111069775D01*
X68468167Y-111062943D01*
X68473675Y-111061628D01*
X68498858Y-111055634D01*
X68524458Y-111049623D01*
X68548944Y-111043946D01*
X68570787Y-111038959D01*
X68588458Y-111035014D01*
X68595341Y-111033523D01*
X68616388Y-111028750D01*
X68642112Y-111022463D01*
X68670822Y-111015114D01*
X68700825Y-111007154D01*
X68730429Y-110999035D01*
X68757942Y-110991210D01*
X68781671Y-110984129D01*
X68789316Y-110981737D01*
X68803840Y-110977356D01*
X68824505Y-110971492D01*
X68850976Y-110964234D01*
X68882914Y-110955671D01*
X68919983Y-110945894D01*
X68961846Y-110934992D01*
X69008167Y-110923053D01*
X69058608Y-110910168D01*
X69065341Y-110908455D01*
X69087927Y-110902644D01*
X69109197Y-110897039D01*
X69128013Y-110891950D01*
X69143239Y-110887688D01*
X69153738Y-110884562D01*
X69157008Y-110883468D01*
X69165323Y-110880766D01*
X69178635Y-110876844D01*
X69195478Y-110872117D01*
X69214387Y-110867000D01*
X69227008Y-110863682D01*
X69254916Y-110856375D01*
X69285704Y-110848213D01*
X69318044Y-110839555D01*
X69350608Y-110830762D01*
X69382068Y-110822194D01*
X69411096Y-110814211D01*
X69436363Y-110807173D01*
X69456542Y-110801441D01*
X69457008Y-110801307D01*
X69486690Y-110792975D01*
X69520124Y-110783990D01*
X69555102Y-110774920D01*
X69589413Y-110766332D01*
X69620850Y-110758793D01*
X69637008Y-110755099D01*
X69678734Y-110745476D01*
X69714195Y-110736615D01*
X69743737Y-110728410D01*
X69767705Y-110720754D01*
X69786445Y-110713539D01*
X69800302Y-110706660D01*
X69806178Y-110702825D01*
X69818778Y-110689924D01*
X69825933Y-110674680D01*
X69827956Y-110658116D01*
X69825156Y-110641254D01*
X69817844Y-110625117D01*
X69806330Y-110610727D01*
X69790926Y-110599109D01*
X69772327Y-110591388D01*
X69765015Y-110590207D01*
X69752809Y-110589407D01*
X69735337Y-110588984D01*
X69712229Y-110588931D01*
X69683115Y-110589245D01*
X69657008Y-110589719D01*
X69604323Y-110590392D01*
X69553753Y-110590135D01*
X69503125Y-110588895D01*
X69450267Y-110586618D01*
X69393208Y-110583265D01*
X69361075Y-110581169D01*
X69399875Y-110546849D01*
X69408322Y-110539351D01*
X69416194Y-110532276D01*
X69423882Y-110525228D01*
X69431775Y-110517812D01*
X69440264Y-110509634D01*
X69449740Y-110500296D01*
X69460591Y-110489406D01*
X69473209Y-110476566D01*
X69487984Y-110461382D01*
X69505305Y-110443458D01*
X69525564Y-110422400D01*
X69549151Y-110397812D01*
X69576455Y-110369298D01*
X69607867Y-110336463D01*
X69617074Y-110326836D01*
X69642799Y-110299981D01*
X69670019Y-110271643D01*
X69697793Y-110242799D01*
X69725178Y-110214425D01*
X69751230Y-110187496D01*
X69775009Y-110162989D01*
X69795570Y-110141881D01*
X69803764Y-110133502D01*
X69823899Y-110112887D01*
X69844145Y-110092038D01*
X69863594Y-110071901D01*
X69881335Y-110053421D01*
X69896459Y-110037544D01*
X69908056Y-110025216D01*
X69910444Y-110022640D01*
X69942008Y-109988443D01*
X69998492Y-109998601D01*
G37*
G36*
X71295524Y-109761685D02*
G01*
X71279040Y-109761836D01*
X71246915Y-109729336D01*
X71230278Y-109712449D01*
X71210295Y-109692072D01*
X71187258Y-109668507D01*
X71161457Y-109642052D01*
X71133181Y-109613010D01*
X71102721Y-109581680D01*
X71070367Y-109548363D01*
X71036408Y-109513359D01*
X71001136Y-109476969D01*
X70964839Y-109439493D01*
X70927809Y-109401232D01*
X70890334Y-109362486D01*
X70852706Y-109323555D01*
X70815215Y-109284741D01*
X70778149Y-109246343D01*
X70741801Y-109208662D01*
X70706458Y-109171998D01*
X70672413Y-109136653D01*
X70639954Y-109102926D01*
X70609372Y-109071118D01*
X70580957Y-109041529D01*
X70554999Y-109014460D01*
X70531788Y-108990211D01*
X70511614Y-108969083D01*
X70494768Y-108951376D01*
X70481538Y-108937391D01*
X70472217Y-108927428D01*
X70467092Y-108921787D01*
X70466175Y-108920648D01*
X70462027Y-108909759D01*
X70460341Y-108898502D01*
X70460750Y-108893740D01*
X70462421Y-108888938D01*
X70466020Y-108883236D01*
X70472213Y-108875775D01*
X70481665Y-108865693D01*
X70495043Y-108852130D01*
X70500320Y-108846857D01*
X70540298Y-108806983D01*
X70466986Y-108733407D01*
X70446249Y-108712534D01*
X70429785Y-108695782D01*
X70417111Y-108682596D01*
X70407748Y-108672421D01*
X70401214Y-108664705D01*
X70397027Y-108658892D01*
X70394707Y-108654430D01*
X70393773Y-108650763D01*
X70393675Y-108649001D01*
X70394312Y-108644487D01*
X70452008Y-108644487D01*
X70526175Y-108719436D01*
X70548733Y-108742126D01*
X70566970Y-108760608D01*
X70581052Y-108775603D01*
X70591144Y-108787832D01*
X70597412Y-108798019D01*
X70600022Y-108806884D01*
X70599140Y-108815149D01*
X70594931Y-108823537D01*
X70587561Y-108832769D01*
X70577195Y-108843567D01*
X70564001Y-108856653D01*
X70558863Y-108861789D01*
X70517384Y-108903502D01*
X70907022Y-109305169D01*
X70949213Y-109348641D01*
X70990173Y-109390801D01*
X71029658Y-109431401D01*
X71067427Y-109470194D01*
X71103236Y-109506932D01*
X71136844Y-109541368D01*
X71168009Y-109573254D01*
X71196487Y-109602342D01*
X71222036Y-109628385D01*
X71244414Y-109651136D01*
X71263379Y-109670346D01*
X71278688Y-109685768D01*
X71290099Y-109697154D01*
X71297369Y-109704258D01*
X71300256Y-109706831D01*
X71300280Y-109706836D01*
X71303198Y-109704601D01*
X71310450Y-109698196D01*
X71321563Y-109688069D01*
X71336064Y-109674670D01*
X71353481Y-109658447D01*
X71373340Y-109639850D01*
X71395169Y-109619328D01*
X71418494Y-109597329D01*
X71442844Y-109574303D01*
X71467744Y-109550699D01*
X71492723Y-109526965D01*
X71517306Y-109503551D01*
X71541023Y-109480905D01*
X71563398Y-109459477D01*
X71583961Y-109439716D01*
X71602237Y-109422071D01*
X71617755Y-109406990D01*
X71630040Y-109394923D01*
X71638621Y-109386319D01*
X71643024Y-109381627D01*
X71643516Y-109380913D01*
X71641253Y-109378276D01*
X71634588Y-109371108D01*
X71623766Y-109359663D01*
X71609030Y-109344193D01*
X71590623Y-109324950D01*
X71568788Y-109302188D01*
X71543769Y-109276159D01*
X71515809Y-109247115D01*
X71485151Y-109215311D01*
X71452038Y-109180997D01*
X71416714Y-109144428D01*
X71379422Y-109105855D01*
X71340405Y-109065532D01*
X71299906Y-109023710D01*
X71264893Y-108987580D01*
X71222980Y-108944344D01*
X71182117Y-108902195D01*
X71142566Y-108861401D01*
X71104587Y-108822232D01*
X71068442Y-108784956D01*
X71034391Y-108749843D01*
X71002695Y-108717162D01*
X70973615Y-108687181D01*
X70947413Y-108660169D01*
X70924348Y-108636396D01*
X70904682Y-108616131D01*
X70888676Y-108599642D01*
X70876590Y-108587198D01*
X70868686Y-108579069D01*
X70865642Y-108575949D01*
X70845173Y-108555062D01*
X70799724Y-108598228D01*
X70778562Y-108617864D01*
X70761190Y-108632883D01*
X70747026Y-108643700D01*
X70735487Y-108650730D01*
X70725991Y-108654389D01*
X70719831Y-108655169D01*
X70715461Y-108653302D01*
X70707727Y-108647551D01*
X70696384Y-108637698D01*
X70681182Y-108623521D01*
X70661876Y-108604798D01*
X70647091Y-108590169D01*
X70629923Y-108573194D01*
X70614212Y-108557879D01*
X70600595Y-108544827D01*
X70589707Y-108534642D01*
X70582186Y-108527925D01*
X70578669Y-108525280D01*
X70578568Y-108525262D01*
X70575389Y-108527515D01*
X70568114Y-108533808D01*
X70557415Y-108543524D01*
X70543964Y-108556045D01*
X70528433Y-108570753D01*
X70513675Y-108584921D01*
X70452008Y-108644487D01*
X70394312Y-108644487D01*
X70395224Y-108638029D01*
X70398439Y-108628957D01*
X70401961Y-108624472D01*
X70409626Y-108616151D01*
X70420704Y-108604705D01*
X70434463Y-108590844D01*
X70450170Y-108575279D01*
X70467094Y-108558720D01*
X70484504Y-108541879D01*
X70501667Y-108525465D01*
X70517852Y-108510189D01*
X70532327Y-108496762D01*
X70544359Y-108485894D01*
X70553218Y-108478296D01*
X70555341Y-108476612D01*
X70566880Y-108468403D01*
X70575444Y-108464281D01*
X70582818Y-108463665D01*
X70589537Y-108465482D01*
X70594278Y-108468701D01*
X70602979Y-108476010D01*
X70614923Y-108486750D01*
X70629391Y-108500261D01*
X70645666Y-108515885D01*
X70662683Y-108532618D01*
X70726691Y-108596295D01*
X70775318Y-108549899D01*
X70790663Y-108535320D01*
X70804832Y-108521975D01*
X70816944Y-108510683D01*
X70826121Y-108502263D01*
X70831482Y-108497536D01*
X70831853Y-108497235D01*
X70840572Y-108492993D01*
X70850193Y-108493936D01*
X70861465Y-108500311D01*
X70873922Y-108511173D01*
X70880758Y-108517975D01*
X70891686Y-108529029D01*
X70906423Y-108544039D01*
X70924682Y-108562711D01*
X70946180Y-108584751D01*
X70970631Y-108609864D01*
X70997752Y-108637756D01*
X71027258Y-108668133D01*
X71058863Y-108700699D01*
X71092283Y-108735161D01*
X71127234Y-108771223D01*
X71163431Y-108808593D01*
X71200590Y-108846974D01*
X71238424Y-108886072D01*
X71276651Y-108925594D01*
X71314985Y-108965244D01*
X71353142Y-109004728D01*
X71390837Y-109043752D01*
X71427785Y-109082022D01*
X71463702Y-109119241D01*
X71498302Y-109155117D01*
X71531303Y-109189355D01*
X71562418Y-109221660D01*
X71591363Y-109251738D01*
X71617853Y-109279294D01*
X71641604Y-109304034D01*
X71662332Y-109325664D01*
X71679750Y-109343888D01*
X71693576Y-109358413D01*
X71703524Y-109368944D01*
X71709309Y-109375187D01*
X71710723Y-109376836D01*
X71715377Y-109385269D01*
X71716408Y-109391678D01*
X71714218Y-109399355D01*
X71713651Y-109400785D01*
X71706841Y-109409542D01*
X71696208Y-109414550D01*
X71690674Y-109415169D01*
X71686807Y-109417498D01*
X71678285Y-109424428D01*
X71665200Y-109435878D01*
X71647640Y-109451764D01*
X71625696Y-109472005D01*
X71599456Y-109496518D01*
X71569010Y-109525220D01*
X71534449Y-109558029D01*
X71506870Y-109584336D01*
X71477899Y-109611960D01*
X71450163Y-109638289D01*
X71424064Y-109662951D01*
X71400001Y-109685571D01*
X71378375Y-109705779D01*
X71359587Y-109723199D01*
X71344036Y-109737461D01*
X71332124Y-109748190D01*
X71324251Y-109755013D01*
X71320923Y-109757519D01*
X71312152Y-109759979D01*
X71300462Y-109761485D01*
X71300280Y-109761492D01*
X71295524Y-109761685D01*
G37*
G36*
X69588253Y-107829336D02*
G01*
X69369074Y-107603502D01*
X69202208Y-107544162D01*
X69170211Y-107532746D01*
X69139974Y-107521885D01*
X69112105Y-107511803D01*
X69087215Y-107502724D01*
X69065913Y-107494873D01*
X69048808Y-107488472D01*
X69036511Y-107483746D01*
X69029631Y-107480919D01*
X69028494Y-107480346D01*
X69025726Y-107476446D01*
X69020307Y-107466750D01*
X69012369Y-107451522D01*
X69002041Y-107431027D01*
X68989453Y-107405528D01*
X68974737Y-107375289D01*
X68958021Y-107340573D01*
X68939435Y-107301646D01*
X68919112Y-107258770D01*
X68917661Y-107255699D01*
X68896707Y-107211251D01*
X68878510Y-107172464D01*
X68862917Y-107138997D01*
X68849777Y-107110511D01*
X68838938Y-107086667D01*
X68830249Y-107067125D01*
X68823559Y-107051546D01*
X68818715Y-107039591D01*
X68815567Y-107030920D01*
X68815356Y-107030169D01*
X68866733Y-107030169D01*
X68963833Y-107235169D01*
X69060934Y-107440169D01*
X69224804Y-107498109D01*
X69256643Y-107509386D01*
X69286825Y-107520112D01*
X69314718Y-107530062D01*
X69339692Y-107539007D01*
X69361113Y-107546722D01*
X69378350Y-107552978D01*
X69390772Y-107557549D01*
X69397747Y-107560208D01*
X69398747Y-107560628D01*
X69407508Y-107566356D01*
X69413747Y-107573129D01*
X69416765Y-107576660D01*
X69424091Y-107584609D01*
X69435384Y-107596617D01*
X69450300Y-107612327D01*
X69468496Y-107631382D01*
X69489630Y-107653422D01*
X69513358Y-107678091D01*
X69539338Y-107705031D01*
X69567226Y-107733884D01*
X69596680Y-107764293D01*
X69623092Y-107791509D01*
X69827510Y-108001966D01*
X69849759Y-107981652D01*
X69871434Y-107961676D01*
X69890736Y-107943521D01*
X69907199Y-107927649D01*
X69920358Y-107914519D01*
X69929749Y-107904593D01*
X69934905Y-107898331D01*
X69935770Y-107896471D01*
X69933435Y-107893587D01*
X69926777Y-107886272D01*
X69916125Y-107874867D01*
X69901807Y-107859718D01*
X69884152Y-107841166D01*
X69863488Y-107819557D01*
X69840145Y-107795234D01*
X69814450Y-107768539D01*
X69786732Y-107739817D01*
X69757320Y-107709412D01*
X69726542Y-107677666D01*
X69725341Y-107676429D01*
X69694210Y-107644329D01*
X69664209Y-107613339D01*
X69635692Y-107583827D01*
X69609012Y-107556160D01*
X69584522Y-107530708D01*
X69562573Y-107507836D01*
X69543521Y-107487914D01*
X69527716Y-107471308D01*
X69515512Y-107458386D01*
X69507263Y-107449517D01*
X69503368Y-107445128D01*
X69499473Y-107439278D01*
X69494344Y-107429811D01*
X69487813Y-107416345D01*
X69479711Y-107398501D01*
X69469868Y-107375898D01*
X69458116Y-107348158D01*
X69444286Y-107314899D01*
X69430699Y-107281836D01*
X69418468Y-107252063D01*
X69406896Y-107224129D01*
X69396247Y-107198650D01*
X69386783Y-107176244D01*
X69378767Y-107157529D01*
X69372461Y-107143122D01*
X69368128Y-107133640D01*
X69366030Y-107129701D01*
X69366006Y-107129677D01*
X69362537Y-107127743D01*
X69353676Y-107123225D01*
X69340038Y-107116421D01*
X69322242Y-107107632D01*
X69300906Y-107097156D01*
X69276646Y-107085293D01*
X69250080Y-107072341D01*
X69221825Y-107058601D01*
X69192500Y-107044371D01*
X69162720Y-107029951D01*
X69133105Y-107015640D01*
X69104271Y-107001737D01*
X69076836Y-106988541D01*
X69051417Y-106976352D01*
X69028632Y-106965470D01*
X69009098Y-106956192D01*
X68993432Y-106948820D01*
X68982252Y-106943651D01*
X68981457Y-106943290D01*
X68964239Y-106935503D01*
X68866733Y-107030169D01*
X68815356Y-107030169D01*
X68813962Y-107025194D01*
X68813675Y-107022868D01*
X68813905Y-107018716D01*
X68814966Y-107014658D01*
X68817412Y-107010032D01*
X68821796Y-107004177D01*
X68828674Y-106996432D01*
X68838598Y-106986135D01*
X68852125Y-106972626D01*
X68869806Y-106955243D01*
X68872841Y-106952270D01*
X68895022Y-106930854D01*
X68913308Y-106913949D01*
X68928274Y-106901118D01*
X68940496Y-106891928D01*
X68950549Y-106885941D01*
X68959008Y-106882724D01*
X68965932Y-106881836D01*
X68969721Y-106883248D01*
X68978920Y-106887297D01*
X68992946Y-106893704D01*
X69011216Y-106902188D01*
X69033147Y-106912470D01*
X69058154Y-106924269D01*
X69085655Y-106937305D01*
X69115065Y-106951300D01*
X69145802Y-106965972D01*
X69177281Y-106981041D01*
X69208919Y-106996229D01*
X69240133Y-107011254D01*
X69270339Y-107025837D01*
X69298953Y-107039699D01*
X69325392Y-107052558D01*
X69349073Y-107064135D01*
X69369412Y-107074150D01*
X69385824Y-107082323D01*
X69397728Y-107088375D01*
X69404539Y-107092024D01*
X69405909Y-107092913D01*
X69407902Y-107096686D01*
X69412149Y-107106035D01*
X69418397Y-107120359D01*
X69426391Y-107139060D01*
X69435877Y-107161535D01*
X69446599Y-107187185D01*
X69458304Y-107215409D01*
X69470738Y-107245608D01*
X69473913Y-107253356D01*
X69538016Y-107409875D01*
X69755330Y-107633681D01*
X69787030Y-107666390D01*
X69817598Y-107698050D01*
X69846688Y-107728296D01*
X69873953Y-107756762D01*
X69899043Y-107783080D01*
X69921613Y-107806884D01*
X69941316Y-107827808D01*
X69957802Y-107845485D01*
X69970726Y-107859548D01*
X69979740Y-107869632D01*
X69984496Y-107875368D01*
X69984826Y-107875840D01*
X69992732Y-107888990D01*
X69996324Y-107898815D01*
X69995901Y-107906804D01*
X69992376Y-107913594D01*
X69988122Y-107918502D01*
X69979498Y-107927490D01*
X69966996Y-107940075D01*
X69951104Y-107955774D01*
X69932315Y-107974104D01*
X69911117Y-107994582D01*
X69888002Y-108016724D01*
X69879809Y-108024530D01*
X69847609Y-108055169D01*
X69807432Y-108055169D01*
X69588253Y-107829336D01*
G37*
G36*
X71281446Y-107633921D02*
G01*
X71227866Y-107687267D01*
X71172214Y-107742662D01*
X71114657Y-107799942D01*
X71055360Y-107858941D01*
X70994489Y-107919493D01*
X70932212Y-107981432D01*
X70868692Y-108044594D01*
X70852873Y-108060323D01*
X70788566Y-108124259D01*
X70725224Y-108187237D01*
X70663023Y-108249080D01*
X70602143Y-108309611D01*
X70542762Y-108368652D01*
X70485058Y-108426027D01*
X70429209Y-108481558D01*
X70375394Y-108535068D01*
X70323790Y-108586379D01*
X70274576Y-108635315D01*
X70227930Y-108681698D01*
X70184031Y-108725350D01*
X70143057Y-108766095D01*
X70105186Y-108803755D01*
X70070596Y-108838153D01*
X70039466Y-108869112D01*
X70011973Y-108896455D01*
X69988297Y-108920004D01*
X69968615Y-108939581D01*
X69953106Y-108955011D01*
X69941947Y-108966115D01*
X69935318Y-108972716D01*
X69934857Y-108973175D01*
X69884372Y-109023502D01*
X69892842Y-109061836D01*
X69895717Y-109075472D01*
X69897874Y-109087696D01*
X69899422Y-109099867D01*
X69900468Y-109113347D01*
X69901120Y-109129495D01*
X69901484Y-109149671D01*
X69901660Y-109173502D01*
X69901416Y-109208362D01*
X69900175Y-109238223D01*
X69897712Y-109264706D01*
X69893803Y-109289434D01*
X69888222Y-109314029D01*
X69880745Y-109340114D01*
X69876913Y-109352126D01*
X69854900Y-109409079D01*
X69827337Y-109462759D01*
X69794608Y-109512838D01*
X69757099Y-109558992D01*
X69715192Y-109600893D01*
X69669273Y-109638215D01*
X69619724Y-109670632D01*
X69566931Y-109697817D01*
X69511277Y-109719444D01*
X69453146Y-109735187D01*
X69418675Y-109741460D01*
X69390381Y-109744758D01*
X69359792Y-109746684D01*
X69328481Y-109747261D01*
X69298021Y-109746516D01*
X69269986Y-109744474D01*
X69245948Y-109741160D01*
X69233675Y-109738461D01*
X69222369Y-109733198D01*
X69210950Y-109724310D01*
X69201410Y-109713707D01*
X69195743Y-109703301D01*
X69195309Y-109701691D01*
X69194377Y-109696634D01*
X69194133Y-109691779D01*
X69194913Y-109686713D01*
X69197056Y-109681026D01*
X69200901Y-109674306D01*
X69206784Y-109666142D01*
X69215044Y-109656123D01*
X69226019Y-109643837D01*
X69240046Y-109628874D01*
X69257465Y-109610822D01*
X69278611Y-109589269D01*
X69303825Y-109563805D01*
X69331389Y-109536081D01*
X69461513Y-109405325D01*
X69457513Y-109281081D01*
X69456546Y-109252106D01*
X69455561Y-109224526D01*
X69454595Y-109199224D01*
X69453683Y-109177079D01*
X69452862Y-109158975D01*
X69452168Y-109145790D01*
X69451647Y-109138502D01*
X69449780Y-109120169D01*
X69292561Y-109063800D01*
X69261674Y-109052727D01*
X69232661Y-109042326D01*
X69206132Y-109032816D01*
X69182697Y-109024417D01*
X69162969Y-109017347D01*
X69147558Y-109011825D01*
X69137076Y-109008071D01*
X69132133Y-109006303D01*
X69131860Y-109006206D01*
X69128824Y-109008064D01*
X69121306Y-109013713D01*
X69109919Y-109022647D01*
X69095275Y-109034361D01*
X69077990Y-109048348D01*
X69058676Y-109064101D01*
X69037947Y-109081115D01*
X69016417Y-109098884D01*
X68994698Y-109116900D01*
X68973405Y-109134659D01*
X68953151Y-109151653D01*
X68934549Y-109167376D01*
X68918213Y-109181323D01*
X68904757Y-109192986D01*
X68895330Y-109201373D01*
X68877173Y-109217030D01*
X68859207Y-109230982D01*
X68842516Y-109242490D01*
X68828184Y-109250813D01*
X68817294Y-109255209D01*
X68816199Y-109255451D01*
X68799811Y-109256724D01*
X68787214Y-109252986D01*
X68777241Y-109243681D01*
X68771488Y-109234144D01*
X68768376Y-109227818D01*
X68766150Y-109222218D01*
X68764702Y-109216152D01*
X68763925Y-109208429D01*
X68763714Y-109197860D01*
X68763962Y-109183253D01*
X68764561Y-109163418D01*
X68764717Y-109158599D01*
X68767704Y-109110762D01*
X68773682Y-109067161D01*
X68783121Y-109025862D01*
X68796491Y-108984931D01*
X68814262Y-108942432D01*
X68820350Y-108929446D01*
X68849126Y-108876799D01*
X68882909Y-108828083D01*
X68921242Y-108783536D01*
X68963672Y-108743394D01*
X69009743Y-108707896D01*
X69058999Y-108677278D01*
X69110986Y-108651777D01*
X69165248Y-108631631D01*
X69221330Y-108617078D01*
X69278777Y-108608353D01*
X69337133Y-108605696D01*
X69395944Y-108609342D01*
X69426097Y-108613727D01*
X69439860Y-108616016D01*
X69448772Y-108616991D01*
X69454533Y-108616582D01*
X69458840Y-108614721D01*
X69462253Y-108612238D01*
X69465197Y-108609437D01*
X69472697Y-108602101D01*
X69484586Y-108590399D01*
X69500692Y-108574498D01*
X69520849Y-108554568D01*
X69544885Y-108530775D01*
X69572632Y-108503287D01*
X69603921Y-108472273D01*
X69638583Y-108437900D01*
X69676448Y-108400337D01*
X69717347Y-108359751D01*
X69761112Y-108316310D01*
X69807572Y-108270182D01*
X69856559Y-108221535D01*
X69907903Y-108170536D01*
X69961436Y-108117355D01*
X70016987Y-108062158D01*
X70074389Y-108005114D01*
X70133471Y-107946390D01*
X70194065Y-107886155D01*
X70256001Y-107824576D01*
X70317911Y-107763014D01*
X70381715Y-107699566D01*
X70444671Y-107636966D01*
X70506594Y-107575399D01*
X70567295Y-107515049D01*
X70626590Y-107456103D01*
X70684291Y-107398746D01*
X70740212Y-107343162D01*
X70794166Y-107289538D01*
X70845967Y-107238059D01*
X70895428Y-107188910D01*
X70911285Y-107173155D01*
X71214913Y-107173155D01*
X71217574Y-107196216D01*
X71223616Y-107213502D01*
X71237787Y-107235796D01*
X71255721Y-107253272D01*
X71276497Y-107265739D01*
X71299194Y-107273000D01*
X71322894Y-107274864D01*
X71346676Y-107271135D01*
X71369620Y-107261621D01*
X71388454Y-107248249D01*
X71404936Y-107229550D01*
X71416107Y-107207697D01*
X71421747Y-107183840D01*
X71421633Y-107159133D01*
X71415546Y-107134726D01*
X71411881Y-107126301D01*
X71398766Y-107106484D01*
X71380438Y-107089082D01*
X71362991Y-107077837D01*
X71354445Y-107073942D01*
X71345439Y-107071614D01*
X71333874Y-107070493D01*
X71318675Y-107070217D01*
X71302753Y-107070529D01*
X71291379Y-107071706D01*
X71282451Y-107074109D01*
X71274358Y-107077837D01*
X71251727Y-107093290D01*
X71233767Y-107112789D01*
X71224651Y-107127948D01*
X71217281Y-107149686D01*
X71214913Y-107173155D01*
X70911285Y-107173155D01*
X70942362Y-107142277D01*
X70986584Y-107098344D01*
X71027906Y-107057297D01*
X71066142Y-107019322D01*
X71101105Y-106984603D01*
X71132610Y-106953327D01*
X71160468Y-106925678D01*
X71184495Y-106901842D01*
X71204502Y-106882004D01*
X71220305Y-106866350D01*
X71231715Y-106855065D01*
X71237526Y-106849336D01*
X71259341Y-106827952D01*
X71277018Y-106810904D01*
X71291154Y-106797835D01*
X71302348Y-106788388D01*
X71311196Y-106782207D01*
X71318296Y-106778934D01*
X71324246Y-106778213D01*
X71329642Y-106779686D01*
X71335083Y-106782997D01*
X71340919Y-106787588D01*
X71346526Y-106792584D01*
X71356185Y-106801655D01*
X71369456Y-106814364D01*
X71385896Y-106830272D01*
X71405063Y-106848941D01*
X71426517Y-106869934D01*
X71449816Y-106892812D01*
X71474517Y-106917138D01*
X71500180Y-106942473D01*
X71526362Y-106968380D01*
X71552622Y-106994421D01*
X71578519Y-107020158D01*
X71603610Y-107045153D01*
X71627455Y-107068968D01*
X71649611Y-107091165D01*
X71669637Y-107111306D01*
X71687091Y-107128953D01*
X71701531Y-107143669D01*
X71712517Y-107155015D01*
X71719606Y-107162553D01*
X71722335Y-107165801D01*
X71726600Y-107178797D01*
X71724779Y-107190053D01*
X71723604Y-107192317D01*
X71721030Y-107195046D01*
X71713893Y-107202307D01*
X71702359Y-107213937D01*
X71686594Y-107229769D01*
X71666764Y-107249638D01*
X71643036Y-107273378D01*
X71615575Y-107300823D01*
X71584548Y-107331809D01*
X71550120Y-107366169D01*
X71512458Y-107403738D01*
X71471728Y-107444350D01*
X71428096Y-107487840D01*
X71381727Y-107534042D01*
X71332789Y-107582791D01*
X71322894Y-107592645D01*
X71281446Y-107633921D01*
G37*
G36*
X73117008Y-111091836D02*
G01*
X71913675Y-111091836D01*
X71913675Y-110785169D01*
X73117008Y-110785169D01*
X73117008Y-111091836D01*
G37*
G36*
X73116984Y-105852669D02*
G01*
X73116959Y-105986836D01*
X72746521Y-106181836D01*
X72376082Y-106376836D01*
X72746545Y-106377684D01*
X73117008Y-106378531D01*
X73117008Y-106648502D01*
X71913600Y-106648502D01*
X71914470Y-106513143D01*
X71915341Y-106377783D01*
X72282841Y-106184263D01*
X72328896Y-106159990D01*
X72373285Y-106136551D01*
X72415653Y-106114137D01*
X72455648Y-106092936D01*
X72492915Y-106073138D01*
X72527099Y-106054932D01*
X72557847Y-106038506D01*
X72584804Y-106024051D01*
X72607616Y-106011755D01*
X72625930Y-106001807D01*
X72639391Y-105994397D01*
X72647645Y-105989714D01*
X72650341Y-105987956D01*
X72647079Y-105987586D01*
X72637574Y-105987230D01*
X72622252Y-105986892D01*
X72601536Y-105986574D01*
X72575852Y-105986281D01*
X72545625Y-105986015D01*
X72511277Y-105985779D01*
X72473235Y-105985577D01*
X72431923Y-105985412D01*
X72387764Y-105985287D01*
X72341185Y-105985205D01*
X72292608Y-105985170D01*
X72282008Y-105985169D01*
X71913675Y-105985169D01*
X71913675Y-105718502D01*
X73117008Y-105718502D01*
X73116984Y-105852669D01*
G37*
G36*
X71919029Y-112259336D02*
G01*
X71914345Y-112224846D01*
X71910109Y-112186514D01*
X71906370Y-112145385D01*
X71903175Y-112102507D01*
X71900572Y-112058925D01*
X71898608Y-112015684D01*
X71897331Y-111973831D01*
X71896788Y-111934411D01*
X71896892Y-111918874D01*
X72117344Y-111918874D01*
X72118081Y-111943487D01*
X72119820Y-111964534D01*
X72120360Y-111968633D01*
X72124641Y-111998502D01*
X72903547Y-111998502D01*
X72905360Y-111991002D01*
X72909209Y-111969541D01*
X72911777Y-111943475D01*
X72913023Y-111914752D01*
X72912901Y-111885320D01*
X72911368Y-111857124D01*
X72908859Y-111835155D01*
X72899719Y-111791278D01*
X72886117Y-111751907D01*
X72867900Y-111716908D01*
X72844914Y-111686145D01*
X72817007Y-111659480D01*
X72784025Y-111636780D01*
X72745813Y-111617906D01*
X72702219Y-111602725D01*
X72653090Y-111591098D01*
X72628675Y-111586920D01*
X72605274Y-111584083D01*
X72577123Y-111581842D01*
X72546087Y-111580249D01*
X72514033Y-111579352D01*
X72482827Y-111579203D01*
X72454335Y-111579852D01*
X72430425Y-111581350D01*
X72428675Y-111581517D01*
X72375524Y-111588682D01*
X72327968Y-111599251D01*
X72285771Y-111613397D01*
X72248697Y-111631291D01*
X72216510Y-111653105D01*
X72188974Y-111679011D01*
X72165854Y-111709181D01*
X72146913Y-111743788D01*
X72131915Y-111783002D01*
X72126485Y-111801836D01*
X72123154Y-111818771D01*
X72120512Y-111840643D01*
X72118622Y-111865751D01*
X72117545Y-111892395D01*
X72117344Y-111918874D01*
X71896892Y-111918874D01*
X71897028Y-111898471D01*
X71898097Y-111867056D01*
X71900010Y-111841532D01*
X71909211Y-111774945D01*
X71922384Y-111713516D01*
X71939648Y-111656962D01*
X71961120Y-111605000D01*
X71986920Y-111557350D01*
X72017164Y-111513727D01*
X72051971Y-111473851D01*
X72055294Y-111470474D01*
X72097638Y-111432557D01*
X72144191Y-111399809D01*
X72194952Y-111372232D01*
X72249920Y-111349826D01*
X72309095Y-111332590D01*
X72372477Y-111320525D01*
X72440064Y-111313631D01*
X72499582Y-111311836D01*
X72572330Y-111314338D01*
X72641468Y-111321807D01*
X72706792Y-111334191D01*
X72768095Y-111351434D01*
X72825171Y-111373483D01*
X72877815Y-111400284D01*
X72907167Y-111418610D01*
X72926433Y-111432873D01*
X72947667Y-111450786D01*
X72969408Y-111470928D01*
X72990193Y-111491876D01*
X73008562Y-111512209D01*
X73023052Y-111530506D01*
X73024822Y-111533019D01*
X73053049Y-111578156D01*
X73076667Y-111625435D01*
X73095968Y-111675669D01*
X73111243Y-111729673D01*
X73122784Y-111788261D01*
X73127115Y-111818502D01*
X73128517Y-111833386D01*
X73129715Y-111853690D01*
X73130692Y-111878172D01*
X73131431Y-111905587D01*
X73131916Y-111934693D01*
X73132130Y-111964246D01*
X73132057Y-111993003D01*
X73131679Y-112019720D01*
X73130981Y-112043155D01*
X73130300Y-112056836D01*
X73124286Y-112137269D01*
X73116300Y-112213990D01*
X73114627Y-112227669D01*
X73109103Y-112271836D01*
X71920927Y-112271836D01*
X71919029Y-112259336D01*
G37*
%TO.C,R9*%
X88945000Y-75621359D02*
X88945000Y-75928641D01*
X89705000Y-75621359D02*
X89705000Y-75928641D01*
%TO.C,C8*%
X108182164Y-89340000D02*
X108397836Y-89340000D01*
X108182164Y-88620000D02*
X108397836Y-88620000D01*
%TO.C,G\u002A\u002A\u002A*%
G36*
X131884318Y-65744807D02*
G01*
X131833877Y-65741282D01*
X131791995Y-65736375D01*
X131791947Y-65736368D01*
X131681305Y-65715642D01*
X131576351Y-65687788D01*
X131473738Y-65651744D01*
X131370117Y-65606447D01*
X131346539Y-65594979D01*
X131244750Y-65540445D01*
X131151737Y-65481516D01*
X131064813Y-65416235D01*
X131006611Y-65364955D01*
X130981288Y-65342644D01*
X130928942Y-65290864D01*
X130888476Y-65246704D01*
X131137154Y-65246704D01*
X131221085Y-65313189D01*
X131309171Y-65373028D01*
X131398938Y-65424666D01*
X131485930Y-65465724D01*
X131604737Y-65509332D01*
X131724709Y-65541428D01*
X131845291Y-65562079D01*
X131965929Y-65571352D01*
X132086069Y-65569315D01*
X132205156Y-65556033D01*
X132322638Y-65531575D01*
X132437958Y-65496006D01*
X132550564Y-65449395D01*
X132659901Y-65391807D01*
X132765414Y-65323309D01*
X132785325Y-65308814D01*
X132815734Y-65284528D01*
X132851424Y-65253194D01*
X132890317Y-65216892D01*
X132930336Y-65177698D01*
X132969403Y-65137689D01*
X133005441Y-65098944D01*
X133036373Y-65063539D01*
X133058813Y-65035326D01*
X133129547Y-64930393D01*
X133189516Y-64821066D01*
X133238594Y-64707683D01*
X133276650Y-64590579D01*
X133303556Y-64470091D01*
X133318097Y-64359426D01*
X133321432Y-64317176D01*
X133323160Y-64280468D01*
X133323284Y-64245136D01*
X133321808Y-64207016D01*
X133318735Y-64161942D01*
X133318265Y-64155937D01*
X133302665Y-64031077D01*
X133275990Y-63909906D01*
X133238366Y-63792748D01*
X133189920Y-63679923D01*
X133130781Y-63571755D01*
X133061074Y-63468565D01*
X133032071Y-63431012D01*
X132993410Y-63382696D01*
X132872189Y-63503814D01*
X132750968Y-63624931D01*
X132806885Y-63677851D01*
X132873016Y-63747777D01*
X132928714Y-63822720D01*
X132974478Y-63903467D01*
X133010807Y-63990804D01*
X133017228Y-64009885D01*
X133037898Y-64089687D01*
X133050226Y-64173897D01*
X133054102Y-64259584D01*
X133049413Y-64343817D01*
X133036048Y-64423665D01*
X133033406Y-64434611D01*
X133006647Y-64522386D01*
X132971985Y-64602809D01*
X132928433Y-64677607D01*
X132875007Y-64748510D01*
X132820913Y-64807186D01*
X132749324Y-64871859D01*
X132674641Y-64925489D01*
X132595927Y-64968554D01*
X132512247Y-65001532D01*
X132422664Y-65024900D01*
X132379514Y-65032508D01*
X132287958Y-65040617D01*
X132263656Y-65039830D01*
X132195603Y-65037628D01*
X132103894Y-65023910D01*
X132014276Y-64999831D01*
X131928197Y-64965758D01*
X131847100Y-64922060D01*
X131789017Y-64882128D01*
X131759283Y-64859913D01*
X131725067Y-64835002D01*
X131691632Y-64811205D01*
X131674955Y-64799609D01*
X131616570Y-64759486D01*
X131591104Y-64784947D01*
X131374731Y-65001273D01*
X131330891Y-65045235D01*
X131289752Y-65086743D01*
X131252026Y-65125062D01*
X131218429Y-65159455D01*
X131189672Y-65189183D01*
X131166468Y-65213511D01*
X131149532Y-65231702D01*
X131139577Y-65243019D01*
X131137154Y-65246704D01*
X130888476Y-65246704D01*
X130856509Y-65211818D01*
X130793042Y-65132548D01*
X130736301Y-65049890D01*
X130684046Y-64960675D01*
X130652843Y-64900531D01*
X130600001Y-64781040D01*
X130557678Y-64656436D01*
X130525924Y-64526878D01*
X130513220Y-64455123D01*
X130508395Y-64413919D01*
X130504968Y-64363963D01*
X130502937Y-64308140D01*
X130502451Y-64263304D01*
X130678202Y-64263304D01*
X130685504Y-64385261D01*
X130702289Y-64496831D01*
X130731557Y-64617243D01*
X130771769Y-64733561D01*
X130822763Y-64845433D01*
X130884375Y-64952508D01*
X130956442Y-65054436D01*
X130967939Y-65069002D01*
X131006611Y-65117331D01*
X131236513Y-64887483D01*
X131279228Y-64844634D01*
X131319215Y-64804237D01*
X131355745Y-64767050D01*
X131388086Y-64733832D01*
X131415507Y-64705341D01*
X131437277Y-64682333D01*
X131452664Y-64665568D01*
X131460939Y-64655803D01*
X131462153Y-64653565D01*
X131456677Y-64649598D01*
X131442390Y-64639591D01*
X131431385Y-64631944D01*
X131747992Y-64631944D01*
X131752501Y-64637197D01*
X131763736Y-64645490D01*
X131767902Y-64648151D01*
X131779471Y-64655916D01*
X131798227Y-64669203D01*
X131822013Y-64686454D01*
X131848673Y-64706113D01*
X131863137Y-64716907D01*
X131929926Y-64762959D01*
X131995520Y-64800320D01*
X132058530Y-64828254D01*
X132098408Y-64841276D01*
X132180898Y-64858071D01*
X132263656Y-64863513D01*
X132345629Y-64857879D01*
X132425764Y-64841447D01*
X132503009Y-64814494D01*
X132576311Y-64777299D01*
X132644618Y-64730140D01*
X132697060Y-64683332D01*
X132752445Y-64619984D01*
X132798152Y-64550827D01*
X132833818Y-64476889D01*
X132859080Y-64399199D01*
X132873573Y-64318784D01*
X132876933Y-64236671D01*
X132873285Y-64185533D01*
X132858378Y-64103073D01*
X132833247Y-64023787D01*
X132798582Y-63949640D01*
X132778242Y-63915649D01*
X132757411Y-63886596D01*
X132731056Y-63854425D01*
X132702234Y-63822541D01*
X132674000Y-63794354D01*
X132653080Y-63776108D01*
X132623397Y-63752577D01*
X132185695Y-64190309D01*
X132126196Y-64249847D01*
X132069082Y-64307071D01*
X132014893Y-64361434D01*
X131964169Y-64412390D01*
X131917451Y-64459395D01*
X131875280Y-64501902D01*
X131838196Y-64539367D01*
X131806740Y-64571244D01*
X131781453Y-64596988D01*
X131762875Y-64616052D01*
X131751547Y-64627892D01*
X131747992Y-64631944D01*
X131431385Y-64631944D01*
X131420149Y-64624137D01*
X131390811Y-64603827D01*
X131355232Y-64579252D01*
X131314267Y-64551004D01*
X131268772Y-64519674D01*
X131219605Y-64485852D01*
X131170719Y-64452260D01*
X131118994Y-64416654D01*
X131070261Y-64382950D01*
X131025361Y-64351741D01*
X130985135Y-64323620D01*
X130950425Y-64299178D01*
X130922071Y-64279008D01*
X130900915Y-64263701D01*
X130887798Y-64253851D01*
X130883548Y-64250085D01*
X130883649Y-64250000D01*
X131191731Y-64250000D01*
X131196372Y-64253764D01*
X131209474Y-64263269D01*
X131229804Y-64277667D01*
X131256129Y-64296110D01*
X131287217Y-64317751D01*
X131321835Y-64341741D01*
X131358749Y-64367233D01*
X131396728Y-64393377D01*
X131434538Y-64419328D01*
X131470946Y-64444235D01*
X131504720Y-64467252D01*
X131534627Y-64487530D01*
X131559434Y-64504221D01*
X131577909Y-64516478D01*
X131588818Y-64523452D01*
X131591104Y-64524714D01*
X131595666Y-64520877D01*
X131607855Y-64509420D01*
X131627002Y-64491006D01*
X131652440Y-64466295D01*
X131683500Y-64435951D01*
X131719516Y-64400636D01*
X131759818Y-64361011D01*
X131803740Y-64317740D01*
X131850614Y-64271485D01*
X131899772Y-64222907D01*
X131950545Y-64172669D01*
X132002267Y-64121433D01*
X132054269Y-64069861D01*
X132105884Y-64018616D01*
X132156443Y-63968360D01*
X132205280Y-63919755D01*
X132251726Y-63873463D01*
X132295113Y-63830147D01*
X132334774Y-63790468D01*
X132370041Y-63755090D01*
X132400246Y-63724673D01*
X132424721Y-63699881D01*
X132442799Y-63681376D01*
X132453811Y-63669820D01*
X132457129Y-63665905D01*
X132451836Y-63664232D01*
X132437628Y-63660561D01*
X132417009Y-63655525D01*
X132403972Y-63652434D01*
X132323165Y-63639080D01*
X132242070Y-63636598D01*
X132177334Y-63642690D01*
X132115811Y-63654733D01*
X132058693Y-63671800D01*
X132003528Y-63694985D01*
X131947860Y-63725381D01*
X131889235Y-63764080D01*
X131864645Y-63781952D01*
X131846278Y-63795314D01*
X131819343Y-63814497D01*
X131784958Y-63838723D01*
X131744241Y-63867213D01*
X131698311Y-63899189D01*
X131648286Y-63933871D01*
X131595284Y-63970481D01*
X131540424Y-64008240D01*
X131491281Y-64041948D01*
X131438419Y-64078192D01*
X131388532Y-64112486D01*
X131342445Y-64144257D01*
X131300980Y-64172933D01*
X131264961Y-64197941D01*
X131235212Y-64218711D01*
X131212558Y-64234669D01*
X131197821Y-64245243D01*
X131191826Y-64249862D01*
X131191731Y-64250000D01*
X130883649Y-64250000D01*
X130888267Y-64246103D01*
X130901963Y-64235977D01*
X130923946Y-64220189D01*
X130953526Y-64199222D01*
X130990012Y-64173560D01*
X131032715Y-64143685D01*
X131080944Y-64110080D01*
X131134009Y-64073229D01*
X131191219Y-64033614D01*
X131251884Y-63991719D01*
X131308444Y-63952754D01*
X131373165Y-63908169D01*
X131436162Y-63864681D01*
X131496619Y-63822858D01*
X131553721Y-63783268D01*
X131606651Y-63746480D01*
X131654594Y-63713063D01*
X131696734Y-63683584D01*
X131732255Y-63658612D01*
X131760341Y-63638715D01*
X131780176Y-63624463D01*
X131789017Y-63617919D01*
X131865492Y-63566850D01*
X131947509Y-63525502D01*
X132033839Y-63494040D01*
X132123257Y-63472628D01*
X132214534Y-63461431D01*
X132306444Y-63460612D01*
X132397759Y-63470335D01*
X132487252Y-63490765D01*
X132557318Y-63515175D01*
X132593875Y-63530029D01*
X132730501Y-63393496D01*
X132763082Y-63360706D01*
X132792628Y-63330525D01*
X132818200Y-63303945D01*
X132838865Y-63281958D01*
X132853687Y-63265553D01*
X132861728Y-63255724D01*
X132862855Y-63253307D01*
X132856582Y-63248101D01*
X132843689Y-63237496D01*
X132826633Y-63223513D01*
X132821315Y-63219161D01*
X132758487Y-63171675D01*
X132688376Y-63125483D01*
X132615063Y-63083039D01*
X132542625Y-63046797D01*
X132514069Y-63034277D01*
X132395262Y-62990669D01*
X132275290Y-62958573D01*
X132154708Y-62937922D01*
X132034070Y-62928649D01*
X131913930Y-62930686D01*
X131794843Y-62943968D01*
X131677361Y-62968426D01*
X131562041Y-63003995D01*
X131449435Y-63050606D01*
X131340098Y-63108194D01*
X131234585Y-63176692D01*
X131214674Y-63191187D01*
X131184265Y-63215473D01*
X131148575Y-63246806D01*
X131109682Y-63283109D01*
X131069663Y-63322303D01*
X131030596Y-63362312D01*
X130994558Y-63401057D01*
X130963626Y-63436462D01*
X130941186Y-63464675D01*
X130870861Y-63568986D01*
X130811241Y-63677480D01*
X130762454Y-63789603D01*
X130724628Y-63904801D01*
X130697893Y-64022519D01*
X130682374Y-64142205D01*
X130678202Y-64263304D01*
X130502451Y-64263304D01*
X130502300Y-64249335D01*
X130503053Y-64190433D01*
X130505193Y-64134319D01*
X130508718Y-64083878D01*
X130513625Y-64041996D01*
X130513632Y-64041948D01*
X130534358Y-63931306D01*
X130562212Y-63826352D01*
X130598256Y-63723739D01*
X130643553Y-63620118D01*
X130655021Y-63596539D01*
X130709555Y-63494751D01*
X130768484Y-63401738D01*
X130833765Y-63314814D01*
X130907356Y-63231289D01*
X130959136Y-63178943D01*
X131038182Y-63106510D01*
X131117452Y-63043043D01*
X131200110Y-62986302D01*
X131289325Y-62934047D01*
X131349469Y-62902844D01*
X131468960Y-62850002D01*
X131593564Y-62807679D01*
X131723122Y-62775925D01*
X131794877Y-62763221D01*
X131836081Y-62758396D01*
X131886037Y-62754969D01*
X131941860Y-62752938D01*
X132000665Y-62752301D01*
X132059567Y-62753054D01*
X132115681Y-62755194D01*
X132166122Y-62758719D01*
X132208004Y-62763626D01*
X132208052Y-62763633D01*
X132318694Y-62784359D01*
X132423648Y-62812213D01*
X132526261Y-62848257D01*
X132629882Y-62893554D01*
X132653461Y-62905022D01*
X132755249Y-62959556D01*
X132848262Y-63018485D01*
X132935186Y-63083766D01*
X133018711Y-63157357D01*
X133071057Y-63209137D01*
X133143490Y-63288183D01*
X133206957Y-63367453D01*
X133263698Y-63450111D01*
X133315953Y-63539326D01*
X133347156Y-63599470D01*
X133399121Y-63716888D01*
X133441144Y-63839580D01*
X133472677Y-63965810D01*
X133485800Y-64039018D01*
X133488573Y-64062531D01*
X133491168Y-64094589D01*
X133493505Y-64132812D01*
X133495504Y-64174820D01*
X133497084Y-64218233D01*
X133498166Y-64260672D01*
X133498669Y-64299757D01*
X133498513Y-64333107D01*
X133497617Y-64358344D01*
X133496863Y-64367213D01*
X133484562Y-64460431D01*
X133469998Y-64544551D01*
X133452458Y-64622096D01*
X133431227Y-64695586D01*
X133405592Y-64767544D01*
X133374838Y-64840491D01*
X133344978Y-64903461D01*
X133290444Y-65005250D01*
X133231515Y-65098263D01*
X133166234Y-65185187D01*
X133092643Y-65268712D01*
X133040863Y-65321058D01*
X132961817Y-65393491D01*
X132882547Y-65456958D01*
X132799889Y-65513699D01*
X132710674Y-65565954D01*
X132650530Y-65597157D01*
X132531039Y-65649999D01*
X132406435Y-65692322D01*
X132276877Y-65724076D01*
X132205122Y-65736780D01*
X132163918Y-65741605D01*
X132113962Y-65745032D01*
X132058139Y-65747063D01*
X131999334Y-65747700D01*
X131965929Y-65747273D01*
X131940432Y-65746947D01*
X131884318Y-65744807D01*
G37*
G36*
X132702587Y-64274908D02*
G01*
X132701078Y-64297088D01*
X132698176Y-64321492D01*
X132697223Y-64327575D01*
X132680500Y-64392625D01*
X132653510Y-64453855D01*
X132617370Y-64510231D01*
X132573199Y-64560721D01*
X132522113Y-64604294D01*
X132465232Y-64639916D01*
X132403672Y-64666556D01*
X132338551Y-64683180D01*
X132307929Y-64687160D01*
X132263728Y-64691165D01*
X132263728Y-64514788D01*
X132304182Y-64507965D01*
X132358062Y-64493263D01*
X132406145Y-64468849D01*
X132447465Y-64435687D01*
X132481056Y-64394746D01*
X132505950Y-64346991D01*
X132521182Y-64293389D01*
X132521692Y-64290454D01*
X132528516Y-64250000D01*
X132703276Y-64250000D01*
X132702587Y-64274908D01*
G37*
%TO.C,C9*%
X96010000Y-92092164D02*
X96010000Y-92307836D01*
X95290000Y-92092164D02*
X95290000Y-92307836D01*
%TO.C,R3*%
X105770000Y-88366359D02*
X105770000Y-88673641D01*
X106530000Y-88366359D02*
X106530000Y-88673641D01*
%TO.C,R6*%
X75180000Y-93591359D02*
X75180000Y-93898641D01*
X74420000Y-93591359D02*
X74420000Y-93898641D01*
%TO.C,C12*%
X86991436Y-86152400D02*
X86775764Y-86152400D01*
X86991436Y-86872400D02*
X86775764Y-86872400D01*
%TO.C,R4*%
X105077559Y-98980000D02*
X105384841Y-98980000D01*
X105077559Y-98220000D02*
X105384841Y-98220000D01*
%TO.C,C15*%
X97922164Y-83300000D02*
X98137836Y-83300000D01*
X97922164Y-82580000D02*
X98137836Y-82580000D01*
%TO.C,C5*%
X119805164Y-104408000D02*
X120020836Y-104408000D01*
X119805164Y-105128000D02*
X120020836Y-105128000D01*
%TO.C,R1*%
X77750400Y-103277641D02*
X77750400Y-102970359D01*
X78510400Y-103277641D02*
X78510400Y-102970359D01*
%TO.C,C18*%
X86530000Y-89642164D02*
X86530000Y-89857836D01*
X87250000Y-89642164D02*
X87250000Y-89857836D01*
%TO.C,R12*%
X81966800Y-104903241D02*
X81966800Y-104595959D01*
X82726800Y-104903241D02*
X82726800Y-104595959D01*
%TD*%
%LPC*%
D17*
%TO.C,L33*%
X126462999Y-101263100D03*
X125463001Y-101263100D03*
X125463001Y-103472900D03*
X126462999Y-103472900D03*
%TD*%
%TO.C,L34*%
X126462999Y-96620242D03*
X125463001Y-96620242D03*
X125463001Y-98830042D03*
X126462999Y-98830042D03*
%TD*%
%TO.C,L36*%
X126462999Y-87334528D03*
X125463001Y-87334528D03*
X125463001Y-89544328D03*
X126462999Y-89544328D03*
%TD*%
%TO.C,L6*%
X112462998Y-78048814D03*
X111463000Y-78048814D03*
X111463000Y-80258614D03*
X112462998Y-80258614D03*
%TD*%
%TO.C,L12*%
X115962999Y-87334528D03*
X114963001Y-87334528D03*
X114963001Y-89544328D03*
X115962999Y-89544328D03*
%TD*%
%TO.C,L10*%
X115962999Y-96620242D03*
X114963001Y-96620242D03*
X114963001Y-98830042D03*
X115962999Y-98830042D03*
%TD*%
%TO.C,L20*%
X119462999Y-87334528D03*
X118463001Y-87334528D03*
X118463001Y-89544328D03*
X119462999Y-89544328D03*
%TD*%
%TO.C,L17*%
X119462999Y-101263100D03*
X118463001Y-101263100D03*
X118463001Y-103472900D03*
X119462999Y-103472900D03*
%TD*%
%TO.C,L15*%
X115962999Y-73405957D03*
X114963001Y-73405957D03*
X114963001Y-75615757D03*
X115962999Y-75615757D03*
%TD*%
%TO.C,L4*%
X112462998Y-87334528D03*
X111463000Y-87334528D03*
X111463000Y-89544328D03*
X112462998Y-89544328D03*
%TD*%
%TO.C,L31*%
X122962999Y-73405957D03*
X121963001Y-73405957D03*
X121963001Y-75615757D03*
X122962999Y-75615757D03*
%TD*%
%TO.C,L25*%
X122962999Y-101263100D03*
X121963001Y-101263100D03*
X121963001Y-103472900D03*
X122962999Y-103472900D03*
%TD*%
%TO.C,L24*%
X119462999Y-68763100D03*
X118463001Y-68763100D03*
X118463001Y-70972900D03*
X119462999Y-70972900D03*
%TD*%
%TO.C,L9*%
X115962999Y-101263100D03*
X114963001Y-101263100D03*
X114963001Y-103472900D03*
X115962999Y-103472900D03*
%TD*%
%TO.C,L3*%
X112462998Y-91977385D03*
X111463000Y-91977385D03*
X111463000Y-94187185D03*
X112462998Y-94187185D03*
%TD*%
%TO.C,L39*%
X126462999Y-73405957D03*
X125463001Y-73405957D03*
X125463001Y-75615757D03*
X126462999Y-75615757D03*
%TD*%
%TO.C,L27*%
X122962999Y-91977385D03*
X121963001Y-91977385D03*
X121963001Y-94187185D03*
X122962999Y-94187185D03*
%TD*%
%TO.C,L1*%
X112399974Y-101263100D03*
X111399976Y-101263100D03*
X111399976Y-103472900D03*
X112399974Y-103472900D03*
%TD*%
%TO.C,L40*%
X126462999Y-68763100D03*
X125463001Y-68763100D03*
X125463001Y-70972900D03*
X126462999Y-70972900D03*
%TD*%
%TO.C,L30*%
X122962999Y-78048814D03*
X121963001Y-78048814D03*
X121963001Y-80258614D03*
X122962999Y-80258614D03*
%TD*%
%TO.C,L13*%
X115962999Y-82691671D03*
X114963001Y-82691671D03*
X114963001Y-84901471D03*
X115962999Y-84901471D03*
%TD*%
%TO.C,L38*%
X126462999Y-78048814D03*
X125463001Y-78048814D03*
X125463001Y-80258614D03*
X126462999Y-80258614D03*
%TD*%
%TO.C,L18*%
X119462999Y-96620242D03*
X118463001Y-96620242D03*
X118463001Y-98830042D03*
X119462999Y-98830042D03*
%TD*%
%TO.C,L8*%
X112462998Y-68763100D03*
X111463000Y-68763100D03*
X111463000Y-70972900D03*
X112462998Y-70972900D03*
%TD*%
%TO.C,L11*%
X115962999Y-91977385D03*
X114963001Y-91977385D03*
X114963001Y-94187185D03*
X115962999Y-94187185D03*
%TD*%
%TO.C,L32*%
X122962999Y-68763100D03*
X121963001Y-68763100D03*
X121963001Y-70972900D03*
X122962999Y-70972900D03*
%TD*%
%TO.C,L29*%
X122962999Y-82691671D03*
X121963001Y-82691671D03*
X121963001Y-84901471D03*
X122962999Y-84901471D03*
%TD*%
%TO.C,L21*%
X119462999Y-82691671D03*
X118463001Y-82691671D03*
X118463001Y-84901471D03*
X119462999Y-84901471D03*
%TD*%
%TO.C,L16*%
X115962999Y-68763100D03*
X114963001Y-68763100D03*
X114963001Y-70972900D03*
X115962999Y-70972900D03*
%TD*%
%TO.C,L23*%
X119462999Y-73405957D03*
X118463001Y-73405957D03*
X118463001Y-75615757D03*
X119462999Y-75615757D03*
%TD*%
%TO.C,L35*%
X126462999Y-91977385D03*
X125463001Y-91977385D03*
X125463001Y-94187185D03*
X126462999Y-94187185D03*
%TD*%
%TO.C,L14*%
X115962999Y-78048814D03*
X114963001Y-78048814D03*
X114963001Y-80258614D03*
X115962999Y-80258614D03*
%TD*%
%TO.C,L7*%
X112462998Y-73405957D03*
X111463000Y-73405957D03*
X111463000Y-75615757D03*
X112462998Y-75615757D03*
%TD*%
%TO.C,L19*%
X119462999Y-91977385D03*
X118463001Y-91977385D03*
X118463001Y-94187185D03*
X119462999Y-94187185D03*
%TD*%
%TO.C,L28*%
X122962999Y-87334528D03*
X121963001Y-87334528D03*
X121963001Y-89544328D03*
X122962999Y-89544328D03*
%TD*%
%TO.C,L26*%
X122962999Y-96620242D03*
X121963001Y-96620242D03*
X121963001Y-98830042D03*
X122962999Y-98830042D03*
%TD*%
%TO.C,L37*%
X126462999Y-82691671D03*
X125463001Y-82691671D03*
X125463001Y-84901471D03*
X126462999Y-84901471D03*
%TD*%
%TO.C,L5*%
X112462998Y-82691671D03*
X111463000Y-82691671D03*
X111463000Y-84901471D03*
X112462998Y-84901471D03*
%TD*%
%TO.C,L2*%
X112399974Y-96620242D03*
X111399976Y-96620242D03*
X111399976Y-98830042D03*
X112399974Y-98830042D03*
%TD*%
%TO.C,L22*%
X119462999Y-78048814D03*
X118463001Y-78048814D03*
X118463001Y-80258614D03*
X119462999Y-80258614D03*
%TD*%
D18*
%TO.C,SW1*%
X72900000Y-70200000D03*
X72900000Y-73950000D03*
X66900000Y-70200000D03*
X66900000Y-73950000D03*
%TD*%
%TO.C,SW2*%
X72900000Y-76350000D03*
X72900000Y-80100000D03*
X66900000Y-76350000D03*
X66900000Y-80100000D03*
%TD*%
D19*
%TO.C,U3*%
X104946900Y-93375000D03*
D20*
X107817100Y-91470000D03*
X107817100Y-92740000D03*
X107817100Y-94010000D03*
X107817100Y-95280000D03*
X102076700Y-95280000D03*
X102076700Y-94010000D03*
X102076700Y-92740000D03*
X102076700Y-91470000D03*
%TD*%
D21*
%TO.C,U2*%
X106100000Y-80700000D03*
X105600000Y-80700000D03*
X105100000Y-80700000D03*
X104600000Y-80700000D03*
X104600000Y-83600000D03*
X105100000Y-83600000D03*
X105600000Y-83600000D03*
X106100000Y-83600000D03*
D22*
X105350000Y-82150000D03*
%TD*%
D23*
%TO.C,R5*%
X101635000Y-88925000D03*
X100615000Y-88925000D03*
%TD*%
D24*
%TO.C,C2*%
X74841400Y-98532000D03*
X73291400Y-98532000D03*
%TD*%
D25*
%TO.C,C10*%
X88983600Y-89282400D03*
X88983600Y-90242400D03*
%TD*%
D26*
%TO.C,J3*%
X143280000Y-111370000D03*
X143280000Y-107870000D03*
D27*
X143280000Y-105370000D03*
X143280000Y-103870000D03*
D28*
X143280000Y-100370000D03*
D27*
X143280000Y-96870000D03*
X143280000Y-95370000D03*
X143280000Y-93870000D03*
X143280000Y-92370000D03*
D28*
X143280000Y-88870000D03*
D27*
X143280000Y-85370000D03*
X143280000Y-83870000D03*
X143280000Y-82370000D03*
X143280000Y-80870000D03*
D28*
X143280000Y-77370000D03*
D27*
X143280000Y-73870000D03*
X143280000Y-72370000D03*
X143280000Y-70870000D03*
X143280000Y-69370000D03*
X143280000Y-67870000D03*
D28*
X143280000Y-64370000D03*
%TD*%
D29*
%TO.C,C6*%
X122948000Y-104768000D03*
X123908000Y-104768000D03*
%TD*%
D23*
%TO.C,R10*%
X93960000Y-75420000D03*
X92940000Y-75420000D03*
%TD*%
D25*
%TO.C,C19*%
X87950000Y-89270000D03*
X87950000Y-90230000D03*
%TD*%
D29*
%TO.C,C7*%
X126463000Y-104768000D03*
X127423000Y-104768000D03*
%TD*%
%TO.C,C22*%
X92990000Y-74374400D03*
X93950000Y-74374400D03*
%TD*%
D30*
%TO.C,R2*%
X73275000Y-72585000D03*
X73275000Y-71565000D03*
%TD*%
D29*
%TO.C,C16*%
X96770000Y-87110000D03*
X97730000Y-87110000D03*
%TD*%
D31*
%TO.C,C13*%
X86430000Y-82875000D03*
X85470000Y-82875000D03*
%TD*%
D32*
%TO.C,C14*%
X91700000Y-76230000D03*
X91700000Y-75270000D03*
%TD*%
D33*
%TO.C,U1*%
X74874400Y-102619500D03*
X75824400Y-102619500D03*
X76774400Y-102619500D03*
X76774400Y-100344500D03*
X74874400Y-100344500D03*
%TD*%
D29*
%TO.C,C3*%
X112403000Y-104768000D03*
X113363000Y-104768000D03*
%TD*%
D34*
%TO.C,D1*%
X103250000Y-98600000D03*
X102280000Y-98600000D03*
%TD*%
D35*
%TO.C,R7*%
X91100000Y-90160000D03*
X91100000Y-91180000D03*
%TD*%
D36*
%TO.C,J2*%
X76280000Y-107595000D03*
X84920000Y-107595000D03*
D37*
X84920000Y-111765000D03*
X76280000Y-111765000D03*
D38*
X77400000Y-107015000D03*
X78200000Y-107015000D03*
D39*
X78850000Y-107015000D03*
X79850000Y-107015000D03*
X81350000Y-107015000D03*
X82350000Y-107015000D03*
D38*
X83000000Y-107015000D03*
X83800000Y-107015000D03*
X83800000Y-107015000D03*
X83000000Y-107015000D03*
D39*
X81850000Y-107015000D03*
X80850000Y-107015000D03*
X80350000Y-107015000D03*
X79350000Y-107015000D03*
D38*
X78200000Y-107015000D03*
X77400000Y-107015000D03*
D40*
X77710000Y-108075000D03*
X83490000Y-108075000D03*
%TD*%
D29*
%TO.C,C4*%
X115918000Y-104768000D03*
X116878000Y-104768000D03*
%TD*%
D41*
%TO.C,D2*%
X74800000Y-91720000D03*
X74800000Y-90750000D03*
%TD*%
D42*
%TO.C,C1*%
X73124400Y-102807000D03*
X73124400Y-101257000D03*
%TD*%
D31*
%TO.C,C21*%
X96004000Y-74374400D03*
X95044000Y-74374400D03*
%TD*%
D43*
%TO.C,U4*%
X92092500Y-83890000D03*
D44*
X94692500Y-87327500D03*
X94292500Y-87327500D03*
X93892500Y-87327500D03*
X93492500Y-87327500D03*
X93092500Y-87327500D03*
X92692500Y-87327500D03*
X92292500Y-87327500D03*
X91892500Y-87327500D03*
X91492500Y-87327500D03*
X91092500Y-87327500D03*
X90692500Y-87327500D03*
X90292500Y-87327500D03*
X89892500Y-87327500D03*
X89492500Y-87327500D03*
D45*
X88655000Y-86490000D03*
X88655000Y-86090000D03*
X88655000Y-85690000D03*
X88655000Y-85290000D03*
X88655000Y-84890000D03*
X88655000Y-84490000D03*
X88655000Y-84090000D03*
X88655000Y-83690000D03*
X88655000Y-83290000D03*
X88655000Y-82890000D03*
X88655000Y-82490000D03*
X88655000Y-82090000D03*
X88655000Y-81690000D03*
X88655000Y-81290000D03*
D44*
X89492500Y-80452500D03*
X89892500Y-80452500D03*
X90292500Y-80452500D03*
X90692500Y-80452500D03*
X91092500Y-80452500D03*
X91492500Y-80452500D03*
X91892500Y-80452500D03*
X92292500Y-80452500D03*
X92692500Y-80452500D03*
X93092500Y-80452500D03*
X93492500Y-80452500D03*
X93892500Y-80452500D03*
X94292500Y-80452500D03*
X94692500Y-80452500D03*
D45*
X95530000Y-81290000D03*
X95530000Y-81690000D03*
X95530000Y-82090000D03*
X95530000Y-82490000D03*
X95530000Y-82890000D03*
X95530000Y-83290000D03*
X95530000Y-83690000D03*
X95530000Y-84090000D03*
X95530000Y-84490000D03*
X95530000Y-84890000D03*
X95530000Y-85290000D03*
X95530000Y-85690000D03*
X95530000Y-86090000D03*
X95530000Y-86490000D03*
%TD*%
D31*
%TO.C,C20*%
X87355000Y-87700000D03*
X86395000Y-87700000D03*
%TD*%
D46*
%TO.C,Y1*%
X93916000Y-72887600D03*
X96116000Y-72887600D03*
X96116000Y-71187600D03*
X93916000Y-71187600D03*
%TD*%
D35*
%TO.C,R8*%
X90058600Y-90160000D03*
X90058600Y-91180000D03*
%TD*%
D30*
%TO.C,R11*%
X79349600Y-101193600D03*
X79349600Y-100173600D03*
%TD*%
D25*
%TO.C,C17*%
X92220000Y-90860000D03*
X92220000Y-91820000D03*
%TD*%
D47*
%TO.C,J1*%
X72325659Y-66150000D03*
X71055659Y-66150000D03*
X69785659Y-66150000D03*
X68515659Y-66150000D03*
X67245659Y-66150000D03*
X67245659Y-64880000D03*
X68515659Y-64880000D03*
X69785659Y-64880000D03*
X71055659Y-64880000D03*
X72325659Y-64880000D03*
%TD*%
D25*
%TO.C,C11*%
X93330000Y-91190000D03*
X93330000Y-92150000D03*
%TD*%
D35*
%TO.C,R9*%
X89325000Y-75265000D03*
X89325000Y-76285000D03*
%TD*%
D29*
%TO.C,C8*%
X107810000Y-88980000D03*
X108770000Y-88980000D03*
%TD*%
D25*
%TO.C,C9*%
X95650000Y-91720000D03*
X95650000Y-92680000D03*
%TD*%
D35*
%TO.C,R3*%
X106150000Y-89030000D03*
X106150000Y-88010000D03*
%TD*%
%TO.C,R6*%
X74800000Y-93235000D03*
X74800000Y-94255000D03*
%TD*%
D31*
%TO.C,C12*%
X87363600Y-86512400D03*
X86403600Y-86512400D03*
%TD*%
D48*
%TO.C,R4*%
X104721200Y-98600000D03*
X105741200Y-98600000D03*
%TD*%
D29*
%TO.C,C15*%
X97550000Y-82940000D03*
X98510000Y-82940000D03*
%TD*%
%TO.C,C5*%
X119433000Y-104768000D03*
X120393000Y-104768000D03*
%TD*%
D30*
%TO.C,R1*%
X78130400Y-103634000D03*
X78130400Y-102614000D03*
%TD*%
D25*
%TO.C,C18*%
X86890000Y-89270000D03*
X86890000Y-90230000D03*
%TD*%
D30*
%TO.C,R12*%
X82346800Y-105259600D03*
X82346800Y-104239600D03*
%TD*%
M02*
