M48
; DRILL file {KiCad (6.0.5)} date Mon Jun  6 22:05:02 2022
; FORMAT={-:-/ absolute / inch / decimal}
; #@! TF.CreationDate,2022-06-06T22:05:02-07:00
; #@! TF.GenerationSoftware,Kicad,Pcbnew,(6.0.5)
; #@! TF.FileFunction,Plated,1,2,PTH
FMAT,2
INCH
; #@! TA.AperFunction,Plated,PTH,ViaDrill
T1C0.0118
; #@! TA.AperFunction,Plated,PTH,ComponentDrill
T2C0.0138
; #@! TA.AperFunction,Plated,PTH,ComponentDrill
T3C0.0236
%
G90
G05
T1
X2.5948Y-2.5551
X2.7975Y-2.656
X2.8169Y-2.9122
X2.8169Y-3.1535
X2.8474Y-2.6555
X2.8789Y-3.9409
X2.8848Y-3.8327
X2.9449Y-3.7459
X2.9469Y-3.0059
X3.048Y-4.154
X3.0768Y-3.9961
X3.124Y-3.9083
X3.2343Y-3.8809
X3.298Y-4.108
X3.373Y-3.2992
X3.3799Y-3.003
X3.3816Y-3.2276
X3.3858Y-3.5531
X3.4016Y-3.3701
X3.4094Y-3.1998
X3.4286Y-3.1453
X3.4409Y-3.2943
X3.4743Y-3.1548
X3.4747Y-3.1191
X3.4756Y-3.0837
X3.5167Y-2.5526
X3.5276Y-2.6289
X3.5411Y-3.3032
X3.5433Y-3.373
X3.5454Y-3.6394
X3.5721Y-4.2929
X3.5721Y-4.3291
X3.5724Y-4.4
X3.5731Y-4.3645
X3.5868Y-3.6394
X3.5944Y-2.6287
X3.6024Y-3.2146
X3.6102Y-2.9276
X3.6336Y-3.3937
X3.6407Y-2.8031
X3.6693Y-3.0374
X3.6929Y-3.3907
X3.7199Y-3.6171
X3.8022Y-3.6486
X3.8061Y-4.3022
X3.811Y-3.4783
X3.8406Y-3.3041
X3.8421Y-2.8689
X3.8819Y-3.3024
X3.8831Y-3.4299
X3.9232Y-3.0374
X3.9315Y-3.2004
X3.9606Y-3.439
X3.9744Y-3.8819
X3.9777Y-3.1434
X3.9783Y-3.0807
X4.0128Y-3.711
X4.0287Y-3.1193
X4.1772Y-3.3338
X4.1772Y-3.4046
X4.1981Y-3.8819
X4.2819Y-3.4665
X4.3229Y-3.3268
X4.3229Y-3.3661
X4.3652Y-2.5246
X4.3863Y-3.8472
X4.3863Y-4.0302
X4.3883Y-2.7507
X4.3883Y-2.9338
X4.3883Y-3.1169
X4.3883Y-3.298
X4.3883Y-3.481
X4.3883Y-3.6641
X4.4052Y-2.5246
X4.4262Y-4.2303
X4.4272Y-4.4006
X4.4452Y-2.5246
X4.4749Y-2.7074
X4.4749Y-4.0735
X4.4852Y-2.5246
X4.4961Y-4.1253
X4.5025Y-2.8432
X4.5025Y-3.0263
X4.5025Y-3.2094
X4.5025Y-3.5755
X4.5025Y-3.9397
X4.5029Y-3.3895
X4.5044Y-3.7586
X4.5261Y-2.7507
X4.6127Y-2.7074
X4.6127Y-4.0735
X4.6361Y-4.1253
X4.6403Y-3.0263
X4.6403Y-3.2094
X4.6403Y-3.3924
X4.6403Y-3.5735
X4.6403Y-3.7566
X4.6403Y-3.9397
X4.6407Y-2.8423
X4.6639Y-2.7507
X4.7525Y-2.7074
X4.7525Y-4.0735
X4.7761Y-4.1253
X4.78Y-2.8432
X4.78Y-3.0263
X4.78Y-3.2094
X4.78Y-3.3905
X4.78Y-3.5735
X4.78Y-3.7566
X4.78Y-3.9417
X4.8017Y-2.7507
X4.8883Y-2.7074
X4.8883Y-4.0735
X4.9159Y-3.0263
X4.9159Y-3.2094
X4.9159Y-3.3885
X4.9159Y-3.5735
X4.9159Y-3.7566
X4.9161Y-4.1253
X4.9163Y-2.8423
X4.9178Y-3.9397
X4.9395Y-2.7507
X5.0527Y-4.1257
X5.2283Y-4.0256
X5.2283Y-4.061
X5.2283Y-4.0964
X5.2283Y-4.1357
X5.2421Y-3.0108
X5.2854Y-3.498
X5.4035Y-3.1813
X5.4043Y-3.2429
X5.4043Y-3.4988
X5.4047Y-4.2469
X5.4055Y-2.7285
X5.4055Y-2.4518
X5.4055Y-2.5058
X5.4055Y-2.5598
X5.4055Y-2.6138
X5.4055Y-2.6693
X5.4055Y-2.8492
X5.4055Y-2.9085
X5.4055Y-3.0453
X5.4055Y-3.3031
X5.4055Y-3.3602
X5.4055Y-3.6378
X5.4055Y-3.6949
X5.4055Y-3.7539
X5.4055Y-3.813
X5.4055Y-4.1004
X5.4055Y-4.1417
X5.4055Y-4.3574
X5.4055Y-4.4114
X5.4057Y-2.7902
X5.4073Y-3.9516
T2
X3.5755Y-3.2526
X3.5755Y-3.3028
X3.5755Y-3.353
X3.6257Y-3.2526
X3.6257Y-3.3028
X3.6257Y-3.353
X3.6759Y-3.2526
X3.6759Y-3.3028
X3.6759Y-3.353
T3
G00X3.0031Y-4.2577
M15
G01X3.0031Y-4.2144
M16
G05
G00X3.0031Y-4.4159
M15
G01X3.0031Y-4.3844
M16
G05
G00X3.3433Y-4.2577
M15
G01X3.3433Y-4.2144
M16
G05
G00X3.3433Y-4.4159
M15
G01X3.3433Y-4.3844
M16
G05
T0
M30
